<svg width="130" height="130" viewBox="0 0 130 130" fill="none" xmlns="http://www.w3.org/2000/svg">
<rect x="20.5" y="20.5" width="89" height="89" rx="44.5" fill="white"/>
<path d="M74 66V64C74 60.2288 74 58.3431 72.8284 57.1716C71.6569 56 69.7712 56 66 56H64C60.2288 56 58.3431 56 57.1716 57.1716C56 58.3431 56 60.2288 56 64V66C56 69.7712 56 71.6569 57.1716 72.8284C58.3431 74 60.2288 74 64 74H65" stroke="#669EFF" stroke-width="1.5" stroke-linecap="round"/>
<path fill-rule="evenodd" clip-rule="evenodd" d="M69.4359 61.3898C69.0988 61.149 68.6304 61.2271 68.3896 61.5641L64.4348 67.1009C64.3337 67.2424 64.2493 67.3606 64.1741 67.4617C64.1234 67.3463 64.0675 67.2123 64.0006 67.0517L63.6603 66.235C63.6544 66.2207 63.6484 66.2063 63.6424 66.192C63.5163 65.8891 63.3913 65.5889 63.2563 65.3649C63.1099 65.1218 62.8471 64.7893 62.3759 64.7181C61.9047 64.6469 61.5554 64.8869 61.3436 65.0759C61.1485 65.25 60.9404 65.4999 60.7304 65.752C60.7205 65.7639 60.7105 65.7758 60.7006 65.7878L58.4238 68.5199C58.1586 68.8381 58.2016 69.3111 58.5198 69.5762C58.838 69.8414 59.3109 69.7984 59.5761 69.4802L61.8529 66.748C61.9555 66.625 62.0408 66.5227 62.1164 66.4353C62.1628 66.5411 62.2141 66.664 62.2757 66.8119L62.616 67.6286C62.6222 67.6435 62.6284 67.6584 62.6346 67.6732C62.7712 68.0014 62.9044 68.3211 63.0465 68.5572C63.1971 68.8074 63.4747 69.1632 63.9751 69.2199C64.4755 69.2765 64.8255 68.9917 65.0283 68.7815C65.2196 68.5832 65.4208 68.3014 65.6274 68.012C65.6367 67.9989 65.6461 67.9858 65.6554 67.9727L69.6102 62.436C69.851 62.0989 69.7729 61.6305 69.4359 61.3898Z" fill="#669EFF"/>
<path d="M69 62L70.5 65" stroke="#669EFF" stroke-width="1.5" stroke-linecap="round"/>
<circle r="1.5" transform="matrix(-1 0 0 1 60.5 60.5)" fill="#669EFF"/>
<path d="M69 74V69M69 69H74M69 69L74 73" stroke="#669EFF" stroke-width="1.5" stroke-linecap="round" stroke-linejoin="round"/>
<rect x="20.5" y="20.5" width="89" height="89" rx="44.5" stroke="#83B1FF" stroke-width="41"/>
</svg>
