<svg width="26" height="24" viewBox="0 0 26 24" fill="none" xmlns="http://www.w3.org/2000/svg">
<g opacity="0.5">
<path d="M6.14917 13.9158V14.9158C5.59689 14.9158 5.14917 14.4681 5.14917 13.9158H6.14917ZM6.14917 3.20325H5.14917C5.14917 2.65096 5.59689 2.20325 6.14917 2.20325V3.20325ZM7.29606 3.20325L7.57078 4.16477C7.48144 4.1903 7.38897 4.20325 7.29606 4.20325V3.20325ZM15.7897 17.1746L14.7993 17.3132C14.7592 17.0266 14.8453 16.7367 15.0352 16.5183C15.2251 16.3 15.5003 16.1746 15.7897 16.1746V17.1746ZM7.29606 13.9158V12.9158C7.6536 12.9158 7.98394 13.1067 8.16247 13.4165L7.29606 13.9158ZM6.14917 2.20325H7.29606V4.20325H6.14917V2.20325ZM7.02134 2.24172C8.93728 1.69431 12.9525 0.573847 17.662 0.573847V2.57385C13.247 2.57385 9.45677 3.62591 7.57078 4.16477L7.02134 2.24172ZM17.662 0.573847C18.892 0.573847 19.9814 1.22928 20.8641 2.06207C21.759 2.90645 22.5523 4.03483 23.2088 5.22514C24.5058 7.57674 25.4048 10.4252 25.4048 12.2864H23.4048C23.4048 10.8888 22.6654 8.38103 21.4575 6.19104C20.8616 5.11056 20.1858 4.17181 19.4916 3.51678C18.785 2.85014 18.1651 2.57385 17.662 2.57385V0.573847ZM25.4048 12.2864C25.4048 14.2876 24.3933 15.7759 23.1964 16.7335C22.0312 17.6656 20.5945 18.1746 19.5166 18.1746V16.1746C20.068 16.1746 21.0755 15.8689 21.947 15.1717C22.7868 14.4998 23.4048 13.5441 23.4048 12.2864H25.4048ZM19.5166 18.1746C19.514 18.1746 19.5115 18.1746 19.5089 18.1746C19.5064 18.1746 19.5038 18.1746 19.5013 18.1746C19.4987 18.1746 19.4962 18.1746 19.4936 18.1746C19.4911 18.1746 19.4886 18.1746 19.486 18.1746C19.4835 18.1746 19.4809 18.1746 19.4784 18.1746C19.4758 18.1746 19.4733 18.1746 19.4707 18.1746C19.4682 18.1746 19.4656 18.1746 19.4631 18.1746C19.4605 18.1746 19.458 18.1746 19.4554 18.1746C19.4529 18.1746 19.4503 18.1746 19.4478 18.1746C19.4452 18.1746 19.4427 18.1746 19.4401 18.1746C19.4376 18.1746 19.4351 18.1746 19.4325 18.1746C19.43 18.1746 19.4274 18.1746 19.4249 18.1746C19.4223 18.1746 19.4198 18.1746 19.4172 18.1746C19.4147 18.1746 19.4121 18.1746 19.4096 18.1746C19.407 18.1746 19.4045 18.1746 19.4019 18.1746C19.3994 18.1746 19.3968 18.1746 19.3943 18.1746C19.3917 18.1746 19.3892 18.1746 19.3866 18.1746C19.3841 18.1746 19.3815 18.1746 19.379 18.1746C19.3764 18.1746 19.3739 18.1746 19.3713 18.1746C19.3688 18.1746 19.3662 18.1746 19.3637 18.1746C19.3611 18.1746 19.3586 18.1746 19.356 18.1746C19.3535 18.1746 19.3509 18.1746 19.3484 18.1746C19.3458 18.1746 19.3433 18.1746 19.3407 18.1746C19.3382 18.1746 19.3356 18.1746 19.3331 18.1746C19.3305 18.1746 19.328 18.1746 19.3254 18.1746C19.3229 18.1746 19.3203 18.1746 19.3178 18.1746C19.3152 18.1746 19.3127 18.1746 19.3101 18.1746C19.3076 18.1746 19.305 18.1746 19.3024 18.1746C19.2999 18.1746 19.2973 18.1746 19.2948 18.1746C19.2922 18.1746 19.2897 18.1746 19.2871 18.1746C19.2846 18.1746 19.282 18.1746 19.2795 18.1746C19.2769 18.1746 19.2744 18.1746 19.2718 18.1746C19.2693 18.1746 19.2667 18.1746 19.2642 18.1746C19.2616 18.1746 19.2591 18.1746 19.2565 18.1746C19.254 18.1746 19.2514 18.1746 19.2489 18.1746C19.2463 18.1746 19.2438 18.1746 19.2412 18.1746C19.2386 18.1746 19.2361 18.1746 19.2335 18.1746C19.231 18.1746 19.2284 18.1746 19.2259 18.1746C19.2233 18.1746 19.2208 18.1746 19.2182 18.1746C19.2157 18.1746 19.2131 18.1746 19.2106 18.1746C19.208 18.1746 19.2055 18.1746 19.2029 18.1746C19.2004 18.1746 19.1978 18.1746 19.1953 18.1746C19.1927 18.1746 19.1901 18.1746 19.1876 18.1746C19.185 18.1746 19.1825 18.1746 19.1799 18.1746C19.1774 18.1746 19.1748 18.1746 19.1723 18.1746C19.1697 18.1746 19.1672 18.1746 19.1646 18.1746C19.1621 18.1746 19.1595 18.1746 19.157 18.1746C19.1544 18.1746 19.1518 18.1746 19.1493 18.1746C19.1467 18.1746 19.1442 18.1746 19.1416 18.1746C19.1391 18.1746 19.1365 18.1746 19.134 18.1746C19.1314 18.1746 19.1289 18.1746 19.1263 18.1746C19.1238 18.1746 19.1212 18.1746 19.1187 18.1746C19.1161 18.1746 19.1135 18.1746 19.111 18.1746C19.1084 18.1746 19.1059 18.1746 19.1033 18.1746C19.1008 18.1746 19.0982 18.1746 19.0957 18.1746C19.0931 18.1746 19.0906 18.1746 19.088 18.1746C19.0855 18.1746 19.0829 18.1746 19.0803 18.1746C19.0778 18.1746 19.0752 18.1746 19.0727 18.1746C19.0701 18.1746 19.0676 18.1746 19.065 18.1746C19.0625 18.1746 19.0599 18.1746 19.0574 18.1746C19.0548 18.1746 19.0523 18.1746 19.0497 18.1746C19.0472 18.1746 19.0446 18.1746 19.042 18.1746C19.0395 18.1746 19.0369 18.1746 19.0344 18.1746C19.0318 18.1746 19.0293 18.1746 19.0267 18.1746C19.0242 18.1746 19.0216 18.1746 19.0191 18.1746C19.0165 18.1746 19.014 18.1746 19.0114 18.1746C19.0088 18.1746 19.0063 18.1746 19.0037 18.1746C19.0012 18.1746 18.9986 18.1746 18.9961 18.1746C18.9935 18.1746 18.991 18.1746 18.9884 18.1746C18.9859 18.1746 18.9833 18.1746 18.9808 18.1746C18.9782 18.1746 18.9757 18.1746 18.9731 18.1746C18.9705 18.1746 18.968 18.1746 18.9654 18.1746C18.9629 18.1746 18.9603 18.1746 18.9578 18.1746C18.9552 18.1746 18.9527 18.1746 18.9501 18.1746C18.9476 18.1746 18.945 18.1746 18.9425 18.1746C18.9399 18.1746 18.9374 18.1746 18.9348 18.1746C18.9322 18.1746 18.9297 18.1746 18.9271 18.1746C18.9246 18.1746 18.922 18.1746 18.9195 18.1746C18.9169 18.1746 18.9144 18.1746 18.9118 18.1746C18.9093 18.1746 18.9067 18.1746 18.9042 18.1746C18.9016 18.1746 18.8991 18.1746 18.8965 18.1746C18.894 18.1746 18.8914 18.1746 18.8888 18.1746C18.8863 18.1746 18.8837 18.1746 18.8812 18.1746C18.8786 18.1746 18.8761 18.1746 18.8735 18.1746C18.871 18.1746 18.8684 18.1746 18.8659 18.1746C18.8633 18.1746 18.8608 18.1746 18.8582 18.1746C18.8557 18.1746 18.8531 18.1746 18.8506 18.1746C18.848 18.1746 18.8455 18.1746 18.8429 18.1746C18.8403 18.1746 18.8378 18.1746 18.8352 18.1746C18.8327 18.1746 18.8301 18.1746 18.8276 18.1746C18.825 18.1746 18.8225 18.1746 18.8199 18.1746C18.8174 18.1746 18.8148 18.1746 18.8123 18.1746C18.8097 18.1746 18.8072 18.1746 18.8046 18.1746C18.8021 18.1746 18.7995 18.1746 18.797 18.1746C18.7944 18.1746 18.7919 18.1746 18.7893 18.1746C18.7868 18.1746 18.7842 18.1746 18.7817 18.1746C18.7791 18.1746 18.7766 18.1746 18.774 18.1746C18.7715 18.1746 18.7689 18.1746 18.7664 18.1746C18.7638 18.1746 18.7613 18.1746 18.7587 18.1746C18.7562 18.1746 18.7536 18.1746 18.7511 18.1746C18.7485 18.1746 18.746 18.1746 18.7434 18.1746C18.7409 18.1746 18.7383 18.1746 18.7358 18.1746C18.7332 18.1746 18.7307 18.1746 18.7281 18.1746C18.7256 18.1746 18.723 18.1746 18.7205 18.1746C18.7179 18.1746 18.7154 18.1746 18.7128 18.1746C18.7103 18.1746 18.7077 18.1746 18.7052 18.1746C18.7026 18.1746 18.7001 18.1746 18.6975 18.1746C18.695 18.1746 18.6924 18.1746 18.6899 18.1746C18.6873 18.1746 18.6848 18.1746 18.6822 18.1746C18.6797 18.1746 18.6771 18.1746 18.6746 18.1746C18.672 18.1746 18.6695 18.1746 18.6669 18.1746C18.6644 18.1746 18.6618 18.1746 18.6593 18.1746C18.6567 18.1746 18.6542 18.1746 18.6516 18.1746C18.6491 18.1746 18.6465 18.1746 18.644 18.1746C18.6414 18.1746 18.6389 18.1746 18.6364 18.1746C18.6338 18.1746 18.6313 18.1746 18.6287 18.1746C18.6262 18.1746 18.6236 18.1746 18.6211 18.1746C18.6185 18.1746 18.616 18.1746 18.6134 18.1746C18.6109 18.1746 18.6083 18.1746 18.6058 18.1746C18.6032 18.1746 18.6007 18.1746 18.5982 18.1746C18.5956 18.1746 18.5931 18.1746 18.5905 18.1746C18.588 18.1746 18.5854 18.1746 18.5829 18.1746C18.5803 18.1746 18.5778 18.1746 18.5752 18.1746C18.5727 18.1746 18.5701 18.1746 18.5676 18.1746C18.5651 18.1746 18.5625 18.1746 18.56 18.1746C18.5574 18.1746 18.5549 18.1746 18.5523 18.1746C18.5498 18.1746 18.5472 18.1746 18.5447 18.1746C18.5422 18.1746 18.5396 18.1746 18.5371 18.1746C18.5345 18.1746 18.532 18.1746 18.5294 18.1746C18.5269 18.1746 18.5243 18.1746 18.5218 18.1746C18.5193 18.1746 18.5167 18.1746 18.5142 18.1746C18.5116 18.1746 18.5091 18.1746 18.5065 18.1746C18.504 18.1746 18.5015 18.1746 18.4989 18.1746C18.4964 18.1746 18.4938 18.1746 18.4913 18.1746C18.4887 18.1746 18.4862 18.1746 18.4837 18.1746C18.4811 18.1746 18.4786 18.1746 18.476 18.1746C18.4735 18.1746 18.471 18.1746 18.4684 18.1746C18.4659 18.1746 18.4633 18.1746 18.4608 18.1746C18.4583 18.1746 18.4557 18.1746 18.4532 18.1746C18.4506 18.1746 18.4481 18.1746 18.4455 18.1746C18.443 18.1746 18.4405 18.1746 18.4379 18.1746C18.4354 18.1746 18.4328 18.1746 18.4303 18.1746C18.4278 18.1746 18.4252 18.1746 18.4227 18.1746C18.4202 18.1746 18.4176 18.1746 18.4151 18.1746C18.4125 18.1746 18.41 18.1746 18.4075 18.1746C18.4049 18.1746 18.4024 18.1746 18.3998 18.1746C18.3973 18.1746 18.3948 18.1746 18.3922 18.1746C18.3897 18.1746 18.3872 18.1746 18.3846 18.1746C18.3821 18.1746 18.3795 18.1746 18.377 18.1746C18.3745 18.1746 18.3719 18.1746 18.3694 18.1746C18.3669 18.1746 18.3643 18.1746 18.3618 18.1746C18.3592 18.1746 18.3567 18.1746 18.3542 18.1746C18.3516 18.1746 18.3491 18.1746 18.3466 18.1746C18.344 18.1746 18.3415 18.1746 18.339 18.1746C18.3364 18.1746 18.3339 18.1746 18.3314 18.1746C18.3288 18.1746 18.3263 18.1746 18.3238 18.1746C18.3212 18.1746 18.3187 18.1746 18.3162 18.1746C18.3136 18.1746 18.3111 18.1746 18.3086 18.1746C18.306 18.1746 18.3035 18.1746 18.301 18.1746C18.2984 18.1746 18.2959 18.1746 18.2934 18.1746C18.2908 18.1746 18.2883 18.1746 18.2858 18.1746C18.2832 18.1746 18.2807 18.1746 18.2782 18.1746C18.2756 18.1746 18.2731 18.1746 18.2706 18.1746C18.268 18.1746 18.2655 18.1746 18.263 18.1746C18.2604 18.1746 18.2579 18.1746 18.2554 18.1746C18.2528 18.1746 18.2503 18.1746 18.2478 18.1746C18.2453 18.1746 18.2427 18.1746 18.2402 18.1746C18.2377 18.1746 18.2351 18.1746 18.2326 18.1746C18.2301 18.1746 18.2276 18.1746 18.225 18.1746C18.2225 18.1746 18.22 18.1746 18.2174 18.1746C18.2149 18.1746 18.2124 18.1746 18.2099 18.1746C18.2073 18.1746 18.2048 18.1746 18.2023 18.1746C18.1997 18.1746 18.1972 18.1746 18.1947 18.1746C18.1922 18.1746 18.1896 18.1746 18.1871 18.1746C18.1846 18.1746 18.1821 18.1746 18.1795 18.1746C18.177 18.1746 18.1745 18.1746 18.172 18.1746C18.1694 18.1746 18.1669 18.1746 18.1644 18.1746C18.1619 18.1746 18.1593 18.1746 18.1568 18.1746C18.1543 18.1746 18.1518 18.1746 18.1492 18.1746C18.1467 18.1746 18.1442 18.1746 18.1417 18.1746C18.1391 18.1746 18.1366 18.1746 18.1341 18.1746C18.1316 18.1746 18.129 18.1746 18.1265 18.1746C18.124 18.1746 18.1215 18.1746 18.119 18.1746C18.1164 18.1746 18.1139 18.1746 18.1114 18.1746C18.1089 18.1746 18.1063 18.1746 18.1038 18.1746C18.1013 18.1746 18.0988 18.1746 18.0963 18.1746C18.0937 18.1746 18.0912 18.1746 18.0887 18.1746C18.0862 18.1746 18.0837 18.1746 18.0811 18.1746C18.0786 18.1746 18.0761 18.1746 18.0736 18.1746C18.0711 18.1746 18.0686 18.1746 18.066 18.1746C18.0635 18.1746 18.061 18.1746 18.0585 18.1746C18.056 18.1746 18.0534 18.1746 18.0509 18.1746C18.0484 18.1746 18.0459 18.1746 18.0434 18.1746C18.0409 18.1746 18.0383 18.1746 18.0358 18.1746C18.0333 18.1746 18.0308 18.1746 18.0283 18.1746C18.0258 18.1746 18.0233 18.1746 18.0207 18.1746C18.0182 18.1746 18.0157 18.1746 18.0132 18.1746C18.0107 18.1746 18.0082 18.1746 18.0057 18.1746C18.0031 18.1746 18.0006 18.1746 17.9981 18.1746C17.9956 18.1746 17.9931 18.1746 17.9906 18.1746C17.9881 18.1746 17.9856 18.1746 17.983 18.1746C17.9805 18.1746 17.978 18.1746 17.9755 18.1746C17.973 18.1746 17.9705 18.1746 17.968 18.1746C17.9655 18.1746 17.963 18.1746 17.9604 18.1746C17.9579 18.1746 17.9554 18.1746 17.9529 18.1746C17.9504 18.1746 17.9479 18.1746 17.9454 18.1746C17.9429 18.1746 17.9404 18.1746 17.9379 18.1746C17.9354 18.1746 17.9328 18.1746 17.9303 18.1746C17.9278 18.1746 17.9253 18.1746 17.9228 18.1746C17.9203 18.1746 17.9178 18.1746 17.9153 18.1746C17.9128 18.1746 17.9103 18.1746 17.9078 18.1746C17.9053 18.1746 17.9028 18.1746 17.9003 18.1746C17.8978 18.1746 17.8953 18.1746 17.8927 18.1746C17.8902 18.1746 17.8877 18.1746 17.8852 18.1746C17.8827 18.1746 17.8802 18.1746 17.8777 18.1746C17.8752 18.1746 17.8727 18.1746 17.8702 18.1746C17.8677 18.1746 17.8652 18.1746 17.8627 18.1746C17.8602 18.1746 17.8577 18.1746 17.8552 18.1746C17.8527 18.1746 17.8502 18.1746 17.8477 18.1746C17.8452 18.1746 17.8427 18.1746 17.8402 18.1746C17.8377 18.1746 17.8352 18.1746 17.8327 18.1746C17.8302 18.1746 17.8277 18.1746 17.8252 18.1746C17.8227 18.1746 17.8202 18.1746 17.8177 18.1746C17.8152 18.1746 17.8127 18.1746 17.8102 18.1746C17.8077 18.1746 17.8052 18.1746 17.8027 18.1746C17.8002 18.1746 17.7977 18.1746 17.7952 18.1746C17.7928 18.1746 17.7903 18.1746 17.7878 18.1746C17.7853 18.1746 17.7828 18.1746 17.7803 18.1746C17.7778 18.1746 17.7753 18.1746 17.7728 18.1746C17.7703 18.1746 17.7678 18.1746 17.7653 18.1746C17.7628 18.1746 17.7603 18.1746 17.7578 18.1746C17.7553 18.1746 17.7529 18.1746 17.7504 18.1746C17.7479 18.1746 17.7454 18.1746 17.7429 18.1746C17.7404 18.1746 17.7379 18.1746 17.7354 18.1746C17.7329 18.1746 17.7304 18.1746 17.728 18.1746C17.7255 18.1746 17.723 18.1746 17.7205 18.1746C17.718 18.1746 17.7155 18.1746 17.713 18.1746C17.7105 18.1746 17.708 18.1746 17.7056 18.1746C17.7031 18.1746 17.7006 18.1746 17.6981 18.1746C17.6956 18.1746 17.6931 18.1746 17.6906 18.1746C17.6882 18.1746 17.6857 18.1746 17.6832 18.1746C17.6807 18.1746 17.6782 18.1746 17.6757 18.1746C17.6733 18.1746 17.6708 18.1746 17.6683 18.1746C17.6658 18.1746 17.6633 18.1746 17.6608 18.1746C17.6584 18.1746 17.6559 18.1746 17.6534 18.1746C17.6509 18.1746 17.6484 18.1746 17.6459 18.1746C17.6435 18.1746 17.641 18.1746 17.6385 18.1746C17.636 18.1746 17.6335 18.1746 17.6311 18.1746C17.6286 18.1746 17.6261 18.1746 17.6236 18.1746C17.6212 18.1746 17.6187 18.1746 17.6162 18.1746C17.6137 18.1746 17.6112 18.1746 17.6088 18.1746C17.6063 18.1746 17.6038 18.1746 17.6013 18.1746C17.5989 18.1746 17.5964 18.1746 17.5939 18.1746C17.5914 18.1746 17.589 18.1746 17.5865 18.1746C17.584 18.1746 17.5815 18.1746 17.5791 18.1746C17.5766 18.1746 17.5741 18.1746 17.5716 18.1746C17.5692 18.1746 17.5667 18.1746 17.5642 18.1746C17.5618 18.1746 17.5593 18.1746 17.5568 18.1746C17.5543 18.1746 17.5519 18.1746 17.5494 18.1746C17.5469 18.1746 17.5445 18.1746 17.542 18.1746C17.5395 18.1746 17.5371 18.1746 17.5346 18.1746C17.5321 18.1746 17.5296 18.1746 17.5272 18.1746C17.5247 18.1746 17.5222 18.1746 17.5198 18.1746C17.5173 18.1746 17.5148 18.1746 17.5124 18.1746C17.5099 18.1746 17.5075 18.1746 17.505 18.1746C17.5025 18.1746 17.5001 18.1746 17.4976 18.1746C17.4951 18.1746 17.4927 18.1746 17.4902 18.1746C17.4877 18.1746 17.4853 18.1746 17.4828 18.1746C17.4803 18.1746 17.4779 18.1746 17.4754 18.1746C17.473 18.1746 17.4705 18.1746 17.468 18.1746C17.4656 18.1746 17.4631 18.1746 17.4607 18.1746C17.4582 18.1746 17.4557 18.1746 17.4533 18.1746C17.4508 18.1746 17.4484 18.1746 17.4459 18.1746C17.4435 18.1746 17.441 18.1746 17.4385 18.1746C17.4361 18.1746 17.4336 18.1746 17.4312 18.1746C17.4287 18.1746 17.4263 18.1746 17.4238 18.1746C17.4213 18.1746 17.4189 18.1746 17.4164 18.1746C17.414 18.1746 17.4115 18.1746 17.4091 18.1746C17.4066 18.1746 17.4042 18.1746 17.4017 18.1746C17.3993 18.1746 17.3968 18.1746 17.3944 18.1746C17.3919 18.1746 17.3895 18.1746 17.387 18.1746C17.3846 18.1746 17.3821 18.1746 17.3797 18.1746C17.3772 18.1746 17.3748 18.1746 17.3723 18.1746C17.3699 18.1746 17.3674 18.1746 17.365 18.1746C17.3625 18.1746 17.3601 18.1746 17.3576 18.1746C17.3552 18.1746 17.3527 18.1746 17.3503 18.1746C17.3478 18.1746 17.3454 18.1746 17.3429 18.1746C17.3405 18.1746 17.3381 18.1746 17.3356 18.1746C17.3332 18.1746 17.3307 18.1746 17.3283 18.1746C17.3258 18.1746 17.3234 18.1746 17.321 18.1746C17.3185 18.1746 17.3161 18.1746 17.3136 18.1746C17.3112 18.1746 17.3087 18.1746 17.3063 18.1746C17.3039 18.1746 17.3014 18.1746 17.299 18.1746C17.2966 18.1746 17.2941 18.1746 17.2917 18.1746C17.2892 18.1746 17.2868 18.1746 17.2844 18.1746C17.2819 18.1746 17.2795 18.1746 17.2771 18.1746C17.2746 18.1746 17.2722 18.1746 17.2697 18.1746C17.2673 18.1746 17.2649 18.1746 17.2624 18.1746C17.26 18.1746 17.2576 18.1746 17.2551 18.1746C17.2527 18.1746 17.2503 18.1746 17.2478 18.1746C17.2454 18.1746 17.243 18.1746 17.2405 18.1746C17.2381 18.1746 17.2357 18.1746 17.2333 18.1746C17.2308 18.1746 17.2284 18.1746 17.226 18.1746C17.2235 18.1746 17.2211 18.1746 17.2187 18.1746C17.2163 18.1746 17.2138 18.1746 17.2114 18.1746C17.209 18.1746 17.2065 18.1746 17.2041 18.1746C17.2017 18.1746 17.1993 18.1746 17.1968 18.1746C17.1944 18.1746 17.192 18.1746 17.1896 18.1746C17.1871 18.1746 17.1847 18.1746 17.1823 18.1746C17.1799 18.1746 17.1775 18.1746 17.175 18.1746C17.1726 18.1746 17.1702 18.1746 17.1678 18.1746C17.1653 18.1746 17.1629 18.1746 17.1605 18.1746C17.1581 18.1746 17.1557 18.1746 17.1533 18.1746C17.1508 18.1746 17.1484 18.1746 17.146 18.1746C17.1436 18.1746 17.1412 18.1746 17.1387 18.1746C17.1363 18.1746 17.1339 18.1746 17.1315 18.1746C17.1291 18.1746 17.1267 18.1746 17.1243 18.1746C17.1218 18.1746 17.1194 18.1746 17.117 18.1746C17.1146 18.1746 17.1122 18.1746 17.1098 18.1746C17.1074 18.1746 17.105 18.1746 17.1025 18.1746C17.1001 18.1746 17.0977 18.1746 17.0953 18.1746C17.0929 18.1746 17.0905 18.1746 17.0881 18.1746C17.0857 18.1746 17.0833 18.1746 17.0809 18.1746C17.0785 18.1746 17.076 18.1746 17.0736 18.1746C17.0712 18.1746 17.0688 18.1746 17.0664 18.1746C17.064 18.1746 17.0616 18.1746 17.0592 18.1746C17.0568 18.1746 17.0544 18.1746 17.052 18.1746C17.0496 18.1746 17.0472 18.1746 17.0448 18.1746C17.0424 18.1746 17.04 18.1746 17.0376 18.1746C17.0352 18.1746 17.0328 18.1746 17.0304 18.1746C17.028 18.1746 17.0256 18.1746 17.0232 18.1746C17.0208 18.1746 17.0184 18.1746 17.016 18.1746C17.0136 18.1746 17.0112 18.1746 17.0088 18.1746C17.0064 18.1746 17.004 18.1746 17.0016 18.1746C16.9992 18.1746 16.9968 18.1746 16.9944 18.1746C16.992 18.1746 16.9896 18.1746 16.9872 18.1746C16.9849 18.1746 16.9825 18.1746 16.9801 18.1746C16.9777 18.1746 16.9753 18.1746 16.9729 18.1746C16.9705 18.1746 16.9681 18.1746 16.9657 18.1746C16.9633 18.1746 16.961 18.1746 16.9586 18.1746C16.9562 18.1746 16.9538 18.1746 16.9514 18.1746C16.949 18.1746 16.9466 18.1746 16.9442 18.1746C16.9419 18.1746 16.9395 18.1746 16.9371 18.1746C16.9347 18.1746 16.9323 18.1746 16.9299 18.1746C16.9276 18.1746 16.9252 18.1746 16.9228 18.1746C16.9204 18.1746 16.918 18.1746 16.9156 18.1746C16.9133 18.1746 16.9109 18.1746 16.9085 18.1746C16.9061 18.1746 16.9037 18.1746 16.9014 18.1746C16.899 18.1746 16.8966 18.1746 16.8942 18.1746C16.8919 18.1746 16.8895 18.1746 16.8871 18.1746C16.8847 18.1746 16.8823 18.1746 16.88 18.1746C16.8776 18.1746 16.8752 18.1746 16.8729 18.1746C16.8705 18.1746 16.8681 18.1746 16.8657 18.1746C16.8634 18.1746 16.861 18.1746 16.8586 18.1746C16.8562 18.1746 16.8539 18.1746 16.8515 18.1746C16.8491 18.1746 16.8468 18.1746 16.8444 18.1746C16.842 18.1746 16.8397 18.1746 16.8373 18.1746C16.8349 18.1746 16.8326 18.1746 16.8302 18.1746C16.8278 18.1746 16.8255 18.1746 16.8231 18.1746C16.8207 18.1746 16.8184 18.1746 16.816 18.1746C16.8136 18.1746 16.8113 18.1746 16.8089 18.1746C16.8066 18.1746 16.8042 18.1746 16.8018 18.1746C16.7995 18.1746 16.7971 18.1746 16.7948 18.1746C16.7924 18.1746 16.79 18.1746 16.7877 18.1746C16.7853 18.1746 16.783 18.1746 16.7806 18.1746C16.7782 18.1746 16.7759 18.1746 16.7735 18.1746C16.7712 18.1746 16.7688 18.1746 16.7665 18.1746C16.7641 18.1746 16.7618 18.1746 16.7594 18.1746C16.7571 18.1746 16.7547 18.1746 16.7523 18.1746C16.75 18.1746 16.7476 18.1746 16.7453 18.1746C16.7429 18.1746 16.7406 18.1746 16.7382 18.1746C16.7359 18.1746 16.7335 18.1746 16.7312 18.1746C16.7288 18.1746 16.7265 18.1746 16.7242 18.1746C16.7218 18.1746 16.7195 18.1746 16.7171 18.1746C16.7148 18.1746 16.7124 18.1746 16.7101 18.1746C16.7077 18.1746 16.7054 18.1746 16.7031 18.1746C16.7007 18.1746 16.6984 18.1746 16.696 18.1746C16.6937 18.1746 16.6913 18.1746 16.689 18.1746C16.6867 18.1746 16.6843 18.1746 16.682 18.1746C16.6796 18.1746 16.6773 18.1746 16.675 18.1746C16.6726 18.1746 16.6703 18.1746 16.668 18.1746C16.6656 18.1746 16.6633 18.1746 16.661 18.1746C16.6586 18.1746 16.6563 18.1746 16.654 18.1746C16.6516 18.1746 16.6493 18.1746 16.647 18.1746C16.6446 18.1746 16.6423 18.1746 16.64 18.1746C16.6376 18.1746 16.6353 18.1746 16.633 18.1746C16.6306 18.1746 16.6283 18.1746 16.626 18.1746C16.6237 18.1746 16.6213 18.1746 16.619 18.1746C16.6167 18.1746 16.6144 18.1746 16.612 18.1746C16.6097 18.1746 16.6074 18.1746 16.6051 18.1746C16.6027 18.1746 16.6004 18.1746 16.5981 18.1746C16.5958 18.1746 16.5934 18.1746 16.5911 18.1746C16.5888 18.1746 16.5865 18.1746 16.5842 18.1746C16.5818 18.1746 16.5795 18.1746 16.5772 18.1746C16.5749 18.1746 16.5726 18.1746 16.5703 18.1746C16.5679 18.1746 16.5656 18.1746 16.5633 18.1746C16.561 18.1746 16.5587 18.1746 16.5564 18.1746C16.5541 18.1746 16.5517 18.1746 16.5494 18.1746C16.5471 18.1746 16.5448 18.1746 16.5425 18.1746C16.5402 18.1746 16.5379 18.1746 16.5356 18.1746C16.5333 18.1746 16.5309 18.1746 16.5286 18.1746C16.5263 18.1746 16.524 18.1746 16.5217 18.1746C16.5194 18.1746 16.5171 18.1746 16.5148 18.1746C16.5125 18.1746 16.5102 18.1746 16.5079 18.1746C16.5056 18.1746 16.5033 18.1746 16.501 18.1746C16.4987 18.1746 16.4964 18.1746 16.4941 18.1746C16.4918 18.1746 16.4895 18.1746 16.4872 18.1746C16.4849 18.1746 16.4826 18.1746 16.4803 18.1746C16.478 18.1746 16.4757 18.1746 16.4734 18.1746C16.4711 18.1746 16.4688 18.1746 16.4665 18.1746C16.4642 18.1746 16.4619 18.1746 16.4596 18.1746C16.4573 18.1746 16.455 18.1746 16.4527 18.1746C16.4504 18.1746 16.4482 18.1746 16.4459 18.1746C16.4436 18.1746 16.4413 18.1746 16.439 18.1746C16.4367 18.1746 16.4344 18.1746 16.4321 18.1746C16.4298 18.1746 16.4276 18.1746 16.4253 18.1746C16.423 18.1746 16.4207 18.1746 16.4184 18.1746C16.4161 18.1746 16.4139 18.1746 16.4116 18.1746C16.4093 18.1746 16.407 18.1746 16.4047 18.1746C16.4024 18.1746 16.4002 18.1746 16.3979 18.1746C16.3956 18.1746 16.3933 18.1746 16.391 18.1746C16.3888 18.1746 16.3865 18.1746 16.3842 18.1746C16.3819 18.1746 16.3797 18.1746 16.3774 18.1746C16.3751 18.1746 16.3728 18.1746 16.3706 18.1746C16.3683 18.1746 16.366 18.1746 16.3637 18.1746C16.3615 18.1746 16.3592 18.1746 16.3569 18.1746C16.3547 18.1746 16.3524 18.1746 16.3501 18.1746C16.3478 18.1746 16.3456 18.1746 16.3433 18.1746C16.341 18.1746 16.3388 18.1746 16.3365 18.1746C16.3342 18.1746 16.332 18.1746 16.3297 18.1746C16.3275 18.1746 16.3252 18.1746 16.3229 18.1746C16.3207 18.1746 16.3184 18.1746 16.3161 18.1746C16.3139 18.1746 16.3116 18.1746 16.3094 18.1746C16.3071 18.1746 16.3048 18.1746 16.3026 18.1746C16.3003 18.1746 16.2981 18.1746 16.2958 18.1746C16.2936 18.1746 16.2913 18.1746 16.289 18.1746C16.2868 18.1746 16.2845 18.1746 16.2823 18.1746C16.28 18.1746 16.2778 18.1746 16.2755 18.1746C16.2733 18.1746 16.271 18.1746 16.2688 18.1746C16.2665 18.1746 16.2643 18.1746 16.262 18.1746C16.2598 18.1746 16.2575 18.1746 16.2553 18.1746C16.253 18.1746 16.2508 18.1746 16.2485 18.1746C16.2463 18.1746 16.2441 18.1746 16.2418 18.1746C16.2396 18.1746 16.2373 18.1746 16.2351 18.1746C16.2328 18.1746 16.2306 18.1746 16.2284 18.1746C16.2261 18.1746 16.2239 18.1746 16.2216 18.1746C16.2194 18.1746 16.2172 18.1746 16.2149 18.1746C16.2127 18.1746 16.2105 18.1746 16.2082 18.1746C16.206 18.1746 16.2038 18.1746 16.2015 18.1746C16.1993 18.1746 16.1971 18.1746 16.1948 18.1746C16.1926 18.1746 16.1904 18.1746 16.1881 18.1746C16.1859 18.1746 16.1837 18.1746 16.1814 18.1746C16.1792 18.1746 16.177 18.1746 16.1748 18.1746C16.1725 18.1746 16.1703 18.1746 16.1681 18.1746C16.1658 18.1746 16.1636 18.1746 16.1614 18.1746C16.1592 18.1746 16.157 18.1746 16.1547 18.1746C16.1525 18.1746 16.1503 18.1746 16.1481 18.1746C16.1458 18.1746 16.1436 18.1746 16.1414 18.1746C16.1392 18.1746 16.137 18.1746 16.1348 18.1746C16.1325 18.1746 16.1303 18.1746 16.1281 18.1746C16.1259 18.1746 16.1237 18.1746 16.1215 18.1746C16.1192 18.1746 16.117 18.1746 16.1148 18.1746C16.1126 18.1746 16.1104 18.1746 16.1082 18.1746C16.106 18.1746 16.1038 18.1746 16.1016 18.1746C16.0994 18.1746 16.0971 18.1746 16.0949 18.1746C16.0927 18.1746 16.0905 18.1746 16.0883 18.1746C16.0861 18.1746 16.0839 18.1746 16.0817 18.1746C16.0795 18.1746 16.0773 18.1746 16.0751 18.1746C16.0729 18.1746 16.0707 18.1746 16.0685 18.1746C16.0663 18.1746 16.0641 18.1746 16.0619 18.1746C16.0597 18.1746 16.0575 18.1746 16.0553 18.1746C16.0531 18.1746 16.0509 18.1746 16.0487 18.1746C16.0465 18.1746 16.0443 18.1746 16.0421 18.1746C16.0399 18.1746 16.0378 18.1746 16.0356 18.1746C16.0334 18.1746 16.0312 18.1746 16.029 18.1746C16.0268 18.1746 16.0246 18.1746 16.0224 18.1746C16.0202 18.1746 16.018 18.1746 16.0159 18.1746C16.0137 18.1746 16.0115 18.1746 16.0093 18.1746C16.0071 18.1746 16.0049 18.1746 16.0028 18.1746C16.0006 18.1746 15.9984 18.1746 15.9962 18.1746C15.994 18.1746 15.9919 18.1746 15.9897 18.1746C15.9875 18.1746 15.9853 18.1746 15.9831 18.1746C15.981 18.1746 15.9788 18.1746 15.9766 18.1746C15.9744 18.1746 15.9723 18.1746 15.9701 18.1746C15.9679 18.1746 15.9657 18.1746 15.9636 18.1746C15.9614 18.1746 15.9592 18.1746 15.9571 18.1746C15.9549 18.1746 15.9527 18.1746 15.9506 18.1746C15.9484 18.1746 15.9462 18.1746 15.944 18.1746C15.9419 18.1746 15.9397 18.1746 15.9376 18.1746C15.9354 18.1746 15.9332 18.1746 15.9311 18.1746C15.9289 18.1746 15.9267 18.1746 15.9246 18.1746C15.9224 18.1746 15.9203 18.1746 15.9181 18.1746C15.9159 18.1746 15.9138 18.1746 15.9116 18.1746C15.9095 18.1746 15.9073 18.1746 15.9052 18.1746C15.903 18.1746 15.9008 18.1746 15.8987 18.1746C15.8965 18.1746 15.8944 18.1746 15.8922 18.1746C15.8901 18.1746 15.8879 18.1746 15.8858 18.1746C15.8836 18.1746 15.8815 18.1746 15.8793 18.1746C15.8772 18.1746 15.875 18.1746 15.8729 18.1746C15.8707 18.1746 15.8686 18.1746 15.8665 18.1746C15.8643 18.1746 15.8622 18.1746 15.86 18.1746C15.8579 18.1746 15.8557 18.1746 15.8536 18.1746C15.8515 18.1746 15.8493 18.1746 15.8472 18.1746C15.845 18.1746 15.8429 18.1746 15.8408 18.1746C15.8386 18.1746 15.8365 18.1746 15.8344 18.1746C15.8322 18.1746 15.8301 18.1746 15.828 18.1746C15.8258 18.1746 15.8237 18.1746 15.8216 18.1746C15.8194 18.1746 15.8173 18.1746 15.8152 18.1746C15.813 18.1746 15.8109 18.1746 15.8088 18.1746C15.8067 18.1746 15.8045 18.1746 15.8024 18.1746C15.8003 18.1746 15.7982 18.1746 15.796 18.1746C15.7939 18.1746 15.7918 18.1746 15.7897 18.1746V16.1746C15.7918 16.1746 15.7939 16.1746 15.796 16.1746C15.7982 16.1746 15.8003 16.1746 15.8024 16.1746C15.8045 16.1746 15.8067 16.1746 15.8088 16.1746C15.8109 16.1746 15.813 16.1746 15.8152 16.1746C15.8173 16.1746 15.8194 16.1746 15.8216 16.1746C15.8237 16.1746 15.8258 16.1746 15.828 16.1746C15.8301 16.1746 15.8322 16.1746 15.8344 16.1746C15.8365 16.1746 15.8386 16.1746 15.8408 16.1746C15.8429 16.1746 15.845 16.1746 15.8472 16.1746C15.8493 16.1746 15.8515 16.1746 15.8536 16.1746C15.8557 16.1746 15.8579 16.1746 15.86 16.1746C15.8622 16.1746 15.8643 16.1746 15.8665 16.1746C15.8686 16.1746 15.8707 16.1746 15.8729 16.1746C15.875 16.1746 15.8772 16.1746 15.8793 16.1746C15.8815 16.1746 15.8836 16.1746 15.8858 16.1746C15.8879 16.1746 15.8901 16.1746 15.8922 16.1746C15.8944 16.1746 15.8965 16.1746 15.8987 16.1746C15.9008 16.1746 15.903 16.1746 15.9052 16.1746C15.9073 16.1746 15.9095 16.1746 15.9116 16.1746C15.9138 16.1746 15.9159 16.1746 15.9181 16.1746C15.9203 16.1746 15.9224 16.1746 15.9246 16.1746C15.9267 16.1746 15.9289 16.1746 15.9311 16.1746C15.9332 16.1746 15.9354 16.1746 15.9376 16.1746C15.9397 16.1746 15.9419 16.1746 15.944 16.1746C15.9462 16.1746 15.9484 16.1746 15.9506 16.1746C15.9527 16.1746 15.9549 16.1746 15.9571 16.1746C15.9592 16.1746 15.9614 16.1746 15.9636 16.1746C15.9657 16.1746 15.9679 16.1746 15.9701 16.1746C15.9723 16.1746 15.9744 16.1746 15.9766 16.1746C15.9788 16.1746 15.981 16.1746 15.9831 16.1746C15.9853 16.1746 15.9875 16.1746 15.9897 16.1746C15.9919 16.1746 15.994 16.1746 15.9962 16.1746C15.9984 16.1746 16.0006 16.1746 16.0028 16.1746C16.0049 16.1746 16.0071 16.1746 16.0093 16.1746C16.0115 16.1746 16.0137 16.1746 16.0159 16.1746C16.018 16.1746 16.0202 16.1746 16.0224 16.1746C16.0246 16.1746 16.0268 16.1746 16.029 16.1746C16.0312 16.1746 16.0334 16.1746 16.0356 16.1746C16.0378 16.1746 16.0399 16.1746 16.0421 16.1746C16.0443 16.1746 16.0465 16.1746 16.0487 16.1746C16.0509 16.1746 16.0531 16.1746 16.0553 16.1746C16.0575 16.1746 16.0597 16.1746 16.0619 16.1746C16.0641 16.1746 16.0663 16.1746 16.0685 16.1746C16.0707 16.1746 16.0729 16.1746 16.0751 16.1746C16.0773 16.1746 16.0795 16.1746 16.0817 16.1746C16.0839 16.1746 16.0861 16.1746 16.0883 16.1746C16.0905 16.1746 16.0927 16.1746 16.0949 16.1746C16.0971 16.1746 16.0994 16.1746 16.1016 16.1746C16.1038 16.1746 16.106 16.1746 16.1082 16.1746C16.1104 16.1746 16.1126 16.1746 16.1148 16.1746C16.117 16.1746 16.1192 16.1746 16.1215 16.1746C16.1237 16.1746 16.1259 16.1746 16.1281 16.1746C16.1303 16.1746 16.1325 16.1746 16.1348 16.1746C16.137 16.1746 16.1392 16.1746 16.1414 16.1746C16.1436 16.1746 16.1458 16.1746 16.1481 16.1746C16.1503 16.1746 16.1525 16.1746 16.1547 16.1746C16.157 16.1746 16.1592 16.1746 16.1614 16.1746C16.1636 16.1746 16.1658 16.1746 16.1681 16.1746C16.1703 16.1746 16.1725 16.1746 16.1748 16.1746C16.177 16.1746 16.1792 16.1746 16.1814 16.1746C16.1837 16.1746 16.1859 16.1746 16.1881 16.1746C16.1904 16.1746 16.1926 16.1746 16.1948 16.1746C16.1971 16.1746 16.1993 16.1746 16.2015 16.1746C16.2038 16.1746 16.206 16.1746 16.2082 16.1746C16.2105 16.1746 16.2127 16.1746 16.2149 16.1746C16.2172 16.1746 16.2194 16.1746 16.2216 16.1746C16.2239 16.1746 16.2261 16.1746 16.2284 16.1746C16.2306 16.1746 16.2328 16.1746 16.2351 16.1746C16.2373 16.1746 16.2396 16.1746 16.2418 16.1746C16.2441 16.1746 16.2463 16.1746 16.2485 16.1746C16.2508 16.1746 16.253 16.1746 16.2553 16.1746C16.2575 16.1746 16.2598 16.1746 16.262 16.1746C16.2643 16.1746 16.2665 16.1746 16.2688 16.1746C16.271 16.1746 16.2733 16.1746 16.2755 16.1746C16.2778 16.1746 16.28 16.1746 16.2823 16.1746C16.2845 16.1746 16.2868 16.1746 16.289 16.1746C16.2913 16.1746 16.2936 16.1746 16.2958 16.1746C16.2981 16.1746 16.3003 16.1746 16.3026 16.1746C16.3048 16.1746 16.3071 16.1746 16.3094 16.1746C16.3116 16.1746 16.3139 16.1746 16.3161 16.1746C16.3184 16.1746 16.3207 16.1746 16.3229 16.1746C16.3252 16.1746 16.3275 16.1746 16.3297 16.1746C16.332 16.1746 16.3342 16.1746 16.3365 16.1746C16.3388 16.1746 16.341 16.1746 16.3433 16.1746C16.3456 16.1746 16.3478 16.1746 16.3501 16.1746C16.3524 16.1746 16.3547 16.1746 16.3569 16.1746C16.3592 16.1746 16.3615 16.1746 16.3637 16.1746C16.366 16.1746 16.3683 16.1746 16.3706 16.1746C16.3728 16.1746 16.3751 16.1746 16.3774 16.1746C16.3797 16.1746 16.3819 16.1746 16.3842 16.1746C16.3865 16.1746 16.3888 16.1746 16.391 16.1746C16.3933 16.1746 16.3956 16.1746 16.3979 16.1746C16.4002 16.1746 16.4024 16.1746 16.4047 16.1746C16.407 16.1746 16.4093 16.1746 16.4116 16.1746C16.4139 16.1746 16.4161 16.1746 16.4184 16.1746C16.4207 16.1746 16.423 16.1746 16.4253 16.1746C16.4276 16.1746 16.4298 16.1746 16.4321 16.1746C16.4344 16.1746 16.4367 16.1746 16.439 16.1746C16.4413 16.1746 16.4436 16.1746 16.4459 16.1746C16.4482 16.1746 16.4504 16.1746 16.4527 16.1746C16.455 16.1746 16.4573 16.1746 16.4596 16.1746C16.4619 16.1746 16.4642 16.1746 16.4665 16.1746C16.4688 16.1746 16.4711 16.1746 16.4734 16.1746C16.4757 16.1746 16.478 16.1746 16.4803 16.1746C16.4826 16.1746 16.4849 16.1746 16.4872 16.1746C16.4895 16.1746 16.4918 16.1746 16.4941 16.1746C16.4964 16.1746 16.4987 16.1746 16.501 16.1746C16.5033 16.1746 16.5056 16.1746 16.5079 16.1746C16.5102 16.1746 16.5125 16.1746 16.5148 16.1746C16.5171 16.1746 16.5194 16.1746 16.5217 16.1746C16.524 16.1746 16.5263 16.1746 16.5286 16.1746C16.5309 16.1746 16.5333 16.1746 16.5356 16.1746C16.5379 16.1746 16.5402 16.1746 16.5425 16.1746C16.5448 16.1746 16.5471 16.1746 16.5494 16.1746C16.5517 16.1746 16.5541 16.1746 16.5564 16.1746C16.5587 16.1746 16.561 16.1746 16.5633 16.1746C16.5656 16.1746 16.5679 16.1746 16.5703 16.1746C16.5726 16.1746 16.5749 16.1746 16.5772 16.1746C16.5795 16.1746 16.5818 16.1746 16.5842 16.1746C16.5865 16.1746 16.5888 16.1746 16.5911 16.1746C16.5934 16.1746 16.5958 16.1746 16.5981 16.1746C16.6004 16.1746 16.6027 16.1746 16.6051 16.1746C16.6074 16.1746 16.6097 16.1746 16.612 16.1746C16.6144 16.1746 16.6167 16.1746 16.619 16.1746C16.6213 16.1746 16.6237 16.1746 16.626 16.1746C16.6283 16.1746 16.6306 16.1746 16.633 16.1746C16.6353 16.1746 16.6376 16.1746 16.64 16.1746C16.6423 16.1746 16.6446 16.1746 16.647 16.1746C16.6493 16.1746 16.6516 16.1746 16.654 16.1746C16.6563 16.1746 16.6586 16.1746 16.661 16.1746C16.6633 16.1746 16.6656 16.1746 16.668 16.1746C16.6703 16.1746 16.6726 16.1746 16.675 16.1746C16.6773 16.1746 16.6796 16.1746 16.682 16.1746C16.6843 16.1746 16.6867 16.1746 16.689 16.1746C16.6913 16.1746 16.6937 16.1746 16.696 16.1746C16.6984 16.1746 16.7007 16.1746 16.7031 16.1746C16.7054 16.1746 16.7077 16.1746 16.7101 16.1746C16.7124 16.1746 16.7148 16.1746 16.7171 16.1746C16.7195 16.1746 16.7218 16.1746 16.7242 16.1746C16.7265 16.1746 16.7288 16.1746 16.7312 16.1746C16.7335 16.1746 16.7359 16.1746 16.7382 16.1746C16.7406 16.1746 16.7429 16.1746 16.7453 16.1746C16.7476 16.1746 16.75 16.1746 16.7523 16.1746C16.7547 16.1746 16.7571 16.1746 16.7594 16.1746C16.7618 16.1746 16.7641 16.1746 16.7665 16.1746C16.7688 16.1746 16.7712 16.1746 16.7735 16.1746C16.7759 16.1746 16.7782 16.1746 16.7806 16.1746C16.783 16.1746 16.7853 16.1746 16.7877 16.1746C16.79 16.1746 16.7924 16.1746 16.7948 16.1746C16.7971 16.1746 16.7995 16.1746 16.8018 16.1746C16.8042 16.1746 16.8066 16.1746 16.8089 16.1746C16.8113 16.1746 16.8136 16.1746 16.816 16.1746C16.8184 16.1746 16.8207 16.1746 16.8231 16.1746C16.8255 16.1746 16.8278 16.1746 16.8302 16.1746C16.8326 16.1746 16.8349 16.1746 16.8373 16.1746C16.8397 16.1746 16.842 16.1746 16.8444 16.1746C16.8468 16.1746 16.8491 16.1746 16.8515 16.1746C16.8539 16.1746 16.8562 16.1746 16.8586 16.1746C16.861 16.1746 16.8634 16.1746 16.8657 16.1746C16.8681 16.1746 16.8705 16.1746 16.8729 16.1746C16.8752 16.1746 16.8776 16.1746 16.88 16.1746C16.8823 16.1746 16.8847 16.1746 16.8871 16.1746C16.8895 16.1746 16.8919 16.1746 16.8942 16.1746C16.8966 16.1746 16.899 16.1746 16.9014 16.1746C16.9037 16.1746 16.9061 16.1746 16.9085 16.1746C16.9109 16.1746 16.9133 16.1746 16.9156 16.1746C16.918 16.1746 16.9204 16.1746 16.9228 16.1746C16.9252 16.1746 16.9276 16.1746 16.9299 16.1746C16.9323 16.1746 16.9347 16.1746 16.9371 16.1746C16.9395 16.1746 16.9419 16.1746 16.9442 16.1746C16.9466 16.1746 16.949 16.1746 16.9514 16.1746C16.9538 16.1746 16.9562 16.1746 16.9586 16.1746C16.961 16.1746 16.9633 16.1746 16.9657 16.1746C16.9681 16.1746 16.9705 16.1746 16.9729 16.1746C16.9753 16.1746 16.9777 16.1746 16.9801 16.1746C16.9825 16.1746 16.9849 16.1746 16.9872 16.1746C16.9896 16.1746 16.992 16.1746 16.9944 16.1746C16.9968 16.1746 16.9992 16.1746 17.0016 16.1746C17.004 16.1746 17.0064 16.1746 17.0088 16.1746C17.0112 16.1746 17.0136 16.1746 17.016 16.1746C17.0184 16.1746 17.0208 16.1746 17.0232 16.1746C17.0256 16.1746 17.028 16.1746 17.0304 16.1746C17.0328 16.1746 17.0352 16.1746 17.0376 16.1746C17.04 16.1746 17.0424 16.1746 17.0448 16.1746C17.0472 16.1746 17.0496 16.1746 17.052 16.1746C17.0544 16.1746 17.0568 16.1746 17.0592 16.1746C17.0616 16.1746 17.064 16.1746 17.0664 16.1746C17.0688 16.1746 17.0712 16.1746 17.0736 16.1746C17.076 16.1746 17.0785 16.1746 17.0809 16.1746C17.0833 16.1746 17.0857 16.1746 17.0881 16.1746C17.0905 16.1746 17.0929 16.1746 17.0953 16.1746C17.0977 16.1746 17.1001 16.1746 17.1025 16.1746C17.105 16.1746 17.1074 16.1746 17.1098 16.1746C17.1122 16.1746 17.1146 16.1746 17.117 16.1746C17.1194 16.1746 17.1218 16.1746 17.1243 16.1746C17.1267 16.1746 17.1291 16.1746 17.1315 16.1746C17.1339 16.1746 17.1363 16.1746 17.1387 16.1746C17.1412 16.1746 17.1436 16.1746 17.146 16.1746C17.1484 16.1746 17.1508 16.1746 17.1533 16.1746C17.1557 16.1746 17.1581 16.1746 17.1605 16.1746C17.1629 16.1746 17.1653 16.1746 17.1678 16.1746C17.1702 16.1746 17.1726 16.1746 17.175 16.1746C17.1775 16.1746 17.1799 16.1746 17.1823 16.1746C17.1847 16.1746 17.1871 16.1746 17.1896 16.1746C17.192 16.1746 17.1944 16.1746 17.1968 16.1746C17.1993 16.1746 17.2017 16.1746 17.2041 16.1746C17.2065 16.1746 17.209 16.1746 17.2114 16.1746C17.2138 16.1746 17.2163 16.1746 17.2187 16.1746C17.2211 16.1746 17.2235 16.1746 17.226 16.1746C17.2284 16.1746 17.2308 16.1746 17.2333 16.1746C17.2357 16.1746 17.2381 16.1746 17.2405 16.1746C17.243 16.1746 17.2454 16.1746 17.2478 16.1746C17.2503 16.1746 17.2527 16.1746 17.2551 16.1746C17.2576 16.1746 17.26 16.1746 17.2624 16.1746C17.2649 16.1746 17.2673 16.1746 17.2697 16.1746C17.2722 16.1746 17.2746 16.1746 17.2771 16.1746C17.2795 16.1746 17.2819 16.1746 17.2844 16.1746C17.2868 16.1746 17.2892 16.1746 17.2917 16.1746C17.2941 16.1746 17.2966 16.1746 17.299 16.1746C17.3014 16.1746 17.3039 16.1746 17.3063 16.1746C17.3087 16.1746 17.3112 16.1746 17.3136 16.1746C17.3161 16.1746 17.3185 16.1746 17.321 16.1746C17.3234 16.1746 17.3258 16.1746 17.3283 16.1746C17.3307 16.1746 17.3332 16.1746 17.3356 16.1746C17.3381 16.1746 17.3405 16.1746 17.3429 16.1746C17.3454 16.1746 17.3478 16.1746 17.3503 16.1746C17.3527 16.1746 17.3552 16.1746 17.3576 16.1746C17.3601 16.1746 17.3625 16.1746 17.365 16.1746C17.3674 16.1746 17.3699 16.1746 17.3723 16.1746C17.3748 16.1746 17.3772 16.1746 17.3797 16.1746C17.3821 16.1746 17.3846 16.1746 17.387 16.1746C17.3895 16.1746 17.3919 16.1746 17.3944 16.1746C17.3968 16.1746 17.3993 16.1746 17.4017 16.1746C17.4042 16.1746 17.4066 16.1746 17.4091 16.1746C17.4115 16.1746 17.414 16.1746 17.4164 16.1746C17.4189 16.1746 17.4213 16.1746 17.4238 16.1746C17.4263 16.1746 17.4287 16.1746 17.4312 16.1746C17.4336 16.1746 17.4361 16.1746 17.4385 16.1746C17.441 16.1746 17.4435 16.1746 17.4459 16.1746C17.4484 16.1746 17.4508 16.1746 17.4533 16.1746C17.4557 16.1746 17.4582 16.1746 17.4607 16.1746C17.4631 16.1746 17.4656 16.1746 17.468 16.1746C17.4705 16.1746 17.473 16.1746 17.4754 16.1746C17.4779 16.1746 17.4803 16.1746 17.4828 16.1746C17.4853 16.1746 17.4877 16.1746 17.4902 16.1746C17.4927 16.1746 17.4951 16.1746 17.4976 16.1746C17.5001 16.1746 17.5025 16.1746 17.505 16.1746C17.5075 16.1746 17.5099 16.1746 17.5124 16.1746C17.5148 16.1746 17.5173 16.1746 17.5198 16.1746C17.5222 16.1746 17.5247 16.1746 17.5272 16.1746C17.5296 16.1746 17.5321 16.1746 17.5346 16.1746C17.5371 16.1746 17.5395 16.1746 17.542 16.1746C17.5445 16.1746 17.5469 16.1746 17.5494 16.1746C17.5519 16.1746 17.5543 16.1746 17.5568 16.1746C17.5593 16.1746 17.5618 16.1746 17.5642 16.1746C17.5667 16.1746 17.5692 16.1746 17.5716 16.1746C17.5741 16.1746 17.5766 16.1746 17.5791 16.1746C17.5815 16.1746 17.584 16.1746 17.5865 16.1746C17.589 16.1746 17.5914 16.1746 17.5939 16.1746C17.5964 16.1746 17.5989 16.1746 17.6013 16.1746C17.6038 16.1746 17.6063 16.1746 17.6088 16.1746C17.6112 16.1746 17.6137 16.1746 17.6162 16.1746C17.6187 16.1746 17.6212 16.1746 17.6236 16.1746C17.6261 16.1746 17.6286 16.1746 17.6311 16.1746C17.6335 16.1746 17.636 16.1746 17.6385 16.1746C17.641 16.1746 17.6435 16.1746 17.6459 16.1746C17.6484 16.1746 17.6509 16.1746 17.6534 16.1746C17.6559 16.1746 17.6584 16.1746 17.6608 16.1746C17.6633 16.1746 17.6658 16.1746 17.6683 16.1746C17.6708 16.1746 17.6733 16.1746 17.6757 16.1746C17.6782 16.1746 17.6807 16.1746 17.6832 16.1746C17.6857 16.1746 17.6882 16.1746 17.6906 16.1746C17.6931 16.1746 17.6956 16.1746 17.6981 16.1746C17.7006 16.1746 17.7031 16.1746 17.7056 16.1746C17.708 16.1746 17.7105 16.1746 17.713 16.1746C17.7155 16.1746 17.718 16.1746 17.7205 16.1746C17.723 16.1746 17.7255 16.1746 17.728 16.1746C17.7304 16.1746 17.7329 16.1746 17.7354 16.1746C17.7379 16.1746 17.7404 16.1746 17.7429 16.1746C17.7454 16.1746 17.7479 16.1746 17.7504 16.1746C17.7529 16.1746 17.7553 16.1746 17.7578 16.1746C17.7603 16.1746 17.7628 16.1746 17.7653 16.1746C17.7678 16.1746 17.7703 16.1746 17.7728 16.1746C17.7753 16.1746 17.7778 16.1746 17.7803 16.1746C17.7828 16.1746 17.7853 16.1746 17.7878 16.1746C17.7903 16.1746 17.7928 16.1746 17.7952 16.1746C17.7977 16.1746 17.8002 16.1746 17.8027 16.1746C17.8052 16.1746 17.8077 16.1746 17.8102 16.1746C17.8127 16.1746 17.8152 16.1746 17.8177 16.1746C17.8202 16.1746 17.8227 16.1746 17.8252 16.1746C17.8277 16.1746 17.8302 16.1746 17.8327 16.1746C17.8352 16.1746 17.8377 16.1746 17.8402 16.1746C17.8427 16.1746 17.8452 16.1746 17.8477 16.1746C17.8502 16.1746 17.8527 16.1746 17.8552 16.1746C17.8577 16.1746 17.8602 16.1746 17.8627 16.1746C17.8652 16.1746 17.8677 16.1746 17.8702 16.1746C17.8727 16.1746 17.8752 16.1746 17.8777 16.1746C17.8802 16.1746 17.8827 16.1746 17.8852 16.1746C17.8877 16.1746 17.8902 16.1746 17.8927 16.1746C17.8953 16.1746 17.8978 16.1746 17.9003 16.1746C17.9028 16.1746 17.9053 16.1746 17.9078 16.1746C17.9103 16.1746 17.9128 16.1746 17.9153 16.1746C17.9178 16.1746 17.9203 16.1746 17.9228 16.1746C17.9253 16.1746 17.9278 16.1746 17.9303 16.1746C17.9328 16.1746 17.9354 16.1746 17.9379 16.1746C17.9404 16.1746 17.9429 16.1746 17.9454 16.1746C17.9479 16.1746 17.9504 16.1746 17.9529 16.1746C17.9554 16.1746 17.9579 16.1746 17.9604 16.1746C17.963 16.1746 17.9655 16.1746 17.968 16.1746C17.9705 16.1746 17.973 16.1746 17.9755 16.1746C17.978 16.1746 17.9805 16.1746 17.983 16.1746C17.9856 16.1746 17.9881 16.1746 17.9906 16.1746C17.9931 16.1746 17.9956 16.1746 17.9981 16.1746C18.0006 16.1746 18.0031 16.1746 18.0057 16.1746C18.0082 16.1746 18.0107 16.1746 18.0132 16.1746C18.0157 16.1746 18.0182 16.1746 18.0207 16.1746C18.0233 16.1746 18.0258 16.1746 18.0283 16.1746C18.0308 16.1746 18.0333 16.1746 18.0358 16.1746C18.0383 16.1746 18.0409 16.1746 18.0434 16.1746C18.0459 16.1746 18.0484 16.1746 18.0509 16.1746C18.0534 16.1746 18.056 16.1746 18.0585 16.1746C18.061 16.1746 18.0635 16.1746 18.066 16.1746C18.0686 16.1746 18.0711 16.1746 18.0736 16.1746C18.0761 16.1746 18.0786 16.1746 18.0811 16.1746C18.0837 16.1746 18.0862 16.1746 18.0887 16.1746C18.0912 16.1746 18.0937 16.1746 18.0963 16.1746C18.0988 16.1746 18.1013 16.1746 18.1038 16.1746C18.1063 16.1746 18.1089 16.1746 18.1114 16.1746C18.1139 16.1746 18.1164 16.1746 18.119 16.1746C18.1215 16.1746 18.124 16.1746 18.1265 16.1746C18.129 16.1746 18.1316 16.1746 18.1341 16.1746C18.1366 16.1746 18.1391 16.1746 18.1417 16.1746C18.1442 16.1746 18.1467 16.1746 18.1492 16.1746C18.1518 16.1746 18.1543 16.1746 18.1568 16.1746C18.1593 16.1746 18.1619 16.1746 18.1644 16.1746C18.1669 16.1746 18.1694 16.1746 18.172 16.1746C18.1745 16.1746 18.177 16.1746 18.1795 16.1746C18.1821 16.1746 18.1846 16.1746 18.1871 16.1746C18.1896 16.1746 18.1922 16.1746 18.1947 16.1746C18.1972 16.1746 18.1997 16.1746 18.2023 16.1746C18.2048 16.1746 18.2073 16.1746 18.2099 16.1746C18.2124 16.1746 18.2149 16.1746 18.2174 16.1746C18.22 16.1746 18.2225 16.1746 18.225 16.1746C18.2276 16.1746 18.2301 16.1746 18.2326 16.1746C18.2351 16.1746 18.2377 16.1746 18.2402 16.1746C18.2427 16.1746 18.2453 16.1746 18.2478 16.1746C18.2503 16.1746 18.2528 16.1746 18.2554 16.1746C18.2579 16.1746 18.2604 16.1746 18.263 16.1746C18.2655 16.1746 18.268 16.1746 18.2706 16.1746C18.2731 16.1746 18.2756 16.1746 18.2782 16.1746C18.2807 16.1746 18.2832 16.1746 18.2858 16.1746C18.2883 16.1746 18.2908 16.1746 18.2934 16.1746C18.2959 16.1746 18.2984 16.1746 18.301 16.1746C18.3035 16.1746 18.306 16.1746 18.3086 16.1746C18.3111 16.1746 18.3136 16.1746 18.3162 16.1746C18.3187 16.1746 18.3212 16.1746 18.3238 16.1746C18.3263 16.1746 18.3288 16.1746 18.3314 16.1746C18.3339 16.1746 18.3364 16.1746 18.339 16.1746C18.3415 16.1746 18.344 16.1746 18.3466 16.1746C18.3491 16.1746 18.3516 16.1746 18.3542 16.1746C18.3567 16.1746 18.3592 16.1746 18.3618 16.1746C18.3643 16.1746 18.3669 16.1746 18.3694 16.1746C18.3719 16.1746 18.3745 16.1746 18.377 16.1746C18.3795 16.1746 18.3821 16.1746 18.3846 16.1746C18.3872 16.1746 18.3897 16.1746 18.3922 16.1746C18.3948 16.1746 18.3973 16.1746 18.3998 16.1746C18.4024 16.1746 18.4049 16.1746 18.4075 16.1746C18.41 16.1746 18.4125 16.1746 18.4151 16.1746C18.4176 16.1746 18.4202 16.1746 18.4227 16.1746C18.4252 16.1746 18.4278 16.1746 18.4303 16.1746C18.4328 16.1746 18.4354 16.1746 18.4379 16.1746C18.4405 16.1746 18.443 16.1746 18.4455 16.1746C18.4481 16.1746 18.4506 16.1746 18.4532 16.1746C18.4557 16.1746 18.4583 16.1746 18.4608 16.1746C18.4633 16.1746 18.4659 16.1746 18.4684 16.1746C18.471 16.1746 18.4735 16.1746 18.476 16.1746C18.4786 16.1746 18.4811 16.1746 18.4837 16.1746C18.4862 16.1746 18.4887 16.1746 18.4913 16.1746C18.4938 16.1746 18.4964 16.1746 18.4989 16.1746C18.5015 16.1746 18.504 16.1746 18.5065 16.1746C18.5091 16.1746 18.5116 16.1746 18.5142 16.1746C18.5167 16.1746 18.5193 16.1746 18.5218 16.1746C18.5243 16.1746 18.5269 16.1746 18.5294 16.1746C18.532 16.1746 18.5345 16.1746 18.5371 16.1746C18.5396 16.1746 18.5422 16.1746 18.5447 16.1746C18.5472 16.1746 18.5498 16.1746 18.5523 16.1746C18.5549 16.1746 18.5574 16.1746 18.56 16.1746C18.5625 16.1746 18.5651 16.1746 18.5676 16.1746C18.5701 16.1746 18.5727 16.1746 18.5752 16.1746C18.5778 16.1746 18.5803 16.1746 18.5829 16.1746C18.5854 16.1746 18.588 16.1746 18.5905 16.1746C18.5931 16.1746 18.5956 16.1746 18.5982 16.1746C18.6007 16.1746 18.6032 16.1746 18.6058 16.1746C18.6083 16.1746 18.6109 16.1746 18.6134 16.1746C18.616 16.1746 18.6185 16.1746 18.6211 16.1746C18.6236 16.1746 18.6262 16.1746 18.6287 16.1746C18.6313 16.1746 18.6338 16.1746 18.6364 16.1746C18.6389 16.1746 18.6414 16.1746 18.644 16.1746C18.6465 16.1746 18.6491 16.1746 18.6516 16.1746C18.6542 16.1746 18.6567 16.1746 18.6593 16.1746C18.6618 16.1746 18.6644 16.1746 18.6669 16.1746C18.6695 16.1746 18.672 16.1746 18.6746 16.1746C18.6771 16.1746 18.6797 16.1746 18.6822 16.1746C18.6848 16.1746 18.6873 16.1746 18.6899 16.1746C18.6924 16.1746 18.695 16.1746 18.6975 16.1746C18.7001 16.1746 18.7026 16.1746 18.7052 16.1746C18.7077 16.1746 18.7103 16.1746 18.7128 16.1746C18.7154 16.1746 18.7179 16.1746 18.7205 16.1746C18.723 16.1746 18.7256 16.1746 18.7281 16.1746C18.7307 16.1746 18.7332 16.1746 18.7358 16.1746C18.7383 16.1746 18.7409 16.1746 18.7434 16.1746C18.746 16.1746 18.7485 16.1746 18.7511 16.1746C18.7536 16.1746 18.7562 16.1746 18.7587 16.1746C18.7613 16.1746 18.7638 16.1746 18.7664 16.1746C18.7689 16.1746 18.7715 16.1746 18.774 16.1746C18.7766 16.1746 18.7791 16.1746 18.7817 16.1746C18.7842 16.1746 18.7868 16.1746 18.7893 16.1746C18.7919 16.1746 18.7944 16.1746 18.797 16.1746C18.7995 16.1746 18.8021 16.1746 18.8046 16.1746C18.8072 16.1746 18.8097 16.1746 18.8123 16.1746C18.8148 16.1746 18.8174 16.1746 18.8199 16.1746C18.8225 16.1746 18.825 16.1746 18.8276 16.1746C18.8301 16.1746 18.8327 16.1746 18.8352 16.1746C18.8378 16.1746 18.8403 16.1746 18.8429 16.1746C18.8455 16.1746 18.848 16.1746 18.8506 16.1746C18.8531 16.1746 18.8557 16.1746 18.8582 16.1746C18.8608 16.1746 18.8633 16.1746 18.8659 16.1746C18.8684 16.1746 18.871 16.1746 18.8735 16.1746C18.8761 16.1746 18.8786 16.1746 18.8812 16.1746C18.8837 16.1746 18.8863 16.1746 18.8888 16.1746C18.8914 16.1746 18.894 16.1746 18.8965 16.1746C18.8991 16.1746 18.9016 16.1746 18.9042 16.1746C18.9067 16.1746 18.9093 16.1746 18.9118 16.1746C18.9144 16.1746 18.9169 16.1746 18.9195 16.1746C18.922 16.1746 18.9246 16.1746 18.9271 16.1746C18.9297 16.1746 18.9322 16.1746 18.9348 16.1746C18.9374 16.1746 18.9399 16.1746 18.9425 16.1746C18.945 16.1746 18.9476 16.1746 18.9501 16.1746C18.9527 16.1746 18.9552 16.1746 18.9578 16.1746C18.9603 16.1746 18.9629 16.1746 18.9654 16.1746C18.968 16.1746 18.9705 16.1746 18.9731 16.1746C18.9757 16.1746 18.9782 16.1746 18.9808 16.1746C18.9833 16.1746 18.9859 16.1746 18.9884 16.1746C18.991 16.1746 18.9935 16.1746 18.9961 16.1746C18.9986 16.1746 19.0012 16.1746 19.0037 16.1746C19.0063 16.1746 19.0088 16.1746 19.0114 16.1746C19.014 16.1746 19.0165 16.1746 19.0191 16.1746C19.0216 16.1746 19.0242 16.1746 19.0267 16.1746C19.0293 16.1746 19.0318 16.1746 19.0344 16.1746C19.0369 16.1746 19.0395 16.1746 19.042 16.1746C19.0446 16.1746 19.0472 16.1746 19.0497 16.1746C19.0523 16.1746 19.0548 16.1746 19.0574 16.1746C19.0599 16.1746 19.0625 16.1746 19.065 16.1746C19.0676 16.1746 19.0701 16.1746 19.0727 16.1746C19.0752 16.1746 19.0778 16.1746 19.0803 16.1746C19.0829 16.1746 19.0855 16.1746 19.088 16.1746C19.0906 16.1746 19.0931 16.1746 19.0957 16.1746C19.0982 16.1746 19.1008 16.1746 19.1033 16.1746C19.1059 16.1746 19.1084 16.1746 19.111 16.1746C19.1135 16.1746 19.1161 16.1746 19.1187 16.1746C19.1212 16.1746 19.1238 16.1746 19.1263 16.1746C19.1289 16.1746 19.1314 16.1746 19.134 16.1746C19.1365 16.1746 19.1391 16.1746 19.1416 16.1746C19.1442 16.1746 19.1467 16.1746 19.1493 16.1746C19.1518 16.1746 19.1544 16.1746 19.157 16.1746C19.1595 16.1746 19.1621 16.1746 19.1646 16.1746C19.1672 16.1746 19.1697 16.1746 19.1723 16.1746C19.1748 16.1746 19.1774 16.1746 19.1799 16.1746C19.1825 16.1746 19.185 16.1746 19.1876 16.1746C19.1901 16.1746 19.1927 16.1746 19.1953 16.1746C19.1978 16.1746 19.2004 16.1746 19.2029 16.1746C19.2055 16.1746 19.208 16.1746 19.2106 16.1746C19.2131 16.1746 19.2157 16.1746 19.2182 16.1746C19.2208 16.1746 19.2233 16.1746 19.2259 16.1746C19.2284 16.1746 19.231 16.1746 19.2335 16.1746C19.2361 16.1746 19.2386 16.1746 19.2412 16.1746C19.2438 16.1746 19.2463 16.1746 19.2489 16.1746C19.2514 16.1746 19.254 16.1746 19.2565 16.1746C19.2591 16.1746 19.2616 16.1746 19.2642 16.1746C19.2667 16.1746 19.2693 16.1746 19.2718 16.1746C19.2744 16.1746 19.2769 16.1746 19.2795 16.1746C19.282 16.1746 19.2846 16.1746 19.2871 16.1746C19.2897 16.1746 19.2922 16.1746 19.2948 16.1746C19.2973 16.1746 19.2999 16.1746 19.3024 16.1746C19.305 16.1746 19.3076 16.1746 19.3101 16.1746C19.3127 16.1746 19.3152 16.1746 19.3178 16.1746C19.3203 16.1746 19.3229 16.1746 19.3254 16.1746C19.328 16.1746 19.3305 16.1746 19.3331 16.1746C19.3356 16.1746 19.3382 16.1746 19.3407 16.1746C19.3433 16.1746 19.3458 16.1746 19.3484 16.1746C19.3509 16.1746 19.3535 16.1746 19.356 16.1746C19.3586 16.1746 19.3611 16.1746 19.3637 16.1746C19.3662 16.1746 19.3688 16.1746 19.3713 16.1746C19.3739 16.1746 19.3764 16.1746 19.379 16.1746C19.3815 16.1746 19.3841 16.1746 19.3866 16.1746C19.3892 16.1746 19.3917 16.1746 19.3943 16.1746C19.3968 16.1746 19.3994 16.1746 19.4019 16.1746C19.4045 16.1746 19.407 16.1746 19.4096 16.1746C19.4121 16.1746 19.4147 16.1746 19.4172 16.1746C19.4198 16.1746 19.4223 16.1746 19.4249 16.1746C19.4274 16.1746 19.43 16.1746 19.4325 16.1746C19.4351 16.1746 19.4376 16.1746 19.4401 16.1746C19.4427 16.1746 19.4452 16.1746 19.4478 16.1746C19.4503 16.1746 19.4529 16.1746 19.4554 16.1746C19.458 16.1746 19.4605 16.1746 19.4631 16.1746C19.4656 16.1746 19.4682 16.1746 19.4707 16.1746C19.4733 16.1746 19.4758 16.1746 19.4784 16.1746C19.4809 16.1746 19.4835 16.1746 19.486 16.1746C19.4886 16.1746 19.4911 16.1746 19.4936 16.1746C19.4962 16.1746 19.4987 16.1746 19.5013 16.1746C19.5038 16.1746 19.5064 16.1746 19.5089 16.1746C19.5115 16.1746 19.514 16.1746 19.5166 16.1746V18.1746ZM6.14917 12.9158H7.29606V14.9158H6.14917V12.9158ZM8.16247 13.4165L12.8202 21.4984L11.0874 22.497L6.42965 14.4152L8.16247 13.4165ZM13.6866 21.999H14.3051V23.999H13.6866V21.999ZM15.2955 20.8605L14.7993 17.3132L16.78 17.0361L17.2762 20.5834L15.2955 20.8605ZM5.14917 13.9158V3.20325H7.14917V13.9158H5.14917ZM14.3051 21.999C14.9125 21.999 15.3796 21.462 15.2955 20.8605L17.2762 20.5834C17.5286 22.388 16.1273 23.999 14.3051 23.999V21.999ZM12.8202 21.4984C12.9987 21.8081 13.3291 21.999 13.6866 21.999V23.999C12.614 23.999 11.623 23.4263 11.0874 22.497L12.8202 21.4984Z" fill="#80AEFF"/>
<path d="M1 14.3425C1 15.7643 2.15265 16.917 3.57451 16.917V16.917C4.99637 16.917 6.14901 15.7643 6.14901 14.3425V3.57637C6.14901 2.15451 4.99637 1.00186 3.57451 1.00186V1.00186C2.15265 1.00186 1 2.15451 1 3.57637V14.3425Z" stroke="#80AEFF" stroke-width="2" stroke-linejoin="round"/>
</g>
</svg>
