<svg width="69" height="32" viewBox="0 0 69 32" fill="none" xmlns="http://www.w3.org/2000/svg">
<mask id="path-1-inside-1_1157_401" fill="white">
<path d="M0.648199 6.80993C0.438467 6.72596 0.218863 6.69238 -1.68893e-06 6.7108C0.0181715 6.82579 0.0363448 6.94474 0.0575469 7.06369C0.078749 7.18264 0.0969222 7.30159 0.118124 7.42054C0.190024 7.92415 0.241591 8.43238 0.272612 8.9431C0.293814 9.24048 0.318045 9.54182 0.348334 9.83919C0.457373 10.878 0.502806 11.8851 0.548239 13.0112C0.587622 13.9945 0.6482 14.9937 0.708777 15.9612C0.760268 16.7859 0.811767 17.6106 0.851142 18.4353C0.887488 19.5535 0.938979 20.6795 1.00259 21.7858C1.05408 22.5351 1.12375 23.2925 1.20856 24.03L1.20856 24.1053C1.20856 24.2004 1.22977 24.2837 1.23582 24.367C1.53872 24.3154 1.84162 24.2441 2.09908 24.1806L2.46861 24.0894C3.00935 23.9415 3.55665 23.8382 4.10728 23.7802C4.18907 23.7802 4.27085 23.7802 4.35264 23.7524C4.57964 23.714 4.80911 23.7073 5.03718 23.7326C5.35071 23.7968 5.6563 23.9155 5.94587 24.0855C6.1968 24.2353 6.46152 24.3419 6.73341 24.4027L6.76369 24.4027C7.65565 24.5937 8.56257 24.635 9.46251 24.5256C9.59882 24.4978 9.7442 24.4582 9.89565 24.4185C10.2375 24.3127 10.5865 24.2516 10.9376 24.2361C11.1828 24.2289 11.4265 24.2897 11.6525 24.4146L11.8584 24.5414C12.0358 24.6707 12.2266 24.7656 12.4248 24.823C12.5933 24.8481 12.7637 24.8414 12.9307 24.8031C13.0402 24.7847 13.1504 24.7741 13.2608 24.7714C13.5092 24.7714 13.7576 24.7714 13.9969 24.8071C14.2364 24.8385 14.4771 24.8505 14.7178 24.8428C15.5165 24.808 16.316 24.8624 17.1076 25.0053C17.7996 25.1063 18.4953 25.1579 19.1916 25.16C19.5884 25.16 20.0003 25.16 20.4032 25.2076C21.009 25.2512 21.9903 25.3225 22.4901 26.0481C22.5578 26.1561 22.6092 26.2799 22.6416 26.4129C22.6598 26.4768 22.6832 26.5379 22.7112 26.5953C22.7401 26.6168 22.7721 26.6303 22.8051 26.635C22.9086 26.6563 23.0064 26.7108 23.0899 26.7936C23.1861 26.9036 23.2716 27.0288 23.3443 27.1663C23.3967 27.2698 23.4577 27.3656 23.526 27.4517C23.901 27.8665 24.323 28.2023 24.777 28.447C25.1619 28.6461 25.5754 28.7327 25.9886 28.7007C26.1478 28.6914 26.3065 28.6716 26.4641 28.6413C26.8054 28.5625 27.1539 28.5545 27.497 28.6175C27.7728 28.7156 28.0284 28.893 28.2452 29.1369C28.3824 29.2815 28.533 29.4027 28.6935 29.4977C28.7752 29.5466 28.8641 29.5719 28.9539 29.5719C29.0438 29.5719 29.1327 29.5466 29.2144 29.4977L29.3295 29.4501C29.4465 29.4043 29.5679 29.3803 29.69 29.3787C30.0504 29.4126 30.3874 29.6253 30.632 29.9735C30.7077 30.0568 30.7865 30.14 30.8713 30.2233C31.5437 30.8854 32.0314 31.3652 32.8401 31.3731C33.1088 31.3838 33.3729 31.4675 33.6155 31.619C33.7442 31.6888 33.8757 31.7497 34.0093 31.8014C34.4189 31.9391 34.8405 32.0058 35.2633 31.9996C35.9194 31.9778 36.5734 31.8929 37.22 31.7459C37.4472 31.7081 37.6757 31.6856 37.9046 31.6784C38.1501 31.6705 38.395 31.6414 38.6376 31.5912C39.1023 31.4399 39.5233 31.1148 39.8492 30.6555L40.1127 30.3581C40.561 29.8664 40.9608 29.6365 41.3576 29.7356C41.4825 29.7667 41.6024 29.8257 41.712 29.9101C41.7701 29.9594 41.832 30.0006 41.8968 30.033C42.1446 30.0934 42.3959 30.1265 42.6479 30.1321L42.7055 30.1321C43.1264 30.0854 43.5371 29.9375 43.9171 29.6959C44.0504 29.6246 44.1806 29.5532 44.3048 29.4937C44.538 29.3867 44.7682 29.2717 44.9984 29.1607C45.4316 28.9466 45.8799 28.7245 46.3312 28.5302C46.8428 28.322 47.3651 28.1616 47.8941 28.0505C48.3612 27.9551 48.8235 27.8227 49.2784 27.654C49.4086 27.5985 49.5237 27.5429 49.6327 27.4874C49.8912 27.3349 50.1679 27.2424 50.4506 27.2138C51.0228 27.1959 51.5944 27.2786 52.1498 27.4597C52.3952 27.5271 52.6496 27.5985 52.9101 27.646C53.4257 27.7135 53.945 27.7161 54.4609 27.654C54.8991 27.605 55.3394 27.5957 55.7785 27.6262C56.0545 27.6419 56.3309 27.6299 56.6054 27.5905C56.7872 27.5905 56.9659 27.5509 57.1476 27.5469L57.187 27.5469C57.4624 27.5591 57.7354 27.6191 57.9988 27.7253C58.1472 27.7769 58.3017 27.8245 58.438 27.8562C58.7212 27.9303 58.9933 28.0642 59.2437 28.2527C59.4197 28.3847 59.6067 28.4898 59.801 28.5659C59.9875 28.6237 60.1789 28.649 60.3705 28.6412L60.74 28.6412C60.85 28.6334 60.9602 28.6334 61.0701 28.6412L61.1731 28.6412C61.3722 28.6496 61.5696 28.6909 61.7608 28.7642C61.8796 28.8326 61.9883 28.9279 62.0818 29.0457C62.1367 29.1207 62.1988 29.186 62.2666 29.24C62.5812 29.4068 62.9095 29.5252 63.245 29.5928L63.6993 29.7197C63.9336 29.7982 64.1446 29.9667 64.3051 30.2035C64.3595 30.2841 64.4182 30.3596 64.4808 30.4295C64.7658 30.678 65.0814 30.8604 65.4137 30.9687C65.678 31.0562 65.9499 31.0975 66.2224 31.0916C66.486 31.0916 66.7586 31.0639 67.0191 31.0361L67.3219 31.0044C67.7173 30.9765 68.1138 31.0098 68.5032 31.1035C68.5764 30.9872 68.6412 30.8625 68.6971 30.7308L68.7607 30.6039C68.8243 30.477 69 30.1083 69 29.9497C68.9404 29.806 68.8671 29.6728 68.7819 29.5532L68.7183 29.458C68.5273 29.2356 68.4108 28.9237 68.3942 28.5897C68.383 28.2768 68.3962 27.9633 68.4336 27.654C68.4905 27.2588 68.477 26.8517 68.3942 26.4645C68.2836 26.1334 68.1355 25.8259 67.955 25.5525C67.8975 25.4613 67.8429 25.3662 67.7884 25.271C67.5545 24.7822 67.4287 24.2181 67.4249 23.6414L67.4249 23.5224C67.3702 22.9199 67.348 22.3131 67.3583 21.7064C67.381 21.3225 67.4235 20.941 67.4855 20.5645C67.5188 20.3583 67.5491 20.168 67.5734 19.942L67.6006 19.7239C67.646 19.3274 67.6915 18.9309 67.7127 18.5344C67.7214 17.9236 67.6726 17.3137 67.5673 16.7185L67.5249 16.4132C67.5235 16.3868 67.5235 16.3603 67.5249 16.3339C67.5249 16.3339 67.4916 16.2665 67.4825 16.2585C67.4066 16.1844 67.3277 16.1155 67.2462 16.0524C67.0756 15.9295 66.9212 15.7715 66.7888 15.5845C66.3072 14.8906 66.3375 14.1174 66.4102 13.3879C66.4678 12.809 66.486 12.2499 66.5041 11.6552C66.5041 11.3419 66.5223 11.0287 66.5405 10.7115C66.5662 10.1344 66.5662 9.55586 66.5405 8.97878C66.5405 8.76863 66.5405 8.55056 66.5253 8.33248C66.5306 7.95186 66.5123 7.57131 66.4708 7.19453C66.4708 7.11919 66.4375 7.08747 66.3284 6.97248C66.0809 6.76679 65.9031 6.44464 65.8317 6.07243C65.8007 5.75018 65.8362 5.42293 65.9347 5.12479L65.971 5.01377C66.0649 4.47587 66.2115 3.95612 66.4072 3.46742C66.52 3.26774 66.6154 3.05232 66.6919 2.82509L66.7343 2.70614C66.7968 2.54721 66.8456 2.37964 66.8797 2.20655C66.828 2.17338 66.7784 2.13493 66.7313 2.09156C66.6383 2.02738 66.5552 1.94136 66.486 1.8378C66.3665 1.62021 66.2764 1.37749 66.2194 1.12013L66.2012 1.0448C66.0611 1.07499 65.9192 1.08958 65.7772 1.08842C65.4864 1.09088 65.1996 1.00109 64.9412 0.826724C64.786 0.721215 64.6389 0.596404 64.502 0.454014C64.3534 0.286309 64.1845 0.152295 64.0022 0.0575129C63.6341 -0.0517381 63.2489 -0.00451594 62.9027 0.192322C62.5407 0.377421 62.1509 0.450692 61.7638 0.406434C61.6261 0.374627 61.4905 0.32957 61.3579 0.271624C61.2129 0.201198 61.0609 0.158467 60.9066 0.144744L60.8763 0.144744C60.4398 0.195558 60.0079 0.299087 59.586 0.454015C59.0984 0.665948 58.6534 1.01821 58.2835 1.48492C58.0957 1.68713 57.9018 1.88142 57.6928 2.07967C57.482 2.26181 57.2335 2.35456 56.981 2.34532C56.7297 2.33294 56.4799 2.28643 56.2359 2.20655C56.0609 2.14868 55.8826 2.10891 55.7028 2.0876C55.3208 2.10766 54.9489 2.25359 54.6215 2.51185C54.2562 2.78647 53.8482 2.94915 53.428 2.98766C53.2599 2.98678 53.0931 2.94926 52.9343 2.87663C52.7719 2.79327 52.6174 2.68549 52.4739 2.55547C52.3384 2.42437 52.1853 2.32755 52.0226 2.26999C51.5622 2.13121 51.2108 2.44445 50.7868 2.88456C50.705 2.97179 50.6262 3.06696 50.5475 3.16212C50.3289 3.48013 50.0529 3.7214 49.7448 3.86392C49.2991 3.9828 48.8396 3.9828 48.3939 3.86392C47.6464 3.67948 46.8765 3.72153 46.1434 3.98684L45.9283 4.05821C45.4245 4.27883 44.888 4.3413 44.3623 4.2406C44.0068 4.09282 43.6714 3.87199 43.3688 3.58637C43.1961 3.44082 43.0171 3.30844 42.8327 3.18987C42.2471 2.85185 41.6387 2.58636 41.0153 2.39687C40.3829 2.20373 39.7647 1.93838 39.1676 1.60387L38.686 1.2946C37.95 0.806902 37.1716 0.30731 36.4083 0.402471C35.8509 0.477806 35.4632 0.870342 35.0119 1.33028C34.8847 1.45716 34.7575 1.58801 34.6242 1.72678C33.9106 2.44006 33.1039 2.97748 32.2434 3.31279C31.4639 3.54026 30.6699 3.67299 29.8717 3.70929C29.2628 3.74549 28.656 3.82757 28.0543 3.95512C27.4383 4.12093 26.8312 4.33947 26.237 4.60934C25.875 4.78848 25.4937 4.89153 25.1072 4.91465C24.7005 4.93049 24.305 4.73852 24.0046 4.37938C23.9355 4.28851 23.8544 4.21464 23.7653 4.1613C23.4624 4.03838 22.9566 4.29611 22.6143 4.48247L22.4962 4.54591C20.8121 5.45389 19.2703 6.21121 17.4832 6.30637C17.2954 6.30637 17.1076 6.33809 16.9168 6.35791C16.6503 6.38964 16.3746 6.42135 16.102 6.42135L16.0233 6.42135C15.871 6.41492 15.7192 6.39505 15.5689 6.36188C15.3757 6.31004 15.1774 6.298 14.9813 6.32619C14.4297 6.46529 13.8955 6.70416 13.3941 7.03593C13.2336 7.13109 13.0912 7.22625 12.9277 7.30952C12.2444 7.73036 11.5162 8.01247 10.768 8.14613C9.98652 8.26508 9.51401 7.5831 9.06572 6.93284C8.81161 6.47691 8.46548 6.12267 8.06615 5.90987C7.90505 5.85447 7.73898 5.8278 7.57243 5.83057C7.41189 5.83057 7.26953 5.83057 7.09688 5.86229C7.00803 5.86229 6.92019 5.87022 6.83336 5.88608C6.4675 5.90033 6.10142 5.8698 5.7399 5.79489C5.48708 5.74392 5.23223 5.71214 4.97661 5.69972L4.89785 5.69972C4.43863 5.70568 3.98252 5.79918 3.5439 5.97728C3.36712 6.057 3.19987 6.16914 3.04714 6.31034C2.9219 6.41572 2.79249 6.51233 2.65944 6.59978C2.02899 6.97841 1.31654 7.05285 0.648199 6.80993Z"/>
</mask>
<path d="M0.648199 6.80993C0.438467 6.72596 0.218863 6.69238 -1.68893e-06 6.7108C0.0181715 6.82579 0.0363448 6.94474 0.0575469 7.06369C0.078749 7.18264 0.0969222 7.30159 0.118124 7.42054C0.190024 7.92415 0.241591 8.43238 0.272612 8.9431C0.293814 9.24048 0.318045 9.54182 0.348334 9.83919C0.457373 10.878 0.502806 11.8851 0.548239 13.0112C0.587622 13.9945 0.6482 14.9937 0.708777 15.9612C0.760268 16.7859 0.811767 17.6106 0.851142 18.4353C0.887488 19.5535 0.938979 20.6795 1.00259 21.7858C1.05408 22.5351 1.12375 23.2925 1.20856 24.03L1.20856 24.1053C1.20856 24.2004 1.22977 24.2837 1.23582 24.367C1.53872 24.3154 1.84162 24.2441 2.09908 24.1806L2.46861 24.0894C3.00935 23.9415 3.55665 23.8382 4.10728 23.7802C4.18907 23.7802 4.27085 23.7802 4.35264 23.7524C4.57964 23.714 4.80911 23.7073 5.03718 23.7326C5.35071 23.7968 5.6563 23.9155 5.94587 24.0855C6.1968 24.2353 6.46152 24.3419 6.73341 24.4027L6.76369 24.4027C7.65565 24.5937 8.56257 24.635 9.46251 24.5256C9.59882 24.4978 9.7442 24.4582 9.89565 24.4185C10.2375 24.3127 10.5865 24.2516 10.9376 24.2361C11.1828 24.2289 11.4265 24.2897 11.6525 24.4146L11.8584 24.5414C12.0358 24.6707 12.2266 24.7656 12.4248 24.823C12.5933 24.8481 12.7637 24.8414 12.9307 24.8031C13.0402 24.7847 13.1504 24.7741 13.2608 24.7714C13.5092 24.7714 13.7576 24.7714 13.9969 24.8071C14.2364 24.8385 14.4771 24.8505 14.7178 24.8428C15.5165 24.808 16.316 24.8624 17.1076 25.0053C17.7996 25.1063 18.4953 25.1579 19.1916 25.16C19.5884 25.16 20.0003 25.16 20.4032 25.2076C21.009 25.2512 21.9903 25.3225 22.4901 26.0481C22.5578 26.1561 22.6092 26.2799 22.6416 26.4129C22.6598 26.4768 22.6832 26.5379 22.7112 26.5953C22.7401 26.6168 22.7721 26.6303 22.8051 26.635C22.9086 26.6563 23.0064 26.7108 23.0899 26.7936C23.1861 26.9036 23.2716 27.0288 23.3443 27.1663C23.3967 27.2698 23.4577 27.3656 23.526 27.4517C23.901 27.8665 24.323 28.2023 24.777 28.447C25.1619 28.6461 25.5754 28.7327 25.9886 28.7007C26.1478 28.6914 26.3065 28.6716 26.4641 28.6413C26.8054 28.5625 27.1539 28.5545 27.497 28.6175C27.7728 28.7156 28.0284 28.893 28.2452 29.1369C28.3824 29.2815 28.533 29.4027 28.6935 29.4977C28.7752 29.5466 28.8641 29.5719 28.9539 29.5719C29.0438 29.5719 29.1327 29.5466 29.2144 29.4977L29.3295 29.4501C29.4465 29.4043 29.5679 29.3803 29.69 29.3787C30.0504 29.4126 30.3874 29.6253 30.632 29.9735C30.7077 30.0568 30.7865 30.14 30.8713 30.2233C31.5437 30.8854 32.0314 31.3652 32.8401 31.3731C33.1088 31.3838 33.3729 31.4675 33.6155 31.619C33.7442 31.6888 33.8757 31.7497 34.0093 31.8014C34.4189 31.9391 34.8405 32.0058 35.2633 31.9996C35.9194 31.9778 36.5734 31.8929 37.22 31.7459C37.4472 31.7081 37.6757 31.6856 37.9046 31.6784C38.1501 31.6705 38.395 31.6414 38.6376 31.5912C39.1023 31.4399 39.5233 31.1148 39.8492 30.6555L40.1127 30.3581C40.561 29.8664 40.9608 29.6365 41.3576 29.7356C41.4825 29.7667 41.6024 29.8257 41.712 29.9101C41.7701 29.9594 41.832 30.0006 41.8968 30.033C42.1446 30.0934 42.3959 30.1265 42.6479 30.1321L42.7055 30.1321C43.1264 30.0854 43.5371 29.9375 43.9171 29.6959C44.0504 29.6246 44.1806 29.5532 44.3048 29.4937C44.538 29.3867 44.7682 29.2717 44.9984 29.1607C45.4316 28.9466 45.8799 28.7245 46.3312 28.5302C46.8428 28.322 47.3651 28.1616 47.8941 28.0505C48.3612 27.9551 48.8235 27.8227 49.2784 27.654C49.4086 27.5985 49.5237 27.5429 49.6327 27.4874C49.8912 27.3349 50.1679 27.2424 50.4506 27.2138C51.0228 27.1959 51.5944 27.2786 52.1498 27.4597C52.3952 27.5271 52.6496 27.5985 52.9101 27.646C53.4257 27.7135 53.945 27.7161 54.4609 27.654C54.8991 27.605 55.3394 27.5957 55.7785 27.6262C56.0545 27.6419 56.3309 27.6299 56.6054 27.5905C56.7872 27.5905 56.9659 27.5509 57.1476 27.5469L57.187 27.5469C57.4624 27.5591 57.7354 27.6191 57.9988 27.7253C58.1472 27.7769 58.3017 27.8245 58.438 27.8562C58.7212 27.9303 58.9933 28.0642 59.2437 28.2527C59.4197 28.3847 59.6067 28.4898 59.801 28.5659C59.9875 28.6237 60.1789 28.649 60.3705 28.6412L60.74 28.6412C60.85 28.6334 60.9602 28.6334 61.0701 28.6412L61.1731 28.6412C61.3722 28.6496 61.5696 28.6909 61.7608 28.7642C61.8796 28.8326 61.9883 28.9279 62.0818 29.0457C62.1367 29.1207 62.1988 29.186 62.2666 29.24C62.5812 29.4068 62.9095 29.5252 63.245 29.5928L63.6993 29.7197C63.9336 29.7982 64.1446 29.9667 64.3051 30.2035C64.3595 30.2841 64.4182 30.3596 64.4808 30.4295C64.7658 30.678 65.0814 30.8604 65.4137 30.9687C65.678 31.0562 65.9499 31.0975 66.2224 31.0916C66.486 31.0916 66.7586 31.0639 67.0191 31.0361L67.3219 31.0044C67.7173 30.9765 68.1138 31.0098 68.5032 31.1035C68.5764 30.9872 68.6412 30.8625 68.6971 30.7308L68.7607 30.6039C68.8243 30.477 69 30.1083 69 29.9497C68.9404 29.806 68.8671 29.6728 68.7819 29.5532L68.7183 29.458C68.5273 29.2356 68.4108 28.9237 68.3942 28.5897C68.383 28.2768 68.3962 27.9633 68.4336 27.654C68.4905 27.2588 68.477 26.8517 68.3942 26.4645C68.2836 26.1334 68.1355 25.8259 67.955 25.5525C67.8975 25.4613 67.8429 25.3662 67.7884 25.271C67.5545 24.7822 67.4287 24.2181 67.4249 23.6414L67.4249 23.5224C67.3702 22.9199 67.348 22.3131 67.3583 21.7064C67.381 21.3225 67.4235 20.941 67.4855 20.5645C67.5188 20.3583 67.5491 20.168 67.5734 19.942L67.6006 19.7239C67.646 19.3274 67.6915 18.9309 67.7127 18.5344C67.7214 17.9236 67.6726 17.3137 67.5673 16.7185L67.5249 16.4132C67.5235 16.3868 67.5235 16.3603 67.5249 16.3339C67.5249 16.3339 67.4916 16.2665 67.4825 16.2585C67.4066 16.1844 67.3277 16.1155 67.2462 16.0524C67.0756 15.9295 66.9212 15.7715 66.7888 15.5845C66.3072 14.8906 66.3375 14.1174 66.4102 13.3879C66.4678 12.809 66.486 12.2499 66.5041 11.6552C66.5041 11.3419 66.5223 11.0287 66.5405 10.7115C66.5662 10.1344 66.5662 9.55586 66.5405 8.97878C66.5405 8.76863 66.5405 8.55056 66.5253 8.33248C66.5306 7.95186 66.5123 7.57131 66.4708 7.19453C66.4708 7.11919 66.4375 7.08747 66.3284 6.97248C66.0809 6.76679 65.9031 6.44464 65.8317 6.07243C65.8007 5.75018 65.8362 5.42293 65.9347 5.12479L65.971 5.01377C66.0649 4.47587 66.2115 3.95612 66.4072 3.46742C66.52 3.26774 66.6154 3.05232 66.6919 2.82509L66.7343 2.70614C66.7968 2.54721 66.8456 2.37964 66.8797 2.20655C66.828 2.17338 66.7784 2.13493 66.7313 2.09156C66.6383 2.02738 66.5552 1.94136 66.486 1.8378C66.3665 1.62021 66.2764 1.37749 66.2194 1.12013L66.2012 1.0448C66.0611 1.07499 65.9192 1.08958 65.7772 1.08842C65.4864 1.09088 65.1996 1.00109 64.9412 0.826724C64.786 0.721215 64.6389 0.596404 64.502 0.454014C64.3534 0.286309 64.1845 0.152295 64.0022 0.0575129C63.6341 -0.0517381 63.2489 -0.00451594 62.9027 0.192322C62.5407 0.377421 62.1509 0.450692 61.7638 0.406434C61.6261 0.374627 61.4905 0.32957 61.3579 0.271624C61.2129 0.201198 61.0609 0.158467 60.9066 0.144744L60.8763 0.144744C60.4398 0.195558 60.0079 0.299087 59.586 0.454015C59.0984 0.665948 58.6534 1.01821 58.2835 1.48492C58.0957 1.68713 57.9018 1.88142 57.6928 2.07967C57.482 2.26181 57.2335 2.35456 56.981 2.34532C56.7297 2.33294 56.4799 2.28643 56.2359 2.20655C56.0609 2.14868 55.8826 2.10891 55.7028 2.0876C55.3208 2.10766 54.9489 2.25359 54.6215 2.51185C54.2562 2.78647 53.8482 2.94915 53.428 2.98766C53.2599 2.98678 53.0931 2.94926 52.9343 2.87663C52.7719 2.79327 52.6174 2.68549 52.4739 2.55547C52.3384 2.42437 52.1853 2.32755 52.0226 2.26999C51.5622 2.13121 51.2108 2.44445 50.7868 2.88456C50.705 2.97179 50.6262 3.06696 50.5475 3.16212C50.3289 3.48013 50.0529 3.7214 49.7448 3.86392C49.2991 3.9828 48.8396 3.9828 48.3939 3.86392C47.6464 3.67948 46.8765 3.72153 46.1434 3.98684L45.9283 4.05821C45.4245 4.27883 44.888 4.3413 44.3623 4.2406C44.0068 4.09282 43.6714 3.87199 43.3688 3.58637C43.1961 3.44082 43.0171 3.30844 42.8327 3.18987C42.2471 2.85185 41.6387 2.58636 41.0153 2.39687C40.3829 2.20373 39.7647 1.93838 39.1676 1.60387L38.686 1.2946C37.95 0.806902 37.1716 0.30731 36.4083 0.402471C35.8509 0.477806 35.4632 0.870342 35.0119 1.33028C34.8847 1.45716 34.7575 1.58801 34.6242 1.72678C33.9106 2.44006 33.1039 2.97748 32.2434 3.31279C31.4639 3.54026 30.6699 3.67299 29.8717 3.70929C29.2628 3.74549 28.656 3.82757 28.0543 3.95512C27.4383 4.12093 26.8312 4.33947 26.237 4.60934C25.875 4.78848 25.4937 4.89153 25.1072 4.91465C24.7005 4.93049 24.305 4.73852 24.0046 4.37938C23.9355 4.28851 23.8544 4.21464 23.7653 4.1613C23.4624 4.03838 22.9566 4.29611 22.6143 4.48247L22.4962 4.54591C20.8121 5.45389 19.2703 6.21121 17.4832 6.30637C17.2954 6.30637 17.1076 6.33809 16.9168 6.35791C16.6503 6.38964 16.3746 6.42135 16.102 6.42135L16.0233 6.42135C15.871 6.41492 15.7192 6.39505 15.5689 6.36188C15.3757 6.31004 15.1774 6.298 14.9813 6.32619C14.4297 6.46529 13.8955 6.70416 13.3941 7.03593C13.2336 7.13109 13.0912 7.22625 12.9277 7.30952C12.2444 7.73036 11.5162 8.01247 10.768 8.14613C9.98652 8.26508 9.51401 7.5831 9.06572 6.93284C8.81161 6.47691 8.46548 6.12267 8.06615 5.90987C7.90505 5.85447 7.73898 5.8278 7.57243 5.83057C7.41189 5.83057 7.26953 5.83057 7.09688 5.86229C7.00803 5.86229 6.92019 5.87022 6.83336 5.88608C6.4675 5.90033 6.10142 5.8698 5.7399 5.79489C5.48708 5.74392 5.23223 5.71214 4.97661 5.69972L4.89785 5.69972C4.43863 5.70568 3.98252 5.79918 3.5439 5.97728C3.36712 6.057 3.19987 6.16914 3.04714 6.31034C2.9219 6.41572 2.79249 6.51233 2.65944 6.59978C2.02899 6.97841 1.31654 7.05285 0.648199 6.80993Z" fill="#84BCFF" stroke="#599DED" stroke-width="2" mask="url(#path-1-inside-1_1157_401)"/>
<mask id="path-2-inside-2_1157_401" fill="white">
<path d="M0.118308 7.43248C0.1902 7.93609 0.241767 8.44432 0.272788 8.95504C0.29399 9.25241 0.318221 9.55375 0.34851 9.85113C0.457549 10.89 0.502982 11.8971 0.548415 13.0231C0.587798 14.0065 0.648376 15.0056 0.708953 15.9731C0.760444 16.7978 0.811943 17.6225 0.851318 18.4473C0.887664 19.5654 0.939155 20.6915 1.00276 21.7977C1.05426 22.5471 1.12392 23.3044 1.20874 24.0419L1.20874 24.1172C1.20874 24.2124 1.22994 24.2956 1.236 24.3789C1.53889 24.3274 1.8418 24.256 2.09926 24.1926L2.1356 24.1926C2.05079 23.8873 1.96295 23.5819 1.86905 23.2806C1.78008 22.7597 1.76877 22.2212 1.83573 21.6946C1.81957 21.1774 1.86871 20.6603 1.98112 20.1641C2.07509 19.7617 2.25476 19.4027 2.49908 19.1292C2.67966 18.9682 2.84894 18.7864 3.00491 18.586C3.26541 18.2332 3.56831 17.9635 3.80154 17.5789C4.25588 16.8295 4.64359 16.3894 5.37358 16.211C5.69664 16.1338 6.01039 16.0004 6.3065 15.8145C6.5182 15.6669 6.70798 15.4708 6.86686 15.2356C7.25457 14.7558 7.79978 14.2325 8.35105 14.2285C8.64844 14.2694 8.94059 14.36 9.22037 14.4981C9.53302 14.5188 9.84483 14.4399 10.1291 14.2681C10.5986 14.058 10.9953 13.6774 11.4618 13.4751C12.034 13.253 12.644 13.2613 13.2126 13.4989C14.0788 13.7884 14.7634 14.4664 15.5812 14.8827C15.9542 15.0298 16.3429 15.0967 16.7322 15.081C17.3198 15.1404 17.862 15.4299 18.4527 15.4537C18.67 15.4874 18.8896 15.4874 19.1069 15.4537C19.5249 15.3268 19.9187 14.8629 20.2731 14.5853C21.2787 13.7923 22.5327 13.8994 23.6716 14.0263C24.2458 14.1022 24.8155 14.2281 25.3769 14.403C25.7343 14.5021 26.0736 14.4981 26.431 14.5576C27.0641 14.6646 27.4003 15.3982 28 15.5845C28.6633 15.7867 28.7633 14.7915 29.0177 14.2245C29.2924 13.5611 29.7151 13.0231 30.2293 12.6821C30.6806 12.3927 31.0774 11.9724 31.5166 11.6552C31.9325 11.3692 32.3368 11.0555 32.7282 10.7155C33.4673 10.0494 34.5456 10.2238 35.3968 10.319C35.8675 10.3267 36.3376 10.3664 36.8052 10.4379C37.119 10.569 37.4183 10.7529 37.6957 10.9851C37.9623 11.1675 38.1955 11.3816 38.45 11.5878C38.6859 11.7312 38.9288 11.8543 39.1769 11.9565C39.6737 12.242 39.9342 12.8566 40.4824 13.0311C40.902 13.1477 41.3384 13.1037 41.7394 12.9042C42.533 12.5275 43.1873 11.1437 44.1353 11.4728C44.5624 11.6195 44.9501 12.1072 45.3469 12.353C45.7437 12.5989 46.1981 12.8328 46.6221 13.0786C47.0462 13.3245 47.3854 13.4751 47.7822 13.6655C48.1645 13.8367 48.5167 14.1063 48.8181 14.4585C49.4027 15.0374 49.9177 15.6202 50.5234 14.9977C50.9869 14.5259 51.4321 14.0302 51.8865 13.5386C52.1943 13.1337 52.5917 12.866 53.0223 12.7733C53.4282 12.7178 53.5676 12.8685 53.8977 13.1341C54.0774 13.3207 54.2888 13.4477 54.514 13.5043C54.7391 13.5609 54.9714 13.5454 55.1911 13.4593C56.0998 13.1341 56.9267 12.1667 57.9172 12.0953C58.523 12.0557 59.053 12.5513 59.6164 12.7495C60.1192 12.92 60.6705 12.9081 61.1612 13.146C61.5399 13.3854 61.9089 13.6501 62.2668 13.939C62.7773 14.2688 63.257 14.6746 63.6964 15.1484C64.1495 15.6253 64.6618 15.9968 65.2109 16.2467C65.7319 16.4965 66.1832 16.5203 66.5709 17.0793C67.1525 17.9199 67.3827 18.9706 67.5554 20.0531L67.5735 19.9302L67.6008 19.724C67.6462 19.3275 67.6917 18.931 67.7129 18.5345C67.7216 17.9236 67.6728 17.3137 67.5675 16.7185L67.5251 16.4132C67.5236 16.3868 67.5236 16.3603 67.5251 16.3339C67.5251 16.3339 67.4918 16.2665 67.4827 16.2586C67.4068 16.1844 67.3279 16.1156 67.2464 16.0524C67.0758 15.9295 66.9214 15.7715 66.789 15.5845C66.3074 14.8906 66.3377 14.1175 66.4104 13.3879C66.468 12.809 66.4861 12.25 66.5043 11.6552C66.5043 11.342 66.5225 11.0287 66.5407 10.7115C66.5664 10.1345 66.5664 9.5559 66.5407 8.97882C66.5407 8.76868 66.5407 8.5506 66.5255 8.33252C66.5308 7.9519 66.5125 7.57135 66.471 7.19457C66.471 7.11923 66.4377 7.08751 66.3286 6.97253C66.0811 6.76682 65.9033 6.44468 65.8319 6.07247C65.8008 5.75022 65.8364 5.42297 65.9349 5.12483L65.9712 5.01382C66.0651 4.47592 66.2117 3.95616 66.4074 3.46746C66.5201 3.26779 66.6156 3.05236 66.6921 2.82513L66.7345 2.70618C66.797 2.54725 66.8458 2.37968 66.8799 2.20659C66.8282 2.17342 66.7786 2.13497 66.7315 2.0916C66.6385 2.02742 66.5553 1.94141 66.4861 1.83784C66.3667 1.62025 66.2765 1.37753 66.2196 1.12018L66.2014 1.04484C66.0613 1.07504 65.9194 1.08963 65.7774 1.08846C65.4866 1.09093 65.1998 1.00113 64.9414 0.826765C64.7862 0.721257 64.6391 0.596447 64.5022 0.454058C64.3536 0.286353 64.1847 0.152338 64.0024 0.0575566C63.6342 -0.0516925 63.2491 -0.00447222 62.9029 0.192366C62.5409 0.377463 62.1511 0.450734 61.764 0.406476C61.6263 0.374669 61.4907 0.329612 61.3581 0.271668C61.2131 0.201241 61.0611 0.158509 60.9068 0.144788L60.8765 0.144788C60.44 0.195599 60.008 0.29913 59.5861 0.454059C59.0986 0.665992 58.6535 1.01826 58.2837 1.48496C58.0959 1.68717 57.902 1.88146 57.693 2.07971C57.4822 2.26185 57.2337 2.3546 56.9812 2.34536C56.7298 2.33298 56.4801 2.28648 56.2361 2.20659C56.061 2.14873 55.8828 2.10895 55.703 2.08764C55.321 2.10771 54.9491 2.25363 54.6216 2.5119C54.2564 2.78652 53.8484 2.9492 53.4282 2.9877C53.2601 2.98682 53.0932 2.9493 52.9345 2.87668C52.7721 2.79332 52.6176 2.68554 52.4741 2.55551C52.3385 2.42441 52.1855 2.32759 52.0228 2.27003C51.5624 2.13126 51.211 2.44449 50.787 2.88461C50.7052 2.97184 50.6264 3.067 50.5477 3.16216C50.3291 3.48017 50.0531 3.72144 49.745 3.86396C49.2993 3.98284 48.8398 3.98284 48.3941 3.86396C47.6466 3.67953 46.8767 3.72157 46.1436 3.98688L45.9285 4.05825C45.4246 4.27887 44.8882 4.34135 44.3625 4.24064C44.007 4.09286 43.6716 3.87203 43.369 3.58642C43.1963 3.44087 43.0173 3.30848 42.8329 3.18992C42.2473 2.85189 41.6389 2.5864 41.0155 2.39691C40.3831 2.20377 39.7648 1.93842 39.1678 1.60391L38.6862 1.29464C37.9502 0.806943 37.1717 0.307354 36.4084 0.402513C35.8511 0.477848 35.4634 0.870386 35.0121 1.33033C34.8849 1.45721 34.7576 1.58805 34.6244 1.72683C33.9108 2.44011 33.1041 2.97752 32.2436 3.31283C31.464 3.5403 30.6701 3.67304 29.8719 3.70933C29.263 3.74554 28.6562 3.82762 28.0545 3.95516C27.4385 4.12097 26.8314 4.33951 26.2371 4.60939C25.8752 4.78853 25.4939 4.89157 25.1073 4.91469C24.7007 4.93053 24.3052 4.73856 24.0048 4.37942C23.9356 4.28855 23.8546 4.21468 23.7655 4.16134C23.4626 4.03843 22.9568 4.29615 22.6145 4.48251L22.4964 4.54595C20.8123 5.45394 19.2705 6.21125 17.4834 6.30641C17.2956 6.30641 17.1078 6.33813 16.917 6.35796C16.6504 6.38968 16.3748 6.4214 16.1022 6.4214L16.0234 6.4214C15.8711 6.41496 15.7194 6.39509 15.5691 6.36192C15.3758 6.31009 15.1776 6.29804 14.9815 6.32624C14.4298 6.46534 13.8957 6.7042 13.3943 7.03597C13.2338 7.13113 13.0914 7.22629 12.9278 7.30956C12.2446 7.73041 11.5163 8.01252 10.7682 8.14617C9.9867 8.26512 9.51418 7.58314 9.06589 6.93288C8.81179 6.47694 8.46566 6.12271 8.06633 5.90991C7.90523 5.85452 7.73916 5.82784 7.57261 5.83061C7.41207 5.83061 7.26971 5.83061 7.09706 5.86233C7.00821 5.86233 6.92037 5.87026 6.83354 5.88612C6.46768 5.90037 6.1016 5.86984 5.74008 5.79493C5.48726 5.74396 5.2324 5.71219 4.97678 5.69977L4.89802 5.69977C4.4388 5.70572 3.9827 5.79922 3.54407 5.97732C3.36729 6.05705 3.20005 6.16918 3.04732 6.31038C2.92208 6.41576 2.79266 6.51238 2.65961 6.59982C2.03026 6.98241 1.31779 7.06107 0.648375 6.82187C0.438643 6.7379 0.219039 6.70431 0.000174297 6.72274C0.0183475 6.83772 0.0365207 6.95667 0.0577228 7.07562C0.0789249 7.19457 0.0970982 7.30163 0.118308 7.43248Z"/>
</mask>
<path d="M0.118308 7.43248C0.1902 7.93609 0.241767 8.44432 0.272788 8.95504C0.29399 9.25241 0.318221 9.55375 0.34851 9.85113C0.457549 10.89 0.502982 11.8971 0.548415 13.0231C0.587798 14.0065 0.648376 15.0056 0.708953 15.9731C0.760444 16.7978 0.811943 17.6225 0.851318 18.4473C0.887664 19.5654 0.939155 20.6915 1.00276 21.7977C1.05426 22.5471 1.12392 23.3044 1.20874 24.0419L1.20874 24.1172C1.20874 24.2124 1.22994 24.2956 1.236 24.3789C1.53889 24.3274 1.8418 24.256 2.09926 24.1926L2.1356 24.1926C2.05079 23.8873 1.96295 23.5819 1.86905 23.2806C1.78008 22.7597 1.76877 22.2212 1.83573 21.6946C1.81957 21.1774 1.86871 20.6603 1.98112 20.1641C2.07509 19.7617 2.25476 19.4027 2.49908 19.1292C2.67966 18.9682 2.84894 18.7864 3.00491 18.586C3.26541 18.2332 3.56831 17.9635 3.80154 17.5789C4.25588 16.8295 4.64359 16.3894 5.37358 16.211C5.69664 16.1338 6.01039 16.0004 6.3065 15.8145C6.5182 15.6669 6.70798 15.4708 6.86686 15.2356C7.25457 14.7558 7.79978 14.2325 8.35105 14.2285C8.64844 14.2694 8.94059 14.36 9.22037 14.4981C9.53302 14.5188 9.84483 14.4399 10.1291 14.2681C10.5986 14.058 10.9953 13.6774 11.4618 13.4751C12.034 13.253 12.644 13.2613 13.2126 13.4989C14.0788 13.7884 14.7634 14.4664 15.5812 14.8827C15.9542 15.0298 16.3429 15.0967 16.7322 15.081C17.3198 15.1404 17.862 15.4299 18.4527 15.4537C18.67 15.4874 18.8896 15.4874 19.1069 15.4537C19.5249 15.3268 19.9187 14.8629 20.2731 14.5853C21.2787 13.7923 22.5327 13.8994 23.6716 14.0263C24.2458 14.1022 24.8155 14.2281 25.3769 14.403C25.7343 14.5021 26.0736 14.4981 26.431 14.5576C27.0641 14.6646 27.4003 15.3982 28 15.5845C28.6633 15.7867 28.7633 14.7915 29.0177 14.2245C29.2924 13.5611 29.7151 13.0231 30.2293 12.6821C30.6806 12.3927 31.0774 11.9724 31.5166 11.6552C31.9325 11.3692 32.3368 11.0555 32.7282 10.7155C33.4673 10.0494 34.5456 10.2238 35.3968 10.319C35.8675 10.3267 36.3376 10.3664 36.8052 10.4379C37.119 10.569 37.4183 10.7529 37.6957 10.9851C37.9623 11.1675 38.1955 11.3816 38.45 11.5878C38.6859 11.7312 38.9288 11.8543 39.1769 11.9565C39.6737 12.242 39.9342 12.8566 40.4824 13.0311C40.902 13.1477 41.3384 13.1037 41.7394 12.9042C42.533 12.5275 43.1873 11.1437 44.1353 11.4728C44.5624 11.6195 44.9501 12.1072 45.3469 12.353C45.7437 12.5989 46.1981 12.8328 46.6221 13.0786C47.0462 13.3245 47.3854 13.4751 47.7822 13.6655C48.1645 13.8367 48.5167 14.1063 48.8181 14.4585C49.4027 15.0374 49.9177 15.6202 50.5234 14.9977C50.9869 14.5259 51.4321 14.0302 51.8865 13.5386C52.1943 13.1337 52.5917 12.866 53.0223 12.7733C53.4282 12.7178 53.5676 12.8685 53.8977 13.1341C54.0774 13.3207 54.2888 13.4477 54.514 13.5043C54.7391 13.5609 54.9714 13.5454 55.1911 13.4593C56.0998 13.1341 56.9267 12.1667 57.9172 12.0953C58.523 12.0557 59.053 12.5513 59.6164 12.7495C60.1192 12.92 60.6705 12.9081 61.1612 13.146C61.5399 13.3854 61.9089 13.6501 62.2668 13.939C62.7773 14.2688 63.257 14.6746 63.6964 15.1484C64.1495 15.6253 64.6618 15.9968 65.2109 16.2467C65.7319 16.4965 66.1832 16.5203 66.5709 17.0793C67.1525 17.9199 67.3827 18.9706 67.5554 20.0531L67.5735 19.9302L67.6008 19.724C67.6462 19.3275 67.6917 18.931 67.7129 18.5345C67.7216 17.9236 67.6728 17.3137 67.5675 16.7185L67.5251 16.4132C67.5236 16.3868 67.5236 16.3603 67.5251 16.3339C67.5251 16.3339 67.4918 16.2665 67.4827 16.2586C67.4068 16.1844 67.3279 16.1156 67.2464 16.0524C67.0758 15.9295 66.9214 15.7715 66.789 15.5845C66.3074 14.8906 66.3377 14.1175 66.4104 13.3879C66.468 12.809 66.4861 12.25 66.5043 11.6552C66.5043 11.342 66.5225 11.0287 66.5407 10.7115C66.5664 10.1345 66.5664 9.5559 66.5407 8.97882C66.5407 8.76868 66.5407 8.5506 66.5255 8.33252C66.5308 7.9519 66.5125 7.57135 66.471 7.19457C66.471 7.11923 66.4377 7.08751 66.3286 6.97253C66.0811 6.76682 65.9033 6.44468 65.8319 6.07247C65.8008 5.75022 65.8364 5.42297 65.9349 5.12483L65.9712 5.01382C66.0651 4.47592 66.2117 3.95616 66.4074 3.46746C66.5201 3.26779 66.6156 3.05236 66.6921 2.82513L66.7345 2.70618C66.797 2.54725 66.8458 2.37968 66.8799 2.20659C66.8282 2.17342 66.7786 2.13497 66.7315 2.0916C66.6385 2.02742 66.5553 1.94141 66.4861 1.83784C66.3667 1.62025 66.2765 1.37753 66.2196 1.12018L66.2014 1.04484C66.0613 1.07504 65.9194 1.08963 65.7774 1.08846C65.4866 1.09093 65.1998 1.00113 64.9414 0.826765C64.7862 0.721257 64.6391 0.596447 64.5022 0.454058C64.3536 0.286353 64.1847 0.152338 64.0024 0.0575566C63.6342 -0.0516925 63.2491 -0.00447222 62.9029 0.192366C62.5409 0.377463 62.1511 0.450734 61.764 0.406476C61.6263 0.374669 61.4907 0.329612 61.3581 0.271668C61.2131 0.201241 61.0611 0.158509 60.9068 0.144788L60.8765 0.144788C60.44 0.195599 60.008 0.29913 59.5861 0.454059C59.0986 0.665992 58.6535 1.01826 58.2837 1.48496C58.0959 1.68717 57.902 1.88146 57.693 2.07971C57.4822 2.26185 57.2337 2.3546 56.9812 2.34536C56.7298 2.33298 56.4801 2.28648 56.2361 2.20659C56.061 2.14873 55.8828 2.10895 55.703 2.08764C55.321 2.10771 54.9491 2.25363 54.6216 2.5119C54.2564 2.78652 53.8484 2.9492 53.4282 2.9877C53.2601 2.98682 53.0932 2.9493 52.9345 2.87668C52.7721 2.79332 52.6176 2.68554 52.4741 2.55551C52.3385 2.42441 52.1855 2.32759 52.0228 2.27003C51.5624 2.13126 51.211 2.44449 50.787 2.88461C50.7052 2.97184 50.6264 3.067 50.5477 3.16216C50.3291 3.48017 50.0531 3.72144 49.745 3.86396C49.2993 3.98284 48.8398 3.98284 48.3941 3.86396C47.6466 3.67953 46.8767 3.72157 46.1436 3.98688L45.9285 4.05825C45.4246 4.27887 44.8882 4.34135 44.3625 4.24064C44.007 4.09286 43.6716 3.87203 43.369 3.58642C43.1963 3.44087 43.0173 3.30848 42.8329 3.18992C42.2473 2.85189 41.6389 2.5864 41.0155 2.39691C40.3831 2.20377 39.7648 1.93842 39.1678 1.60391L38.6862 1.29464C37.9502 0.806943 37.1717 0.307354 36.4084 0.402513C35.8511 0.477848 35.4634 0.870386 35.0121 1.33033C34.8849 1.45721 34.7576 1.58805 34.6244 1.72683C33.9108 2.44011 33.1041 2.97752 32.2436 3.31283C31.464 3.5403 30.6701 3.67304 29.8719 3.70933C29.263 3.74554 28.6562 3.82762 28.0545 3.95516C27.4385 4.12097 26.8314 4.33951 26.2371 4.60939C25.8752 4.78853 25.4939 4.89157 25.1073 4.91469C24.7007 4.93053 24.3052 4.73856 24.0048 4.37942C23.9356 4.28855 23.8546 4.21468 23.7655 4.16134C23.4626 4.03843 22.9568 4.29615 22.6145 4.48251L22.4964 4.54595C20.8123 5.45394 19.2705 6.21125 17.4834 6.30641C17.2956 6.30641 17.1078 6.33813 16.917 6.35796C16.6504 6.38968 16.3748 6.4214 16.1022 6.4214L16.0234 6.4214C15.8711 6.41496 15.7194 6.39509 15.5691 6.36192C15.3758 6.31009 15.1776 6.29804 14.9815 6.32624C14.4298 6.46534 13.8957 6.7042 13.3943 7.03597C13.2338 7.13113 13.0914 7.22629 12.9278 7.30956C12.2446 7.73041 11.5163 8.01252 10.7682 8.14617C9.9867 8.26512 9.51418 7.58314 9.06589 6.93288C8.81179 6.47694 8.46566 6.12271 8.06633 5.90991C7.90523 5.85452 7.73916 5.82784 7.57261 5.83061C7.41207 5.83061 7.26971 5.83061 7.09706 5.86233C7.00821 5.86233 6.92037 5.87026 6.83354 5.88612C6.46768 5.90037 6.1016 5.86984 5.74008 5.79493C5.48726 5.74396 5.2324 5.71219 4.97678 5.69977L4.89802 5.69977C4.4388 5.70572 3.9827 5.79922 3.54407 5.97732C3.36729 6.05705 3.20005 6.16918 3.04732 6.31038C2.92208 6.41576 2.79266 6.51238 2.65961 6.59982C2.03026 6.98241 1.31779 7.06107 0.648375 6.82187C0.438643 6.7379 0.219039 6.70431 0.000174297 6.72274C0.0183475 6.83772 0.0365207 6.95667 0.0577228 7.07562C0.0789249 7.19457 0.0970982 7.30163 0.118308 7.43248Z" fill="#A8D3FF" stroke="#599DED" stroke-width="2" mask="url(#path-2-inside-2_1157_401)"/>
</svg>
