<svg width="36" height="36" viewBox="0 0 36 36" fill="none" xmlns="http://www.w3.org/2000/svg">
<circle cx="18" cy="18" r="17" fill="#888888" stroke="#E5F2FF" stroke-width="2"/>
<path d="M25.3926 23.9997C24.4368 22.2662 22.9104 20.917 21.0726 20.1811C21.6898 19.6946 22.1872 19.0731 22.5268 18.3643C22.8663 17.6556 23.0388 16.8784 23.0312 16.0926C23.0227 15.2234 22.7941 14.3705 22.3666 13.6137C21.9391 12.8568 21.3268 12.2207 20.5868 11.7646C19.8468 11.3086 19.0033 11.0476 18.1351 11.0059C17.2668 10.9643 16.4022 11.1433 15.622 11.5264C14.8417 11.9095 14.1713 12.4841 13.6733 13.1966C13.1754 13.909 12.8661 14.7361 12.7744 15.6005C12.6828 16.4648 12.8117 17.3384 13.1491 18.1394C13.4866 18.9405 14.0215 19.6429 14.7041 20.1811C12.8663 20.917 11.3399 22.2662 10.3841 23.9997C10.3153 24.1306 10.2816 24.2772 10.2862 24.425C10.2908 24.5728 10.3336 24.7169 10.4104 24.8433C10.4871 24.9697 10.5953 25.0741 10.7244 25.1463C10.8535 25.2185 10.999 25.2561 11.1469 25.2554C11.297 25.2572 11.4448 25.2183 11.5746 25.1428C11.7044 25.0674 11.8113 24.9582 11.8841 24.8269C12.4771 23.7551 13.3463 22.8617 14.4015 22.2396C15.4567 21.6175 16.6592 21.2894 17.8841 21.2894C19.109 21.2894 20.3115 21.6175 21.3667 22.2396C22.4218 22.8617 23.2911 23.7551 23.8841 24.8269C23.9568 24.9582 24.0637 25.0674 24.1935 25.1428C24.3233 25.2183 24.4711 25.2572 24.6212 25.2554C24.8485 25.2554 25.0666 25.1651 25.2273 25.0044C25.3881 24.8436 25.4784 24.6256 25.4784 24.3983C25.4846 24.2603 25.4551 24.123 25.3926 23.9997ZM18.5612 19.5083C17.8399 19.6524 17.0914 19.5607 16.4262 19.2468C15.761 18.9329 15.2143 18.4133 14.8671 17.7649C14.5198 17.1165 14.3903 16.3735 14.4976 15.6458C14.6049 14.9181 14.9435 14.2443 15.4632 13.7237C15.9829 13.2032 16.6562 12.8636 17.3837 12.7551C18.1113 12.6466 18.8544 12.775 19.5034 13.1212C20.1523 13.4674 20.6728 14.0132 20.9878 14.6779C21.3027 15.3426 21.3956 16.091 21.2526 16.8126C21.1209 17.4777 20.7948 18.0888 20.3158 18.5686C19.8367 19.0484 19.2261 19.3754 18.5612 19.5083Z" fill="white"/>
</svg>
