<svg width="25" height="24" viewBox="0 0 25 24" fill="none" xmlns="http://www.w3.org/2000/svg">
<path d="M1.39453 6.27344L23.393 6.27344" stroke="#80AEFF" stroke-width="2" stroke-linecap="round"/>
<path d="M4.48223 6.27344V5.27344C3.95141 5.27344 3.51308 5.68819 3.48376 6.21821L4.48223 6.27344ZM20.2958 6.27344L21.2943 6.21821C21.265 5.68819 20.8266 5.27344 20.2958 5.27344V6.27344ZM19.9754 19.2801L18.9864 19.1317L19.9754 19.2801ZM19.8005 20.4457L18.8116 20.2974L19.8005 20.4457ZM4.48223 7.27344H20.2958V5.27344L4.48223 5.27344V7.27344ZM16.8337 22.0007H7.94433V24.0007H16.8337V22.0007ZM19.2973 6.32866L19.4538 9.15703L21.4507 9.04658L21.2943 6.21821L19.2973 6.32866ZM18.9864 19.1317L18.8116 20.2974L20.7895 20.594L20.9643 19.4284L18.9864 19.1317ZM5.96646 20.2974L5.79161 19.1317L3.81374 19.4284L3.98858 20.594L5.96646 20.2974ZM5.32427 9.15703L5.48071 6.32866L3.48376 6.21821L3.32732 9.04658L5.32427 9.15703ZM5.79161 19.1317C5.29657 15.8314 5.13997 12.4892 5.32427 9.15703L3.32732 9.04658C3.1355 12.5147 3.29849 15.9934 3.81374 19.4284L5.79161 19.1317ZM19.4538 9.15703C19.6381 12.4892 19.4815 15.8314 18.9864 19.1317L20.9643 19.4284C21.4796 15.9934 21.6425 12.5147 21.4507 9.04658L19.4538 9.15703ZM7.94433 22.0007C6.95433 22.0007 6.11331 21.2764 5.96646 20.2974L3.98858 20.594C4.2823 22.5521 5.96434 24.0007 7.94433 24.0007V22.0007ZM16.8337 24.0007C18.8137 24.0007 20.4957 22.5521 20.7895 20.594L18.8116 20.2974C18.6647 21.2764 17.8237 22.0007 16.8337 22.0007V24.0007Z" fill="#80AEFF"/>
<path d="M7.99805 6.27119V5.39266C7.99805 4.22765 8.46084 3.11036 9.28463 2.28658C10.1084 1.4628 11.2257 1 12.3907 1C13.5557 1 14.673 1.4628 15.4968 2.28658C16.3206 3.11036 16.7834 4.22765 16.7834 5.39266V6.27119" stroke="#80AEFF" stroke-width="2" stroke-linecap="round" stroke-linejoin="round"/>
<path d="M9.75391 10.9746V18.2568" stroke="#80AEFF" stroke-width="2" stroke-linecap="round" stroke-linejoin="round"/>
<path d="M15.0254 10.9746V18.2568" stroke="#80AEFF" stroke-width="2" stroke-linecap="round" stroke-linejoin="round"/>
</svg>
