<svg width="524" height="666" viewBox="0 0 524 666" fill="none" xmlns="http://www.w3.org/2000/svg">
<path d="M505.696 147.598L495.887 197.643L505.696 190.683V334.486L493.208 378.112L500.792 377.338L495.887 392.131L505.696 405.664V622.578H61.8153C64.2971 622.578 66.7546 623.066 69.0475 624.014C71.3404 624.961 73.4238 626.35 75.1787 628.102C76.9336 629.853 78.3257 631.932 79.2754 634.219C80.2252 636.507 80.714 638.96 80.714 641.436C80.714 644.531 80.1028 647.596 78.9153 650.456C77.7279 653.316 75.9874 655.914 73.7934 658.102C71.5994 660.29 68.9947 662.026 66.1284 663.209C63.262 664.393 60.19 665.001 57.0879 665C49.2606 664.997 41.7548 661.893 36.2201 656.37C30.6854 650.848 27.5748 643.358 27.5718 635.548V623.23L32.4764 608.029L27.5718 592.828V416.07L34.8567 402.316L27.5718 384.254V374.4L37.381 364.988L27.5718 331.315V72.8077L35.4657 64.3896L27.5718 49.4646V15.7592C27.5733 13.8225 27.1924 11.9044 26.451 10.1145C25.7096 8.32462 24.6221 6.69798 23.2506 5.32746C21.8792 3.95693 20.2507 2.86937 18.458 2.12687C16.6654 1.38436 14.7437 1.00145 12.8027 1H490.916C494.837 1.00293 498.596 2.55921 501.368 5.32678C504.139 8.09436 505.696 11.8468 505.696 15.7592V147.598Z" fill="#CCDFFF"/>
<path d="M35.4649 64.3233L27.5711 72.7414V185.038H1.00001V109.485L7.69813 92.5382L1.00001 86.2081V12.8096C0.997065 9.68234 2.23848 6.68184 4.45147 4.46743C6.66445 2.25301 9.66796 1.00585 12.802 1C14.743 1.00145 16.6646 1.38436 18.4573 2.12687C20.2499 2.86937 21.8785 3.95693 23.2499 5.32746C24.6213 6.69798 25.7088 8.32462 26.4503 10.1145C27.1917 11.9044 27.5725 13.8225 27.5711 15.7592V49.4647L35.4649 64.3233Z" fill="#CCDFFF"/>
<path d="M523.001 641.436C523.001 644.531 522.39 647.596 521.202 650.456C520.015 653.316 518.274 655.914 516.08 658.102C513.886 660.29 511.281 662.026 508.415 663.209C505.549 664.393 502.477 665.001 499.375 665H57.0879C60.19 665.001 63.262 664.393 66.1284 663.209C68.9948 662.026 71.5994 660.29 73.7934 658.102C75.9874 655.914 77.7279 653.316 78.9154 650.456C80.1028 647.596 80.714 644.531 80.714 641.436C80.714 638.959 80.2252 636.507 79.2754 634.219C78.3257 631.931 76.9336 629.852 75.1787 628.101C73.4238 626.35 71.3404 624.961 69.0475 624.014C66.7546 623.066 64.2971 622.578 61.8153 622.578H504.102C506.584 622.578 509.041 623.066 511.334 624.014C513.627 624.961 515.711 626.35 517.465 628.101C519.22 629.852 520.612 631.931 521.562 634.219C522.512 636.507 523.001 638.959 523.001 641.436Z" fill="#CCDFFF"/>
<path d="M505.696 15.7584V23.9113H27.5712V15.7584C27.5721 15.2566 27.5462 14.755 27.4937 14.256C27.4998 14.1382 27.4998 14.0202 27.4937 13.9024C27.4937 13.7588 27.4937 13.6263 27.4383 13.4937C27.383 13.3611 27.3719 13.0408 27.3165 12.8198C27.1039 11.7733 26.7734 10.7542 26.3312 9.78179C26.2635 9.59918 26.182 9.42192 26.0876 9.25152C25.8994 8.86486 25.7001 8.5003 25.4787 8.14678C25.2335 7.73935 24.9675 7.3448 24.6816 6.96472C24.4712 6.68853 24.2498 6.4013 24.0062 6.13617C23.8898 5.98839 23.7641 5.84817 23.6298 5.71637L23.2866 5.36285C22.9545 5.02632 22.6034 4.70911 22.2348 4.41278C21.4879 3.78762 20.6792 3.23981 19.8213 2.77778L19.1902 2.44636L18.5481 2.15913C18.3267 2.0597 18.0942 1.97132 17.8727 1.89399C17.6806 1.81785 17.4848 1.75148 17.286 1.69514C17.0202 1.60676 16.7545 1.52943 16.4778 1.46315H16.3228L15.8578 1.36372L15.581 1.30848C15.4577 1.2756 15.3317 1.25343 15.2046 1.2422H15.0828L14.2856 1.07649H14.0199C13.8651 1.06565 13.7097 1.06565 13.5549 1.07649H12.791H490.915C492.89 1.05384 494.848 1.42961 496.673 2.18122C497.115 2.36903 497.536 2.57893 497.957 2.79987L498.865 3.34119C499.463 3.7234 500.033 4.14798 500.57 4.61164C500.846 4.84363 501.101 5.08667 501.356 5.34076C504.128 8.10281 505.689 11.8494 505.696 15.7584Z" fill="#E5EFFF"/>
<path d="M27.5703 623.219V635.537" stroke="#94BBFF" stroke-miterlimit="10" stroke-linecap="round"/>
<path d="M27.5703 416.07V592.828" stroke="#94BBFF" stroke-miterlimit="10" stroke-linecap="round"/>
<path d="M27.5703 374.367V384.255" stroke="#94BBFF" stroke-miterlimit="10" stroke-linecap="round"/>
<path d="M522.99 641.436C522.991 643.92 522.599 646.389 521.827 648.75H79.5292C79.6952 648.264 79.8392 647.778 79.9609 647.27C80.0827 646.761 80.1381 646.562 80.2156 646.165C80.5413 644.602 80.7045 643.01 80.7027 641.414C80.7069 638.937 80.2199 636.484 79.2698 634.196C78.3198 631.907 76.9254 629.829 75.1671 628.08C74.7421 627.652 74.295 627.247 73.8274 626.865C70.4482 624.085 66.2061 622.562 61.8262 622.557H504.102C506.585 622.557 509.044 623.045 511.337 623.994C513.631 624.944 515.715 626.335 517.469 628.088C519.224 629.842 520.614 631.924 521.561 634.214C522.509 636.504 522.994 638.959 522.99 641.436Z" fill="#E5EFFF"/>
<path d="M27.5703 72.7305V331.26" stroke="#94BBFF" stroke-miterlimit="10" stroke-linecap="round"/>
<path d="M27.5703 15.7578V49.4632" stroke="#94BBFF" stroke-miterlimit="10" stroke-linecap="round"/>
<path d="M1 109.484V185.037" stroke="#94BBFF" stroke-miterlimit="10" stroke-linecap="round"/>
<path opacity="0.3" d="M80.7141 641.435C80.7179 643.919 80.3217 646.389 79.5406 648.748C69.9307 620.688 46.7031 637.701 46.7031 637.701C48.9174 625.118 55.8812 622.621 61.8265 622.621C66.8301 622.621 71.6292 624.602 75.1703 628.129C78.7115 631.657 80.7053 636.442 80.7141 641.435Z" fill="#B7D2FF"/>
<path d="M1 12.8086V86.2071" stroke="#94BBFF" stroke-miterlimit="10" stroke-linecap="round"/>
<path d="M27.5703 635.537C27.5703 643.351 30.6812 650.845 36.2186 656.37C41.756 661.896 49.2663 665 57.0974 665C63.3605 665 69.3671 662.517 73.7958 658.098C78.2245 653.679 80.7125 647.685 80.7125 641.436C80.7125 638.959 80.2237 636.507 79.2739 634.219C78.3242 631.931 76.9321 629.852 75.1772 628.101C73.4223 626.35 71.3389 624.961 69.046 624.014C66.7531 623.066 64.2956 622.578 61.8138 622.578C57.8058 622.578 53.9619 624.167 51.1278 626.995C48.2937 629.823 46.7015 633.658 46.7015 637.658" stroke="#94BBFF" stroke-miterlimit="10" stroke-linecap="round"/>
<path d="M499.385 665C505.648 665 511.654 662.517 516.083 658.098C520.512 653.679 523 647.685 523 641.436C523 636.434 521.009 631.638 517.465 628.101C513.92 624.565 509.113 622.578 504.101 622.578" stroke="#94BBFF" stroke-miterlimit="10" stroke-linecap="round"/>
<path d="M505.707 15.7592C505.707 11.8448 504.149 8.09078 501.375 5.32288C498.601 2.55499 494.839 1 490.916 1" stroke="#94BBFF" stroke-miterlimit="10" stroke-linecap="round"/>
<path d="M27.5711 15.7592C27.574 11.8497 26.0212 8.09893 23.2538 5.33136C20.4865 2.56378 16.7311 1.00586 12.8131 1C11.2603 1.00145 9.72302 1.30806 8.28901 1.90234C6.855 2.49661 5.55233 3.3669 4.45538 4.46353C3.35844 5.56015 2.4887 6.86163 1.89583 8.29365C1.30295 9.72567 0.998551 11.2602 1.00001 12.8096" stroke="#94BBFF" stroke-miterlimit="10" stroke-linecap="round"/>
<path d="M505.707 622.578H61.8145" stroke="#94BBFF" stroke-miterlimit="10" stroke-linecap="round"/>
<path d="M490.915 1H12.8125" stroke="#94BBFF" stroke-miterlimit="10" stroke-linecap="round"/>
<path d="M27.5711 185.037H1" stroke="#94BBFF" stroke-miterlimit="10" stroke-linecap="round"/>
<path d="M499.384 665H57.0977" stroke="#94BBFF" stroke-miterlimit="10" stroke-linecap="round"/>
<path d="M505.707 405.652V622.578" stroke="#94BBFF" stroke-miterlimit="10" stroke-linecap="round"/>
<path d="M505.707 190.695V334.476" stroke="#94BBFF" stroke-miterlimit="10" stroke-linecap="round"/>
<path d="M505.707 15.7578V147.586" stroke="#94BBFF" stroke-miterlimit="10" stroke-linecap="round"/>
<path d="M505.707 190.693L495.887 197.652L505.707 147.586" stroke="#94BBFF" stroke-linecap="round" stroke-linejoin="round"/>
<path d="M27.5703 374.366L37.3905 364.943L27.5703 331.26" stroke="#94BBFF" stroke-linecap="round" stroke-linejoin="round"/>
<path d="M27.5703 72.7286L35.4752 64.3216L27.5703 49.4629" stroke="#94BBFF" stroke-linecap="round" stroke-linejoin="round"/>
<path d="M1 109.486L7.69813 92.5281L1 86.209" stroke="#94BBFF" stroke-linecap="round" stroke-linejoin="round"/>
<path d="M27.5703 416.07L34.8552 402.316L27.5703 384.254" stroke="#94BBFF" stroke-linecap="round" stroke-linejoin="round"/>
<path d="M500.791 377.337L493.207 378.11L505.707 334.484" stroke="#94BBFF" stroke-linecap="round" stroke-linejoin="round"/>
<path d="M505.707 405.652L495.887 392.119L500.791 377.338" stroke="#94BBFF" stroke-linecap="round" stroke-linejoin="round"/>
<path d="M27.5703 623.23L32.4749 608.029L27.5703 592.828" stroke="#94BBFF" stroke-linecap="round" stroke-linejoin="round"/>
<path opacity="0.3" d="M27.5711 15.7592V23.9122L1.00001 46.6807V12.8096C0.997065 9.68234 2.23848 6.68184 4.45147 4.46743C6.66445 2.25301 9.66796 1.00585 12.802 1C14.743 1.00145 16.6646 1.38436 18.4573 2.12687C20.2499 2.86937 21.8785 3.95693 23.2499 5.32746C24.6213 6.69798 25.7088 8.32462 26.4503 10.1145C27.1917 11.9044 27.5725 13.8225 27.5711 15.7592Z" fill="#B7D2FF"/>
</svg>
