<svg width="384" height="488" viewBox="0 0 384 488" fill="none" xmlns="http://www.w3.org/2000/svg">
<line opacity="0.5" y1="-0.25" x2="302" y2="-0.25" transform="matrix(0.999978 0.00668289 -0.00372216 0.999993 45 406.018)" stroke="#80AEFF" stroke-width="0.5"/>
<line opacity="0.5" y1="-0.25" x2="302" y2="-0.25" transform="matrix(0.999978 0.00668289 -0.00372216 0.999993 45 66)" stroke="#80AEFF" stroke-width="0.5"/>
<path d="M370.336 108.281L363.158 144.903L370.336 139.81V245.045L361.197 276.971L366.747 276.405L363.158 287.23L370.336 297.133V455.871H45.5041C47.3203 455.871 49.1187 456.228 50.7967 456.922C52.4746 457.615 53.9992 458.632 55.2835 459.913C56.5677 461.195 57.5864 462.716 58.2815 464.39C58.9765 466.065 59.3342 467.859 59.3342 469.671C59.3342 471.937 58.8869 474.18 58.018 476.272C57.149 478.365 55.8753 480.266 54.2697 481.868C52.6641 483.469 50.7581 484.739 48.6604 485.605C46.5628 486.471 44.3147 486.917 42.0446 486.915C36.3166 486.913 30.8239 484.642 26.7736 480.6C22.7233 476.559 20.4469 471.078 20.4447 465.362V456.348L24.0339 445.224L20.4447 434.1V304.749L25.7758 294.684L20.4447 281.466V274.254L27.6231 267.366L20.4447 242.725V53.5489L26.2215 47.3885L20.4447 36.4664V11.8008C20.4458 10.3835 20.1671 8.97984 19.6245 7.67C19.0819 6.36016 18.2861 5.16978 17.2825 4.16683C16.2789 3.16388 15.0871 2.36801 13.7753 1.82464C12.4634 1.28127 11.0571 1.00106 9.63672 1H359.52C362.39 1.00214 365.141 2.14103 367.169 4.16634C369.197 6.19166 370.336 8.93766 370.336 11.8008V108.281Z" fill="#CCDFFF"/>
<path d="M26.2214 47.34L20.4447 53.5004V135.679H1V80.3892L5.9017 67.9877L1 63.3553V9.64227C0.997852 7.35374 1.90632 5.15797 3.52579 3.53746C5.14525 1.91696 7.34322 1.00428 9.6367 1C11.0571 1.00106 12.4634 1.28127 13.7752 1.82464C15.0871 2.36801 16.2789 3.16388 17.2825 4.16683C18.2861 5.16978 19.0819 6.36016 19.6245 7.67C20.1671 8.97984 20.4458 10.3835 20.4447 11.8008V36.4664L26.2214 47.34Z" fill="#CCDFFF"/>
<path d="M383 469.671C383 471.936 382.553 474.179 381.684 476.272C380.815 478.365 379.541 480.266 377.936 481.868C376.33 483.469 374.424 484.739 372.326 485.605C370.229 486.471 367.981 486.916 365.711 486.915H42.0449C44.315 486.916 46.5631 486.471 48.6608 485.605C50.7584 484.739 52.6644 483.469 54.27 481.868C55.8756 480.266 57.1493 478.365 58.0183 476.272C58.8873 474.179 59.3345 471.936 59.3345 469.671C59.3345 467.859 58.9768 466.064 58.2818 464.39C57.5867 462.716 56.568 461.194 55.2838 459.913C53.9996 458.632 52.4749 457.615 50.797 456.922C49.1191 456.228 47.3207 455.871 45.5045 455.871H369.17C370.986 455.871 372.785 456.228 374.463 456.922C376.141 457.615 377.665 458.632 378.949 459.913C380.234 461.194 381.252 462.716 381.947 464.39C382.642 466.064 383 467.859 383 469.671Z" fill="#CCDFFF"/>
<path d="M370.337 11.801V17.7673H20.445V11.801C20.4457 11.4337 20.4268 11.0667 20.3883 10.7015C20.3928 10.6153 20.3928 10.5289 20.3883 10.4428C20.3883 10.3377 20.3883 10.2407 20.3478 10.1436C20.3073 10.0466 20.2992 9.81218 20.2587 9.65049C20.1031 8.88467 19.8612 8.13885 19.5376 7.42727C19.488 7.29364 19.4285 7.16392 19.3594 7.03922C19.2216 6.75626 19.0758 6.48948 18.9138 6.23077C18.7344 5.93261 18.5396 5.64388 18.3304 5.36574C18.1765 5.16363 18.0144 4.95343 17.8362 4.75941C17.751 4.65126 17.659 4.54865 17.5607 4.4522L17.3096 4.19349C17.0666 3.94722 16.8096 3.71509 16.5399 3.49823C15.9933 3.04074 15.4015 2.63985 14.7737 2.30173L14.3118 2.0592L13.8419 1.84901C13.6799 1.77625 13.5098 1.71157 13.3477 1.65498C13.2071 1.59926 13.0638 1.55069 12.9183 1.50946C12.7239 1.44478 12.5294 1.38819 12.3269 1.33969H12.2134L11.8732 1.26693L11.6706 1.2265C11.5804 1.20244 11.4882 1.18621 11.3951 1.178H11.306L10.7227 1.05673H10.5282C10.4149 1.0488 10.3012 1.0488 10.1879 1.05673H9.62891H359.521C360.965 1.04016 362.398 1.31515 363.734 1.86517C364.058 2.00261 364.366 2.15621 364.673 2.3179L365.338 2.71404C365.775 2.99374 366.192 3.30445 366.586 3.64375C366.788 3.81353 366.974 3.99138 367.161 4.17733C369.189 6.19859 370.332 8.94034 370.337 11.801Z" fill="#E5EFFF"/>
<path d="M20.4453 456.34V465.354" stroke="#94BBFF" stroke-width="0.5" stroke-miterlimit="10" stroke-linecap="round"/>
<path d="M20.4453 304.748V434.099" stroke="#94BBFF" stroke-width="0.5" stroke-miterlimit="10" stroke-linecap="round"/>
<path d="M20.4453 274.23V281.466" stroke="#94BBFF" stroke-width="0.5" stroke-miterlimit="10" stroke-linecap="round"/>
<path d="M382.991 469.672C382.993 471.489 382.705 473.296 382.14 475.024H58.4668C58.5883 474.668 58.6936 474.312 58.7827 473.94C58.8719 473.568 58.9124 473.423 58.9691 473.132C59.2074 471.988 59.3269 470.824 59.3256 469.656C59.3286 467.843 58.9722 466.048 58.277 464.373C57.5818 462.698 56.5614 461.177 55.2746 459.898C54.9636 459.584 54.6364 459.288 54.2943 459.008C51.8213 456.974 48.7169 455.859 45.5117 455.855H369.169C370.986 455.855 372.786 456.213 374.464 456.908C376.143 457.602 377.668 458.62 378.951 459.904C380.235 461.187 381.253 462.71 381.946 464.386C382.639 466.062 382.994 467.859 382.991 469.672Z" fill="#E5EFFF"/>
<path d="M20.4453 53.4941V242.686" stroke="#94BBFF" stroke-width="0.5" stroke-miterlimit="10" stroke-linecap="round"/>
<path d="M20.4453 11.8008V36.4664" stroke="#94BBFF" stroke-width="0.5" stroke-miterlimit="10" stroke-linecap="round"/>
<path d="M1 80.3887V135.678" stroke="#94BBFF" stroke-width="0.5" stroke-miterlimit="10" stroke-linecap="round"/>
<path opacity="0.3" d="M59.3346 469.67C59.3374 471.488 59.0474 473.296 58.4758 475.022C51.4432 454.488 34.4453 466.938 34.4453 466.938C36.0657 457.729 41.1618 455.902 45.5126 455.902C49.1742 455.902 52.6862 457.352 55.2776 459.933C57.869 462.515 59.3281 466.016 59.3346 469.67Z" fill="#B7D2FF"/>
<path d="M1 9.64062V63.3537" stroke="#94BBFF" stroke-width="0.5" stroke-miterlimit="10" stroke-linecap="round"/>
<path d="M20.4453 465.483C20.4453 471.201 22.7219 476.686 26.7741 480.729C30.8264 484.773 36.3225 487.044 42.0533 487.044C46.6366 487.044 51.0322 485.227 54.2731 481.994C57.514 478.76 59.3348 474.374 59.3348 469.8C59.3348 467.988 58.977 466.193 58.282 464.519C57.587 462.845 56.5683 461.323 55.284 460.042C53.9998 458.76 52.4752 457.744 50.7972 457.05C49.1193 456.357 47.3209 456 45.5047 456C42.5716 456 39.7587 457.163 37.6847 459.232C35.6107 461.302 34.4455 464.109 34.4455 467.035" stroke="#94BBFF" stroke-width="0.5" stroke-miterlimit="10" stroke-linecap="round"/>
<path d="M365.719 486.915C370.302 486.915 374.698 485.099 377.939 481.865C381.18 478.631 383 474.245 383 469.671C383 466.011 381.543 462.501 378.95 459.913C376.356 457.325 372.838 455.871 369.17 455.871" stroke="#94BBFF" stroke-width="0.5" stroke-miterlimit="10" stroke-linecap="round"/>
<path d="M366 487L43 487" stroke="#94BBFF" stroke-width="0.5"/>
<path d="M370.344 11.8008C370.344 8.93626 369.203 6.18903 367.173 4.16349C365.143 2.13794 362.39 1 359.52 1" stroke="#94BBFF" stroke-width="0.5" stroke-miterlimit="10" stroke-linecap="round"/>
<path d="M20.4447 11.8008C20.4469 8.9398 19.3105 6.195 17.2854 4.16969C15.2602 2.14437 12.512 1.00429 9.64481 1C8.50849 1.00106 7.38351 1.22544 6.3341 1.66033C5.28469 2.09522 4.3314 2.7321 3.52865 3.53461C2.72591 4.33712 2.08943 5.28954 1.65557 6.33749C1.2217 7.38545 0.998939 8.50841 1 9.64227" stroke="#94BBFF" stroke-width="0.5" stroke-miterlimit="10" stroke-linecap="round"/>
<path d="M370.344 455.871H45.5039" stroke="#94BBFF" stroke-width="0.5" stroke-miterlimit="10" stroke-linecap="round"/>
<path d="M359.52 1H9.64453" stroke="#94BBFF" stroke-width="0.5" stroke-miterlimit="10" stroke-linecap="round"/>
<path d="M20.4447 135.68H1" stroke="#94BBFF" stroke-width="0.5" stroke-miterlimit="10" stroke-linecap="round"/>
<path d="M370.344 297.125V455.871" stroke="#94BBFF" stroke-width="0.5" stroke-miterlimit="10" stroke-linecap="round"/>
<path d="M370.344 139.818V245.037" stroke="#94BBFF" stroke-width="0.5" stroke-miterlimit="10" stroke-linecap="round"/>
<path d="M370.344 11.8008V108.272" stroke="#94BBFF" stroke-width="0.5" stroke-miterlimit="10" stroke-linecap="round"/>
<path d="M370.345 139.817L363.158 144.91L370.345 108.271" stroke="#94BBFF" stroke-width="0.5" stroke-linecap="round" stroke-linejoin="round"/>
<path d="M20.4453 274.229L27.6318 267.333L20.4453 242.684" stroke="#94BBFF" stroke-width="0.5" stroke-linecap="round" stroke-linejoin="round"/>
<path d="M20.4453 53.4907L26.2301 47.3384L20.4453 36.4648" stroke="#94BBFF" stroke-width="0.5" stroke-linecap="round" stroke-linejoin="round"/>
<path d="M1 80.3913L5.90169 67.9817L1 63.3574" stroke="#94BBFF" stroke-width="0.5" stroke-linecap="round" stroke-linejoin="round"/>
<path d="M20.4453 304.75L25.7764 294.685L20.4453 281.467" stroke="#94BBFF" stroke-width="0.5" stroke-linecap="round" stroke-linejoin="round"/>
<path d="M366.747 276.404L361.197 276.97L370.344 245.045" stroke="#94BBFF" stroke-width="0.5" stroke-linecap="round" stroke-linejoin="round"/>
<path d="M370.345 297.125L363.158 287.221L366.747 276.404" stroke="#94BBFF" stroke-width="0.5" stroke-linecap="round" stroke-linejoin="round"/>
<path d="M20.4453 456.348L24.0345 445.224L20.4453 434.1" stroke="#94BBFF" stroke-width="0.5" stroke-linecap="round" stroke-linejoin="round"/>
<path opacity="0.3" d="M20.4447 11.8008V17.7671L1 34.4292V9.64227C0.997852 7.35374 1.90632 5.15797 3.52579 3.53746C5.14525 1.91696 7.34322 1.00428 9.63671 1C11.0571 1.00106 12.4634 1.28127 13.7752 1.82464C15.0871 2.36801 16.2789 3.16388 17.2825 4.16683C18.2861 5.16978 19.0819 6.36016 19.6245 7.67C20.1671 8.97984 20.4458 10.3835 20.4447 11.8008Z" fill="#B7D2FF"/>
</svg>
