<svg width="256" height="12" viewBox="0 0 256 12" fill="none" xmlns="http://www.w3.org/2000/svg">
<path d="M1 5.25C0.585787 5.25 0.25 5.58579 0.25 6C0.25 6.41421 0.585786 6.75 1 6.75L1 5.25ZM255.53 6.53035C255.823 6.23746 255.823 5.76259 255.53 5.46969L250.757 0.696721C250.464 0.403828 249.99 0.403828 249.697 0.696721C249.404 0.989614 249.404 1.46449 249.697 1.75738L253.939 6.00002L249.697 10.2427C249.404 10.5356 249.404 11.0104 249.697 11.3033C249.99 11.5962 250.464 11.5962 250.757 11.3033L255.53 6.53035ZM1 6.75L255 6.75002L255 5.25002L1 5.25L1 6.75Z" fill="#D0E1FF"/>
</svg>
