<svg width="33" height="36" viewBox="0 0 33 36" fill="none" xmlns="http://www.w3.org/2000/svg">
<path d="M12.4492 9.35653C13.5391 9.53556 14.2776 10.5643 14.0986 11.6543C13.9195 12.7442 12.8908 13.4827 11.8008 13.3036L12.4492 9.35653ZM4.76669 9.35843L4.05216 11.2264C3.16851 10.8884 2.64258 9.97749 2.79169 9.04323L4.76669 9.35843ZM4.86711 1.29409C5.25704 0.260632 6.41092 -0.261047 7.44438 0.128884C8.47783 0.518814 8.99951 1.6727 8.60958 2.70615L4.86711 1.29409ZM11.8008 13.3036C8.65868 12.7875 6.91438 12.3213 4.05216 11.2264L5.48123 7.49042C8.07966 8.48435 9.56147 8.88219 12.4492 9.35653L11.8008 13.3036ZM8.60958 2.70615C7.57651 5.44414 7.18015 6.92635 6.7417 9.67362L2.79169 9.04323C3.27464 6.01706 3.74302 4.27333 4.86711 1.29409L8.60958 2.70615Z" fill="#80AEFF"/>
<path d="M7.24425 7.9359L8.41861 9.55482L8.34866 9.60556L8.27461 9.65007L7.24425 7.9359ZM0.0971146 24.6524C-0.243425 23.6016 0.332325 22.4737 1.38309 22.1332C2.43385 21.7927 3.56173 22.3684 3.90227 23.4192L0.0971146 24.6524ZM5.86173 11.1004C4.91502 11.6694 3.68626 11.3633 3.11721 10.4166C2.54816 9.46988 2.85432 8.24111 3.80103 7.67206L5.86173 11.1004ZM6.0699 6.31699C8.87396 4.28293 12.25 3.18881 15.7141 3.19141L15.7111 7.19141C13.0917 7.18944 10.5389 8.01677 8.41861 9.55482L6.0699 6.31699ZM15.7141 3.19141C19.1782 3.19402 22.5526 4.29322 25.3536 6.33149L23 9.56579C20.882 8.02455 18.3305 7.19338 15.7111 7.19141L15.7141 3.19141ZM25.3536 6.33149C28.1546 8.36976 30.2384 11.2424 31.3064 14.5378L27.5013 15.771C26.6937 13.2792 25.118 11.107 23 9.56579L25.3536 6.33149ZM31.3064 14.5378C32.3744 17.8332 32.3717 21.3821 31.2988 24.6759L27.4955 23.4369C28.3068 20.9463 28.3088 18.2628 27.5013 15.771L31.3064 14.5378ZM31.2988 24.6759C30.2258 27.9696 28.1377 30.8392 25.3336 32.8732L22.9849 29.6354C25.1052 28.0973 26.6842 25.9275 27.4955 23.4369L31.2988 24.6759ZM25.3336 32.8732C22.5296 34.9073 19.1535 36.0014 15.6894 35.9988L15.6924 31.9988C18.3118 32.0008 20.8646 31.1734 22.9849 29.6354L25.3336 32.8732ZM15.6894 35.9988C12.2253 35.9962 8.85093 34.897 6.04993 32.8587L8.40351 29.6244C10.5215 31.1657 13.073 31.9968 15.6924 31.9988L15.6894 35.9988ZM6.04993 32.8587C3.24893 30.8205 1.16511 27.9478 0.0971146 24.6524L3.90227 23.4192C4.70984 25.911 6.28553 28.0832 8.40351 29.6244L6.04993 32.8587ZM8.27461 9.65007L5.86173 11.1004L3.80103 7.67206L6.2139 6.22173L8.27461 9.65007Z" fill="#80AEFF"/>
<path d="M20.9099 23.3973L17.3951 19.0039H12.123" stroke="#80AEFF" stroke-width="4" stroke-linecap="round" stroke-linejoin="round"/>
</svg>
