<svg width="148" height="128" viewBox="0 0 148 128" fill="none" xmlns="http://www.w3.org/2000/svg">
<mask id="mask0_1999_16406" style="mask-type:alpha" maskUnits="userSpaceOnUse" x="0" y="0" width="148" height="128">
<rect x="2" y="2" width="144" height="124" rx="14" fill="#669EFF" stroke="#80AEFF" stroke-width="4"/>
</mask>
<g mask="url(#mask0_1999_16406)">
<path d="M136.37 106.279L136.244 106.346C137.176 105.517 138.035 104.61 138.812 103.633C138.928 103.489 138.993 103.311 138.997 103.126C139.001 102.941 138.944 102.76 138.835 102.61C137.025 100.11 125.643 79.3843 117.547 44.1508C117.258 42.8945 116.973 41.6195 116.693 40.326C116.693 40.326 115.967 38.3087 112.081 39.0668C111.633 37.8867 111.081 36.7774 110.56 36.606C110.219 36.5089 109.861 36.4846 109.51 36.5349C108.472 36.6451 107.195 37.1358 106.016 37.346C105.751 36.5936 105.442 35.8769 105.221 35.8502C104.265 35.7335 102.321 37.0924 101.963 37.574C101.625 38.0311 103.07 41.0247 103.401 41.5578C102.588 41.8725 101.817 42.0991 101.186 42.2849C100.163 42.5851 99.5032 42.7807 99.6275 43.0734C99.9364 43.8204 101.055 47.5651 101.221 48.1237C100.592 48.389 100.069 48.6048 99.7006 48.7609C99.6254 48.7927 99.558 48.8405 99.5032 48.901C99.4483 48.9615 99.4073 49.0332 99.383 49.1112C99.3586 49.1892 99.3516 49.2715 99.3623 49.3525C99.373 49.4335 99.4013 49.5112 99.445 49.5802C99.6828 49.9556 100.059 50.5798 100.548 51.4176C105.673 60.2006 123.209 92.5436 123.661 109.808C123.666 109.975 123.73 110.134 123.842 110.258C123.954 110.381 124.106 110.46 124.271 110.48C125.159 110.59 126.961 110.686 129.196 110.132C135.039 112.291 136.37 106.279 136.37 106.279Z" fill="#DFEBFF"/>
<path d="M114.612 82.3512C116.783 81.7298 124.639 79.3733 127.655 77.0102C127.719 76.9608 127.794 76.9272 127.873 76.9123C127.953 76.8973 128.035 76.9013 128.113 76.9239C128.19 76.9466 128.262 76.9873 128.321 77.0428C128.38 77.0982 128.425 77.1668 128.453 77.243C128.927 78.558 130.221 80.3636 130.081 81.4942C129.968 82.3992 119.061 86.7243 116.239 86.8129C116.135 86.8162 116.033 86.788 115.945 86.7321C115.858 86.6762 115.789 86.5953 115.749 86.4998L114.284 83.0498C114.255 82.9828 114.241 82.9104 114.242 82.8374C114.243 82.7645 114.259 82.6926 114.29 82.6265C114.321 82.5604 114.366 82.5017 114.422 82.4543C114.477 82.4068 114.542 82.3717 114.612 82.3512Z" fill="#81AFFF"/>
<path d="M148.601 136.784L148.787 136.64C146.925 137.475 144.995 138.148 143.017 138.652C142.725 138.727 142.415 138.704 142.137 138.586C141.858 138.468 141.626 138.262 141.477 137.999C138.961 133.622 115.68 102.745 68.5572 67.0364C66.8771 65.7625 65.1663 64.4828 63.4248 63.1972C63.4248 63.1972 60.9023 60.7623 64.6397 55.4741C63.1799 54.0143 61.8955 52.4471 61.9894 51.5548C62.0733 50.9808 62.277 50.4311 62.5873 49.9412C63.4485 48.4659 65.0364 46.8912 66.1408 45.2735C65.1965 44.373 64.3344 43.432 64.4428 43.0845C64.9103 41.5795 68.2412 39.591 69.1993 39.3809C70.1081 39.1828 73.6038 43.347 74.1775 44.1968C75.1923 43.1952 76.047 42.1979 76.7472 41.3814C77.8814 40.0564 78.6156 39.2038 78.9687 39.5855C79.8758 40.5473 84.7111 44.7273 85.4328 45.3503C86.2503 44.5898 86.9232 43.9542 87.4032 43.5093C87.501 43.4185 87.6175 43.35 87.7445 43.3088C87.8716 43.2675 88.0061 43.2544 88.1387 43.2704C88.2713 43.2865 88.3989 43.3312 88.5125 43.4015C88.6262 43.4718 88.7231 43.5661 88.7967 43.6776C89.1971 44.2841 89.8761 45.2633 90.7975 46.5552C100.461 60.091 136.941 107.94 162.39 120.194C162.635 120.312 162.83 120.515 162.939 120.765C163.048 121.014 163.064 121.295 162.983 121.555C162.551 122.953 161.486 125.704 159.161 128.668C158.461 138.83 148.601 136.784 148.601 136.784Z" fill="#DFEBFF"/>
<path d="M127.505 88.2802C125.122 91.1023 116.338 101.24 110.79 104.153C110.674 104.215 110.573 104.304 110.498 104.413C110.422 104.521 110.373 104.646 110.355 104.778C110.336 104.909 110.349 105.042 110.392 105.168C110.435 105.293 110.507 105.406 110.602 105.499C112.245 107.089 114.071 110.23 115.851 110.779C117.277 111.218 131.043 97.8504 133.069 93.6994C133.143 93.547 133.17 93.3756 133.145 93.2078C133.12 93.0399 133.045 92.8834 132.93 92.7587L128.767 88.2599C128.686 88.1718 128.588 88.1017 128.478 88.0544C128.369 88.0071 128.25 87.9836 128.131 87.9856C128.012 87.9875 127.894 88.0147 127.786 88.0655C127.678 88.1164 127.582 88.1895 127.505 88.2802Z" fill="#81AFFF"/>
<path d="M146.343 137.168L146.483 136.952C144.859 138.489 143.105 139.883 141.242 141.12C140.966 141.304 140.638 141.392 140.307 141.371C139.976 141.349 139.661 141.219 139.412 141.001C135.226 137.383 99.9746 113.857 38.3085 93.9537C36.1096 93.2433 33.8769 92.538 31.6103 91.8376C31.6103 91.8376 28.1201 90.2308 30.0744 83.4081C28.0362 82.4257 26.1407 81.2689 25.9151 80.3117C25.7944 79.6876 25.8064 79.0451 25.9503 78.4261C26.3077 76.5884 27.381 74.3849 27.9387 72.3119C26.6361 71.7217 25.4039 71.0599 25.3904 70.6612C25.3298 68.9351 28.0569 65.6733 28.9721 65.1095C29.8407 64.5759 34.9631 67.62 35.864 68.2918C36.5517 66.8886 37.0753 65.5477 37.5045 64.4497C38.1987 62.6688 38.65 61.5212 39.1534 61.7883C40.4396 62.4554 46.9538 65.0315 47.9257 65.4151C48.4965 64.3326 48.9628 63.4317 49.2985 62.7978C49.3669 62.6684 49.4626 62.5555 49.5791 62.4669C49.6956 62.3783 49.8301 62.3161 49.9731 62.2847C50.1161 62.2533 50.2642 62.2535 50.4072 62.2851C50.5502 62.3168 50.6846 62.3792 50.8011 62.468C51.4346 62.9506 52.4912 63.7182 53.9117 64.7216C68.8037 75.2312 123.849 111.543 154.609 115.019C154.906 115.052 155.181 115.191 155.384 115.41C155.587 115.629 155.705 115.913 155.716 116.212C155.774 117.814 155.667 121.045 154.333 124.952C157.284 135.719 146.343 137.168 146.343 137.168Z" fill="#DFEBFF"/>
<path d="M106.977 94.6156C105.532 98.3971 100.11 112.062 95.4244 117.081C95.3262 117.188 95.2547 117.317 95.2156 117.456C95.1765 117.596 95.171 117.743 95.1995 117.886C95.228 118.028 95.2897 118.161 95.3795 118.276C95.4694 118.39 95.5849 118.481 95.7166 118.542C97.9915 119.593 101.016 122.182 103.057 122.106C104.69 122.045 114.099 103.237 114.693 98.2102C114.715 98.0256 114.681 97.8387 114.594 97.674C114.508 97.5093 114.374 97.3744 114.21 97.2871L108.275 94.1383C108.16 94.0762 108.033 94.0392 107.903 94.0299C107.772 94.0206 107.641 94.0392 107.519 94.0843C107.396 94.1294 107.284 94.2001 107.191 94.2918C107.097 94.3834 107.025 94.4937 106.977 94.6156Z" fill="#81AFFF"/>
</g>
</svg>
