<svg width="524" height="666" viewBox="0 0 524 666" fill="none" xmlns="http://www.w3.org/2000/svg">
<path d="M505.696 147.598L495.886 197.643L505.696 190.683V334.486L493.207 378.112L500.791 377.338L495.886 392.131L505.696 405.664V622.578H61.8146C64.2964 622.578 66.7539 623.066 69.0468 624.014C71.3397 624.961 73.4231 626.35 75.178 628.102C76.9329 629.853 78.3249 631.932 79.2747 634.219C80.2244 636.507 80.7133 638.96 80.7133 641.436C80.7133 644.531 80.1021 647.596 78.9146 650.456C77.7272 653.316 75.9867 655.914 73.7927 658.102C71.5986 660.29 68.994 662.026 66.1276 663.209C63.2612 664.393 60.1892 665.001 57.0871 665C49.2599 664.997 41.7541 661.893 36.2194 656.37C30.6847 650.848 27.574 643.358 27.5711 635.548V623.23L32.4757 608.029L27.5711 592.828V416.07L34.856 402.316L27.5711 384.254V374.4L37.3803 364.988L27.5711 331.315V72.8077L35.4649 64.3896L27.5711 49.4646V15.7592C27.5725 13.8225 27.1917 11.9044 26.4503 10.1145C25.7088 8.32462 24.6214 6.69798 23.2499 5.32746C21.8785 3.95693 20.2499 2.86937 18.4573 2.12687C16.6646 1.38436 14.743 1.00145 12.802 1H490.915C494.836 1.00293 498.596 2.55921 501.367 5.32678C504.139 8.09436 505.696 11.8468 505.696 15.7592V147.598Z" fill="#CCDFFF"/>
<path d="M35.4649 64.3233L27.5711 72.7414V185.038H1.00001V109.485L7.69813 92.5382L1.00001 86.2081V12.8096C0.997065 9.68234 2.23848 6.68184 4.45147 4.46743C6.66445 2.25301 9.66796 1.00585 12.802 1C14.743 1.00145 16.6646 1.38436 18.4573 2.12687C20.2499 2.86937 21.8785 3.95693 23.2499 5.32746C24.6213 6.69798 25.7088 8.32462 26.4503 10.1145C27.1917 11.9044 27.5725 13.8225 27.5711 15.7592V49.4647L35.4649 64.3233Z" fill="#CCDFFF"/>
<path d="M523 641.436C523 644.531 522.389 647.596 521.201 650.456C520.014 653.316 518.273 655.914 516.079 658.102C513.885 660.29 511.281 662.026 508.414 663.209C505.548 664.393 502.476 665.001 499.374 665H57.0872C60.1893 665.001 63.2613 664.393 66.1276 663.209C68.994 662.026 71.5986 660.29 73.7927 658.102C75.9867 655.914 77.7272 653.316 78.9146 650.456C80.1021 647.596 80.7133 644.531 80.7133 641.436C80.7133 638.959 80.2244 636.507 79.2747 634.219C78.325 631.931 76.9329 629.852 75.178 628.101C73.4231 626.35 71.3397 624.961 69.0468 624.014C66.7539 623.066 64.2964 622.578 61.8146 622.578H504.101C506.583 622.578 509.041 623.066 511.333 624.014C513.626 624.961 515.71 626.35 517.465 628.101C519.22 629.852 520.612 631.931 521.561 634.219C522.511 636.507 523 638.959 523 641.436Z" fill="#CCDFFF"/>
<path d="M505.695 15.7584V23.9113H27.5709V15.7584C27.5718 15.2566 27.5459 14.755 27.4934 14.256C27.4995 14.1382 27.4995 14.0202 27.4934 13.9024C27.4934 13.7588 27.4934 13.6263 27.4381 13.4937C27.3827 13.3611 27.3717 13.0408 27.3163 12.8198C27.1037 11.7733 26.7731 10.7542 26.331 9.78179C26.2632 9.59918 26.1818 9.42192 26.0874 9.25152C25.8992 8.86486 25.6999 8.5003 25.4785 8.14678C25.2333 7.73935 24.9672 7.3448 24.6813 6.96472C24.471 6.68853 24.2496 6.4013 24.006 6.13617C23.8896 5.98839 23.7639 5.84817 23.6296 5.71637L23.2863 5.36285C22.9543 5.02632 22.6031 4.70911 22.2346 4.41278C21.4876 3.78762 20.679 3.23981 19.821 2.77778L19.19 2.44636L18.5478 2.15913C18.3264 2.0597 18.0939 1.97132 17.8725 1.89399C17.6804 1.81785 17.4845 1.75148 17.2857 1.69514C17.02 1.60676 16.7543 1.52943 16.4775 1.46315H16.3225L15.8575 1.36372L15.5807 1.30848C15.4574 1.2756 15.3315 1.25343 15.2043 1.2422H15.0825L14.2854 1.07649H14.0197C13.8649 1.06565 13.7095 1.06565 13.5547 1.07649H12.7908H490.915C492.889 1.05384 494.848 1.42961 496.672 2.18122C497.115 2.36903 497.536 2.57893 497.957 2.79987L498.864 3.34119C499.462 3.7234 500.032 4.14798 500.569 4.61164C500.846 4.84363 501.101 5.08667 501.355 5.34076C504.128 8.10281 505.688 11.8494 505.695 15.7584Z" fill="#E5EFFF"/>
<path d="M27.5713 623.219V635.537" stroke="#94BBFF" stroke-width="2" stroke-miterlimit="10" stroke-linecap="round"/>
<path d="M27.5713 416.07V592.828" stroke="#94BBFF" stroke-width="2" stroke-miterlimit="10" stroke-linecap="round"/>
<path d="M27.5713 374.367V384.255" stroke="#94BBFF" stroke-width="2" stroke-miterlimit="10" stroke-linecap="round"/>
<path d="M522.989 641.436C522.991 643.92 522.599 646.389 521.827 648.75H79.5287C79.6947 648.264 79.8387 647.778 79.9604 647.27C80.0822 646.761 80.1376 646.562 80.2151 646.165C80.5408 644.602 80.704 643.01 80.7022 641.414C80.7064 638.937 80.2194 636.484 79.2693 634.196C78.3193 631.907 76.9249 629.829 75.1666 628.08C74.7416 627.652 74.2945 627.247 73.827 626.865C70.4477 624.085 66.2056 622.562 61.8257 622.557H504.101C506.585 622.557 509.043 623.045 511.337 623.994C513.631 624.944 515.714 626.335 517.469 628.088C519.223 629.842 520.614 631.924 521.561 634.214C522.508 636.504 522.993 638.959 522.989 641.436Z" fill="#E5EFFF"/>
<path d="M27.5713 72.7305V331.26" stroke="#94BBFF" stroke-width="2" stroke-miterlimit="10" stroke-linecap="round"/>
<path d="M27.5713 15.7578V49.4632" stroke="#94BBFF" stroke-width="2" stroke-miterlimit="10" stroke-linecap="round"/>
<path d="M1 109.484V185.037" stroke="#94BBFF" stroke-width="2" stroke-miterlimit="10" stroke-linecap="round"/>
<path opacity="0.3" d="M80.7134 641.435C80.7172 643.919 80.321 646.389 79.5398 648.748C69.9299 620.688 46.7024 637.701 46.7024 637.701C48.9166 625.118 55.8805 622.621 61.8258 622.621C66.8293 622.621 71.6284 624.602 75.1696 628.129C78.7108 631.657 80.7046 636.442 80.7134 641.435Z" fill="#B7D2FF"/>
<path d="M1 12.8086V86.2071" stroke="#94BBFF" stroke-width="2" stroke-miterlimit="10" stroke-linecap="round"/>
<path d="M27.5713 635.537C27.5713 643.351 30.6822 650.845 36.2196 656.37C41.757 661.896 49.2673 665 57.0984 665C63.3615 665 69.3681 662.517 73.7968 658.098C78.2254 653.679 80.7135 647.685 80.7135 641.436C80.7135 638.959 80.2246 636.507 79.2749 634.219C78.3251 631.931 76.9331 629.852 75.1782 628.101C73.4233 626.35 71.3399 624.961 69.047 624.014C66.7541 623.066 64.2966 622.578 61.8148 622.578C57.8067 622.578 53.9629 624.167 51.1288 626.995C48.2947 629.823 46.7025 633.658 46.7025 637.658" stroke="#94BBFF" stroke-width="2" stroke-miterlimit="10" stroke-linecap="round"/>
<path d="M499.385 665C505.648 665 511.654 662.517 516.083 658.098C520.512 653.679 523 647.685 523 641.436C523 636.434 521.009 631.638 517.465 628.101C513.92 624.565 509.113 622.578 504.101 622.578" stroke="#94BBFF" stroke-width="2" stroke-miterlimit="10" stroke-linecap="round"/>
<path d="M505.707 15.7592C505.707 11.8448 504.148 8.09078 501.374 5.32288C498.6 2.55499 494.838 1 490.915 1" stroke="#94BBFF" stroke-width="2" stroke-miterlimit="10" stroke-linecap="round"/>
<path d="M27.5711 15.7592C27.574 11.8497 26.0212 8.09893 23.2538 5.33136C20.4865 2.56378 16.7311 1.00586 12.8131 1C11.2603 1.00145 9.72302 1.30806 8.28901 1.90234C6.855 2.49661 5.55233 3.3669 4.45538 4.46353C3.35844 5.56015 2.4887 6.86163 1.89583 8.29365C1.30295 9.72567 0.998551 11.2602 1.00001 12.8096" stroke="#94BBFF" stroke-width="2" stroke-miterlimit="10" stroke-linecap="round"/>
<path d="M505.707 622.578H61.8145" stroke="#94BBFF" stroke-width="2" stroke-miterlimit="10" stroke-linecap="round"/>
<path d="M490.915 1H12.813" stroke="#94BBFF" stroke-width="2" stroke-miterlimit="10" stroke-linecap="round"/>
<path d="M27.5711 185.037H1" stroke="#94BBFF" stroke-width="2" stroke-miterlimit="10" stroke-linecap="round"/>
<path d="M499.385 665H57.0981" stroke="#94BBFF" stroke-width="2" stroke-miterlimit="10" stroke-linecap="round"/>
<path d="M505.707 405.652V622.578" stroke="#94BBFF" stroke-width="2" stroke-miterlimit="10" stroke-linecap="round"/>
<path d="M505.707 190.695V334.476" stroke="#94BBFF" stroke-width="2" stroke-miterlimit="10" stroke-linecap="round"/>
<path d="M505.707 15.7578V147.586" stroke="#94BBFF" stroke-width="2" stroke-miterlimit="10" stroke-linecap="round"/>
<path d="M505.707 190.693L495.886 197.652L505.707 147.586" stroke="#94BBFF" stroke-width="2" stroke-linecap="round" stroke-linejoin="round"/>
<path d="M27.5713 374.366L37.3915 364.943L27.5713 331.26" stroke="#94BBFF" stroke-width="2" stroke-linecap="round" stroke-linejoin="round"/>
<path d="M27.5713 72.7286L35.4762 64.3216L27.5713 49.4629" stroke="#94BBFF" stroke-width="2" stroke-linecap="round" stroke-linejoin="round"/>
<path d="M1 109.486L7.69813 92.5281L1 86.209" stroke="#94BBFF" stroke-width="2" stroke-linecap="round" stroke-linejoin="round"/>
<path d="M27.5713 416.07L34.8562 402.316L27.5713 384.254" stroke="#94BBFF" stroke-width="2" stroke-linecap="round" stroke-linejoin="round"/>
<path d="M500.791 377.337L493.207 378.11L505.707 334.484" stroke="#94BBFF" stroke-width="2" stroke-linecap="round" stroke-linejoin="round"/>
<path d="M505.707 405.652L495.886 392.119L500.791 377.338" stroke="#94BBFF" stroke-width="2" stroke-linecap="round" stroke-linejoin="round"/>
<path d="M27.5713 623.23L32.4759 608.029L27.5713 592.828" stroke="#94BBFF" stroke-width="2" stroke-linecap="round" stroke-linejoin="round"/>
<path opacity="0.3" d="M27.5711 15.7592V23.9122L1.00001 46.6807V12.8096C0.997065 9.68234 2.23848 6.68184 4.45147 4.46743C6.66445 2.25301 9.66796 1.00585 12.802 1C14.743 1.00145 16.6646 1.38436 18.4573 2.12687C20.2499 2.86937 21.8785 3.95693 23.2499 5.32746C24.6213 6.69798 25.7088 8.32462 26.4503 10.1145C27.1917 11.9044 27.5725 13.8225 27.5711 15.7592Z" fill="#B7D2FF"/>
</svg>
