<svg width="16" height="15" viewBox="0 0 16 15" fill="none" xmlns="http://www.w3.org/2000/svg">
<path fill-rule="evenodd" clip-rule="evenodd" d="M6.224 12.5984L12.6927 6.474C13.7679 5.45599 13.6848 3.65391 12.5093 2.49834C11.3615 1.36999 9.61091 1.29245 8.59916 2.32515L2.30688 8.74771C2.30688 8.74771 3.70076 9.30226 4.68032 10.2652C5.65989 11.2282 6.224 12.5984 6.224 12.5984Z" fill="#FCE183"/>
<path d="M6.224 12.5984L5.53446 12.8181C5.63395 13.0598 5.84383 13.2479 6.09275 13.3185C6.34166 13.3891 6.59612 13.3327 6.7696 13.1684L6.224 12.5984ZM2.30688 8.74771L1.74422 8.19447C1.57459 8.36761 1.51506 8.62543 1.58639 8.878C1.65771 9.13056 1.85001 9.34284 2.0962 9.44079L2.30688 8.74771ZM2.86953 9.30094L9.16182 2.87839L8.0365 1.77192L1.74422 8.19447L2.86953 9.30094ZM12.1471 5.90399L5.67841 12.0284L6.7696 13.1684L13.2383 7.044L12.1471 5.90399ZM2.30688 8.74771C2.0962 9.44079 2.09607 9.44074 2.09595 9.44069C2.09592 9.44067 2.0958 9.44063 2.09573 9.4406C2.09559 9.44055 2.09548 9.4405 2.09538 9.44046C2.09519 9.44038 2.09508 9.44034 2.09505 9.44033C2.095 9.44031 2.09527 9.44042 2.09587 9.44066C2.09705 9.44114 2.09952 9.44214 2.10321 9.44366C2.11059 9.44669 2.12285 9.45179 2.13957 9.4589C2.17302 9.47315 2.22412 9.49542 2.28943 9.52541C2.42042 9.58556 2.60656 9.67585 2.8209 9.79374C3.2577 10.034 3.77466 10.3688 4.18438 10.7716L5.17627 9.75888C4.60642 9.19868 3.93666 8.77474 3.43163 8.49697C3.17505 8.35585 2.9515 8.24731 2.79052 8.17339C2.70985 8.13635 2.6444 8.10777 2.5978 8.08793C2.57449 8.078 2.55585 8.07024 2.54233 8.06468C2.53557 8.0619 2.53009 8.05967 2.52595 8.05799C2.52387 8.05716 2.52213 8.05646 2.52073 8.05589C2.52003 8.05561 2.51941 8.05537 2.51888 8.05515C2.51862 8.05505 2.51838 8.05495 2.51815 8.05486C2.51804 8.05482 2.51789 8.05476 2.51784 8.05474C2.51769 8.05468 2.51755 8.05462 2.30688 8.74771ZM4.18438 10.7716C4.59369 11.1739 4.93345 11.6811 5.17701 12.109C5.29657 12.3191 5.38811 12.5015 5.44904 12.6297C5.47942 12.6936 5.50195 12.7436 5.51633 12.7762C5.52352 12.7925 5.52865 12.8045 5.53169 12.8116C5.5332 12.8152 5.5342 12.8175 5.53466 12.8186C5.53489 12.8192 5.53499 12.8194 5.53496 12.8194C5.53494 12.8193 5.53489 12.8192 5.53481 12.819C5.53477 12.8189 5.53472 12.8188 5.53466 12.8186C5.53463 12.8186 5.53458 12.8184 5.53457 12.8184C5.53451 12.8183 5.53446 12.8181 6.224 12.5984C6.91355 12.3787 6.91349 12.3786 6.91343 12.3784C6.91341 12.3784 6.91335 12.3782 6.9133 12.3781C6.91321 12.3779 6.9131 12.3777 6.91299 12.3774C6.91277 12.3768 6.91252 12.3762 6.91222 12.3755C6.91164 12.3741 6.91092 12.3724 6.91005 12.3703C6.90832 12.3662 6.90603 12.3607 6.90317 12.354C6.89747 12.3406 6.88952 12.3222 6.87937 12.2991C6.85907 12.2531 6.82988 12.1885 6.79207 12.1089C6.71662 11.9501 6.60591 11.7297 6.46199 11.4769C6.17861 10.979 5.74652 10.3195 5.17627 9.75888L4.18438 10.7716ZM13.2383 7.044C14.6046 5.75038 14.499 3.46042 13.0052 1.992L12.0133 3.00469C12.8706 3.8474 12.9312 5.1616 12.1471 5.90399L13.2383 7.044ZM9.16182 2.87839C9.89965 2.12527 11.1763 2.18182 12.0133 3.00469L13.0052 1.992C11.5466 0.558155 9.32217 0.459629 8.0365 1.77192L9.16182 2.87839Z" fill="#FF9029"/>
<path d="M1.80092 13.7405L6.22041 12.6029C6.22041 12.6029 5.65756 11.2321 4.67888 10.2683C3.7002 9.30444 2.30683 8.74862 2.30683 8.74862L1.1449 13.0787C1.04367 13.456 1.42233 13.8379 1.80092 13.7405Z" fill="white" fill-opacity="0.7"/>
<path d="M6.22041 12.6029L6.47846 13.3307C6.67162 13.281 6.82723 13.1514 6.90885 12.9724C6.99048 12.7934 6.99095 12.5806 6.91016 12.3838L6.22041 12.6029ZM1.80092 13.7405L1.54287 13.0127L1.54287 13.0127L1.80092 13.7405ZM1.1449 13.0787L1.87088 13.3436L1.1449 13.0787ZM2.30683 8.74862L2.51815 8.05573C2.32332 7.97801 2.11362 7.97968 1.93697 8.06035C1.76033 8.14102 1.63183 8.29381 1.58085 8.48378L2.30683 8.74862ZM4.67888 10.2683L4.18247 10.7742L4.67888 10.2683ZM5.96237 11.8751L1.54287 13.0127L2.05896 14.4682L6.47846 13.3307L5.96237 11.8751ZM1.87088 13.3436L3.03281 9.01346L1.58085 8.48378L0.418919 12.8139L1.87088 13.3436ZM2.30683 8.74862C2.09552 9.44151 2.09539 9.44146 2.09527 9.44141C2.09523 9.4414 2.09511 9.44135 2.09504 9.44132C2.09491 9.44127 2.09479 9.44122 2.0947 9.44118C2.09451 9.44111 2.0944 9.44106 2.09437 9.44105C2.09432 9.44103 2.09459 9.44114 2.09518 9.44138C2.09637 9.44186 2.09883 9.44287 2.10252 9.44439C2.1099 9.44743 2.12216 9.45254 2.13887 9.45967C2.1723 9.47394 2.22339 9.49626 2.28867 9.52631C2.4196 9.58658 2.60567 9.67704 2.81989 9.79512C3.25647 10.0358 3.77312 10.371 4.18247 10.7742L5.1753 9.76239C4.60596 9.20168 3.93659 8.77713 3.43182 8.4989C3.17536 8.35755 2.95192 8.24881 2.791 8.17474C2.71037 8.13763 2.64495 8.10899 2.59837 8.08911C2.57506 8.07916 2.55643 8.07138 2.54292 8.06581C2.53616 8.06302 2.53068 8.06079 2.52654 8.05911C2.52446 8.05827 2.52272 8.05756 2.52132 8.057C2.52062 8.05672 2.52001 8.05647 2.51948 8.05626C2.51921 8.05615 2.51897 8.05606 2.51875 8.05597C2.51864 8.05592 2.51849 8.05586 2.51843 8.05584C2.51829 8.05578 2.51815 8.05573 2.30683 8.74862ZM4.18247 10.7742C4.59141 11.1769 4.9307 11.6844 5.17387 12.1125C5.29323 12.3227 5.38461 12.5052 5.44542 12.6334C5.47574 12.6974 5.49823 12.7474 5.51258 12.7801C5.51975 12.7964 5.52487 12.8083 5.5279 12.8154C5.52941 12.819 5.5304 12.8214 5.53087 12.8225C5.5311 12.823 5.5312 12.8233 5.53116 12.8232C5.53115 12.8232 5.5311 12.823 5.53101 12.8228C5.53097 12.8227 5.53092 12.8226 5.53086 12.8225C5.53083 12.8224 5.53078 12.8223 5.53077 12.8222C5.53072 12.8221 5.53066 12.822 6.22041 12.6029C6.91016 12.3838 6.9101 12.3837 6.91004 12.3835C6.91002 12.3835 6.90996 12.3833 6.90991 12.3832C6.90982 12.383 6.90972 12.3827 6.90961 12.3825C6.90939 12.3819 6.90913 12.3813 6.90884 12.3806C6.90826 12.3792 6.90753 12.3775 6.90667 12.3754C6.90494 12.3713 6.90266 12.3658 6.89981 12.3591C6.89412 12.3457 6.88619 12.3273 6.87605 12.3042C6.8558 12.2581 6.82667 12.1935 6.78893 12.1139C6.71362 11.955 6.60312 11.7346 6.45944 11.4816C6.17651 10.9834 5.74503 10.3235 5.1753 9.76239L4.18247 10.7742ZM1.54287 13.0127C1.73217 12.964 1.92149 13.155 1.87088 13.3436L0.418919 12.8139C0.165854 13.757 1.11249 14.7119 2.05896 14.4682L1.54287 13.0127Z" fill="#FF9029"/>
</svg>
