<svg width="15" height="15" viewBox="0 0 15 15" fill="none" xmlns="http://www.w3.org/2000/svg">
<path d="M1.5 4.375H14" stroke="#FC5757" stroke-width="1.5" stroke-linecap="round"/>
<path d="M12.2407 4.37695H3.25509L3.19079 5.5396C3.06758 7.7672 3.17227 10.0015 3.50321 12.2079C3.64753 13.17 4.47402 13.8817 5.4469 13.8817H10.0489C11.0218 13.8817 11.8483 13.17 11.9926 12.2079C12.3235 10.0015 12.4282 7.7672 12.305 5.5396L12.2407 4.37695Z" fill="#FC9983"/>
<path d="M3.25509 4.37695V3.62695C2.85697 3.62695 2.52822 3.93802 2.50624 4.33553L3.25509 4.37695ZM12.2407 4.37695L12.9896 4.33553C12.9676 3.93802 12.6388 3.62695 12.2407 3.62695V4.37695ZM12.305 5.5396L11.5562 5.58102V5.58102L12.305 5.5396ZM3.19079 5.5396L2.44193 5.49818L3.19079 5.5396ZM3.50321 12.2079L4.24492 12.0966L3.50321 12.2079ZM11.9926 12.2079L11.2509 12.0966V12.0966L11.9926 12.2079ZM3.25509 5.12695H12.2407V3.62695L3.25509 3.62695V5.12695ZM10.0489 13.1317H5.4469V14.6317H10.0489V13.1317ZM11.4919 4.41837L11.5562 5.58102L13.0539 5.49818L12.9896 4.33553L11.4919 4.41837ZM3.93964 5.58102L4.00395 4.41837L2.50624 4.33553L2.44193 5.49818L3.93964 5.58102ZM4.24492 12.0966C3.92154 9.94081 3.81926 7.75761 3.93964 5.58102L2.44193 5.49818C2.3159 7.77678 2.42299 10.0623 2.76151 12.3191L4.24492 12.0966ZM11.5562 5.58102C11.6766 7.75761 11.5743 9.94081 11.2509 12.0966L12.7343 12.3191C13.0728 10.0623 13.1799 7.77678 13.0539 5.49818L11.5562 5.58102ZM5.4469 13.1317C4.84527 13.1317 4.33416 12.6916 4.24492 12.0966L2.76151 12.3191C2.9609 13.6484 4.10277 14.6317 5.4469 14.6317V13.1317ZM10.0489 14.6317C11.393 14.6317 12.5349 13.6484 12.7343 12.3191L11.2509 12.0966C11.1616 12.6916 10.6505 13.1317 10.0489 13.1317V14.6317Z" fill="#FC5757"/>
<path d="M5.25183 4.37607V3.87687C5.25183 3.21488 5.5148 2.58001 5.98289 2.11192C6.45099 1.64383 7.08586 1.38086 7.74784 1.38086C8.40982 1.38086 9.04469 1.64383 9.51278 2.11192C9.98087 2.58001 10.2438 3.21488 10.2438 3.87687V4.37607" stroke="#FC5757" stroke-width="1.5" stroke-linecap="round" stroke-linejoin="round"/>
<path d="M6.25024 7.04883V11.1867" stroke="#FC5757" stroke-width="1.5" stroke-linecap="round" stroke-linejoin="round"/>
<path d="M9.24561 7.04883V11.1867" stroke="#FC5757" stroke-width="1.5" stroke-linecap="round" stroke-linejoin="round"/>
</svg>
