<svg width="24" height="24" viewBox="0 0 24 24" fill="none" xmlns="http://www.w3.org/2000/svg">
<path d="M13.5243 3.33159C13.4545 3.38761 13.3681 3.41795 13.2791 3.41766H10.7209C10.6319 3.41795 10.5455 3.38761 10.4757 3.33159L8.997 2.13458C8.73123 1.9192 8.40759 1.79014 8.06837 1.76426C7.72914 1.73838 7.39011 1.81689 7.09557 1.98953L5.90443 2.68766C5.60963 2.85984 5.3729 3.11822 5.22515 3.42902C5.07741 3.73983 5.02553 4.08861 5.07629 4.42979L5.36071 6.32653C5.37312 6.41621 5.356 6.50753 5.312 6.58633L4.03286 8.83373C3.98594 8.91291 3.91392 8.9736 3.82857 9.00587L2.07486 9.7056C1.75849 9.83089 1.48671 10.05 1.29497 10.3343C1.10323 10.6187 1.00043 10.955 1 11.2995V12.6989C1.00043 13.0434 1.10323 13.3798 1.29497 13.6641C1.48671 13.9484 1.75849 14.1675 2.07486 14.2928L3.82857 14.9957C3.91159 15.0292 3.98125 15.0898 4.02657 15.1679L5.312 17.4201C5.35611 17.4988 5.37324 17.5902 5.36071 17.6799L5.07629 19.5718C5.02553 19.913 5.07741 20.2618 5.22515 20.5726C5.3729 20.8834 5.60963 21.1418 5.90443 21.314L7.09557 22.0121C7.39011 22.1847 7.72914 22.2632 8.06837 22.2374C8.40759 22.2115 8.73123 22.0824 8.997 21.867L10.4757 20.67C10.5455 20.614 10.6319 20.5837 10.7209 20.584H13.2791C13.3681 20.5837 13.4545 20.614 13.5243 20.67L15.003 21.867C15.2688 22.0824 15.5924 22.2115 15.9316 22.2374C16.2709 22.2632 16.6099 22.1847 16.9044 22.0121L18.0956 21.314C18.3904 21.1418 18.6271 20.8834 18.7748 20.5726C18.9226 20.2618 18.9745 19.913 18.9237 19.5718L18.6393 17.6751C18.6268 17.5854 18.6439 17.494 18.688 17.4153L19.9671 15.1679C20.0125 15.0898 20.0821 15.0292 20.1651 14.9957L21.9251 14.296C22.2415 14.1707 22.5133 13.9516 22.705 13.6673C22.8968 13.383 22.9996 13.0466 23 12.7021V11.3059C22.9996 10.9614 22.8968 10.625 22.705 10.3407C22.5133 10.0564 22.2415 9.83727 21.9251 9.71197L20.1651 9.01225C20.0821 8.97876 20.0125 8.9182 19.9671 8.84011L18.688 6.59271C18.644 6.51391 18.6269 6.42258 18.6393 6.3329L18.9237 4.43616C18.9745 4.09498 18.9226 3.7462 18.7748 3.4354C18.6271 3.12459 18.3904 2.86622 18.0956 2.69403L16.9044 1.9959C16.6099 1.82327 16.2709 1.74476 15.9316 1.77064C15.5924 1.79651 15.2688 1.92557 15.003 2.14095L13.5243 3.33159ZM15.5357 12.0008C15.5357 12.7101 15.3283 13.4035 14.9398 13.9932C14.5513 14.583 13.9991 15.0427 13.3531 15.3141C12.707 15.5855 11.9961 15.6565 11.3102 15.5182C10.6244 15.3798 9.99435 15.0382 9.49987 14.5367C9.00539 14.0351 8.66865 13.3961 8.53222 12.7005C8.3958 12.0048 8.46582 11.2837 8.73343 10.6284C9.00104 9.9731 9.45422 9.413 10.0357 9.01893C10.6171 8.62487 11.3007 8.41454 12 8.41454C12.9377 8.41454 13.8371 8.79237 14.5001 9.46493C15.1632 10.1375 15.5357 11.0497 15.5357 12.0008Z" stroke="#80AEFF" stroke-width="2"/>
</svg>
