<svg width="18" height="32" viewBox="0 0 18 32" fill="none" xmlns="http://www.w3.org/2000/svg">
<path d="M9.50835 13.2243L9.52912 14.068L10.3661 13.9536L16.6764 13.0906C16.7052 13.0882 16.7355 13.0932 16.7646 13.1064C16.7956 13.1206 16.8248 13.1439 16.8476 13.1759C16.8705 13.2081 16.8854 13.2471 16.8895 13.2886C16.8933 13.3264 16.8879 13.3634 16.875 13.3961L8.75653 29.5389L8.50785 19.0088L8.48791 18.1641L7.65008 18.2787L1.3633 19.1385C1.33257 19.1423 1.30015 19.1378 1.26906 19.1239C1.23729 19.1096 1.2073 19.0857 1.18409 19.0526C1.16084 19.0194 1.14609 18.9793 1.14263 18.9368C1.13921 18.8947 1.14715 18.8541 1.16398 18.8192C1.16414 18.8188 1.1643 18.8185 1.16447 18.8181L9.24393 2.48161L9.50835 13.2243Z" fill="#FFE500" stroke="#FFC633" stroke-width="1.5"/>
</svg>
