<svg width="63" height="28" viewBox="0 0 63 28" fill="none" xmlns="http://www.w3.org/2000/svg">
<path d="M48.5126 13C48.5126 13 44.2464 8.42611 45.1172 0L55 1.58965C55 1.58965 54.5744 8.71868 48.5126 13Z" fill="#80AEFF"/>
<path d="M50 13.4731C50 13.4731 54.5739 17.73 63 16.8903L61.4104 7C61.4104 7 54.2862 7.41494 50 13.4731Z" fill="#80AEFF"/>
<rect y="11" width="52" height="4" rx="2" fill="#80AEFF"/>
<rect x="3" y="18" width="44" height="10" rx="5" fill="white"/>
<path fill-rule="evenodd" clip-rule="evenodd" d="M21 25L13 25C13 22.7909 14.7909 21 17 21C19.2091 21 21 22.7909 21 25Z" fill="#80AEFF"/>
<path fill-rule="evenodd" clip-rule="evenodd" d="M37 25C37 22.7909 35.2091 21 33 21C30.7909 21 29 22.7909 29 25L37 25Z" fill="#80AEFF"/>
</svg>
