<svg width="18" height="18" viewBox="0 0 18 18" fill="none" xmlns="http://www.w3.org/2000/svg">
<path d="M16.655 13.88L15.9097 13.7968L16.655 13.88ZM4.09628 16.6371L4.01017 17.3821L4.09628 16.6371ZM9 16.25C7.37138 16.25 5.7715 16.0757 4.18239 15.892L4.01017 17.3821C5.59541 17.5653 7.27443 17.75 9 17.75V16.25ZM13.8176 15.892C12.2285 16.0757 10.6286 16.25 9 16.25V17.75C10.7256 17.75 12.4046 17.5653 13.9898 17.3821L13.8176 15.892ZM17.4004 13.9631C17.5766 12.3838 17.75 10.715 17.75 9H16.25C16.25 10.6227 16.0859 12.217 15.9097 13.7968L17.4004 13.9631ZM17.75 9C17.75 7.28496 17.5766 5.61621 17.4004 4.03688L15.9097 4.2032C16.0859 5.78304 16.25 7.37727 16.25 9H17.75ZM9 1.75C10.6286 1.75 12.2285 1.9243 13.8176 2.10796L13.9898 0.617881C12.4046 0.434665 10.7256 0.25 9 0.25V1.75ZM4.18239 2.10796C5.7715 1.9243 7.37138 1.75 9 1.75V0.25C7.27443 0.25 5.59541 0.434665 4.01017 0.617881L4.18239 2.10796ZM0.59958 4.03688C0.423378 5.61621 0.25 7.28496 0.25 9H1.75C1.75 7.37727 1.91407 5.78303 2.09033 4.2032L0.59958 4.03688ZM0.25 9C0.25 10.715 0.423378 12.3838 0.599581 13.9631L2.09033 13.7968C1.91407 12.217 1.75 10.6227 1.75 9H0.25ZM17.4004 4.03688C17.2008 2.24802 15.7746 0.824154 13.9898 0.617881L13.8176 2.10796C14.9115 2.23438 15.7879 3.11219 15.9097 4.2032L17.4004 4.03688ZM13.9898 17.3821C15.7746 17.1758 17.2008 15.752 17.4004 13.9631L15.9097 13.7968C15.7879 14.8878 14.9115 15.7656 13.8176 15.892L13.9898 17.3821ZM4.01017 0.617881C2.22544 0.824154 0.799159 2.24802 0.59958 4.03688L2.09033 4.2032C2.21205 3.11219 3.08855 2.23438 4.18239 2.10796L4.01017 0.617881ZM4.18239 15.892C3.08855 15.7656 2.21205 14.8878 2.09033 13.7968L0.599581 13.9631C0.79916 15.752 2.22544 17.1758 4.01017 17.3821L4.18239 15.892Z" fill="#6C83AB"/>
<path d="M7.26763 6.206C6.97474 5.9131 6.49987 5.9131 6.20697 6.206C5.91408 6.49889 5.91408 6.97376 6.20697 7.26666L7.26763 6.206ZM10.7325 11.7921C11.0254 12.085 11.5002 12.085 11.7931 11.7921C12.086 11.4992 12.086 11.0244 11.7931 10.7315L10.7325 11.7921ZM6.20697 7.26666L10.7325 11.7921L11.7931 10.7315L7.26763 6.206L6.20697 7.26666Z" fill="#6C83AB"/>
<path d="M11.7928 7.26666C12.0857 6.97377 12.0857 6.49889 11.7928 6.206C11.4999 5.9131 11.025 5.9131 10.7321 6.206L11.7928 7.26666ZM6.20664 10.7315C5.91374 11.0244 5.91374 11.4992 6.20664 11.7921C6.49953 12.085 6.9744 12.085 7.2673 11.7921L6.20664 10.7315ZM10.7321 6.206L6.20664 10.7315L7.2673 11.7921L11.7928 7.26666L10.7321 6.206Z" fill="#6C83AB"/>
</svg>
