<svg width="46" height="64" viewBox="0 0 46 64" fill="none" xmlns="http://www.w3.org/2000/svg">
<path d="M11.3292 59.522L11.2207 59.4761C12.2298 59.6469 13.2502 59.732 14.2705 59.7305C14.4217 59.7307 14.5678 59.6817 14.686 59.5911C14.8043 59.5004 14.8882 59.3731 14.9248 59.2289C15.5479 56.8255 22.6087 39.1899 40.5054 16.3149C41.1433 15.499 41.7953 14.6765 42.4613 13.8474C42.4613 13.8474 43.3488 12.3725 40.8369 10.3005C41.3437 9.42261 41.7516 8.5149 41.5863 8.09936C41.4687 7.83499 41.2966 7.5969 41.0812 7.40056C40.4679 6.80023 39.491 6.24152 38.7413 5.6029C39.0751 5.05602 39.3637 4.49984 39.2648 4.34685C38.8371 3.68395 36.9649 3.14124 36.4751 3.15832C36.0106 3.1751 34.8869 5.59715 34.7249 6.07433C34.1013 5.71956 33.5553 5.3472 33.1081 5.04242C32.3835 4.54754 31.9151 4.22962 31.7963 4.45564C31.4888 5.02732 29.7218 7.62146 29.458 8.00821C28.9618 7.74461 28.5522 7.52304 28.2611 7.36904C28.2017 7.33756 28.1364 7.31911 28.0696 7.31496C28.0029 7.31081 27.9363 7.32107 27.8746 7.34502C27.8129 7.36897 27.7574 7.40604 27.7121 7.45364C27.6669 7.50124 27.6328 7.55824 27.6124 7.62067C27.5011 7.96006 27.3058 8.51209 27.0357 9.24347C24.2018 16.9078 13.0656 44.2865 2.45488 53.2754C2.35247 53.3621 2.28575 53.4829 2.26687 53.6158C2.24798 53.7487 2.27818 53.8849 2.35197 53.9995C2.74836 54.6153 3.63135 55.8014 5.15021 56.9342C6.85462 61.7119 11.3292 59.522 11.3292 59.522ZM33.8628 7.7188L38.8197 7.34187L39.0742 9.47621L39.4253 12.4226L38.8197 7.34187L29.5331 8.04807L33.8628 7.7188Z" fill="#D3E3FF"/>
<path d="M41.1156 10.476C43.687 12.57 42.4589 13.8502 42.4589 13.8502C23.1185 37.9142 15.5686 56.7431 14.9232 59.232C14.8864 59.3761 14.8025 59.5034 14.6842 59.594C14.566 59.6847 14.42 59.7337 14.2688 59.7336C6.64728 59.7223 3.24899 55.3939 2.34969 54.0006C2.27606 53.8859 2.24595 53.7498 2.26483 53.6169C2.28371 53.484 2.35034 53.3632 2.4526 53.2764C14.0761 43.4301 26.3302 11.5153 27.6108 7.62208C27.6312 7.55959 27.6653 7.50255 27.7107 7.45492C27.756 7.40729 27.8115 7.37023 27.8734 7.34631C27.9352 7.32239 28.0018 7.31219 28.0686 7.31643C28.1354 7.32067 28.2008 7.33924 28.2601 7.37084C30.3972 8.50442 38.942 13.2223 40.9572 12.474" stroke="#80AEFF" stroke-opacity="0.99" stroke-width="1.5" stroke-linecap="round" stroke-linejoin="round"/>
<path d="M29.3971 7.94958C29.3971 7.94958 31.436 4.96719 31.7695 4.34895C32.103 3.73071 35.0723 7.24251 38.873 7.23047" stroke="#80AEFF" stroke-opacity="0.99" stroke-width="1.5" stroke-linecap="round" stroke-linejoin="round"/>
<path d="M39.3601 12.4034C39.3601 12.4034 41.8901 8.9914 41.5188 8.05768C41.1475 7.12396 39.7377 6.49471 38.7034 5.55985" stroke="#80AEFF" stroke-opacity="0.99" stroke-width="1.5" stroke-linecap="round" stroke-linejoin="round"/>
<path d="M37.8657 6.77841C37.8657 6.77841 39.4086 4.63175 39.1977 4.306C38.77 3.6431 36.8979 3.1004 36.408 3.11747C35.9182 3.13455 34.7739 5.45502 34.7158 5.72401" stroke="#80AEFF" stroke-opacity="0.99" stroke-width="1.5" stroke-linecap="round" stroke-linejoin="round"/>
<path d="M11.2617 59.4824C11.2617 59.4824 6.7757 61.6781 5.07588 56.8784" stroke="#80AEFF" stroke-opacity="0.99" stroke-width="1.5" stroke-linecap="round" stroke-linejoin="round"/>
<path d="M16.3109 31.3898C17.8387 32.4478 23.4342 36.2209 26.4985 36.9339C26.5631 36.9495 26.6234 36.9799 26.6745 37.0226C26.7256 37.0652 26.7661 37.119 26.7925 37.1796C26.819 37.2401 26.8308 37.3056 26.8269 37.3709C26.823 37.4362 26.8036 37.4993 26.7702 37.5551C26.1927 38.5179 25.7358 40.2451 24.9518 40.7264C24.3243 41.1115 15.8939 36.4043 14.3597 34.6664C14.3033 34.6026 14.2675 34.5238 14.2568 34.4404C14.2461 34.3571 14.2611 34.273 14.2998 34.1992L15.7002 31.535C15.7272 31.4829 15.7651 31.4373 15.8115 31.4012C15.858 31.3651 15.9118 31.3393 15.9696 31.3256C16.0273 31.3119 16.0876 31.3105 16.1465 31.3216C16.2053 31.3326 16.2613 31.3559 16.3109 31.3898Z" fill="#80AEFF" fill-opacity="0.99"/>
</svg>
