<svg width="47" height="65" viewBox="0 0 47 65" fill="none" xmlns="http://www.w3.org/2000/svg">
<path d="M34.9794 59.5708L35.0879 59.5249C34.0787 59.6957 33.0584 59.7808 32.0381 59.7793C31.8869 59.7796 31.7408 59.7306 31.6226 59.6399C31.5043 59.5492 31.4203 59.4219 31.3837 59.2777C30.7607 56.8744 23.6999 39.2387 5.80323 16.3637C5.16527 15.5478 4.51331 14.7253 3.84734 13.8963C3.84734 13.8963 2.95975 12.4213 5.4717 10.3493C4.96487 9.47144 4.55697 8.56373 4.72228 8.14819C4.83991 7.88382 5.01202 7.64572 5.22742 7.44939C5.84074 6.84905 6.81758 6.29035 7.56729 5.65173C7.23354 5.10485 6.94484 4.54867 7.04382 4.39567C7.47153 3.73278 9.3437 3.19007 9.83352 3.20715C10.298 3.22393 11.4217 5.64598 11.5837 6.12316C12.2073 5.76838 12.7533 5.39603 13.2004 5.09125C13.9251 4.59637 14.3935 4.27845 14.5123 4.50446C14.8198 5.07614 16.5868 7.67028 16.8506 8.05704C17.3468 7.79344 17.7564 7.57187 18.0475 7.41787C18.1069 7.38639 18.1722 7.36794 18.239 7.36379C18.3057 7.35964 18.3723 7.3699 18.434 7.39385C18.4957 7.4178 18.5512 7.45486 18.5965 7.50247C18.6417 7.55007 18.6758 7.60707 18.6962 7.6695C18.8075 8.00888 19.0028 8.56092 19.2729 9.2923C22.1068 16.9566 33.243 44.3353 43.8537 53.3242C43.9561 53.4109 44.0228 53.5317 44.0417 53.6647C44.0606 53.7976 44.0304 53.9337 43.9566 54.0484C43.5602 54.6642 42.6772 55.8502 41.1584 56.983C40.3083 63.0493 34.9794 59.5708 34.9794 59.5708ZM12.4458 7.76763L7.48889 7.3907L7.23444 9.52504L6.88333 12.4715L7.48889 7.3907L16.7755 8.0969L12.4458 7.76763Z" fill="#D3E3FF"/>
<g style="mix-blend-mode:multiply" opacity="0.5">
<path d="M15.5146 26.9709C15.5899 26.7023 15.6169 26.3974 15.5406 26.1499C15.4097 25.7254 14.9244 25.4586 14.9094 24.9947C14.9025 24.7584 15.0525 24.5512 15.2097 24.3819C15.4544 24.1107 15.6753 23.854 15.5259 23.4618C15.4681 23.3083 15.3027 23.1844 15.3237 23.023C15.3372 22.9033 15.4661 22.8231 15.5872 22.8196C15.7945 22.8146 15.9478 22.9866 16.1435 23.0078C16.2772 23.0223 16.4137 22.9543 16.5313 22.8972C16.9183 22.7099 17.0378 22.3054 17.33 22.0169C17.9202 21.4344 18.26 22.0507 18.7236 21.8213C18.9924 21.6877 19.2972 21.2816 19.3319 20.9801C19.3532 20.7903 19.3451 20.5894 19.4299 20.422C19.6536 19.9884 20.3347 20.0483 20.5271 20.5866C20.6577 20.9536 20.3635 21.1826 20.4178 21.5157C20.4774 21.8615 20.7523 22.2007 21.0876 22.2986C21.5777 22.4414 21.8551 22.1117 22.0144 22.0442C22.3115 21.9196 22.4838 22.2264 22.2588 22.4674C22.1612 22.5714 22.0274 22.6393 21.9458 22.7564C21.4584 23.4563 22.9137 23.557 23.2696 24.2001C23.5095 24.6302 23.278 25.1535 23.3149 25.6128C23.3601 26.1474 23.6806 26.1954 24.1046 26.328C25.0252 26.6162 24.8628 27.503 23.9467 27.4424C23.3428 27.4021 22.6594 27.0953 22.4078 28.4961C22.3334 28.9071 22.2414 29.37 21.8926 29.5873C21.4821 29.8394 20.9081 29.6239 20.4823 29.8495C20.136 30.0335 19.9935 30.4478 19.8046 30.795C19.6156 31.1422 19.2519 31.4814 18.8752 31.3518C18.2253 31.1288 18.4615 30.1294 17.9291 29.7859C17.4707 29.4906 16.9113 30.1715 16.4814 29.8489C16.3111 29.7214 16.3037 29.4731 16.2917 29.2607C16.2497 28.5402 15.0911 28.4926 15.2229 27.7383C15.269 27.4735 15.4173 27.3193 15.5146 26.9709ZM22.8894 28.5103C22.9071 28.5751 22.9475 28.6316 23.0029 28.6692C23.1301 28.7465 23.2855 28.6554 23.3996 28.5642C23.4907 28.4987 23.57 28.4181 23.6344 28.3255C23.6665 28.2791 23.6875 28.2255 23.6959 28.1689C23.7042 28.1123 23.6997 28.0542 23.6826 27.999C23.6544 27.9345 23.6075 27.88 23.5484 27.8427C23.4893 27.8055 23.4208 27.7873 23.3522 27.7907C23.284 27.7954 23.2179 27.8142 23.1579 27.8459C23.0978 27.8776 23.045 27.9216 23.0027 27.9751C22.941 28.0466 22.8982 28.1331 22.8784 28.2267C22.8586 28.3203 22.8623 28.4181 22.8892 28.5111L22.8894 28.5103ZM14.4223 23.0556C14.3151 23.111 14.2299 23.2013 14.1801 23.3124C14.1302 23.4236 14.1185 23.5493 14.1467 23.67C14.182 23.7879 14.2541 23.8917 14.352 23.9655C14.4499 24.0393 14.5682 24.0791 14.6887 24.0787C15.0064 24.0699 15.2568 23.7283 15.173 23.4159C15.0893 23.1034 14.7028 22.9204 14.4223 23.0556ZM13.9581 24.0993C13.9409 24.0597 13.914 24.0251 13.8801 23.9988C13.8461 23.9725 13.8062 23.9554 13.7644 23.9492C13.7033 23.9427 13.6427 23.9593 13.594 23.9958C13.5454 24.0322 13.5122 24.086 13.5009 24.1468C13.4935 24.2081 13.5086 24.2707 13.5435 24.3226C13.5783 24.3745 13.6305 24.412 13.6899 24.428C13.86 24.4691 14.028 24.2639 13.9581 24.0993ZM17.0788 31.9062C17.1966 31.9281 17.3173 31.914 17.4253 31.8656C17.5334 31.8172 17.624 31.7368 17.6854 31.6346C17.7409 31.5386 17.7679 31.4279 17.7632 31.3153C17.7585 31.2028 17.7224 31.0931 17.659 30.999C17.5956 30.905 17.5076 30.8306 17.4053 30.7845C17.3029 30.7384 17.1906 30.7225 17.0812 30.7387C16.9811 30.7547 16.8873 30.7967 16.809 30.8607C16.7306 30.9246 16.6703 31.0084 16.6337 31.1038C16.5157 31.426 16.7439 31.8369 17.0788 31.9062ZM18.3373 32.2143C18.3752 32.1743 18.3958 32.1204 18.3947 32.0641C18.3936 32.0079 18.3709 31.9537 18.3315 31.9131C18.2982 31.8816 18.2558 31.8619 18.211 31.857C18.1662 31.8521 18.1214 31.8624 18.0836 31.8862C18.0458 31.9099 18.0172 31.9459 18.0021 31.9885C17.987 32.0311 17.9864 32.078 18.0002 32.1217C18.0131 32.1538 18.0332 32.1825 18.0589 32.2055C18.0845 32.2285 18.115 32.2452 18.1479 32.2542C18.1807 32.2632 18.2149 32.2643 18.2479 32.2574C18.2808 32.2504 18.3114 32.2357 18.3373 32.2143ZM14.1842 28.6576C14.209 28.7169 14.246 28.7703 14.2926 28.8143C14.3392 28.8583 14.3943 28.8918 14.4542 28.9126C14.5141 28.9334 14.5774 28.941 14.6398 28.9348C14.7022 28.9286 14.7622 28.9088 14.8157 28.8768C14.9007 28.818 14.9603 28.7285 14.9826 28.6259C15.005 28.5232 14.9886 28.4148 14.9366 28.3218C14.8846 28.2289 14.8007 28.1581 14.7015 28.1233C14.6023 28.0886 14.4948 28.0923 14.4001 28.1339C14.3076 28.1789 14.2349 28.2565 14.1953 28.3526C14.1557 28.4487 14.1517 28.5569 14.1842 28.6576ZM22.9453 21.8005C22.929 21.7557 22.9007 21.7162 22.8634 21.6866C22.8262 21.6571 22.7817 21.6388 22.7352 21.6338C22.6887 21.6289 22.6421 21.6376 22.6009 21.6588C22.5597 21.68 22.5257 21.7129 22.5028 21.7536C22.4828 21.7894 22.472 21.8299 22.4715 21.8716C22.4711 21.9132 22.481 21.9545 22.5003 21.9918C22.5197 22.029 22.5478 22.061 22.5821 22.0847C22.6165 22.1084 22.6559 22.1231 22.6968 22.1274C22.7377 22.1318 22.7788 22.1256 22.8162 22.1095C22.8537 22.0934 22.8863 22.0679 22.911 22.0353C22.9358 22.0028 22.9519 21.9642 22.9579 21.9231C22.9638 21.8821 22.9595 21.8399 22.9453 21.8005ZM21.6732 20.8551C21.4476 20.7241 21.2211 20.8801 21.1489 21.1152C21.0608 21.4006 21.2936 21.7626 21.5998 21.7871C21.8128 21.8042 21.9969 21.599 22.0011 21.383C22.0052 21.167 21.8599 20.9638 21.6732 20.8551Z" fill="#FFEEC2"/>
</g>
<g style="mix-blend-mode:multiply" opacity="0.5">
<path d="M33.9081 52.1286C34.1359 52.0591 34.3514 51.9475 34.4536 51.8017C34.629 51.5516 34.4413 51.1682 34.7276 50.9668C34.874 50.8647 35.1177 50.8628 35.3424 50.8805C35.6971 50.9051 36.0249 50.9224 36.1659 50.6754C36.2216 50.5791 36.1788 50.4347 36.2978 50.3793C36.3845 50.3372 36.5311 50.3761 36.6229 50.4427C36.7793 50.557 36.7822 50.7146 36.9133 50.8333C37.0029 50.9143 37.1473 50.9627 37.2709 51.005C37.677 51.1443 38.0245 51.0431 38.4254 51.0872C39.235 51.1763 39.091 51.6233 39.5806 51.7882C39.8649 51.8835 40.3505 51.8857 40.5694 51.7798C40.7069 51.7128 40.8297 51.6247 40.9996 51.6027C41.4429 51.5479 41.9078 51.9552 41.705 52.2871C41.5663 52.5131 41.202 52.4431 41.0286 52.6122C40.8509 52.7895 40.8367 53.0849 41.0217 53.3139C41.2924 53.6484 41.7088 53.667 41.8697 53.7283C42.1692 53.8433 42.0998 54.0676 41.779 54.0415C41.6403 54.03 41.4979 53.9831 41.3625 53.986C40.5536 54.0035 41.5646 54.8624 41.4154 55.3297C41.317 55.6432 40.8104 55.7309 40.5432 55.9427C40.234 56.1904 40.4401 56.3903 40.6684 56.6835C41.164 57.3202 40.4755 57.5978 39.8374 57.0583C39.417 56.7026 39.1085 56.1913 38.0246 56.6327C37.7062 56.7618 37.3414 56.9028 36.9445 56.7973C36.4795 56.6718 36.1934 56.2599 35.734 56.1147C35.3602 55.9968 34.9894 56.0891 34.6272 56.1274C34.265 56.1658 33.7787 56.1027 33.5834 55.8373C33.2461 55.3797 34.0613 55.0966 33.888 54.6549C33.7386 54.2747 32.8887 54.2439 32.7777 53.8684C32.7336 53.7197 32.8873 53.6123 33.0146 53.5172C33.4454 53.194 32.6197 52.5238 33.2007 52.284C33.4044 52.1997 33.6129 52.2189 33.9081 52.1286ZM38.3715 56.909C38.343 56.9458 38.3366 56.992 38.3534 57.0387C38.3979 57.1424 38.5712 57.1917 38.7139 57.2178C38.8232 57.2417 38.9336 57.2527 39.0405 57.2503C39.094 57.249 39.1439 57.2385 39.1863 57.2197C39.2288 57.2008 39.2626 57.1741 39.2854 57.1415C39.3058 57.0989 39.3062 57.0499 39.2864 57.0013C39.2666 56.9526 39.2276 56.9066 39.1748 56.8694C39.1214 56.8332 39.0604 56.8039 38.9957 56.7833C38.931 56.7628 38.8638 56.7515 38.7983 56.75C38.7068 56.745 38.6198 56.757 38.5451 56.7848C38.4705 56.8126 38.4105 56.8554 38.3708 56.9092L38.3715 56.909ZM35.6107 49.8869C35.496 49.8497 35.3752 49.8395 35.267 49.8577C35.1589 49.876 35.0697 49.9217 35.0131 49.9877C34.9637 50.0565 34.9505 50.1402 34.9755 50.2259C35.0005 50.3116 35.0624 50.3945 35.1517 50.462C35.3922 50.6367 35.7962 50.6352 35.9346 50.4582C36.073 50.2812 35.9047 49.9881 35.6107 49.8869ZM34.5987 50.0604C34.6113 50.0343 34.6136 50.0048 34.6053 49.9748C34.5971 49.9448 34.5786 49.9153 34.5516 49.8892C34.5107 49.8522 34.4552 49.8251 34.3959 49.8129C34.3366 49.8008 34.2776 49.8046 34.2303 49.8235C34.1855 49.8448 34.1565 49.8794 34.149 49.9205C34.1415 49.9617 34.156 50.0065 34.1897 50.0466C34.2891 50.1591 34.5448 50.1681 34.5987 50.0604ZM31.9004 55.0594C31.9735 55.1347 32.0717 55.1965 32.1826 55.2371C32.2935 55.2776 32.412 55.295 32.5228 55.287C32.6254 55.2782 32.7163 55.2473 32.785 55.1979C32.8537 55.1484 32.8973 55.0825 32.9107 55.0078C32.9242 54.9331 32.9068 54.8528 32.8608 54.7762C32.8147 54.6995 32.7418 54.6298 32.6507 54.5752C32.5664 54.5256 32.4702 54.4905 32.3713 54.4731C32.2724 54.4557 32.1741 54.4566 32.0859 54.4758C31.7922 54.5436 31.6974 54.8426 31.9004 55.0594ZM32.633 55.8941C32.6867 55.8987 32.7364 55.8878 32.7717 55.8638C32.807 55.8398 32.8249 55.8046 32.8218 55.7656C32.8174 55.7338 32.7987 55.7018 32.7687 55.6746C32.7387 55.6474 32.6991 55.6265 32.6559 55.6152C32.6127 55.6039 32.5685 55.6027 32.53 55.612C32.4916 55.6213 32.4611 55.6404 32.4432 55.6664C32.4323 55.6869 32.4287 55.7101 32.4329 55.7341C32.4371 55.7581 32.449 55.7821 32.4675 55.8043C32.4859 55.8265 32.5106 55.8462 32.5393 55.8618C32.5681 55.8774 32.6002 55.8884 32.633 55.8941ZM31.8437 52.0832C31.8241 52.1218 31.8171 52.1648 31.8234 52.2093C31.8296 52.2537 31.8489 52.2986 31.8798 52.3409C31.9108 52.3832 31.9527 52.4219 32.0027 52.4543C32.0528 52.4868 32.1098 52.5122 32.1699 52.5289C32.2704 52.5522 32.3718 52.5484 32.4541 52.5183C32.5365 52.4882 32.5938 52.4338 32.615 52.366C32.6362 52.2981 32.6196 52.2216 32.5685 52.1514C32.5175 52.0813 32.4356 52.0225 32.339 51.9866C32.2418 51.9534 32.1383 51.9449 32.0475 51.9626C31.9566 51.9804 31.8843 52.0232 31.8437 52.0832ZM42.7139 54.1495C42.7306 54.1218 42.735 54.0894 42.7264 54.0562C42.7178 54.023 42.6967 53.9904 42.6655 53.9623C42.6342 53.9341 42.5943 53.9115 42.5502 53.8973C42.5062 53.883 42.46 53.8775 42.417 53.8816C42.3792 53.8852 42.3452 53.8961 42.3182 53.9131C42.2912 53.9302 42.272 53.953 42.2624 53.9793C42.2528 54.0056 42.2532 54.0347 42.2633 54.0639C42.2735 54.093 42.2933 54.1213 42.3207 54.146C42.3482 54.1708 42.3825 54.1913 42.4204 54.2056C42.4584 54.2199 42.4989 54.2276 42.538 54.228C42.5772 54.2283 42.6138 54.2213 42.6446 54.2076C42.6753 54.1939 42.6991 54.1739 42.7139 54.1495ZM42.3798 53.0422C42.2971 52.8611 42.0297 52.7988 41.8256 52.856C41.5776 52.9253 41.5176 53.2066 41.7282 53.3887C41.8746 53.5153 42.1422 53.5333 42.2837 53.4458C42.4252 53.3583 42.4481 53.1922 42.3798 53.0422Z" fill="#FFEEC2"/>
</g>
<path d="M5.19295 10.5249C2.62164 12.6188 3.8497 13.899 3.8497 13.899C23.1901 37.963 30.74 56.7919 31.3854 59.2808C31.4221 59.425 31.5061 59.5522 31.6244 59.6429C31.7426 59.7335 31.8886 59.7826 32.0397 59.7824C39.6613 59.7712 43.0596 55.4427 43.9589 54.0494C44.0325 53.9347 44.0626 53.7986 44.0438 53.6657C44.0249 53.5328 43.9583 53.4121 43.856 53.3253C32.2325 43.4789 19.9784 11.5642 18.6978 7.67091C18.6774 7.60842 18.6433 7.55138 18.5979 7.50375C18.5526 7.45612 18.4971 7.41906 18.4352 7.39514C18.3734 7.37122 18.3068 7.36102 18.24 7.36526C18.1732 7.3695 18.1078 7.38806 18.0485 7.41967C15.9114 8.55325 7.36655 13.2712 5.35142 12.5228" stroke="#80AEFF" stroke-opacity="0.99" stroke-width="1.5" stroke-linecap="round" stroke-linejoin="round"/>
<path d="M16.9117 7.99811C16.9117 7.99811 14.8728 5.01572 14.5393 4.39749C14.2058 3.77925 14.5393 5.54907 11.8072 6.04915" stroke="#80AEFF" stroke-opacity="0.99" stroke-width="1.5" stroke-linecap="round" stroke-linejoin="round"/>
<path d="M5.80866 11.0482C5.80866 11.0482 4.41848 9.04025 4.78979 8.10653C5.1611 7.1728 6.57087 6.54355 7.60519 5.60869" stroke="#80AEFF" stroke-opacity="0.99" stroke-width="1.5" stroke-linecap="round" stroke-linejoin="round"/>
<path d="M11.3082 10.5483C11.3082 10.5483 6.90091 4.68085 7.11175 4.3551C7.53947 3.6922 9.41164 3.1495 9.90146 3.16657C10.3913 3.18365 11.5356 5.50412 11.5936 5.77311" stroke="#80AEFF" stroke-opacity="0.99" stroke-width="1.5" stroke-linecap="round" stroke-linejoin="round"/>
<path d="M35.0469 59.5312C35.0469 59.5312 40.3083 63.5493 41.3083 57.0493" stroke="#80AEFF" stroke-opacity="0.99" stroke-width="1.5" stroke-linecap="round" stroke-linejoin="round"/>
<path d="M18.2896 36.3095C19.3667 35.8613 23.2502 34.1812 24.5579 32.7477C24.5858 32.7176 24.6214 32.6956 24.6618 32.6834C24.7023 32.6712 24.7464 32.6691 24.7906 32.6773C24.8348 32.6856 24.8779 32.7039 24.9162 32.7308C24.9546 32.7577 24.9873 32.7925 25.0115 32.8323C25.4291 33.5187 26.3438 34.4282 26.411 35.0468C26.4647 35.5419 21.2053 38.444 19.7148 38.6378C19.6601 38.6449 19.6022 38.635 19.5487 38.6093C19.4952 38.5836 19.4485 38.5433 19.4149 38.4938L18.2029 36.7041C18.179 36.6694 18.1623 36.631 18.1537 36.5915C18.1451 36.552 18.145 36.5122 18.1532 36.4749C18.1614 36.4376 18.1778 36.4035 18.2013 36.375C18.2248 36.3465 18.2549 36.3242 18.2896 36.3095Z" fill="#80AEFF" fill-opacity="0.99"/>
<path d="M29.0287 29.3822C28.6632 29.7714 27.2967 31.1398 26.1768 31.1275C26.1534 31.1276 26.1358 31.1365 26.1256 31.1536C26.1154 31.1708 26.1128 31.1956 26.118 31.2261C26.1233 31.2566 26.1362 31.2919 26.1558 31.3291C26.1754 31.3664 26.2011 31.4045 26.2307 31.4404C26.7431 32.0602 27.4135 33.0939 27.8822 33.4705C28.2575 33.7719 30.5846 32.2605 30.7662 31.4895C30.7728 31.4612 30.7666 31.4217 30.7483 31.3762C30.73 31.3307 30.7005 31.2814 30.6636 31.2346L29.3308 29.5463C29.3049 29.5134 29.2761 29.4826 29.2463 29.456C29.2164 29.4294 29.1862 29.4077 29.1576 29.3921C29.1291 29.3766 29.1028 29.3677 29.0806 29.366C29.0584 29.3643 29.0407 29.3698 29.0287 29.3822Z" fill="#80AEFF" fill-opacity="0.99"/>
</svg>
