<svg width="85" height="32" viewBox="0 0 85 32" fill="none" xmlns="http://www.w3.org/2000/svg">
<mask id="path-1-inside-1_1157_390" fill="white">
<path d="M82.5062 29.4707C82.9242 29.6163 83.3243 29.8219 83.697 30.0826C83.697 29.9851 83.7209 29.8838 83.7379 29.7864C83.7705 29.6053 83.7911 29.4216 83.7993 29.2369C83.8069 28.9758 83.8285 28.7155 83.8642 28.4574C83.9 28.1826 83.9194 27.9052 83.9222 27.6273C83.9413 26.668 84.0698 25.7155 84.3043 24.7941C84.3657 24.5174 84.4271 24.2407 84.4783 23.964C84.649 22.8765 84.7074 21.7699 84.6523 20.6669C84.6523 19.9888 84.6318 19.2834 84.6728 18.5936C84.7717 16.949 84.7683 15.2771 84.7649 13.6597V12.8101C84.7649 12.5529 84.7649 12.2918 84.7649 12.0307C84.7649 11.3643 84.7649 10.6784 84.7956 9.99635C84.8263 9.31433 84.9184 8.58166 84.9867 7.89575V7.87237C83.8845 8.26395 82.7043 8.26395 81.6021 7.87237C80.9883 7.6265 80.3993 7.30641 79.845 6.91755C79.3268 6.55231 78.7768 6.24931 78.2039 6.0134C77.7269 5.78953 77.2094 5.70126 76.6959 5.75618C76.2426 5.90134 75.82 6.15066 75.454 6.48886C75.3073 6.60188 75.1606 6.71879 75.0104 6.82791L74.9695 6.85519C74.7282 7.07164 74.4386 7.20663 74.1336 7.24492C74.0351 7.24513 73.9377 7.2226 73.847 7.17866C73.5674 6.99768 73.3408 6.72657 73.1954 6.39922C73.1202 6.25079 73.0309 6.11225 72.9292 5.98612C72.7305 5.7697 72.4931 5.60503 72.2334 5.50344C71.9737 5.40186 71.6977 5.36576 71.4246 5.39764H71.0664H70.8241C70.3559 5.46319 69.8823 5.34204 69.4833 5.05468C69.2606 4.85897 68.9973 4.73273 68.719 4.68834C68.3522 4.62375 67.9812 4.59507 67.6102 4.60261H66.9722C66.4285 4.62377 65.885 4.55552 65.3584 4.39995C65.0255 4.29159 64.6809 4.23779 64.3348 4.24017C63.4985 4.28911 62.6709 4.45801 61.8715 4.74291C61.3111 4.92776 60.7414 5.07353 60.1655 5.17939C59.9394 5.2144 59.7113 5.23003 59.4832 5.22616H59.1966C58.9032 5.22616 58.6063 5.22616 58.2924 5.25344C58.0536 5.25344 57.8114 5.28852 57.5725 5.28852C57.2018 5.30049 56.8321 5.23715 56.4808 5.10145C56.3287 5.02919 56.1853 4.93489 56.0543 4.82085C55.9386 4.71358 55.8051 4.63405 55.6619 4.58702C55.3747 4.54265 55.084 4.53481 54.7953 4.56363H54.7339C54.6286 4.58293 54.5248 4.6116 54.4234 4.64937C54.0549 4.77019 53.5943 4.86762 53.3487 4.64937C53.2738 4.58225 53.2161 4.49343 53.1815 4.39216H53.1576C53.0219 4.42123 52.8964 4.49429 52.796 4.60261C52.7175 4.66886 52.6424 4.73511 52.5674 4.78578C52.2127 5.02265 51.8459 5.23479 51.4688 5.42102C51.0728 5.61362 50.647 5.71304 50.2166 5.71331C49.8523 5.70548 49.4897 5.65322 49.1351 5.55742L48.8792 5.49117C48.3822 5.34341 47.8736 5.25203 47.3609 5.21837C47.1221 5.21837 46.8798 5.21837 46.6376 5.21837C46.3954 5.21837 46.1122 5.21837 45.8529 5.21837C45.4506 5.18702 45.0537 5.0953 44.6724 4.94556C44.0378 4.72732 43.4305 4.55584 42.9358 4.85982C42.4673 5.1394 42.0118 5.44639 41.571 5.77956C40.9745 6.25718 40.3407 6.67075 39.6775 7.01498C39.0468 7.33037 38.3808 7.54416 37.6986 7.65022H37.6269C37.3634 7.69147 37.098 7.7149 36.832 7.72037C36.3664 7.74681 35.9071 7.58846 35.5321 7.2722C35.3385 7.0962 35.1571 6.90336 34.9896 6.69541C34.7994 6.45505 34.5866 6.2394 34.355 6.05237C33.9909 5.80455 33.5704 5.68649 33.1472 5.71331H32.4853C32.0924 5.72755 31.7 5.67234 31.3219 5.54963L31.1274 5.47948C30.781 5.33312 30.4178 5.24516 30.0493 5.21837C29.7081 5.21837 29.3669 5.21837 29.0052 5.21837H27.9817C27.5731 5.2522 27.1737 5.37384 26.8046 5.57691C26.6374 5.65485 26.4634 5.7289 26.2962 5.79515C25.6401 6.07616 24.9492 6.23664 24.2491 6.27061C23.9915 6.27284 23.7347 6.23748 23.4849 6.16539C22.8025 5.95494 22.5057 5.49117 22.1406 4.90659L22.0656 4.78578C21.7755 4.35299 21.4305 3.97207 21.042 3.65558C20.5808 3.24261 20.0807 2.88968 19.551 2.60334C19.2263 2.4558 18.8741 2.40484 18.5275 2.45524C18.2935 2.50978 18.0801 2.64596 17.9168 2.84496C17.8144 2.9346 17.7121 3.02813 17.5961 3.11777C17.2909 3.40048 16.903 3.53983 16.5111 3.50749H16.4736C16.2589 3.42166 16.0609 3.28934 15.8901 3.11777C15.7237 3.00005 15.5357 2.92802 15.3408 2.90732C15.1149 2.8707 14.8866 2.85636 14.6585 2.86445C14.0614 2.86445 13.3824 2.86445 12.9252 2.16685C12.8536 2.05773 12.7956 1.9525 12.7376 1.85118C12.648 1.6549 12.518 1.4864 12.3589 1.36013C12.1289 1.2186 11.8691 1.1525 11.6083 1.16916H11.4957H11.291C11.0232 1.19383 10.7538 1.17942 10.4892 1.12629C10.363 1.09122 10.247 1.04835 10.1275 1.00158C9.99718 0.944351 9.86238 0.901291 9.72495 0.872975C9.32812 0.802918 8.92422 0.802918 8.52739 0.872975C8.38048 0.905817 8.23571 0.950088 8.09409 1.00548C7.85031 1.10348 7.59493 1.15866 7.33666 1.16916C7.18233 1.17154 7.02917 1.13841 6.8863 1.07173C6.54068 0.926364 6.1789 0.837157 5.81157 0.806723C5.63415 0.798928 5.4465 0.779442 5.26909 0.736573C4.8972 0.662526 4.53554 0.54561 4.18412 0.436488C3.8327 0.327366 3.50175 0.222141 3.16057 0.151991C2.6934 0.0689107 2.22078 0.0323992 1.74807 0.0428693H1.22606C1.17151 0.0396419 1.11684 0.0396419 1.06229 0.0428693C0.960408 0.0579169 0.85792 0.0670222 0.755226 0.0701498C0.627145 0.0782825 0.499055 0.0543405 0.379924 0C0.199434 0.512132 0.114601 1.06169 0.130859 1.61345C0.130859 1.71477 0.130859 1.8122 0.130859 1.90184V1.97978C-0.0133093 3.89537 -0.0383923 5.82022 0.0557991 7.73986C0.132242 8.55287 0.246128 9.36071 0.396983 10.16C0.456121 10.4952 0.510711 10.8303 0.560751 11.1655C0.802551 12.7953 0.91673 14.4464 0.901935 16.0994C0.901935 17.0971 0.901935 18.0909 0.901935 19.0885C0.902895 20.4077 0.825381 21.7254 0.66993 23.0325C0.66993 23.1767 0.635811 23.317 0.618752 23.4534C0.559291 23.816 0.526197 24.1836 0.519809 24.5524C0.519809 24.7005 0.519809 24.8642 0.50275 25.0357C0.489434 25.2485 0.489434 25.462 0.50275 25.6748C0.554228 25.6374 0.60326 25.5957 0.649459 25.5501L0.704048 25.4956L0.87464 25.3319C1.14831 25.038 1.46616 24.8031 1.81289 24.6382C2.06834 24.5435 2.33595 24.4987 2.60444 24.5057C2.79892 24.5057 2.99339 24.5057 3.19128 24.5407C3.49748 24.5779 3.80627 24.5779 4.11247 24.5407C4.20118 24.5407 4.28307 24.5018 4.36495 24.4784C4.67659 24.3648 5.01313 24.3785 5.31685 24.5174C5.81498 24.7941 5.99922 25.2968 6.20734 25.819L6.25511 25.9437C6.29946 26.0645 6.41887 26.3335 6.52805 26.3335C6.6504 26.3 6.76614 26.2405 6.86924 26.1581C7.08456 26.0017 7.32441 25.8944 7.57549 25.8424C7.84912 25.8158 8.12468 25.8489 8.3875 25.9398C8.62961 26.0309 8.8883 26.0484 9.13811 25.9905C9.51522 25.8277 9.86237 25.5858 10.1617 25.2773C10.6393 24.8447 11.134 24.4004 11.8164 24.3848H11.8539C11.9495 24.3848 12.0416 24.3848 12.1371 24.3848C12.2855 24.4065 12.4357 24.4065 12.5841 24.3848C12.8045 24.3121 13.0091 24.1873 13.1845 24.0185C13.3482 23.8771 13.5243 23.7556 13.71 23.6561C14.0152 23.5255 14.3508 23.5213 14.6585 23.6444C14.979 23.7317 15.3082 23.771 15.6377 23.7613H15.7946H16.03C16.1324 23.7613 16.2347 23.7613 16.3371 23.7613C16.527 23.7553 16.716 23.7924 16.8932 23.8704C17.1203 23.9918 17.3354 24.1408 17.5346 24.3147C17.6097 24.3771 17.6848 24.4355 17.7564 24.4862L17.9748 24.6577C18.2295 24.9062 18.5453 25.0587 18.8789 25.0941C19.3334 25.1247 19.7891 25.1247 20.2436 25.0941C20.4522 25.0603 20.6548 24.9892 20.8441 24.8837C21.0916 24.7453 21.3606 24.6645 21.6357 24.646C21.813 24.6451 21.9877 24.6946 22.144 24.7902C22.5193 25.0162 22.8264 24.7902 23.1983 24.5135C23.3608 24.3828 23.5306 24.2643 23.7067 24.1588C23.9225 24.0185 24.1647 23.9396 24.4129 23.9289C24.6649 23.9258 24.9086 24.0316 25.0953 24.2251C25.2718 24.4176 25.4132 24.648 25.5115 24.9032C25.5792 25.0859 25.6765 25.2525 25.7981 25.3942C26.0165 25.5969 26.4532 25.4332 26.8217 25.2734C26.9712 25.1969 27.1251 25.1318 27.2823 25.0786C27.5479 25.0247 27.8209 25.0437 28.0789 25.1338C28.3369 25.2239 28.5725 25.3826 28.7664 25.5969C28.8867 25.7191 29.0006 25.8492 29.1076 25.9866C29.3362 26.2711 29.5136 26.4971 29.79 26.5322C30.0663 26.5673 30.2301 26.3412 30.4996 25.9476C30.7692 25.554 31.0319 25.1682 31.5027 25.1682C31.6647 25.1853 31.8213 25.244 31.9607 25.3398C32.1001 25.4356 32.2188 25.5661 32.3079 25.7216C32.3625 25.7917 32.4137 25.8619 32.4648 25.9204C32.6611 26.1154 32.911 26.2257 33.1711 26.2321H33.212C33.5694 26.288 33.9295 26.3166 34.2902 26.3179H34.5495C35.2523 26.3412 35.6378 26.7076 36.0712 27.2259C36.4677 27.737 36.9783 28.1155 37.5485 28.321C37.6849 28.3678 37.8214 28.4029 37.9545 28.4341C38.2304 28.4661 38.4973 28.5642 38.7377 28.722C38.9782 28.8798 39.1868 29.0937 39.3499 29.3499C39.5615 29.7415 39.7137 30.171 39.8003 30.6204C39.8412 30.7919 39.8856 30.9633 39.9368 31.1387C40.009 31.4387 40.1121 31.7278 40.2438 32C40.2711 31.9571 40.3052 31.887 40.3359 31.8285C40.3974 31.7038 40.4451 31.5908 40.4929 31.4895C40.6222 31.1225 40.8413 30.8059 41.1241 30.5775C41.4253 30.3378 41.7807 30.2025 42.1476 30.1878C42.3066 30.1864 42.4643 30.2208 42.6116 30.2891C42.8661 30.4324 43.097 30.6249 43.294 30.8581C43.4643 31.0638 43.6683 31.2293 43.8945 31.3453C44.2152 31.4739 44.3585 31.4505 44.7133 31.1582C45.4264 30.5736 45.9245 30.2424 46.8082 30.4333C47.0392 30.4843 47.2671 30.552 47.4906 30.636C47.9958 30.9084 48.575 30.9406 49.101 30.7256C49.249 30.6736 49.3993 30.6307 49.5513 30.597C49.7523 30.5602 49.9552 30.5381 50.1586 30.5307C50.4095 30.5283 50.6592 30.4917 50.9024 30.4216C51.1958 30.3203 51.4927 30.1917 51.7827 30.067L52.1238 29.915C52.3237 29.8364 52.531 29.7854 52.7414 29.763C52.8335 29.763 52.9256 29.7357 53.0246 29.7123C53.0971 29.6974 53.1689 29.6779 53.2395 29.6539C53.4439 29.5829 53.6574 29.5526 53.8707 29.5642C54.4268 29.6188 54.7919 30.106 55.0921 30.558C55.1533 30.658 55.2092 30.7621 55.2593 30.8698C55.3074 30.9952 55.3744 31.1099 55.4572 31.2089C55.6005 31.3297 56.0236 31.1504 56.1396 31.0958C56.3272 31.0023 56.5115 30.901 56.6957 30.7997C57.4088 30.4099 58.1457 30.0202 58.968 30.0202C59.1791 30.0209 59.3895 30.047 59.5958 30.0982C59.8954 30.1898 60.1745 30.3532 60.4146 30.5775C60.4999 30.6516 60.592 30.7256 60.691 30.7958C60.7467 30.8423 60.8108 30.8742 60.8786 30.8893C60.9215 30.8808 60.9616 30.8592 60.9946 30.8269C61.1118 30.6396 61.1985 30.4297 61.2505 30.2073C61.3001 30.0263 61.3653 29.8514 61.445 29.6851C61.6113 29.3386 61.8501 29.0446 62.14 28.8291C62.4299 28.6135 62.7619 28.4832 63.1065 28.4496C63.4683 28.4315 63.8308 28.4406 64.1915 28.4769C64.6617 28.5323 65.136 28.5218 65.604 28.4457C65.9463 28.34 66.2681 28.1615 66.5525 27.9196C66.6617 27.8339 66.7572 27.752 66.8459 27.678C67.0116 27.4971 67.2086 27.3579 67.4243 27.2693C67.64 27.1807 67.8695 27.1447 68.0981 27.1636C68.465 27.2079 68.8265 27.2981 69.1762 27.4325C69.3673 27.4948 69.5617 27.5611 69.7562 27.6078C70.2127 27.7721 70.6187 28.0817 70.9265 28.5003C71.2677 28.89 71.5781 29.2291 71.9739 29.2797C72.1479 29.2797 72.2571 29.2096 72.4857 29.0069C72.5812 28.9251 72.6631 28.8511 72.7416 28.777C73.0801 28.4313 73.4757 28.1664 73.905 27.9976C74.2481 27.8891 74.6034 27.8392 74.9593 27.8495H75.1947C75.285 27.8349 75.374 27.8114 75.4608 27.7793C75.7176 27.6583 76.0058 27.6583 76.2626 27.7793C76.4052 27.9043 76.5053 28.082 76.5458 28.2821C76.5659 28.3556 76.5934 28.4262 76.6277 28.4925C76.8071 28.5324 76.9928 28.5135 77.1633 28.4379C77.2316 28.4379 77.2964 28.3951 77.3544 28.3834L77.5045 28.3483C78.0442 28.154 78.6292 28.2115 79.1319 28.5081C79.2787 28.6016 79.4322 28.7146 79.5789 28.8238C79.8443 29.0582 80.1483 29.2292 80.4728 29.3265C81.104 29.3967 81.7795 29.2291 82.5062 29.4707Z"/>
</mask>
<path d="M82.5062 29.4707C82.9242 29.6163 83.3243 29.8219 83.697 30.0826C83.697 29.9851 83.7209 29.8838 83.7379 29.7864C83.7705 29.6053 83.7911 29.4216 83.7993 29.2369C83.8069 28.9758 83.8285 28.7155 83.8642 28.4574C83.9 28.1826 83.9194 27.9052 83.9222 27.6273C83.9413 26.668 84.0698 25.7155 84.3043 24.7941C84.3657 24.5174 84.4271 24.2407 84.4783 23.964C84.649 22.8765 84.7074 21.7699 84.6523 20.6669C84.6523 19.9888 84.6318 19.2834 84.6728 18.5936C84.7717 16.949 84.7683 15.2771 84.7649 13.6597V12.8101C84.7649 12.5529 84.7649 12.2918 84.7649 12.0307C84.7649 11.3643 84.7649 10.6784 84.7956 9.99635C84.8263 9.31433 84.9184 8.58166 84.9867 7.89575V7.87237C83.8845 8.26395 82.7043 8.26395 81.6021 7.87237C80.9883 7.6265 80.3993 7.30641 79.845 6.91755C79.3268 6.55231 78.7768 6.24931 78.2039 6.0134C77.7269 5.78953 77.2094 5.70126 76.6959 5.75618C76.2426 5.90134 75.82 6.15066 75.454 6.48886C75.3073 6.60188 75.1606 6.71879 75.0104 6.82791L74.9695 6.85519C74.7282 7.07164 74.4386 7.20663 74.1336 7.24492C74.0351 7.24513 73.9377 7.2226 73.847 7.17866C73.5674 6.99768 73.3408 6.72657 73.1954 6.39922C73.1202 6.25079 73.0309 6.11225 72.9292 5.98612C72.7305 5.7697 72.4931 5.60503 72.2334 5.50344C71.9737 5.40186 71.6977 5.36576 71.4246 5.39764H71.0664H70.8241C70.3559 5.46319 69.8823 5.34204 69.4833 5.05468C69.2606 4.85897 68.9973 4.73273 68.719 4.68834C68.3522 4.62375 67.9812 4.59507 67.6102 4.60261H66.9722C66.4285 4.62377 65.885 4.55552 65.3584 4.39995C65.0255 4.29159 64.6809 4.23779 64.3348 4.24017C63.4985 4.28911 62.6709 4.45801 61.8715 4.74291C61.3111 4.92776 60.7414 5.07353 60.1655 5.17939C59.9394 5.2144 59.7113 5.23003 59.4832 5.22616H59.1966C58.9032 5.22616 58.6063 5.22616 58.2924 5.25344C58.0536 5.25344 57.8114 5.28852 57.5725 5.28852C57.2018 5.30049 56.8321 5.23715 56.4808 5.10145C56.3287 5.02919 56.1853 4.93489 56.0543 4.82085C55.9386 4.71358 55.8051 4.63405 55.6619 4.58702C55.3747 4.54265 55.084 4.53481 54.7953 4.56363H54.7339C54.6286 4.58293 54.5248 4.6116 54.4234 4.64937C54.0549 4.77019 53.5943 4.86762 53.3487 4.64937C53.2738 4.58225 53.2161 4.49343 53.1815 4.39216H53.1576C53.0219 4.42123 52.8964 4.49429 52.796 4.60261C52.7175 4.66886 52.6424 4.73511 52.5674 4.78578C52.2127 5.02265 51.8459 5.23479 51.4688 5.42102C51.0728 5.61362 50.647 5.71304 50.2166 5.71331C49.8523 5.70548 49.4897 5.65322 49.1351 5.55742L48.8792 5.49117C48.3822 5.34341 47.8736 5.25203 47.3609 5.21837C47.1221 5.21837 46.8798 5.21837 46.6376 5.21837C46.3954 5.21837 46.1122 5.21837 45.8529 5.21837C45.4506 5.18702 45.0537 5.0953 44.6724 4.94556C44.0378 4.72732 43.4305 4.55584 42.9358 4.85982C42.4673 5.1394 42.0118 5.44639 41.571 5.77956C40.9745 6.25718 40.3407 6.67075 39.6775 7.01498C39.0468 7.33037 38.3808 7.54416 37.6986 7.65022H37.6269C37.3634 7.69147 37.098 7.7149 36.832 7.72037C36.3664 7.74681 35.9071 7.58846 35.5321 7.2722C35.3385 7.0962 35.1571 6.90336 34.9896 6.69541C34.7994 6.45505 34.5866 6.2394 34.355 6.05237C33.9909 5.80455 33.5704 5.68649 33.1472 5.71331H32.4853C32.0924 5.72755 31.7 5.67234 31.3219 5.54963L31.1274 5.47948C30.781 5.33312 30.4178 5.24516 30.0493 5.21837C29.7081 5.21837 29.3669 5.21837 29.0052 5.21837H27.9817C27.5731 5.2522 27.1737 5.37384 26.8046 5.57691C26.6374 5.65485 26.4634 5.7289 26.2962 5.79515C25.6401 6.07616 24.9492 6.23664 24.2491 6.27061C23.9915 6.27284 23.7347 6.23748 23.4849 6.16539C22.8025 5.95494 22.5057 5.49117 22.1406 4.90659L22.0656 4.78578C21.7755 4.35299 21.4305 3.97207 21.042 3.65558C20.5808 3.24261 20.0807 2.88968 19.551 2.60334C19.2263 2.4558 18.8741 2.40484 18.5275 2.45524C18.2935 2.50978 18.0801 2.64596 17.9168 2.84496C17.8144 2.9346 17.7121 3.02813 17.5961 3.11777C17.2909 3.40048 16.903 3.53983 16.5111 3.50749H16.4736C16.2589 3.42166 16.0609 3.28934 15.8901 3.11777C15.7237 3.00005 15.5357 2.92802 15.3408 2.90732C15.1149 2.8707 14.8866 2.85636 14.6585 2.86445C14.0614 2.86445 13.3824 2.86445 12.9252 2.16685C12.8536 2.05773 12.7956 1.9525 12.7376 1.85118C12.648 1.6549 12.518 1.4864 12.3589 1.36013C12.1289 1.2186 11.8691 1.1525 11.6083 1.16916H11.4957H11.291C11.0232 1.19383 10.7538 1.17942 10.4892 1.12629C10.363 1.09122 10.247 1.04835 10.1275 1.00158C9.99718 0.944351 9.86238 0.901291 9.72495 0.872975C9.32812 0.802918 8.92422 0.802918 8.52739 0.872975C8.38048 0.905817 8.23571 0.950088 8.09409 1.00548C7.85031 1.10348 7.59493 1.15866 7.33666 1.16916C7.18233 1.17154 7.02917 1.13841 6.8863 1.07173C6.54068 0.926364 6.1789 0.837157 5.81157 0.806723C5.63415 0.798928 5.4465 0.779442 5.26909 0.736573C4.8972 0.662526 4.53554 0.54561 4.18412 0.436488C3.8327 0.327366 3.50175 0.222141 3.16057 0.151991C2.6934 0.0689107 2.22078 0.0323992 1.74807 0.0428693H1.22606C1.17151 0.0396419 1.11684 0.0396419 1.06229 0.0428693C0.960408 0.0579169 0.85792 0.0670222 0.755226 0.0701498C0.627145 0.0782825 0.499055 0.0543405 0.379924 0C0.199434 0.512132 0.114601 1.06169 0.130859 1.61345C0.130859 1.71477 0.130859 1.8122 0.130859 1.90184V1.97978C-0.0133093 3.89537 -0.0383923 5.82022 0.0557991 7.73986C0.132242 8.55287 0.246128 9.36071 0.396983 10.16C0.456121 10.4952 0.510711 10.8303 0.560751 11.1655C0.802551 12.7953 0.91673 14.4464 0.901935 16.0994C0.901935 17.0971 0.901935 18.0909 0.901935 19.0885C0.902895 20.4077 0.825381 21.7254 0.66993 23.0325C0.66993 23.1767 0.635811 23.317 0.618752 23.4534C0.559291 23.816 0.526197 24.1836 0.519809 24.5524C0.519809 24.7005 0.519809 24.8642 0.50275 25.0357C0.489434 25.2485 0.489434 25.462 0.50275 25.6748C0.554228 25.6374 0.60326 25.5957 0.649459 25.5501L0.704048 25.4956L0.87464 25.3319C1.14831 25.038 1.46616 24.8031 1.81289 24.6382C2.06834 24.5435 2.33595 24.4987 2.60444 24.5057C2.79892 24.5057 2.99339 24.5057 3.19128 24.5407C3.49748 24.5779 3.80627 24.5779 4.11247 24.5407C4.20118 24.5407 4.28307 24.5018 4.36495 24.4784C4.67659 24.3648 5.01313 24.3785 5.31685 24.5174C5.81498 24.7941 5.99922 25.2968 6.20734 25.819L6.25511 25.9437C6.29946 26.0645 6.41887 26.3335 6.52805 26.3335C6.6504 26.3 6.76614 26.2405 6.86924 26.1581C7.08456 26.0017 7.32441 25.8944 7.57549 25.8424C7.84912 25.8158 8.12468 25.8489 8.3875 25.9398C8.62961 26.0309 8.8883 26.0484 9.13811 25.9905C9.51522 25.8277 9.86237 25.5858 10.1617 25.2773C10.6393 24.8447 11.134 24.4004 11.8164 24.3848H11.8539C11.9495 24.3848 12.0416 24.3848 12.1371 24.3848C12.2855 24.4065 12.4357 24.4065 12.5841 24.3848C12.8045 24.3121 13.0091 24.1873 13.1845 24.0185C13.3482 23.8771 13.5243 23.7556 13.71 23.6561C14.0152 23.5255 14.3508 23.5213 14.6585 23.6444C14.979 23.7317 15.3082 23.771 15.6377 23.7613H15.7946H16.03C16.1324 23.7613 16.2347 23.7613 16.3371 23.7613C16.527 23.7553 16.716 23.7924 16.8932 23.8704C17.1203 23.9918 17.3354 24.1408 17.5346 24.3147C17.6097 24.3771 17.6848 24.4355 17.7564 24.4862L17.9748 24.6577C18.2295 24.9062 18.5453 25.0587 18.8789 25.0941C19.3334 25.1247 19.7891 25.1247 20.2436 25.0941C20.4522 25.0603 20.6548 24.9892 20.8441 24.8837C21.0916 24.7453 21.3606 24.6645 21.6357 24.646C21.813 24.6451 21.9877 24.6946 22.144 24.7902C22.5193 25.0162 22.8264 24.7902 23.1983 24.5135C23.3608 24.3828 23.5306 24.2643 23.7067 24.1588C23.9225 24.0185 24.1647 23.9396 24.4129 23.9289C24.6649 23.9258 24.9086 24.0316 25.0953 24.2251C25.2718 24.4176 25.4132 24.648 25.5115 24.9032C25.5792 25.0859 25.6765 25.2525 25.7981 25.3942C26.0165 25.5969 26.4532 25.4332 26.8217 25.2734C26.9712 25.1969 27.1251 25.1318 27.2823 25.0786C27.5479 25.0247 27.8209 25.0437 28.0789 25.1338C28.3369 25.2239 28.5725 25.3826 28.7664 25.5969C28.8867 25.7191 29.0006 25.8492 29.1076 25.9866C29.3362 26.2711 29.5136 26.4971 29.79 26.5322C30.0663 26.5673 30.2301 26.3412 30.4996 25.9476C30.7692 25.554 31.0319 25.1682 31.5027 25.1682C31.6647 25.1853 31.8213 25.244 31.9607 25.3398C32.1001 25.4356 32.2188 25.5661 32.3079 25.7216C32.3625 25.7917 32.4137 25.8619 32.4648 25.9204C32.6611 26.1154 32.911 26.2257 33.1711 26.2321H33.212C33.5694 26.288 33.9295 26.3166 34.2902 26.3179H34.5495C35.2523 26.3412 35.6378 26.7076 36.0712 27.2259C36.4677 27.737 36.9783 28.1155 37.5485 28.321C37.6849 28.3678 37.8214 28.4029 37.9545 28.4341C38.2304 28.4661 38.4973 28.5642 38.7377 28.722C38.9782 28.8798 39.1868 29.0937 39.3499 29.3499C39.5615 29.7415 39.7137 30.171 39.8003 30.6204C39.8412 30.7919 39.8856 30.9633 39.9368 31.1387C40.009 31.4387 40.1121 31.7278 40.2438 32C40.2711 31.9571 40.3052 31.887 40.3359 31.8285C40.3974 31.7038 40.4451 31.5908 40.4929 31.4895C40.6222 31.1225 40.8413 30.8059 41.1241 30.5775C41.4253 30.3378 41.7807 30.2025 42.1476 30.1878C42.3066 30.1864 42.4643 30.2208 42.6116 30.2891C42.8661 30.4324 43.097 30.6249 43.294 30.8581C43.4643 31.0638 43.6683 31.2293 43.8945 31.3453C44.2152 31.4739 44.3585 31.4505 44.7133 31.1582C45.4264 30.5736 45.9245 30.2424 46.8082 30.4333C47.0392 30.4843 47.2671 30.552 47.4906 30.636C47.9958 30.9084 48.575 30.9406 49.101 30.7256C49.249 30.6736 49.3993 30.6307 49.5513 30.597C49.7523 30.5602 49.9552 30.5381 50.1586 30.5307C50.4095 30.5283 50.6592 30.4917 50.9024 30.4216C51.1958 30.3203 51.4927 30.1917 51.7827 30.067L52.1238 29.915C52.3237 29.8364 52.531 29.7854 52.7414 29.763C52.8335 29.763 52.9256 29.7357 53.0246 29.7123C53.0971 29.6974 53.1689 29.6779 53.2395 29.6539C53.4439 29.5829 53.6574 29.5526 53.8707 29.5642C54.4268 29.6188 54.7919 30.106 55.0921 30.558C55.1533 30.658 55.2092 30.7621 55.2593 30.8698C55.3074 30.9952 55.3744 31.1099 55.4572 31.2089C55.6005 31.3297 56.0236 31.1504 56.1396 31.0958C56.3272 31.0023 56.5115 30.901 56.6957 30.7997C57.4088 30.4099 58.1457 30.0202 58.968 30.0202C59.1791 30.0209 59.3895 30.047 59.5958 30.0982C59.8954 30.1898 60.1745 30.3532 60.4146 30.5775C60.4999 30.6516 60.592 30.7256 60.691 30.7958C60.7467 30.8423 60.8108 30.8742 60.8786 30.8893C60.9215 30.8808 60.9616 30.8592 60.9946 30.8269C61.1118 30.6396 61.1985 30.4297 61.2505 30.2073C61.3001 30.0263 61.3653 29.8514 61.445 29.6851C61.6113 29.3386 61.8501 29.0446 62.14 28.8291C62.4299 28.6135 62.7619 28.4832 63.1065 28.4496C63.4683 28.4315 63.8308 28.4406 64.1915 28.4769C64.6617 28.5323 65.136 28.5218 65.604 28.4457C65.9463 28.34 66.2681 28.1615 66.5525 27.9196C66.6617 27.8339 66.7572 27.752 66.8459 27.678C67.0116 27.4971 67.2086 27.3579 67.4243 27.2693C67.64 27.1807 67.8695 27.1447 68.0981 27.1636C68.465 27.2079 68.8265 27.2981 69.1762 27.4325C69.3673 27.4948 69.5617 27.5611 69.7562 27.6078C70.2127 27.7721 70.6187 28.0817 70.9265 28.5003C71.2677 28.89 71.5781 29.2291 71.9739 29.2797C72.1479 29.2797 72.2571 29.2096 72.4857 29.0069C72.5812 28.9251 72.6631 28.8511 72.7416 28.777C73.0801 28.4313 73.4757 28.1664 73.905 27.9976C74.2481 27.8891 74.6034 27.8392 74.9593 27.8495H75.1947C75.285 27.8349 75.374 27.8114 75.4608 27.7793C75.7176 27.6583 76.0058 27.6583 76.2626 27.7793C76.4052 27.9043 76.5053 28.082 76.5458 28.2821C76.5659 28.3556 76.5934 28.4262 76.6277 28.4925C76.8071 28.5324 76.9928 28.5135 77.1633 28.4379C77.2316 28.4379 77.2964 28.3951 77.3544 28.3834L77.5045 28.3483C78.0442 28.154 78.6292 28.2115 79.1319 28.5081C79.2787 28.6016 79.4322 28.7146 79.5789 28.8238C79.8443 29.0582 80.1483 29.2292 80.4728 29.3265C81.104 29.3967 81.7795 29.2291 82.5062 29.4707Z" fill="#84BCFF" stroke="#599DED" stroke-width="2" mask="url(#path-1-inside-1_1157_390)"/>
<mask id="path-2-inside-2_1157_390" fill="white">
<path d="M81.5986 7.86684C81.4724 7.82397 81.353 7.7694 81.2336 7.71484C81.499 8.53484 81.5958 9.41354 81.5167 10.2831C81.3555 11.036 81.1016 11.759 80.7627 12.4305C80.1588 13.7477 79.4253 15.0143 78.7668 16.3043C78.5612 16.7742 78.2759 17.1928 77.9275 17.5358C77.2826 18.1516 75.9111 19.0947 75.0172 18.8687C74.386 18.7128 73.8572 18.1321 73.2191 18.0502C72.4822 17.9567 72.0728 18.6037 71.5917 19.0947C70.981 19.7144 70.3396 20.0924 69.4934 19.9014C69.0431 19.8001 68.6302 19.4727 68.1696 19.4338C67.361 19.3597 67.1461 20.2132 66.4637 20.4236C66.0236 20.5601 65.6551 20.3418 65.2286 20.2483C63.8844 19.956 62.9154 20.4938 61.694 20.9887C60.4725 21.4837 59.6469 21.1992 58.521 20.6965C57.6475 20.3067 56.6206 20.4236 55.6959 20.4392C53.7478 20.4782 52.2636 21.4174 50.5782 22.3606C50.0357 22.6645 49.7321 22.875 49.1452 22.7503C48.4156 22.5663 47.7045 22.2973 47.0231 21.9475C46.2213 21.5577 45.5253 21.0121 44.6348 20.9264C44.2117 20.8874 44.0138 21.055 43.6453 20.712C43.4618 20.4978 43.2632 20.301 43.0517 20.1236C42.7089 19.8367 42.3321 19.6071 41.9326 19.4416C40.6054 19.0518 39.2236 19.7689 37.8862 19.6715C36.692 19.5857 35.7504 19.1687 34.5494 19.6481C33.3484 20.1275 32.8435 20.5445 31.7994 19.3987C31.1101 18.5696 30.5047 17.6545 29.9946 16.6706C29.5545 15.8912 29.3122 15.786 28.5753 15.4742C27.2685 14.9364 26.4156 15.6301 25.1088 15.9652C24.3821 16.1523 23.6622 16.355 22.9389 16.5459C22.2156 16.7369 20.8918 17.1383 20.1446 16.7447C19.3974 16.3511 19.2098 15.217 18.3602 14.9676C17.6809 14.8637 16.9925 14.8637 16.3131 14.9676C15.1497 15.065 14.2114 15.7782 13.0036 15.7665C11.8573 15.7665 10.7757 16.3744 9.64639 16.277C8.8719 16.2147 8.22024 15.7587 7.50034 15.4976C6.19031 15.0539 4.79206 15.0852 3.49826 15.5872C2.51906 15.9769 2.10281 16.4134 1.26691 15.4352C1.11435 15.2503 0.980449 15.0463 0.867729 14.8273C0.867729 15.2365 0.867729 15.6613 0.867729 16.0977C0.867729 17.0954 0.867729 18.0892 0.867729 19.0869C0.880001 20.4052 0.813887 21.7229 0.669843 23.0309C0.669843 23.1751 0.635725 23.3154 0.618665 23.4518C0.559204 23.8144 0.52611 24.182 0.519722 24.5508C0.519722 24.6989 0.519722 24.8626 0.502663 25.034C0.489347 25.2468 0.489347 25.4604 0.502663 25.6732C0.554141 25.6357 0.603173 25.594 0.649372 25.5485L0.703961 25.4939L0.874553 25.3302C1.14823 25.0364 1.46607 24.8014 1.81281 24.6365C2.06826 24.5418 2.33586 24.497 2.60435 24.504C2.79883 24.504 2.9933 24.504 3.19119 24.5391C3.49739 24.5763 3.80618 24.5763 4.11239 24.5391C4.20109 24.5391 4.28298 24.5001 4.36486 24.4767C4.6765 24.3631 5.01304 24.3769 5.31676 24.5157C5.81489 24.7924 5.99913 25.2952 6.20725 25.8174L6.25502 25.9421C6.29937 26.0629 6.41879 26.3318 6.52797 26.3318C6.65032 26.2983 6.76606 26.2388 6.86915 26.1564C7.08447 26 7.32432 25.8928 7.5754 25.8408C7.84903 25.8142 8.1246 25.8472 8.38742 25.9382C8.62952 26.0293 8.88822 26.0467 9.13802 25.9889C9.51513 25.8261 9.86228 25.5842 10.1616 25.2757C10.6392 24.8431 11.1339 24.3988 11.8163 24.3832H11.8538C11.9494 24.3832 12.0415 24.3832 12.137 24.3832C12.2854 24.4049 12.4356 24.4049 12.584 24.3832C12.8044 24.3105 13.009 24.1857 13.1845 24.0169C13.3481 23.8755 13.5242 23.754 13.7099 23.6544C14.0151 23.5238 14.3508 23.5197 14.6584 23.6427C14.9789 23.7301 15.3081 23.7694 15.6376 23.7597H15.7945H16.0299C16.1323 23.7597 16.2346 23.7597 16.337 23.7597C16.5269 23.7537 16.7159 23.7908 16.8931 23.8688C17.1203 23.9902 17.3353 24.1391 17.5346 24.3131C17.6096 24.3754 17.6847 24.4339 17.7563 24.4845L17.9747 24.656C18.2294 24.9046 18.5452 25.057 18.8788 25.0925C19.3333 25.1231 19.789 25.1231 20.2436 25.0925C20.4521 25.0586 20.6547 24.9876 20.844 24.8821C21.0915 24.7437 21.3605 24.6628 21.6356 24.6443C21.8129 24.6434 21.9876 24.693 22.1439 24.7885C22.5192 25.0146 22.8263 24.7885 23.1982 24.5118C23.3607 24.3811 23.5305 24.2627 23.7066 24.1572C23.9224 24.0168 24.1646 23.938 24.4128 23.9272C24.6648 23.9242 24.9085 24.03 25.0952 24.2234C25.2717 24.4159 25.4131 24.6464 25.5114 24.9015C25.5792 25.0843 25.6764 25.2509 25.798 25.3926C26.0164 25.5953 26.4531 25.4316 26.8216 25.2718C26.9712 25.1952 27.125 25.1301 27.2822 25.0769C27.5478 25.0231 27.8208 25.042 28.0788 25.1321C28.3368 25.2222 28.5724 25.381 28.7663 25.5952C28.8866 25.7174 29.0005 25.8476 29.1075 25.985C29.3361 26.2695 29.5135 26.4955 29.7899 26.5306C30.0662 26.5657 30.23 26.3396 30.4995 25.946C30.7691 25.5524 31.0318 25.1666 31.5026 25.1666C31.6646 25.1837 31.8212 25.2423 31.9606 25.3382C32.1 25.434 32.2187 25.5645 32.3078 25.72C32.3624 25.7901 32.4136 25.8603 32.4648 25.9187C32.661 26.1138 32.9109 26.2241 33.171 26.2305H33.2119C33.5693 26.2863 33.9294 26.315 34.2901 26.3162H34.5494C35.2522 26.3396 35.6378 26.706 36.0711 27.2243C36.4677 27.7353 36.9782 28.1138 37.5484 28.3194C37.6849 28.3662 37.8213 28.4012 37.9544 28.4324C38.2303 28.4644 38.4972 28.5625 38.7376 28.7203C38.9781 28.8781 39.1867 29.0921 39.3498 29.3483C39.5614 29.7399 39.7136 30.1694 39.8002 30.6188C39.8411 30.7902 39.8855 30.9617 39.9367 31.1371C40.0089 31.437 40.112 31.7261 40.2437 31.9984C40.271 31.9555 40.3052 31.8853 40.3359 31.8269C40.3973 31.7022 40.445 31.5892 40.4928 31.4878C40.6221 31.1209 40.8412 30.8043 41.124 30.5759C41.4252 30.3362 41.7806 30.2008 42.1475 30.1862C42.3065 30.1847 42.4642 30.2192 42.6116 30.2875C42.866 30.4308 43.0969 30.6233 43.2939 30.8565C43.4642 31.0622 43.6683 31.2277 43.8944 31.3436C44.2151 31.4722 44.3584 31.4489 44.7132 31.1566C45.4263 30.572 45.9244 30.2407 46.8081 30.4317C47.0391 30.4827 47.267 30.5504 47.4905 30.6343C47.9957 30.9067 48.5749 30.939 49.1009 30.724C49.2489 30.672 49.3992 30.629 49.5512 30.5954C49.7522 30.5586 49.9551 30.5365 50.1585 30.5291C50.4094 30.5267 50.6591 30.4901 50.9023 30.42C51.1957 30.3187 51.4926 30.1901 51.7826 30.0654L52.1238 29.9134C52.3236 29.8348 52.5309 29.7837 52.7413 29.7614C52.8334 29.7614 52.9255 29.7341 53.0245 29.7107C53.097 29.6958 53.1688 29.6763 53.2394 29.6522C53.4438 29.5813 53.6573 29.5509 53.8706 29.5626C54.4267 29.6172 54.7918 30.1043 55.0921 30.5564C55.1532 30.6564 55.2091 30.7605 55.2592 30.8682C55.3073 30.9936 55.3743 31.1083 55.4571 31.2072C55.6004 31.328 56.0235 31.1488 56.1395 31.0942C56.3271 31.0007 56.5114 30.8994 56.6956 30.798C57.4087 30.4083 58.1456 30.0186 58.9679 30.0186C59.179 30.0193 59.3894 30.0454 59.5957 30.0965C59.8953 30.1882 60.1744 30.3516 60.4145 30.5759C60.4998 30.6499 60.5919 30.724 60.6909 30.7941C60.7467 30.8407 60.8107 30.8726 60.8785 30.8877C60.9214 30.8792 60.9615 30.8576 60.9945 30.8253C61.1117 30.638 61.1984 30.4281 61.2504 30.2057C61.3 30.0247 61.3652 29.8498 61.4449 29.6834C61.6113 29.337 61.85 29.043 62.1399 28.8274C62.4298 28.6119 62.7618 28.4815 63.1065 28.448C63.4682 28.4298 63.8307 28.4389 64.1914 28.4753C64.6616 28.5307 65.136 28.5202 65.6039 28.4441C65.9462 28.3384 66.268 28.1599 66.5524 27.918C66.6616 27.8322 66.7571 27.7504 66.8458 27.6764C67.0115 27.4955 67.2085 27.3563 67.4242 27.2677C67.6399 27.1791 67.8694 27.143 68.098 27.1619C68.4649 27.2063 68.8264 27.2965 69.1761 27.4308C69.3672 27.4932 69.5617 27.5594 69.7561 27.6062C70.2126 27.7704 70.6186 28.08 70.9264 28.4987C71.2676 28.8884 71.578 29.2274 71.9738 29.2781C72.1478 29.2781 72.257 29.208 72.4856 29.0053C72.5811 28.9235 72.663 28.8494 72.7415 28.7754C73.08 28.4297 73.4756 28.1647 73.9049 27.9959C74.248 27.8875 74.6033 27.8375 74.9592 27.8478H75.1946C75.2849 27.8333 75.374 27.8098 75.4607 27.7777C75.7175 27.6566 76.0057 27.6566 76.2625 27.7777C76.4051 27.9027 76.5052 28.0804 76.5457 28.2804C76.5658 28.3539 76.5933 28.4246 76.6276 28.4909C76.8071 28.5308 76.9928 28.5119 77.1632 28.4363C77.2315 28.4363 77.2963 28.3934 77.3543 28.3818L77.5044 28.3467C78.0441 28.1524 78.6291 28.2098 79.1319 28.5065C79.2786 28.6 79.4321 28.713 79.5788 28.8221C79.8442 29.0566 80.1482 29.2276 80.4727 29.3249C81.1141 29.4301 81.7897 29.2742 82.5198 29.5042C82.9378 29.6498 83.3379 29.8554 83.7105 30.116C83.7105 30.0186 83.7344 29.9173 83.7515 29.8198C83.7841 29.6387 83.8046 29.455 83.8129 29.2703C83.8204 29.0092 83.8421 28.7489 83.8777 28.4909C83.9136 28.216 83.933 27.9387 83.9357 27.6608C83.9549 26.7014 84.0833 25.749 84.3178 24.8275C84.3793 24.5508 84.4407 24.2741 84.4919 23.9974C84.6625 22.9099 84.7209 21.8034 84.6659 20.7004C84.6659 20.0222 84.6454 19.3168 84.6863 18.627C84.7853 16.9824 84.7819 15.3105 84.7785 13.6932V12.8085C84.7785 12.5513 84.7785 12.2902 84.7785 12.0291C84.7785 11.3626 84.7785 10.6767 84.8092 9.99471C84.8399 9.3127 84.932 8.58003 85.0002 7.89412V7.87073C83.8924 8.2651 82.7057 8.26374 81.5986 7.86684Z"/>
</mask>
<path d="M81.5986 7.86684C81.4724 7.82397 81.353 7.7694 81.2336 7.71484C81.499 8.53484 81.5958 9.41354 81.5167 10.2831C81.3555 11.036 81.1016 11.759 80.7627 12.4305C80.1588 13.7477 79.4253 15.0143 78.7668 16.3043C78.5612 16.7742 78.2759 17.1928 77.9275 17.5358C77.2826 18.1516 75.9111 19.0947 75.0172 18.8687C74.386 18.7128 73.8572 18.1321 73.2191 18.0502C72.4822 17.9567 72.0728 18.6037 71.5917 19.0947C70.981 19.7144 70.3396 20.0924 69.4934 19.9014C69.0431 19.8001 68.6302 19.4727 68.1696 19.4338C67.361 19.3597 67.1461 20.2132 66.4637 20.4236C66.0236 20.5601 65.6551 20.3418 65.2286 20.2483C63.8844 19.956 62.9154 20.4938 61.694 20.9887C60.4725 21.4837 59.6469 21.1992 58.521 20.6965C57.6475 20.3067 56.6206 20.4236 55.6959 20.4392C53.7478 20.4782 52.2636 21.4174 50.5782 22.3606C50.0357 22.6645 49.7321 22.875 49.1452 22.7503C48.4156 22.5663 47.7045 22.2973 47.0231 21.9475C46.2213 21.5577 45.5253 21.0121 44.6348 20.9264C44.2117 20.8874 44.0138 21.055 43.6453 20.712C43.4618 20.4978 43.2632 20.301 43.0517 20.1236C42.7089 19.8367 42.3321 19.6071 41.9326 19.4416C40.6054 19.0518 39.2236 19.7689 37.8862 19.6715C36.692 19.5857 35.7504 19.1687 34.5494 19.6481C33.3484 20.1275 32.8435 20.5445 31.7994 19.3987C31.1101 18.5696 30.5047 17.6545 29.9946 16.6706C29.5545 15.8912 29.3122 15.786 28.5753 15.4742C27.2685 14.9364 26.4156 15.6301 25.1088 15.9652C24.3821 16.1523 23.6622 16.355 22.9389 16.5459C22.2156 16.7369 20.8918 17.1383 20.1446 16.7447C19.3974 16.3511 19.2098 15.217 18.3602 14.9676C17.6809 14.8637 16.9925 14.8637 16.3131 14.9676C15.1497 15.065 14.2114 15.7782 13.0036 15.7665C11.8573 15.7665 10.7757 16.3744 9.64639 16.277C8.8719 16.2147 8.22024 15.7587 7.50034 15.4976C6.19031 15.0539 4.79206 15.0852 3.49826 15.5872C2.51906 15.9769 2.10281 16.4134 1.26691 15.4352C1.11435 15.2503 0.980449 15.0463 0.867729 14.8273C0.867729 15.2365 0.867729 15.6613 0.867729 16.0977C0.867729 17.0954 0.867729 18.0892 0.867729 19.0869C0.880001 20.4052 0.813887 21.7229 0.669843 23.0309C0.669843 23.1751 0.635725 23.3154 0.618665 23.4518C0.559204 23.8144 0.52611 24.182 0.519722 24.5508C0.519722 24.6989 0.519722 24.8626 0.502663 25.034C0.489347 25.2468 0.489347 25.4604 0.502663 25.6732C0.554141 25.6357 0.603173 25.594 0.649372 25.5485L0.703961 25.4939L0.874553 25.3302C1.14823 25.0364 1.46607 24.8014 1.81281 24.6365C2.06826 24.5418 2.33586 24.497 2.60435 24.504C2.79883 24.504 2.9933 24.504 3.19119 24.5391C3.49739 24.5763 3.80618 24.5763 4.11239 24.5391C4.20109 24.5391 4.28298 24.5001 4.36486 24.4767C4.6765 24.3631 5.01304 24.3769 5.31676 24.5157C5.81489 24.7924 5.99913 25.2952 6.20725 25.8174L6.25502 25.9421C6.29937 26.0629 6.41879 26.3318 6.52797 26.3318C6.65032 26.2983 6.76606 26.2388 6.86915 26.1564C7.08447 26 7.32432 25.8928 7.5754 25.8408C7.84903 25.8142 8.1246 25.8472 8.38742 25.9382C8.62952 26.0293 8.88822 26.0467 9.13802 25.9889C9.51513 25.8261 9.86228 25.5842 10.1616 25.2757C10.6392 24.8431 11.1339 24.3988 11.8163 24.3832H11.8538C11.9494 24.3832 12.0415 24.3832 12.137 24.3832C12.2854 24.4049 12.4356 24.4049 12.584 24.3832C12.8044 24.3105 13.009 24.1857 13.1845 24.0169C13.3481 23.8755 13.5242 23.754 13.7099 23.6544C14.0151 23.5238 14.3508 23.5197 14.6584 23.6427C14.9789 23.7301 15.3081 23.7694 15.6376 23.7597H15.7945H16.0299C16.1323 23.7597 16.2346 23.7597 16.337 23.7597C16.5269 23.7537 16.7159 23.7908 16.8931 23.8688C17.1203 23.9902 17.3353 24.1391 17.5346 24.3131C17.6096 24.3754 17.6847 24.4339 17.7563 24.4845L17.9747 24.656C18.2294 24.9046 18.5452 25.057 18.8788 25.0925C19.3333 25.1231 19.789 25.1231 20.2436 25.0925C20.4521 25.0586 20.6547 24.9876 20.844 24.8821C21.0915 24.7437 21.3605 24.6628 21.6356 24.6443C21.8129 24.6434 21.9876 24.693 22.1439 24.7885C22.5192 25.0146 22.8263 24.7885 23.1982 24.5118C23.3607 24.3811 23.5305 24.2627 23.7066 24.1572C23.9224 24.0168 24.1646 23.938 24.4128 23.9272C24.6648 23.9242 24.9085 24.03 25.0952 24.2234C25.2717 24.4159 25.4131 24.6464 25.5114 24.9015C25.5792 25.0843 25.6764 25.2509 25.798 25.3926C26.0164 25.5953 26.4531 25.4316 26.8216 25.2718C26.9712 25.1952 27.125 25.1301 27.2822 25.0769C27.5478 25.0231 27.8208 25.042 28.0788 25.1321C28.3368 25.2222 28.5724 25.381 28.7663 25.5952C28.8866 25.7174 29.0005 25.8476 29.1075 25.985C29.3361 26.2695 29.5135 26.4955 29.7899 26.5306C30.0662 26.5657 30.23 26.3396 30.4995 25.946C30.7691 25.5524 31.0318 25.1666 31.5026 25.1666C31.6646 25.1837 31.8212 25.2423 31.9606 25.3382C32.1 25.434 32.2187 25.5645 32.3078 25.72C32.3624 25.7901 32.4136 25.8603 32.4648 25.9187C32.661 26.1138 32.9109 26.2241 33.171 26.2305H33.2119C33.5693 26.2863 33.9294 26.315 34.2901 26.3162H34.5494C35.2522 26.3396 35.6378 26.706 36.0711 27.2243C36.4677 27.7353 36.9782 28.1138 37.5484 28.3194C37.6849 28.3662 37.8213 28.4012 37.9544 28.4324C38.2303 28.4644 38.4972 28.5625 38.7376 28.7203C38.9781 28.8781 39.1867 29.0921 39.3498 29.3483C39.5614 29.7399 39.7136 30.1694 39.8002 30.6188C39.8411 30.7902 39.8855 30.9617 39.9367 31.1371C40.0089 31.437 40.112 31.7261 40.2437 31.9984C40.271 31.9555 40.3052 31.8853 40.3359 31.8269C40.3973 31.7022 40.445 31.5892 40.4928 31.4878C40.6221 31.1209 40.8412 30.8043 41.124 30.5759C41.4252 30.3362 41.7806 30.2008 42.1475 30.1862C42.3065 30.1847 42.4642 30.2192 42.6116 30.2875C42.866 30.4308 43.0969 30.6233 43.2939 30.8565C43.4642 31.0622 43.6683 31.2277 43.8944 31.3436C44.2151 31.4722 44.3584 31.4489 44.7132 31.1566C45.4263 30.572 45.9244 30.2407 46.8081 30.4317C47.0391 30.4827 47.267 30.5504 47.4905 30.6343C47.9957 30.9067 48.5749 30.939 49.1009 30.724C49.2489 30.672 49.3992 30.629 49.5512 30.5954C49.7522 30.5586 49.9551 30.5365 50.1585 30.5291C50.4094 30.5267 50.6591 30.4901 50.9023 30.42C51.1957 30.3187 51.4926 30.1901 51.7826 30.0654L52.1238 29.9134C52.3236 29.8348 52.5309 29.7837 52.7413 29.7614C52.8334 29.7614 52.9255 29.7341 53.0245 29.7107C53.097 29.6958 53.1688 29.6763 53.2394 29.6522C53.4438 29.5813 53.6573 29.5509 53.8706 29.5626C54.4267 29.6172 54.7918 30.1043 55.0921 30.5564C55.1532 30.6564 55.2091 30.7605 55.2592 30.8682C55.3073 30.9936 55.3743 31.1083 55.4571 31.2072C55.6004 31.328 56.0235 31.1488 56.1395 31.0942C56.3271 31.0007 56.5114 30.8994 56.6956 30.798C57.4087 30.4083 58.1456 30.0186 58.9679 30.0186C59.179 30.0193 59.3894 30.0454 59.5957 30.0965C59.8953 30.1882 60.1744 30.3516 60.4145 30.5759C60.4998 30.6499 60.5919 30.724 60.6909 30.7941C60.7467 30.8407 60.8107 30.8726 60.8785 30.8877C60.9214 30.8792 60.9615 30.8576 60.9945 30.8253C61.1117 30.638 61.1984 30.4281 61.2504 30.2057C61.3 30.0247 61.3652 29.8498 61.4449 29.6834C61.6113 29.337 61.85 29.043 62.1399 28.8274C62.4298 28.6119 62.7618 28.4815 63.1065 28.448C63.4682 28.4298 63.8307 28.4389 64.1914 28.4753C64.6616 28.5307 65.136 28.5202 65.6039 28.4441C65.9462 28.3384 66.268 28.1599 66.5524 27.918C66.6616 27.8322 66.7571 27.7504 66.8458 27.6764C67.0115 27.4955 67.2085 27.3563 67.4242 27.2677C67.6399 27.1791 67.8694 27.143 68.098 27.1619C68.4649 27.2063 68.8264 27.2965 69.1761 27.4308C69.3672 27.4932 69.5617 27.5594 69.7561 27.6062C70.2126 27.7704 70.6186 28.08 70.9264 28.4987C71.2676 28.8884 71.578 29.2274 71.9738 29.2781C72.1478 29.2781 72.257 29.208 72.4856 29.0053C72.5811 28.9235 72.663 28.8494 72.7415 28.7754C73.08 28.4297 73.4756 28.1647 73.9049 27.9959C74.248 27.8875 74.6033 27.8375 74.9592 27.8478H75.1946C75.2849 27.8333 75.374 27.8098 75.4607 27.7777C75.7175 27.6566 76.0057 27.6566 76.2625 27.7777C76.4051 27.9027 76.5052 28.0804 76.5457 28.2804C76.5658 28.3539 76.5933 28.4246 76.6276 28.4909C76.8071 28.5308 76.9928 28.5119 77.1632 28.4363C77.2315 28.4363 77.2963 28.3934 77.3543 28.3818L77.5044 28.3467C78.0441 28.1524 78.6291 28.2098 79.1319 28.5065C79.2786 28.6 79.4321 28.713 79.5788 28.8221C79.8442 29.0566 80.1482 29.2276 80.4727 29.3249C81.1141 29.4301 81.7897 29.2742 82.5198 29.5042C82.9378 29.6498 83.3379 29.8554 83.7105 30.116C83.7105 30.0186 83.7344 29.9173 83.7515 29.8198C83.7841 29.6387 83.8046 29.455 83.8129 29.2703C83.8204 29.0092 83.8421 28.7489 83.8777 28.4909C83.9136 28.216 83.933 27.9387 83.9357 27.6608C83.9549 26.7014 84.0833 25.749 84.3178 24.8275C84.3793 24.5508 84.4407 24.2741 84.4919 23.9974C84.6625 22.9099 84.7209 21.8034 84.6659 20.7004C84.6659 20.0222 84.6454 19.3168 84.6863 18.627C84.7853 16.9824 84.7819 15.3105 84.7785 13.6932V12.8085C84.7785 12.5513 84.7785 12.2902 84.7785 12.0291C84.7785 11.3626 84.7785 10.6767 84.8092 9.99471C84.8399 9.3127 84.932 8.58003 85.0002 7.89412V7.87073C83.8924 8.2651 82.7057 8.26374 81.5986 7.86684Z" fill="#A8D3FF" stroke="#599DED" stroke-width="2" mask="url(#path-2-inside-2_1157_390)"/>
</svg>
