<svg width="87" height="32" viewBox="0 0 87 32" fill="none" xmlns="http://www.w3.org/2000/svg">
<mask id="path-1-inside-1_1157_380" fill="white">
<path d="M86.1826 25.1901C86.447 25.274 86.7239 25.3076 86.9999 25.2892C86.977 25.1742 86.954 25.0553 86.9273 24.9363C86.9006 24.8174 86.8777 24.6984 86.8509 24.5795C86.7603 24.0758 86.6953 23.5676 86.6561 23.0569C86.6294 22.7595 86.5989 22.4582 86.5607 22.1608C86.4232 21.122 86.3659 20.1149 86.3086 18.9888C86.259 18.0055 86.1826 17.0063 86.1062 16.0388C86.0413 15.2141 85.9763 14.3894 85.9267 13.5647C85.8809 12.4465 85.8159 11.3205 85.7357 10.2142C85.6708 9.46484 85.583 8.70753 85.476 7.97004L85.476 7.8947C85.476 7.79954 85.4493 7.71628 85.4417 7.63301C85.0597 7.68456 84.6778 7.75593 84.3532 7.81937L83.8873 7.91056C83.2055 8.05852 82.5154 8.16181 81.8211 8.21983C81.718 8.21983 81.6149 8.21983 81.5118 8.24759C81.2255 8.28603 80.9362 8.29267 80.6486 8.26741C80.2533 8.20316 79.868 8.08449 79.5029 7.91453C79.1865 7.76467 78.8527 7.65804 78.5099 7.59733L78.4717 7.59733C77.3471 7.40632 76.2036 7.36501 75.0689 7.47441C74.897 7.50217 74.7137 7.54182 74.5227 7.58147C74.0917 7.68731 73.6516 7.74841 73.2089 7.76386C72.8997 7.77106 72.5926 7.71025 72.3076 7.58543L72.0479 7.45855C71.8243 7.32925 71.5837 7.23442 71.3337 7.17704C71.1213 7.15188 70.9065 7.15855 70.6959 7.19686C70.5578 7.21531 70.4189 7.2259 70.2797 7.22858C69.9665 7.22858 69.6533 7.22858 69.3516 7.1929C69.0496 7.16145 68.7461 7.14953 68.4427 7.15721C67.4356 7.19199 66.4275 7.1376 65.4293 6.99465C64.5568 6.89374 63.6797 6.84212 62.8018 6.84002C62.3015 6.84002 61.7821 6.84002 61.2741 6.79244C60.5103 6.74882 59.2729 6.67745 58.6427 5.95185C58.5574 5.84392 58.4926 5.72013 58.4518 5.58707C58.4288 5.52322 58.3993 5.46208 58.3639 5.40468C58.3275 5.38318 58.2872 5.36968 58.2455 5.36503C58.1151 5.34365 57.9918 5.28917 57.8865 5.20643C57.7652 5.09642 57.6574 4.97123 57.5657 4.83372C57.4996 4.73016 57.4228 4.63443 57.3366 4.54824C56.8638 4.13345 56.3316 3.79768 55.7593 3.55303C55.2739 3.35393 54.7526 3.26732 54.2316 3.29927C54.0309 3.30859 53.8308 3.32844 53.632 3.35874C53.2018 3.4375 52.7623 3.44553 52.3297 3.38253C51.9819 3.28443 51.6596 3.10698 51.3863 2.86312C51.2134 2.71853 51.0235 2.59729 50.8211 2.5023C50.718 2.45341 50.606 2.42811 50.4927 2.42811C50.3793 2.42811 50.2673 2.45341 50.1642 2.5023L50.0191 2.54988C49.8716 2.59567 49.7186 2.6197 49.5646 2.62125C49.1101 2.58742 48.6853 2.37468 48.3769 2.0265C48.2814 1.94323 48.1821 1.85997 48.0751 1.7767C47.2273 1.11455 46.6124 0.634783 45.5927 0.626853C45.2539 0.616175 44.921 0.532459 44.615 0.381023C44.4527 0.311149 44.287 0.250267 44.1185 0.198632C43.6021 0.060862 43.0705 -0.005793 42.5374 0.000382459C41.7101 0.0222431 40.8855 0.107058 40.0702 0.254144C39.7838 0.291923 39.4957 0.314421 39.2071 0.321549C38.8975 0.329497 38.5888 0.358637 38.2829 0.408779C37.6969 0.560058 37.1661 0.885209 36.7552 1.34452L36.4229 1.6419C35.8577 2.13356 35.3536 2.36353 34.8533 2.2644C34.6958 2.23328 34.5446 2.17427 34.4064 2.08994C34.3332 2.04057 34.2551 1.99937 34.1735 1.96703C33.861 1.90664 33.5441 1.87348 33.2263 1.8679L33.1538 1.8679C32.623 1.91462 32.1052 2.06247 31.6261 2.30405C31.4581 2.37542 31.2938 2.44679 31.1372 2.50627C30.8432 2.61332 30.5529 2.72831 30.2627 2.83933C29.7165 3.05344 29.1513 3.27548 28.5822 3.46977C27.9371 3.67803 27.2786 3.83835 26.6116 3.94953C26.0226 4.04487 25.4397 4.17728 24.8662 4.34603C24.702 4.40154 24.5569 4.45705 24.4194 4.51256C24.0935 4.66507 23.7446 4.75765 23.3882 4.78615C22.6666 4.80405 21.946 4.72137 21.2457 4.54032C20.9363 4.47292 20.6155 4.40155 20.2871 4.35397C19.637 4.28654 18.9822 4.28389 18.3317 4.34604C17.7792 4.39498 17.2241 4.40425 16.6703 4.37379C16.3224 4.35813 15.9739 4.37006 15.6277 4.40948C15.3985 4.40948 15.1732 4.44913 14.9441 4.45309L14.8944 4.45309C14.5471 4.44086 14.203 4.38086 13.8709 4.27467C13.6838 4.22312 13.489 4.17554 13.3171 4.14382C12.96 4.06974 12.6169 3.93582 12.3012 3.74732C12.0793 3.61527 11.8435 3.51017 11.5985 3.43409C11.3634 3.37629 11.122 3.35096 10.8805 3.35875L10.4146 3.35875C10.2759 3.36657 10.1369 3.36657 9.99828 3.35875L9.86843 3.35875C9.61745 3.35036 9.36851 3.30906 9.12751 3.23584C8.9777 3.1674 8.84066 3.07211 8.72268 2.95432C8.65353 2.87928 8.57521 2.81396 8.48971 2.76004C8.09308 2.59318 7.67911 2.47476 7.25613 2.40715L6.68326 2.28027C6.38785 2.20178 6.12183 2.03331 5.91943 1.79654C5.85079 1.71591 5.77677 1.64039 5.69792 1.57053C5.33854 1.32203 4.94063 1.13962 4.52162 1.03129C4.18843 0.943801 3.84555 0.90247 3.50191 0.908379C3.16965 0.908379 2.82592 0.936134 2.49748 0.963889L2.11556 0.995609C1.61705 1.02346 1.11711 0.990186 0.626096 0.896484C0.533914 1.01278 0.452103 1.13753 0.38167 1.26919L0.301468 1.39608C0.221266 1.52296 -0.000243887 1.8917 -0.000243866 2.0503C0.0749102 2.194 0.167306 2.32723 0.274735 2.4468L0.354937 2.54196C0.59582 2.76437 0.742632 3.07633 0.763585 3.4103C0.777661 3.72315 0.761025 4.03668 0.713936 4.34604C0.642232 4.74123 0.659221 5.14827 0.763586 5.53554C0.903096 5.86663 1.08978 6.17405 1.31736 6.44749C1.38993 6.53869 1.45867 6.63385 1.52741 6.72901C1.82231 7.21781 1.98094 7.78189 1.98571 8.35863L1.98571 8.47758C2.0547 9.08011 2.08278 9.68693 2.06973 10.2936C2.04113 10.6775 1.98753 11.059 1.90933 11.4355C1.86732 11.6417 1.82913 11.832 1.79857 12.058L1.7642 12.2761C1.70692 12.6726 1.64963 13.0691 1.62289 13.4656C1.61186 14.0764 1.67343 14.6863 1.80621 15.2815L1.85968 15.5868C1.86149 15.6132 1.86149 15.6397 1.85968 15.6661C1.85968 15.6661 1.90169 15.7335 1.91315 15.7415C2.00885 15.8156 2.10829 15.8845 2.21104 15.9477C2.42618 16.0705 2.62089 16.2285 2.78773 16.4155C3.39498 17.1094 3.35679 17.8826 3.26513 18.6121C3.19256 19.191 3.16965 19.7501 3.14673 20.3448C3.14673 20.6581 3.12382 20.9713 3.1009 21.2885C3.06844 21.8656 3.06844 22.4441 3.1009 23.0212C3.1009 23.2314 3.1009 23.4494 3.12 23.6675C3.11338 24.0481 3.13637 24.4287 3.18875 24.8055C3.18875 24.8808 3.23076 24.9125 3.36824 25.0275C3.68032 25.2332 3.9045 25.5554 3.99458 25.9276C4.03371 26.2498 3.98887 26.5771 3.86473 26.8752L3.8189 26.9862C3.70052 27.5241 3.51567 28.0439 3.26895 28.5326C3.12678 28.7323 3.00637 28.9477 2.90995 29.1749L2.85648 29.2939C2.77766 29.4528 2.71618 29.6204 2.67316 29.7935C2.73835 29.8266 2.80092 29.8651 2.8603 29.9084C2.97753 29.9726 3.08239 30.0586 3.16965 30.1622C3.32025 30.3798 3.43391 30.6225 3.50574 30.8799L3.52865 30.9552C3.70537 30.925 3.88424 30.9104 4.06333 30.9116C4.4299 30.9091 4.79158 30.9989 5.11741 31.1733C5.31309 31.2788 5.49854 31.4036 5.67119 31.546C5.85849 31.7137 6.07148 31.8477 6.30135 31.9425C6.76552 32.0517 7.25114 32.0045 7.6877 31.8077C8.14413 31.6226 8.63554 31.5493 9.1237 31.5936C9.29725 31.6254 9.4683 31.6704 9.63546 31.7284C9.8183 31.7988 10.0099 31.8415 10.2045 31.8553L10.2427 31.8553C10.793 31.8044 11.3377 31.7009 11.8697 31.546C12.4844 31.3341 13.0455 30.9818 13.5119 30.5151C13.7487 30.3129 13.9931 30.1186 14.2566 29.9203C14.5224 29.7382 14.8358 29.6454 15.1541 29.6547C15.4711 29.6671 15.7859 29.7136 16.0936 29.7935C16.3143 29.8513 16.5391 29.8911 16.7658 29.9124C17.2474 29.8923 17.7164 29.7464 18.1292 29.4881C18.5897 29.2135 19.1042 29.0508 19.634 29.0123C19.846 29.0132 20.0564 29.0507 20.2565 29.1234C20.4613 29.2067 20.6561 29.3145 20.837 29.4445C21.0079 29.5756 21.2009 29.6724 21.4061 29.73C21.9866 29.8688 22.4296 29.5555 22.9643 29.1154C23.0674 29.0282 23.1667 28.933 23.266 28.8379C23.5416 28.5199 23.8895 28.2786 24.2781 28.1361C24.8401 28.0172 25.4194 28.0172 25.9814 28.1361C26.9239 28.3205 27.8946 28.2785 28.819 28.0132L29.0902 27.9418C29.7255 27.7212 30.4018 27.6587 31.0647 27.7594C31.513 27.9072 31.9358 28.128 32.3174 28.4136C32.5352 28.5592 32.7609 28.6916 32.9934 28.8101C33.7317 29.1481 34.4988 29.4136 35.2848 29.6031C36.0822 29.7963 36.8618 30.0616 37.6145 30.3961L38.2218 30.7054C39.1498 31.1931 40.1313 31.6927 41.0938 31.5975C41.7965 31.5222 42.2853 31.1297 42.8544 30.6697C43.0148 30.5428 43.1752 30.412 43.3432 30.2732C44.2429 29.5599 45.2601 29.0225 46.3451 28.6872C47.328 28.4597 48.329 28.327 49.3355 28.2907C50.1032 28.2545 50.8683 28.1724 51.627 28.0449C52.4037 27.8791 53.1692 27.6605 53.9184 27.3906C54.3748 27.2115 54.8556 27.1085 55.343 27.0853C55.8558 27.0695 56.3543 27.2615 56.7332 27.6206C56.8203 27.7115 56.9225 27.7854 57.0349 27.8387C57.4168 27.9616 58.0546 27.7039 58.4861 27.5175L58.6351 27.4541C60.7585 26.5461 62.7025 25.7888 64.9558 25.6936C65.1926 25.6936 65.4293 25.6619 65.6699 25.6421C66.006 25.6104 66.3536 25.5786 66.6973 25.5786L66.7966 25.5786C66.9886 25.5851 67.18 25.6049 67.3695 25.6381C67.6131 25.6899 67.8631 25.702 68.1104 25.6738C68.8059 25.5347 69.4795 25.2958 70.1116 24.9641C70.314 24.8689 70.4935 24.7737 70.6998 24.6905C71.5612 24.2696 72.4795 23.9875 73.4228 23.8539C74.4082 23.7349 75.0039 24.4169 75.5692 25.0671C75.8896 25.5231 76.326 25.8773 76.8295 26.0901C77.0326 26.1455 77.242 26.1722 77.452 26.1694C77.6544 26.1694 77.8339 26.1694 78.0516 26.1377C78.1636 26.1377 78.2744 26.1298 78.3839 26.1139C78.8452 26.0997 79.3068 26.1302 79.7626 26.2051C80.0814 26.2561 80.4027 26.2878 80.725 26.3003L80.8243 26.3003C81.4033 26.2943 81.9784 26.2008 82.5315 26.0227C82.7544 25.943 82.9653 25.8309 83.1578 25.6897C83.3157 25.5843 83.4789 25.4877 83.6467 25.4002C84.4416 25.0216 85.3399 24.9471 86.1826 25.1901Z"/>
</mask>
<path d="M86.1826 25.1901C86.447 25.274 86.7239 25.3076 86.9999 25.2892C86.977 25.1742 86.954 25.0553 86.9273 24.9363C86.9006 24.8174 86.8777 24.6984 86.8509 24.5795C86.7603 24.0758 86.6953 23.5676 86.6561 23.0569C86.6294 22.7595 86.5989 22.4582 86.5607 22.1608C86.4232 21.122 86.3659 20.1149 86.3086 18.9888C86.259 18.0055 86.1826 17.0063 86.1062 16.0388C86.0413 15.2141 85.9763 14.3894 85.9267 13.5647C85.8809 12.4465 85.8159 11.3205 85.7357 10.2142C85.6708 9.46484 85.583 8.70753 85.476 7.97004L85.476 7.8947C85.476 7.79954 85.4493 7.71628 85.4417 7.63301C85.0597 7.68456 84.6778 7.75593 84.3532 7.81937L83.8873 7.91056C83.2055 8.05852 82.5154 8.16181 81.8211 8.21983C81.718 8.21983 81.6149 8.21983 81.5118 8.24759C81.2255 8.28603 80.9362 8.29267 80.6486 8.26741C80.2533 8.20316 79.868 8.08449 79.5029 7.91453C79.1865 7.76467 78.8527 7.65804 78.5099 7.59733L78.4717 7.59733C77.3471 7.40632 76.2036 7.36501 75.0689 7.47441C74.897 7.50217 74.7137 7.54182 74.5227 7.58147C74.0917 7.68731 73.6516 7.74841 73.2089 7.76386C72.8997 7.77106 72.5926 7.71025 72.3076 7.58543L72.0479 7.45855C71.8243 7.32925 71.5837 7.23442 71.3337 7.17704C71.1213 7.15188 70.9065 7.15855 70.6959 7.19686C70.5578 7.21531 70.4189 7.2259 70.2797 7.22858C69.9665 7.22858 69.6533 7.22858 69.3516 7.1929C69.0496 7.16145 68.7461 7.14953 68.4427 7.15721C67.4356 7.19199 66.4275 7.1376 65.4293 6.99465C64.5568 6.89374 63.6797 6.84212 62.8018 6.84002C62.3015 6.84002 61.7821 6.84002 61.2741 6.79244C60.5103 6.74882 59.2729 6.67745 58.6427 5.95185C58.5574 5.84392 58.4926 5.72013 58.4518 5.58707C58.4288 5.52322 58.3993 5.46208 58.3639 5.40468C58.3275 5.38318 58.2872 5.36968 58.2455 5.36503C58.1151 5.34365 57.9918 5.28917 57.8865 5.20643C57.7652 5.09642 57.6574 4.97123 57.5657 4.83372C57.4996 4.73016 57.4228 4.63443 57.3366 4.54824C56.8638 4.13345 56.3316 3.79768 55.7593 3.55303C55.2739 3.35393 54.7526 3.26732 54.2316 3.29927C54.0309 3.30859 53.8308 3.32844 53.632 3.35874C53.2018 3.4375 52.7623 3.44553 52.3297 3.38253C51.9819 3.28443 51.6596 3.10698 51.3863 2.86312C51.2134 2.71853 51.0235 2.59729 50.8211 2.5023C50.718 2.45341 50.606 2.42811 50.4927 2.42811C50.3793 2.42811 50.2673 2.45341 50.1642 2.5023L50.0191 2.54988C49.8716 2.59567 49.7186 2.6197 49.5646 2.62125C49.1101 2.58742 48.6853 2.37468 48.3769 2.0265C48.2814 1.94323 48.1821 1.85997 48.0751 1.7767C47.2273 1.11455 46.6124 0.634783 45.5927 0.626853C45.2539 0.616175 44.921 0.532459 44.615 0.381023C44.4527 0.311149 44.287 0.250267 44.1185 0.198632C43.6021 0.060862 43.0705 -0.005793 42.5374 0.000382459C41.7101 0.0222431 40.8855 0.107058 40.0702 0.254144C39.7838 0.291923 39.4957 0.314421 39.2071 0.321549C38.8975 0.329497 38.5888 0.358637 38.2829 0.408779C37.6969 0.560058 37.1661 0.885209 36.7552 1.34452L36.4229 1.6419C35.8577 2.13356 35.3536 2.36353 34.8533 2.2644C34.6958 2.23328 34.5446 2.17427 34.4064 2.08994C34.3332 2.04057 34.2551 1.99937 34.1735 1.96703C33.861 1.90664 33.5441 1.87348 33.2263 1.8679L33.1538 1.8679C32.623 1.91462 32.1052 2.06247 31.6261 2.30405C31.4581 2.37542 31.2938 2.44679 31.1372 2.50627C30.8432 2.61332 30.5529 2.72831 30.2627 2.83933C29.7165 3.05344 29.1513 3.27548 28.5822 3.46977C27.9371 3.67803 27.2786 3.83835 26.6116 3.94953C26.0226 4.04487 25.4397 4.17728 24.8662 4.34603C24.702 4.40154 24.5569 4.45705 24.4194 4.51256C24.0935 4.66507 23.7446 4.75765 23.3882 4.78615C22.6666 4.80405 21.946 4.72137 21.2457 4.54032C20.9363 4.47292 20.6155 4.40155 20.2871 4.35397C19.637 4.28654 18.9822 4.28389 18.3317 4.34604C17.7792 4.39498 17.2241 4.40425 16.6703 4.37379C16.3224 4.35813 15.9739 4.37006 15.6277 4.40948C15.3985 4.40948 15.1732 4.44913 14.9441 4.45309L14.8944 4.45309C14.5471 4.44086 14.203 4.38086 13.8709 4.27467C13.6838 4.22312 13.489 4.17554 13.3171 4.14382C12.96 4.06974 12.6169 3.93582 12.3012 3.74732C12.0793 3.61527 11.8435 3.51017 11.5985 3.43409C11.3634 3.37629 11.122 3.35096 10.8805 3.35875L10.4146 3.35875C10.2759 3.36657 10.1369 3.36657 9.99828 3.35875L9.86843 3.35875C9.61745 3.35036 9.36851 3.30906 9.12751 3.23584C8.9777 3.1674 8.84066 3.07211 8.72268 2.95432C8.65353 2.87928 8.57521 2.81396 8.48971 2.76004C8.09308 2.59318 7.67911 2.47476 7.25613 2.40715L6.68326 2.28027C6.38785 2.20178 6.12183 2.03331 5.91943 1.79654C5.85079 1.71591 5.77677 1.64039 5.69792 1.57053C5.33854 1.32203 4.94063 1.13962 4.52162 1.03129C4.18843 0.943801 3.84555 0.90247 3.50191 0.908379C3.16965 0.908379 2.82592 0.936134 2.49748 0.963889L2.11556 0.995609C1.61705 1.02346 1.11711 0.990186 0.626096 0.896484C0.533914 1.01278 0.452103 1.13753 0.38167 1.26919L0.301468 1.39608C0.221266 1.52296 -0.000243887 1.8917 -0.000243866 2.0503C0.0749102 2.194 0.167306 2.32723 0.274735 2.4468L0.354937 2.54196C0.59582 2.76437 0.742632 3.07633 0.763585 3.4103C0.777661 3.72315 0.761025 4.03668 0.713936 4.34604C0.642232 4.74123 0.659221 5.14827 0.763586 5.53554C0.903096 5.86663 1.08978 6.17405 1.31736 6.44749C1.38993 6.53869 1.45867 6.63385 1.52741 6.72901C1.82231 7.21781 1.98094 7.78189 1.98571 8.35863L1.98571 8.47758C2.0547 9.08011 2.08278 9.68693 2.06973 10.2936C2.04113 10.6775 1.98753 11.059 1.90933 11.4355C1.86732 11.6417 1.82913 11.832 1.79857 12.058L1.7642 12.2761C1.70692 12.6726 1.64963 13.0691 1.62289 13.4656C1.61186 14.0764 1.67343 14.6863 1.80621 15.2815L1.85968 15.5868C1.86149 15.6132 1.86149 15.6397 1.85968 15.6661C1.85968 15.6661 1.90169 15.7335 1.91315 15.7415C2.00885 15.8156 2.10829 15.8845 2.21104 15.9477C2.42618 16.0705 2.62089 16.2285 2.78773 16.4155C3.39498 17.1094 3.35679 17.8826 3.26513 18.6121C3.19256 19.191 3.16965 19.7501 3.14673 20.3448C3.14673 20.6581 3.12382 20.9713 3.1009 21.2885C3.06844 21.8656 3.06844 22.4441 3.1009 23.0212C3.1009 23.2314 3.1009 23.4494 3.12 23.6675C3.11338 24.0481 3.13637 24.4287 3.18875 24.8055C3.18875 24.8808 3.23076 24.9125 3.36824 25.0275C3.68032 25.2332 3.9045 25.5554 3.99458 25.9276C4.03371 26.2498 3.98887 26.5771 3.86473 26.8752L3.8189 26.9862C3.70052 27.5241 3.51567 28.0439 3.26895 28.5326C3.12678 28.7323 3.00637 28.9477 2.90995 29.1749L2.85648 29.2939C2.77766 29.4528 2.71618 29.6204 2.67316 29.7935C2.73835 29.8266 2.80092 29.8651 2.8603 29.9084C2.97753 29.9726 3.08239 30.0586 3.16965 30.1622C3.32025 30.3798 3.43391 30.6225 3.50574 30.8799L3.52865 30.9552C3.70537 30.925 3.88424 30.9104 4.06333 30.9116C4.4299 30.9091 4.79158 30.9989 5.11741 31.1733C5.31309 31.2788 5.49854 31.4036 5.67119 31.546C5.85849 31.7137 6.07148 31.8477 6.30135 31.9425C6.76552 32.0517 7.25114 32.0045 7.6877 31.8077C8.14413 31.6226 8.63554 31.5493 9.1237 31.5936C9.29725 31.6254 9.4683 31.6704 9.63546 31.7284C9.8183 31.7988 10.0099 31.8415 10.2045 31.8553L10.2427 31.8553C10.793 31.8044 11.3377 31.7009 11.8697 31.546C12.4844 31.3341 13.0455 30.9818 13.5119 30.5151C13.7487 30.3129 13.9931 30.1186 14.2566 29.9203C14.5224 29.7382 14.8358 29.6454 15.1541 29.6547C15.4711 29.6671 15.7859 29.7136 16.0936 29.7935C16.3143 29.8513 16.5391 29.8911 16.7658 29.9124C17.2474 29.8923 17.7164 29.7464 18.1292 29.4881C18.5897 29.2135 19.1042 29.0508 19.634 29.0123C19.846 29.0132 20.0564 29.0507 20.2565 29.1234C20.4613 29.2067 20.6561 29.3145 20.837 29.4445C21.0079 29.5756 21.2009 29.6724 21.4061 29.73C21.9866 29.8688 22.4296 29.5555 22.9643 29.1154C23.0674 29.0282 23.1667 28.933 23.266 28.8379C23.5416 28.5199 23.8895 28.2786 24.2781 28.1361C24.8401 28.0172 25.4194 28.0172 25.9814 28.1361C26.9239 28.3205 27.8946 28.2785 28.819 28.0132L29.0902 27.9418C29.7255 27.7212 30.4018 27.6587 31.0647 27.7594C31.513 27.9072 31.9358 28.128 32.3174 28.4136C32.5352 28.5592 32.7609 28.6916 32.9934 28.8101C33.7317 29.1481 34.4988 29.4136 35.2848 29.6031C36.0822 29.7963 36.8618 30.0616 37.6145 30.3961L38.2218 30.7054C39.1498 31.1931 40.1313 31.6927 41.0938 31.5975C41.7965 31.5222 42.2853 31.1297 42.8544 30.6697C43.0148 30.5428 43.1752 30.412 43.3432 30.2732C44.2429 29.5599 45.2601 29.0225 46.3451 28.6872C47.328 28.4597 48.329 28.327 49.3355 28.2907C50.1032 28.2545 50.8683 28.1724 51.627 28.0449C52.4037 27.8791 53.1692 27.6605 53.9184 27.3906C54.3748 27.2115 54.8556 27.1085 55.343 27.0853C55.8558 27.0695 56.3543 27.2615 56.7332 27.6206C56.8203 27.7115 56.9225 27.7854 57.0349 27.8387C57.4168 27.9616 58.0546 27.7039 58.4861 27.5175L58.6351 27.4541C60.7585 26.5461 62.7025 25.7888 64.9558 25.6936C65.1926 25.6936 65.4293 25.6619 65.6699 25.6421C66.006 25.6104 66.3536 25.5786 66.6973 25.5786L66.7966 25.5786C66.9886 25.5851 67.18 25.6049 67.3695 25.6381C67.6131 25.6899 67.8631 25.702 68.1104 25.6738C68.8059 25.5347 69.4795 25.2958 70.1116 24.9641C70.314 24.8689 70.4935 24.7737 70.6998 24.6905C71.5612 24.2696 72.4795 23.9875 73.4228 23.8539C74.4082 23.7349 75.0039 24.4169 75.5692 25.0671C75.8896 25.5231 76.326 25.8773 76.8295 26.0901C77.0326 26.1455 77.242 26.1722 77.452 26.1694C77.6544 26.1694 77.8339 26.1694 78.0516 26.1377C78.1636 26.1377 78.2744 26.1298 78.3839 26.1139C78.8452 26.0997 79.3068 26.1302 79.7626 26.2051C80.0814 26.2561 80.4027 26.2878 80.725 26.3003L80.8243 26.3003C81.4033 26.2943 81.9784 26.2008 82.5315 26.0227C82.7544 25.943 82.9653 25.8309 83.1578 25.6897C83.3157 25.5843 83.4789 25.4877 83.6467 25.4002C84.4416 25.0216 85.3399 24.9471 86.1826 25.1901Z" fill="#84BCFF" stroke="#599DED" stroke-width="2" mask="url(#path-1-inside-1_1157_380)"/>
<mask id="path-2-inside-2_1157_380" fill="white">
<path d="M86.8508 24.5675C86.7601 24.0639 86.6951 23.5557 86.656 23.045C86.6292 22.7476 86.5987 22.4462 86.5605 22.1489C86.423 21.11 86.3657 20.1029 86.3084 18.9769C86.2588 17.9935 86.1824 16.9943 86.106 16.0269C86.0411 15.2022 85.9762 14.3774 85.9265 13.5527C85.8807 12.4346 85.8158 11.3085 85.7356 10.2023C85.6706 9.45291 85.5828 8.69559 85.4759 7.9581L85.4759 7.88276C85.4759 7.7876 85.4491 7.70434 85.4415 7.62107C85.0596 7.67262 84.6777 7.74399 84.353 7.80743L84.3072 7.80743C84.4141 8.11273 84.5249 8.41804 84.6433 8.71938C84.7555 9.24032 84.7697 9.77884 84.6853 10.3054C84.7057 10.8225 84.6437 11.3396 84.502 11.8359C84.3835 12.2383 84.157 12.5973 83.8489 12.8707C83.6212 13.0318 83.4078 13.2136 83.2111 13.4139C82.8827 13.7668 82.5008 14.0365 82.2067 14.4211C81.6338 15.1704 81.145 15.6106 80.2245 15.789C79.8172 15.8662 79.4216 15.9996 79.0482 16.1855C78.7813 16.3331 78.542 16.5292 78.3417 16.7644C77.8529 17.2441 77.1654 17.7675 76.4703 17.7715C76.0954 17.7306 75.727 17.64 75.3742 17.5019C74.98 17.4812 74.5869 17.5601 74.2285 17.7318C73.6365 17.942 73.1362 18.3226 72.5481 18.5248C71.8266 18.747 71.0575 18.7387 70.3406 18.5011C69.2483 18.2116 68.3852 17.5336 67.354 17.1173C66.8838 16.9702 66.3936 16.9033 65.9027 16.919C65.1618 16.8595 64.4782 16.5701 63.7335 16.5463C63.4595 16.5126 63.1826 16.5126 62.9085 16.5463C62.3815 16.6732 61.885 17.1371 61.4382 17.4146C60.1702 18.2076 58.5891 18.1006 57.1531 17.9737C56.4291 17.8977 55.7108 17.7719 55.0029 17.597C54.5523 17.4979 54.1245 17.5019 53.6738 17.4424C52.8756 17.3353 52.4517 16.6018 51.6955 16.4155C50.8591 16.2133 50.7331 17.2085 50.4123 17.7755C50.066 18.4389 49.5331 18.9769 48.8846 19.3179C48.3156 19.6073 47.8153 20.0276 47.2615 20.3448C46.7372 20.6308 46.2273 20.9445 45.7338 21.2845C44.802 21.9506 43.4424 21.7762 42.3692 21.681C41.7756 21.6733 41.1829 21.6336 40.5933 21.562C40.1977 21.431 39.8203 21.2471 39.4704 21.0149C39.1344 20.8325 38.8403 20.6184 38.5195 20.4122C38.2219 20.2688 37.9158 20.1457 37.6029 20.0435C36.9765 19.758 36.6481 19.1434 35.9568 18.9689C35.4278 18.8522 34.8775 18.8963 34.3719 19.0958C33.3713 19.4725 32.5463 20.8563 31.3509 20.5272C30.8124 20.3805 30.3236 19.8928 29.8233 19.647C29.323 19.4011 28.7501 19.1672 28.2154 18.9214C27.6807 18.6755 27.253 18.5249 26.7527 18.3345C26.2707 18.1633 25.8266 17.8937 25.4465 17.5415C24.7095 16.9626 24.0602 16.3798 23.2964 17.0023C22.712 17.4741 22.1506 17.9698 21.5778 18.4614C21.1896 18.8663 20.6885 19.134 20.1456 19.2267C19.6338 19.2822 19.4581 19.1315 19.0418 18.8658C18.8153 18.6793 18.5488 18.5523 18.2648 18.4957C17.9809 18.4391 17.688 18.4546 17.4111 18.5407C16.2653 18.8658 15.2227 19.8333 13.9738 19.9047C13.21 19.9443 12.5417 19.4487 11.8313 19.2505C11.1973 19.08 10.5022 19.0919 9.88353 18.854C9.4061 18.6146 8.94082 18.3499 8.48954 18.061C7.84582 17.7312 7.24094 17.3254 6.68691 16.8516C6.11566 16.3747 5.46974 16.0032 4.77733 15.7533C4.12044 15.5035 3.55139 15.4797 3.06254 14.9207C2.32926 14.0801 2.03901 13.0294 1.82132 11.9469L1.7984 12.0698L1.76403 12.276C1.70674 12.6725 1.64945 13.069 1.62272 13.4655C1.61168 14.0764 1.67325 14.6863 1.80604 15.2815L1.85951 15.5868C1.86131 15.6132 1.86131 15.6397 1.85951 15.6661C1.85951 15.6661 1.90152 15.7335 1.91298 15.7414C2.00868 15.8156 2.10812 15.8844 2.21087 15.9476C2.426 16.0705 2.62072 16.2285 2.78756 16.4155C3.3948 17.1094 3.35661 17.8825 3.26495 18.6121C3.19239 19.191 3.16947 19.75 3.14656 20.3448C3.14656 20.658 3.12364 20.9713 3.10073 21.2885C3.06826 21.8656 3.06826 22.4441 3.10073 23.0212C3.10073 23.2313 3.10073 23.4494 3.11983 23.6675C3.11321 24.0481 3.1362 24.4287 3.18857 24.8054C3.18857 24.8808 3.23058 24.9125 3.36807 25.0275C3.68015 25.2332 3.90433 25.5553 3.99441 25.9275C4.03353 26.2498 3.98869 26.577 3.86456 26.8752L3.81873 26.9862C3.70035 27.5241 3.5155 28.0438 3.26877 28.5325C3.1266 28.7322 3.0062 28.9476 2.90977 29.1749L2.85631 29.2938C2.77749 29.4528 2.716 29.6203 2.67299 29.7934C2.73818 29.8266 2.80075 29.865 2.86012 29.9084C2.97736 29.9726 3.08222 30.0586 3.16948 30.1622C3.32007 30.3798 3.43374 30.6225 3.50556 30.8798L3.52848 30.9552C3.7052 30.925 3.88406 30.9104 4.06316 30.9115C4.42972 30.9091 4.7914 30.9989 5.11724 31.1732C5.31292 31.2787 5.49837 31.4036 5.67102 31.5459C5.85832 31.7136 6.0713 31.8477 6.30118 31.9424C6.76534 32.0517 7.25097 32.0045 7.68752 31.8076C8.14395 31.6225 8.63536 31.5493 9.12352 31.5935C9.29707 31.6253 9.46813 31.6704 9.63529 31.7283C9.81812 31.7988 10.0098 31.8415 10.2043 31.8552L10.2425 31.8552C10.7929 31.8044 11.3375 31.7009 11.8695 31.5459C12.4842 31.334 13.0454 30.9817 13.5117 30.515C13.7485 30.3128 13.9929 30.1185 14.2565 29.9203C14.5222 29.7382 14.8356 29.6454 15.154 29.6546C15.4709 29.667 15.7858 29.7135 16.0935 29.7934C16.3142 29.8513 16.5389 29.891 16.7656 29.9124C17.2473 29.8923 17.7162 29.7464 18.1291 29.4881C18.5896 29.2135 19.104 29.0508 19.6338 29.0123C19.8458 29.0132 20.0562 29.0507 20.2563 29.1233C20.4612 29.2067 20.656 29.3145 20.8368 29.4445C21.0078 29.5756 21.2007 29.6724 21.4059 29.73C21.9864 29.8687 22.4294 29.5555 22.9641 29.1154C23.0672 29.0282 23.1665 28.933 23.2658 28.8378C23.5414 28.5198 23.8894 28.2786 24.2779 28.136C24.8399 28.0172 25.4192 28.0172 25.9812 28.136C26.9237 28.3205 27.8944 28.2784 28.8189 28.0131L29.09 27.9417C29.7253 27.7211 30.4017 27.6587 31.0645 27.7594C31.5128 27.9071 31.9357 28.128 32.3172 28.4136C32.535 28.5591 32.7607 28.6915 32.9932 28.8101C33.7315 29.1481 34.4987 29.4136 35.2847 29.6031C36.0821 29.7962 36.8616 30.0616 37.6143 30.3961L38.2216 30.7054C39.1496 31.1931 40.1312 31.6926 41.0936 31.5975C41.7963 31.5221 42.2852 31.1296 42.8542 30.6697C43.0146 30.5428 43.175 30.4119 43.3431 30.2732C44.2428 29.5599 45.2599 29.0225 46.3449 28.6872C47.3278 28.4597 48.3289 28.327 49.3353 28.2907C50.103 28.2545 50.8681 28.1724 51.6268 28.0448C52.4036 27.879 53.169 27.6605 53.9183 27.3906C54.3746 27.2115 54.8554 27.1084 55.3428 27.0853C55.8556 27.0695 56.3542 27.2614 56.733 27.6206C56.8202 27.7114 56.9224 27.7853 57.0347 27.8386C57.4166 27.9616 58.0544 27.7038 58.486 27.5175L58.6349 27.454C60.7584 26.5461 62.7023 25.7887 64.9556 25.6936C65.1924 25.6936 65.4292 25.6619 65.6698 25.642C66.0059 25.6103 66.3534 25.5786 66.6971 25.5786L66.7964 25.5786C66.9885 25.585 67.1799 25.6049 67.3693 25.6381C67.613 25.6899 67.863 25.7019 68.1102 25.6738C68.8058 25.5347 69.4793 25.2958 70.1114 24.964C70.3139 24.8689 70.4934 24.7737 70.6996 24.6904C71.5611 24.2696 72.4793 23.9875 73.4226 23.8538C74.408 23.7349 75.0038 24.4168 75.569 25.0671C75.8894 25.523 76.3258 25.8773 76.8293 26.0901C77.0325 26.1455 77.2418 26.1721 77.4518 26.1694C77.6543 26.1694 77.8338 26.1694 78.0514 26.1377C78.1635 26.1377 78.2742 26.1297 78.3837 26.1139C78.845 26.0996 79.3066 26.1301 79.7624 26.2051C80.0812 26.256 80.4025 26.2878 80.7248 26.3002L80.8242 26.3002C81.4032 26.2943 81.9783 26.2008 82.5313 26.0227C82.7542 25.9429 82.9651 25.8308 83.1576 25.6896C83.3156 25.5842 83.4787 25.4876 83.6465 25.4002C84.44 25.0176 85.3384 24.9389 86.1824 25.1781C86.4468 25.2621 86.7237 25.2957 86.9997 25.2772C86.9768 25.1623 86.9539 25.0433 86.9271 24.9244C86.9004 24.8054 86.8775 24.6984 86.8508 24.5675Z"/>
</mask>
<path d="M86.8508 24.5675C86.7601 24.0639 86.6951 23.5557 86.656 23.045C86.6292 22.7476 86.5987 22.4462 86.5605 22.1489C86.423 21.11 86.3657 20.1029 86.3084 18.9769C86.2588 17.9935 86.1824 16.9943 86.106 16.0269C86.0411 15.2022 85.9762 14.3774 85.9265 13.5527C85.8807 12.4346 85.8158 11.3085 85.7356 10.2023C85.6706 9.45291 85.5828 8.69559 85.4759 7.9581L85.4759 7.88276C85.4759 7.7876 85.4491 7.70434 85.4415 7.62107C85.0596 7.67262 84.6777 7.74399 84.353 7.80743L84.3072 7.80743C84.4141 8.11273 84.5249 8.41804 84.6433 8.71938C84.7555 9.24032 84.7697 9.77884 84.6853 10.3054C84.7057 10.8225 84.6437 11.3396 84.502 11.8359C84.3835 12.2383 84.157 12.5973 83.8489 12.8707C83.6212 13.0318 83.4078 13.2136 83.2111 13.4139C82.8827 13.7668 82.5008 14.0365 82.2067 14.4211C81.6338 15.1704 81.145 15.6106 80.2245 15.789C79.8172 15.8662 79.4216 15.9996 79.0482 16.1855C78.7813 16.3331 78.542 16.5292 78.3417 16.7644C77.8529 17.2441 77.1654 17.7675 76.4703 17.7715C76.0954 17.7306 75.727 17.64 75.3742 17.5019C74.98 17.4812 74.5869 17.5601 74.2285 17.7318C73.6365 17.942 73.1362 18.3226 72.5481 18.5248C71.8266 18.747 71.0575 18.7387 70.3406 18.5011C69.2483 18.2116 68.3852 17.5336 67.354 17.1173C66.8838 16.9702 66.3936 16.9033 65.9027 16.919C65.1618 16.8595 64.4782 16.5701 63.7335 16.5463C63.4595 16.5126 63.1826 16.5126 62.9085 16.5463C62.3815 16.6732 61.885 17.1371 61.4382 17.4146C60.1702 18.2076 58.5891 18.1006 57.1531 17.9737C56.4291 17.8977 55.7108 17.7719 55.0029 17.597C54.5523 17.4979 54.1245 17.5019 53.6738 17.4424C52.8756 17.3353 52.4517 16.6018 51.6955 16.4155C50.8591 16.2133 50.7331 17.2085 50.4123 17.7755C50.066 18.4389 49.5331 18.9769 48.8846 19.3179C48.3156 19.6073 47.8153 20.0276 47.2615 20.3448C46.7372 20.6308 46.2273 20.9445 45.7338 21.2845C44.802 21.9506 43.4424 21.7762 42.3692 21.681C41.7756 21.6733 41.1829 21.6336 40.5933 21.562C40.1977 21.431 39.8203 21.2471 39.4704 21.0149C39.1344 20.8325 38.8403 20.6184 38.5195 20.4122C38.2219 20.2688 37.9158 20.1457 37.6029 20.0435C36.9765 19.758 36.6481 19.1434 35.9568 18.9689C35.4278 18.8522 34.8775 18.8963 34.3719 19.0958C33.3713 19.4725 32.5463 20.8563 31.3509 20.5272C30.8124 20.3805 30.3236 19.8928 29.8233 19.647C29.323 19.4011 28.7501 19.1672 28.2154 18.9214C27.6807 18.6755 27.253 18.5249 26.7527 18.3345C26.2707 18.1633 25.8266 17.8937 25.4465 17.5415C24.7095 16.9626 24.0602 16.3798 23.2964 17.0023C22.712 17.4741 22.1506 17.9698 21.5778 18.4614C21.1896 18.8663 20.6885 19.134 20.1456 19.2267C19.6338 19.2822 19.4581 19.1315 19.0418 18.8658C18.8153 18.6793 18.5488 18.5523 18.2648 18.4957C17.9809 18.4391 17.688 18.4546 17.4111 18.5407C16.2653 18.8658 15.2227 19.8333 13.9738 19.9047C13.21 19.9443 12.5417 19.4487 11.8313 19.2505C11.1973 19.08 10.5022 19.0919 9.88353 18.854C9.4061 18.6146 8.94082 18.3499 8.48954 18.061C7.84582 17.7312 7.24094 17.3254 6.68691 16.8516C6.11566 16.3747 5.46974 16.0032 4.77733 15.7533C4.12044 15.5035 3.55139 15.4797 3.06254 14.9207C2.32926 14.0801 2.03901 13.0294 1.82132 11.9469L1.7984 12.0698L1.76403 12.276C1.70674 12.6725 1.64945 13.069 1.62272 13.4655C1.61168 14.0764 1.67325 14.6863 1.80604 15.2815L1.85951 15.5868C1.86131 15.6132 1.86131 15.6397 1.85951 15.6661C1.85951 15.6661 1.90152 15.7335 1.91298 15.7414C2.00868 15.8156 2.10812 15.8844 2.21087 15.9476C2.426 16.0705 2.62072 16.2285 2.78756 16.4155C3.3948 17.1094 3.35661 17.8825 3.26495 18.6121C3.19239 19.191 3.16947 19.75 3.14656 20.3448C3.14656 20.658 3.12364 20.9713 3.10073 21.2885C3.06826 21.8656 3.06826 22.4441 3.10073 23.0212C3.10073 23.2313 3.10073 23.4494 3.11983 23.6675C3.11321 24.0481 3.1362 24.4287 3.18857 24.8054C3.18857 24.8808 3.23058 24.9125 3.36807 25.0275C3.68015 25.2332 3.90433 25.5553 3.99441 25.9275C4.03353 26.2498 3.98869 26.577 3.86456 26.8752L3.81873 26.9862C3.70035 27.5241 3.5155 28.0438 3.26877 28.5325C3.1266 28.7322 3.0062 28.9476 2.90977 29.1749L2.85631 29.2938C2.77749 29.4528 2.716 29.6203 2.67299 29.7934C2.73818 29.8266 2.80075 29.865 2.86012 29.9084C2.97736 29.9726 3.08222 30.0586 3.16948 30.1622C3.32007 30.3798 3.43374 30.6225 3.50556 30.8798L3.52848 30.9552C3.7052 30.925 3.88406 30.9104 4.06316 30.9115C4.42972 30.9091 4.7914 30.9989 5.11724 31.1732C5.31292 31.2787 5.49837 31.4036 5.67102 31.5459C5.85832 31.7136 6.0713 31.8477 6.30118 31.9424C6.76534 32.0517 7.25097 32.0045 7.68752 31.8076C8.14395 31.6225 8.63536 31.5493 9.12352 31.5935C9.29707 31.6253 9.46813 31.6704 9.63529 31.7283C9.81812 31.7988 10.0098 31.8415 10.2043 31.8552L10.2425 31.8552C10.7929 31.8044 11.3375 31.7009 11.8695 31.5459C12.4842 31.334 13.0454 30.9817 13.5117 30.515C13.7485 30.3128 13.9929 30.1185 14.2565 29.9203C14.5222 29.7382 14.8356 29.6454 15.154 29.6546C15.4709 29.667 15.7858 29.7135 16.0935 29.7934C16.3142 29.8513 16.5389 29.891 16.7656 29.9124C17.2473 29.8923 17.7162 29.7464 18.1291 29.4881C18.5896 29.2135 19.104 29.0508 19.6338 29.0123C19.8458 29.0132 20.0562 29.0507 20.2563 29.1233C20.4612 29.2067 20.656 29.3145 20.8368 29.4445C21.0078 29.5756 21.2007 29.6724 21.4059 29.73C21.9864 29.8687 22.4294 29.5555 22.9641 29.1154C23.0672 29.0282 23.1665 28.933 23.2658 28.8378C23.5414 28.5198 23.8894 28.2786 24.2779 28.136C24.8399 28.0172 25.4192 28.0172 25.9812 28.136C26.9237 28.3205 27.8944 28.2784 28.8189 28.0131L29.09 27.9417C29.7253 27.7211 30.4017 27.6587 31.0645 27.7594C31.5128 27.9071 31.9357 28.128 32.3172 28.4136C32.535 28.5591 32.7607 28.6915 32.9932 28.8101C33.7315 29.1481 34.4987 29.4136 35.2847 29.6031C36.0821 29.7962 36.8616 30.0616 37.6143 30.3961L38.2216 30.7054C39.1496 31.1931 40.1312 31.6926 41.0936 31.5975C41.7963 31.5221 42.2852 31.1296 42.8542 30.6697C43.0146 30.5428 43.175 30.4119 43.3431 30.2732C44.2428 29.5599 45.2599 29.0225 46.3449 28.6872C47.3278 28.4597 48.3289 28.327 49.3353 28.2907C50.103 28.2545 50.8681 28.1724 51.6268 28.0448C52.4036 27.879 53.169 27.6605 53.9183 27.3906C54.3746 27.2115 54.8554 27.1084 55.3428 27.0853C55.8556 27.0695 56.3542 27.2614 56.733 27.6206C56.8202 27.7114 56.9224 27.7853 57.0347 27.8386C57.4166 27.9616 58.0544 27.7038 58.486 27.5175L58.6349 27.454C60.7584 26.5461 62.7023 25.7887 64.9556 25.6936C65.1924 25.6936 65.4292 25.6619 65.6698 25.642C66.0059 25.6103 66.3534 25.5786 66.6971 25.5786L66.7964 25.5786C66.9885 25.585 67.1799 25.6049 67.3693 25.6381C67.613 25.6899 67.863 25.7019 68.1102 25.6738C68.8058 25.5347 69.4793 25.2958 70.1114 24.964C70.3139 24.8689 70.4934 24.7737 70.6996 24.6904C71.5611 24.2696 72.4793 23.9875 73.4226 23.8538C74.408 23.7349 75.0038 24.4168 75.569 25.0671C75.8894 25.523 76.3258 25.8773 76.8293 26.0901C77.0325 26.1455 77.2418 26.1721 77.4518 26.1694C77.6543 26.1694 77.8338 26.1694 78.0514 26.1377C78.1635 26.1377 78.2742 26.1297 78.3837 26.1139C78.845 26.0996 79.3066 26.1301 79.7624 26.2051C80.0812 26.256 80.4025 26.2878 80.7248 26.3002L80.8242 26.3002C81.4032 26.2943 81.9783 26.2008 82.5313 26.0227C82.7542 25.9429 82.9651 25.8308 83.1576 25.6896C83.3156 25.5842 83.4787 25.4876 83.6465 25.4002C84.44 25.0176 85.3384 24.9389 86.1824 25.1781C86.4468 25.2621 86.7237 25.2957 86.9997 25.2772C86.9768 25.1623 86.9539 25.0433 86.9271 24.9244C86.9004 24.8054 86.8775 24.6984 86.8508 24.5675Z" fill="#A8D3FF" stroke="#599DED" stroke-width="2" mask="url(#path-2-inside-2_1157_380)"/>
</svg>
