<svg width="18" height="14" viewBox="0 0 18 14" fill="none" xmlns="http://www.w3.org/2000/svg">
<path d="M16.25 7C16.25 6.9999 16.25 7.0083 16.2473 7.02646C16.2447 7.04439 16.24 7.06898 16.232 7.10063C16.2156 7.16476 16.188 7.2477 16.1456 7.3492C16.0603 7.55299 15.9265 7.80443 15.7419 8.08921C15.3731 8.65828 14.8288 9.31906 14.1486 9.9459C12.7748 11.212 10.9483 12.25 9 12.25V13.75C11.47 13.75 13.6435 12.4512 15.1651 11.0489C15.9327 10.3416 16.5599 9.58526 17.0007 8.90497C17.221 8.56508 17.4015 8.23378 17.5294 7.92809C17.6514 7.63644 17.75 7.31103 17.75 7H16.25ZM9 12.25C7.0517 12.25 5.22524 11.212 3.85141 9.9459C3.17123 9.31906 2.62686 8.65828 2.25807 8.08921C2.07352 7.80443 1.93968 7.55299 1.85443 7.3492C1.81197 7.2477 1.7844 7.16476 1.76804 7.10063C1.75997 7.06898 1.75527 7.04439 1.75267 7.02646C1.75004 7.0083 1.75 6.9999 1.75 7H0.25C0.25 7.31103 0.348626 7.63644 0.470636 7.92809C0.598516 8.23378 0.779018 8.56508 0.999287 8.90497C1.44015 9.58526 2.06735 10.3416 2.83488 11.0489C4.35648 12.4512 6.53003 13.75 9 13.75V12.25ZM1.75 7C1.75 7.0001 1.75004 6.9917 1.75267 6.97354C1.75527 6.95561 1.75997 6.93102 1.76804 6.89937C1.7844 6.83524 1.81197 6.7523 1.85443 6.6508C1.93968 6.44701 2.07352 6.19557 2.25807 5.91079C2.62686 5.34172 3.17123 4.68094 3.85141 4.0541C5.22524 2.78799 7.0517 1.75 9 1.75V0.25C6.53003 0.25 4.35648 1.54878 2.83488 2.95107C2.06735 3.65842 1.44015 4.41474 0.999287 5.09503C0.779018 5.43492 0.598516 5.76622 0.470636 6.07191C0.348626 6.36356 0.25 6.68897 0.25 7H1.75ZM9 1.75C10.9483 1.75 12.7748 2.78799 14.1486 4.0541C14.8288 4.68094 15.3731 5.34172 15.7419 5.91079C15.9265 6.19557 16.0603 6.44701 16.1456 6.6508C16.188 6.7523 16.2156 6.83524 16.232 6.89937C16.24 6.93102 16.2447 6.95561 16.2473 6.97354C16.25 6.9917 16.25 7.0001 16.25 7H17.75C17.75 6.68897 17.6514 6.36356 17.5294 6.07191C17.4015 5.76622 17.221 5.43492 17.0007 5.09503C16.5599 4.41474 15.9327 3.65842 15.1651 2.95107C13.6435 1.54878 11.47 0.25 9 0.25V1.75Z" fill="#6C83AB"/>
<path d="M8.99994 9.52529C10.4138 9.52529 11.5599 8.39422 11.5599 6.99897C11.5599 5.60373 10.4138 4.47266 8.99994 4.47266C7.58609 4.47266 6.43994 5.60373 6.43994 6.99897C6.43994 8.39422 7.58609 9.52529 8.99994 9.52529Z" stroke="#6C83AB" stroke-width="1.5" stroke-linecap="round" stroke-linejoin="round"/>
</svg>
