<svg width="136" height="736" viewBox="0 0 136 736" fill="none" xmlns="http://www.w3.org/2000/svg">
<path d="M105.345 -1188.45C105.345 -1293.94 64.0345 -1325.4 41.3641 -1376L-539 -1355.49V865.094C-324.218 872.274 107.864 870.633 117.94 806.631C130.535 726.628 102.767 770.938 80.6428 594.523C55.8179 396.568 61.0306 305.612 105.345 146.098C149.66 -13.4163 142.626 -203.656 105.345 -338.02C68.0649 -472.383 41.3641 -557.438 41.3641 -714.202C41.3641 -881.923 105.345 -1082.96 105.345 -1188.45Z" fill="#E54B4B"/>
<path d="M-526.5 -1343.42L33.5679 -1363.22C39.2994 -1351.59 45.5961 -1341.15 51.8791 -1330.73C72.4349 -1296.64 92.8452 -1262.8 92.8452 -1188.45C92.8452 -1143.07 80.5902 -1079.05 66.5679 -1005.79C64.7583 -996.338 62.9192 -986.73 61.0732 -976.989C45.0909 -892.647 28.8641 -799.385 28.8641 -714.202C28.8641 -565.68 52.6747 -480.337 86.2798 -359.888C88.5757 -351.659 90.9174 -343.266 93.3002 -334.677C130.023 -202.323 136.96 -14.4011 93.3013 142.752C71.005 223.01 58.3924 286.57 54.5859 355.203C50.7851 423.732 55.7925 496.822 68.24 596.078C79.428 685.291 92.15 719.314 100.656 741.251L100.73 741.442C104.851 752.068 107.172 758.053 108.125 766.03C109.097 774.163 108.684 785.045 105.592 804.687C105.404 805.883 103.214 810.482 90.3449 816.485C78.4868 822.016 61.082 827.069 38.7983 831.518C-5.59869 840.384 -66.5599 846.328 -134.454 850.075C-265.076 857.284 -419.528 856.274 -526.5 852.989V-1343.42Z" stroke="black" stroke-opacity="0.1" stroke-width="25"/>
</svg>
