<svg width="508" height="1024" viewBox="0 0 508 1024" fill="none" xmlns="http://www.w3.org/2000/svg">
<path d="M36.9674 1288.5C36.9674 1371.76 86.7851 1479.07 114.124 1519L464.062 1510.91L814 1502.81L814 -249.707C554.989 -255.373 33.9297 -254.078 21.779 -203.567C6.59076 -140.427 47.347 -107.239 74.0267 31.991C103.964 188.22 74.0268 230.434 36.9674 317.736C-16.4728 443.628 -7.98994 593.768 36.9674 699.81C81.9248 805.851 134.441 856.091 114.124 1003.27C93.8066 1150.45 36.9674 1205.25 36.9674 1288.5Z" fill="#5EA5FA"/>
<path d="M463.773 1498.41L120.751 1506.34C108.057 1486.41 91.1833 1453.35 76.9943 1415.6C61.3567 1374 49.4674 1327.97 49.4674 1288.5C49.4674 1250.74 61.8999 1219.21 78.1797 1177.93C78.6356 1176.77 79.0945 1175.61 79.5562 1174.44C96.4096 1131.67 116.141 1080.07 126.507 1004.98C142.796 886.983 113.002 827.421 78.353 758.153C68.4701 738.396 58.1921 717.848 48.4758 694.93C4.72497 591.735 -3.53017 445.128 48.4736 322.621C52.1545 313.95 55.8149 305.628 59.3841 297.513C73.358 265.744 85.9345 237.152 92.8678 203.213C101.681 160.069 101.453 108.697 86.3033 29.6385C74.4732 -32.0978 59.8545 -73.4831 48.6478 -105.209C47.0258 -109.801 45.4753 -114.19 44.015 -118.41C32.6221 -151.331 27.3276 -172.387 33.7498 -199.873C34.0592 -200.189 34.8028 -200.857 36.3578 -201.809C39.6165 -203.804 44.8296 -206.038 52.3342 -208.328C67.2513 -212.882 88.8013 -216.948 115.886 -220.488C169.898 -227.546 243.796 -232.251 325.768 -235.211C484.517 -240.946 672.302 -240.101 801.5 -237.468L801.5 1490.6L463.773 1498.41Z" stroke="black" stroke-opacity="0.1" stroke-width="25"/>
</svg>
