<svg width="162" height="736" viewBox="0 0 162 736" fill="none" xmlns="http://www.w3.org/2000/svg">
<path d="M36.9676 2798.56C36.9676 2970.29 86.7852 3191.63 114.124 3274L464.062 3257.3L814 3240.61L814 -374.27C554.989 -385.957 33.9297 -383.286 21.7791 -279.097C6.59081 -148.861 47.347 -80.4045 74.0268 206.782C103.964 529.032 74.0268 616.106 36.9675 796.182C-16.4727 1055.85 -7.98983 1365.55 36.9675 1584.28C81.9248 1803 134.441 1906.63 114.124 2210.21C93.8068 2513.79 36.9675 2626.83 36.9676 2798.56Z" fill="#5EA5FA"/>
<path d="M463.466 3244.82L123.085 3261.06C95.5705 3173.36 49.4676 2962.71 49.4676 2798.56C49.4675 2716.88 62.504 2648.72 78.5406 2564.88C79.0919 2562 79.6468 2559.1 80.2048 2556.18C96.9872 2468.33 116.387 2363.6 126.596 2211.05C142.455 1974.09 114.093 1857.01 79.7345 1715.17C69.7539 1673.97 59.2673 1630.68 49.2115 1581.76C4.56828 1364.56 -3.86094 1056.58 49.2109 798.702C53.005 780.265 56.738 762.75 60.3481 745.812C74.2593 680.542 86.3439 623.842 93.0599 556.029C101.54 470.408 101.486 367.223 86.4732 205.626C74.7817 79.7764 60.3804 -4.33317 49.1881 -69.7013C47.5616 -79.2006 46.0029 -88.3041 44.5301 -97.0824C32.9481 -166.116 26.8134 -214.354 34.1949 -277.649C35.0718 -285.168 40.7643 -293.821 55.345 -303.002C69.7347 -312.062 90.7273 -320.275 117.52 -327.497C170.972 -341.905 244.403 -351.574 326.246 -357.672C484.772 -369.482 672.441 -367.736 801.5 -362.303L801.5 3228.69L463.466 3244.82Z" stroke="black" stroke-opacity="0.1" stroke-width="25"/>
</svg>
