<svg width="573" height="1024" viewBox="0 0 573 1024" fill="none" xmlns="http://www.w3.org/2000/svg">
<path d="M528.085 5.07216C528.085 -72.5899 467.557 -95.7491 434.341 -133L-416 -117.898V1516.86C-101.305 1522.15 531.776 1520.94 546.539 1473.82C564.992 1414.92 524.307 1447.54 491.892 1317.67C455.518 1171.94 463.156 1104.98 528.085 987.546C593.014 870.114 582.708 730.062 528.085 631.146C473.462 532.23 434.341 469.613 434.341 354.206C434.341 230.732 528.085 82.7343 528.085 5.07216Z" fill="#E54B4B"/>
<path d="M-403.5 -105.618L428.984 -120.403C437.09 -112.001 446.221 -104.346 454.998 -97.0303L456.04 -96.1622C466.145 -87.742 475.876 -79.6329 484.638 -70.4764C502.266 -52.0524 515.585 -29.7987 515.585 5.07216C515.585 22.3765 510.287 44.5902 501.563 71.1196C494.903 91.3736 486.554 113.277 477.684 136.546C474.999 143.591 472.266 150.761 469.517 158.049C446.168 219.96 421.841 289.867 421.841 354.206C421.841 465.576 457.595 529.945 506.718 618.383C510.131 624.528 513.608 630.788 517.143 637.189C569.885 732.699 579.805 868.171 517.146 981.498C484.314 1040.88 465.313 1088.65 459.575 1140.62C453.854 1192.46 461.454 1247.34 479.764 1320.7C496.444 1387.53 515.573 1413.38 528.395 1430C534.838 1438.35 537.205 1441.62 538.183 1445.73C539.079 1449.5 539.044 1455.55 535.011 1468.79C534.391 1469.25 533.271 1469.95 531.438 1470.81C527.064 1472.87 520.324 1475.06 510.996 1477.24C492.459 1481.59 465.93 1485.42 432.92 1488.73C367.034 1495.34 277.041 1499.73 177.397 1502.5C-16.6789 1507.88 -246.392 1507.05 -403.5 1504.56V-105.618Z" stroke="black" stroke-opacity="0.1" stroke-width="25"/>
</svg>
