<svg width="48" height="68" viewBox="0 0 48 68" fill="none" xmlns="http://www.w3.org/2000/svg">
<path d="M22.9508 59.8997L23.0615 59.8766C22.0793 59.8501 21.1025 59.7407 20.1418 59.5498C19.9993 59.522 19.8709 59.4487 19.7763 59.3413C19.6818 59.2339 19.6263 59.0984 19.6187 58.9558C19.4782 56.5765 16.1034 38.6549 3.49605 13.786C3.04673 12.8991 2.58544 12.0033 2.11218 11.0987C2.11218 11.0987 1.55014 9.54468 4.30087 8.0597C3.98656 7.13876 3.77096 6.20807 4.00384 5.8474C4.16373 5.62024 4.37006 5.42796 4.6094 5.28305C5.29856 4.83154 6.32237 4.48675 7.14709 4.02451C6.93432 3.44744 6.76571 2.86998 6.88734 2.74426C7.41331 2.19935 9.27741 2.03592 9.73558 2.14298C10.1699 2.24505 10.7784 4.73498 10.8424 5.21451C11.4957 4.99619 12.079 4.74688 12.5568 4.54288C13.3312 4.21136 13.8314 3.99893 13.9013 4.23386C14.0848 4.82942 15.2672 7.60091 15.4439 8.01417C15.9601 7.85806 16.3871 7.72545 16.6899 7.63448C16.7517 7.61586 16.8166 7.61061 16.8803 7.61909C16.9439 7.62758 17.0047 7.64961 17.0584 7.68363C17.1121 7.71765 17.1574 7.76286 17.1912 7.81611C17.225 7.86936 17.2465 7.92936 17.2541 7.99195C17.2959 8.33227 17.3774 8.88849 17.4959 9.62751C18.7415 17.3725 24.1451 45.2276 32.4693 55.6646C32.5496 55.7653 32.59 55.8915 32.5831 56.0201C32.5762 56.1488 32.5225 56.2715 32.4317 56.3658C31.944 56.8721 30.8921 57.8252 29.2511 58.61C26.7584 62.7934 22.9508 59.8997 22.9508 59.8997Z" fill="#DFEBFF"/>
<path d="M24.3177 34.9216C22.6822 35.6343 16.7112 38.1488 13.6927 38.2512C13.6289 38.2539 13.5665 38.2713 13.5104 38.302C13.4544 38.3327 13.4063 38.3758 13.3701 38.4279C13.334 38.48 13.3107 38.5396 13.3022 38.6018C13.2938 38.6639 13.3003 38.727 13.3214 38.7858C13.6865 39.7999 13.7961 41.5115 14.445 42.1104C14.9646 42.5897 23.779 39.722 25.5468 38.3701C25.6117 38.3204 25.6601 38.2529 25.6857 38.1764C25.7112 38.0998 25.7127 38.0178 25.6899 37.9411L24.8658 35.1718C24.8501 35.1177 24.8229 35.0677 24.7858 35.0251C24.7488 34.9825 24.7028 34.9482 24.651 34.9245C24.5992 34.9009 24.5426 34.8884 24.4852 34.8879C24.4277 34.8874 24.3706 34.8989 24.3177 34.9216Z" fill="#81AFFF"/>
<path d="M45.0419 21.1645C45.7605 21.3589 46.337 22.1546 46.7255 23.4903C46.9427 24.2247 47.1474 25.4236 47.1934 26.1976L47.2059 26.4029L46.0445 27.4289C44.5239 28.7754 43.7468 29.3586 43.1202 29.6359C43.0074 29.6827 42.9238 29.7331 42.9364 29.7439C42.9781 29.7763 44.0184 29.2902 44.5698 28.9734C45.4346 28.4838 46.2325 27.951 47.4064 27.0797C47.724 26.8421 47.9913 26.6549 47.9997 26.6621C48.0122 26.6765 47.6696 27.4757 46.0236 31.2488C45.468 32.5125 45.021 33.5565 45.0294 33.5601C45.0377 33.5673 45.1422 33.5025 45.2633 33.4197C45.4262 33.3081 45.4764 33.2865 45.4597 33.3405C45.4471 33.3765 45.1296 34.525 44.762 35.8931C43.8805 39.1333 43.1285 41.9055 42.9823 42.4311C42.8779 42.8235 42.8528 42.8739 42.6063 43.1691C40.8434 45.3005 37.8856 47.277 35.5461 47.8818C34.9946 48.0259 34.9361 48.0439 35.1325 48.0223C36.3691 47.8638 38.3409 46.9602 41.1441 45.2573C41.4616 45.0665 41.7248 44.9117 41.7332 44.9189C41.7374 44.9261 41.0439 46.5318 40.1916 48.4903L38.6376 52.0509L38.3159 52.4181C37.1587 53.7466 35.4166 55.0211 33.6077 55.8708C32.7972 56.2524 32.1246 56.49 31.0635 56.7636L30.8838 56.8104L30.1611 58.3585C29.288 60.2414 29.0916 60.6483 28.5109 61.8111C27.007 64.8245 25.9918 66.4951 25.3568 67.0135C25.1479 67.1863 24.9599 67.2511 24.9599 67.1539C24.9599 67.0027 26.9944 62.236 29.2378 57.12C29.3882 56.7744 29.5136 56.4828 29.5136 56.4684C29.5136 56.454 29.3882 56.2848 29.2378 56.0904C27.8843 54.3443 27.0446 51.4137 27.2158 49.0411L27.2618 48.4255L28.1099 46.4814C28.5778 45.4085 29.2754 43.81 29.6598 42.9207C30.0483 42.0351 30.3783 41.3222 30.3909 41.3366C30.4076 41.3546 30.558 41.8335 30.7251 42.4095C31.335 44.4904 31.9074 45.9089 32.4672 46.7298C32.7471 47.1366 32.7888 47.151 32.5674 46.7622C31.7444 45.3221 31.3643 43.2051 31.5815 41.2538L31.6442 40.6814L33.7957 37.0523C35.2787 34.5466 35.9471 33.3837 35.9471 33.3045C35.9471 33.2433 35.9931 32.9157 36.0516 32.5737C36.1686 31.886 36.0223 32.2532 37.472 28.9446C37.8104 28.1706 38.3284 26.9825 38.6292 26.2984C38.9258 25.6144 39.189 25.0312 39.2057 25.0024C39.2391 24.9556 39.2433 24.9556 39.2642 25.0024C39.2767 25.0312 39.2893 25.1032 39.2976 25.1644C39.3102 25.2652 39.3394 25.2364 39.6736 24.8188C40.6971 23.5407 41.9087 22.3706 42.811 21.7874C43.6507 21.2437 44.4779 21.0133 45.0419 21.1645ZM40.0663 28.7178C40.1123 28.905 40.3922 29.6035 40.5384 29.8987C40.6637 30.1507 41.0397 30.7087 41.0648 30.6835C41.0731 30.6763 41.1441 30.5287 41.2277 30.3523L41.3781 30.0319L40.8434 29.4523C40.5467 29.1318 40.2543 28.8114 40.1916 28.7358C40.1248 28.6638 40.0663 28.6026 40.0538 28.6026C40.0412 28.6026 40.0496 28.6566 40.0663 28.7178ZM41.1107 32.2568C40.2585 34.4566 39.707 35.8643 39.3102 36.8471C39.2099 37.0955 38.9509 37.7436 38.7295 38.2872C38.5122 38.8309 38.0401 39.9973 37.6809 40.8758C37.3258 41.7543 37.0375 42.4779 37.0459 42.4851C37.0584 42.4959 37.2506 42.0459 38.3576 39.3853C38.508 39.0289 38.6584 38.6869 38.6919 38.6292C38.7963 38.4528 42.0047 30.1435 42.0256 30.0067C42.034 29.9383 42.034 29.8951 42.0215 29.9167C42.0131 29.9347 41.6037 30.9896 41.1107 32.2568ZM38.7044 35.8571C38.7044 35.8751 38.7253 35.8679 38.7462 35.8391C38.7671 35.8103 38.7879 35.7671 38.7879 35.7491C38.7879 35.7275 38.7671 35.7383 38.7462 35.7671C38.7253 35.7959 38.7044 35.8355 38.7044 35.8571ZM38.036 37.2252C37.6892 37.938 37.3341 38.6653 37.2464 38.8453C37.0876 39.1657 36.8495 39.7021 34.5267 44.9477C33.4155 47.4606 32.5424 49.5164 32.5758 49.5452C32.5841 49.5488 32.9727 48.7027 33.4364 47.655C34.7899 44.6272 35.6296 42.7551 37.731 38.0892C38.8005 35.7203 38.7253 35.8859 38.6919 35.9111C38.6793 35.9219 38.3827 36.5159 38.036 37.2252ZM36.8913 42.8235C36.8704 42.8955 36.8788 42.8919 36.9247 42.8055C36.954 42.7443 36.9916 42.6579 37.0083 42.6075C37.0292 42.5355 37.0208 42.5391 36.9748 42.6255C36.9456 42.6831 36.908 42.7731 36.8913 42.8235ZM36.6991 43.2735C36.6991 43.2916 36.72 43.2844 36.7409 43.2555C36.7618 43.2267 36.7827 43.1835 36.7827 43.1655C36.7827 43.1439 36.7618 43.1547 36.7409 43.1835C36.72 43.2123 36.6991 43.2519 36.6991 43.2735Z" fill="#94BBFF"/>
</svg>
