<svg width="248" height="255" viewBox="0 0 248 255" fill="none" xmlns="http://www.w3.org/2000/svg">
<ellipse cx="120" cy="211.5" rx="99" ry="14.5" fill="#80AEFF" fill-opacity="0.1"/>
<g filter="url(#filter0_d_2151_793)">
<path fill-rule="evenodd" clip-rule="evenodd" d="M179.554 48.0376L191.605 142.747L148.106 206.747L80.4591 213.341L33.4233 108.998L179.554 48.0376Z" fill="#80AEFF"/>
<path fill-rule="evenodd" clip-rule="evenodd" d="M179.554 48.0366L76.6435 54.898L33.4233 108.997L179.554 48.0366Z" fill="#94BBFF"/>
<path fill-rule="evenodd" clip-rule="evenodd" d="M80.459 213.342L33.4232 108.998L40.6413 178.773L80.459 213.342Z" fill="#669EFF"/>
<path fill-rule="evenodd" clip-rule="evenodd" d="M207.537 123.513L179.555 48.0361L191.606 142.745L207.537 123.513Z" fill="#94BBFF"/>
<path fill-rule="evenodd" clip-rule="evenodd" d="M187.613 191.099L207.536 123.514L191.605 142.746L148.106 206.746L187.613 191.099Z" fill="#669EFF"/>
</g>
<g filter="url(#filter1_f_2151_793)">
<path d="M104.744 125.669L115.161 115.252" stroke="white" stroke-width="2" stroke-linecap="round"/>
<path d="M104.744 108.746V139.996" stroke="white" stroke-width="2" stroke-linecap="round"/>
<path d="M146.412 139.996L135.995 129.579L125.579 139.996" stroke="white" stroke-width="2" stroke-linecap="round"/>
<path d="M135.996 139.996L135.996 108.746" stroke="white" stroke-width="2" stroke-linecap="round"/>
<g opacity="0.3">
<mask id="path-11-inside-1_2151_793" fill="white">
<path fill-rule="evenodd" clip-rule="evenodd" d="M135.245 139.996C135.245 140.411 135.58 140.746 135.995 140.746C136.409 140.746 136.745 140.411 136.745 139.996V131.39L145.881 140.527C146.174 140.82 146.649 140.82 146.942 140.527C147.235 140.234 147.235 139.759 146.942 139.466L136.745 129.269L136.745 108.746C136.745 108.332 136.409 107.996 135.995 107.996C135.58 107.996 135.245 108.332 135.245 108.746L135.245 129.269L125.048 139.466C124.755 139.759 124.755 140.234 125.048 140.527C125.341 140.82 125.816 140.82 126.108 140.527L135.245 131.391V139.996ZM105.494 108.746C105.494 108.332 105.158 107.996 104.744 107.996C104.33 107.996 103.994 108.332 103.994 108.746V125.669V139.997C103.994 140.411 104.33 140.747 104.744 140.747C105.158 140.747 105.494 140.411 105.494 139.997V125.979L115.691 115.782C115.984 115.489 115.984 115.015 115.691 114.722C115.398 114.429 114.923 114.429 114.631 114.722L105.494 123.858V108.746Z"/>
</mask>
<path d="M136.745 131.39L138.159 129.976L134.745 126.562V131.39H136.745ZM145.881 140.527L144.467 141.941L145.881 140.527ZM146.942 139.466L148.356 138.052L148.356 138.052L146.942 139.466ZM136.745 129.269H134.745V130.097L135.33 130.683L136.745 129.269ZM136.745 108.746H134.745V108.746L136.745 108.746ZM135.995 107.996V105.996V107.996ZM135.245 108.746H133.245V108.746L135.245 108.746ZM135.245 129.269L136.659 130.683L137.245 130.098V129.269H135.245ZM125.048 139.466L123.634 138.052L123.634 138.052L125.048 139.466ZM125.048 140.527L126.462 139.113L126.462 139.113L125.048 140.527ZM126.108 140.527L124.694 139.113L124.694 139.113L126.108 140.527ZM135.245 131.391H137.245V126.562L133.83 129.976L135.245 131.391ZM105.494 125.979L104.08 124.565L103.494 125.151V125.979H105.494ZM115.691 115.782L114.277 114.368H114.277L115.691 115.782ZM115.691 114.722L114.277 116.136L114.277 116.136L115.691 114.722ZM114.631 114.722L116.045 116.136L116.045 116.136L114.631 114.722ZM105.494 123.858H103.494V128.687L106.908 125.272L105.494 123.858ZM135.995 138.746C136.685 138.746 137.245 139.306 137.245 139.996H133.245C133.245 141.515 134.476 142.746 135.995 142.746V138.746ZM134.745 139.996C134.745 139.306 135.304 138.746 135.995 138.746V142.746C137.513 142.746 138.745 141.515 138.745 139.996H134.745ZM134.745 131.39V139.996H138.745V131.39H134.745ZM135.33 132.804L144.467 141.941L147.296 139.113L138.159 129.976L135.33 132.804ZM144.467 141.941C145.541 143.015 147.282 143.015 148.356 141.941L145.528 139.113C146.016 138.624 146.807 138.624 147.296 139.113L144.467 141.941ZM148.356 141.941C149.43 140.867 149.43 139.126 148.356 138.052L145.528 140.88C145.04 140.392 145.04 139.601 145.528 139.113L148.356 141.941ZM148.356 138.052L138.159 127.855L135.33 130.683L145.528 140.88L148.356 138.052ZM134.745 108.746L134.745 129.269H138.745L138.745 108.746L134.745 108.746ZM135.995 109.996C135.304 109.996 134.745 109.436 134.745 108.746H138.745C138.745 107.227 137.513 105.996 135.995 105.996V109.996ZM137.245 108.746C137.245 109.436 136.685 109.996 135.995 109.996V105.996C134.476 105.996 133.245 107.227 133.245 108.746H137.245ZM137.245 129.269L137.245 108.746L133.245 108.746L133.245 129.269H137.245ZM133.83 127.855L123.634 138.052L126.462 140.88L136.659 130.683L133.83 127.855ZM123.634 138.052C122.56 139.126 122.56 140.867 123.634 141.941L126.462 139.113C126.95 139.601 126.95 140.392 126.462 140.88L123.634 138.052ZM123.634 141.941C124.707 143.015 126.449 143.015 127.523 141.941L124.694 139.113C125.182 138.624 125.974 138.624 126.462 139.113L123.634 141.941ZM127.523 141.941L136.659 132.805L133.83 129.976L124.694 139.113L127.523 141.941ZM137.245 139.996V131.391H133.245V139.996H137.245ZM104.744 109.996C104.054 109.996 103.494 109.437 103.494 108.746H107.494C107.494 107.228 106.263 105.996 104.744 105.996V109.996ZM105.994 108.746C105.994 109.437 105.434 109.996 104.744 109.996V105.996C103.225 105.996 101.994 107.228 101.994 108.746H105.994ZM105.994 125.669V108.746H101.994V125.669H105.994ZM105.994 139.997V125.669H101.994V139.997H105.994ZM104.744 138.747C105.434 138.747 105.994 139.306 105.994 139.997H101.994C101.994 141.516 103.225 142.747 104.744 142.747V138.747ZM103.494 139.997C103.494 139.306 104.054 138.747 104.744 138.747V142.747C106.263 142.747 107.494 141.516 107.494 139.997H103.494ZM103.494 125.979V139.997H107.494V125.979H103.494ZM114.277 114.368L104.08 124.565L106.908 127.394L117.105 117.197L114.277 114.368ZM114.277 116.136C113.789 115.648 113.789 114.856 114.277 114.368L117.105 117.197C118.179 116.123 118.179 114.381 117.105 113.307L114.277 116.136ZM116.045 116.136C115.557 116.624 114.765 116.624 114.277 116.136L117.105 113.307C116.032 112.234 114.29 112.234 113.216 113.307L116.045 116.136ZM106.908 125.272L116.045 116.136L113.216 113.307L104.08 122.444L106.908 125.272ZM103.494 108.746V123.858H107.494V108.746H103.494Z" fill="white" mask="url(#path-11-inside-1_2151_793)"/>
</g>
</g>
<path d="M104.744 125.669L115.161 115.252" stroke="white" stroke-width="0.5" stroke-linecap="round"/>
<path d="M104.744 108.746V139.996" stroke="white" stroke-width="0.5" stroke-linecap="round"/>
<path d="M146.412 139.996L135.995 129.579L125.579 139.996" stroke="white" stroke-width="0.5" stroke-linecap="round"/>
<path d="M135.996 139.996L135.996 108.746" stroke="white" stroke-width="0.5" stroke-linecap="round"/>
<g opacity="0.3">
<mask id="path-17-inside-2_2151_793" fill="white">
<path fill-rule="evenodd" clip-rule="evenodd" d="M135.245 139.996C135.245 140.411 135.58 140.746 135.995 140.746C136.409 140.746 136.745 140.411 136.745 139.996V131.39L145.881 140.527C146.174 140.82 146.649 140.82 146.942 140.527C147.235 140.234 147.235 139.759 146.942 139.466L136.745 129.269L136.745 108.746C136.745 108.332 136.409 107.996 135.995 107.996C135.58 107.996 135.245 108.332 135.245 108.746L135.245 129.269L125.048 139.466C124.755 139.759 124.755 140.234 125.048 140.527C125.341 140.82 125.816 140.82 126.108 140.527L135.245 131.391V139.996ZM105.494 108.746C105.494 108.332 105.158 107.996 104.744 107.996C104.33 107.996 103.994 108.332 103.994 108.746V125.669V139.997C103.994 140.411 104.33 140.747 104.744 140.747C105.158 140.747 105.494 140.411 105.494 139.997V125.979L115.691 115.782C115.984 115.489 115.984 115.015 115.691 114.722C115.398 114.429 114.923 114.429 114.631 114.722L105.494 123.858V108.746Z"/>
</mask>
<path d="M136.745 131.39L137.098 131.037L136.245 130.183V131.39H136.745ZM145.881 140.527L145.528 140.88L145.881 140.527ZM146.942 139.466L147.296 139.113V139.113L146.942 139.466ZM136.745 129.269H136.245V129.476L136.391 129.622L136.745 129.269ZM136.745 108.746H136.245V108.746L136.745 108.746ZM135.995 107.996V107.496V107.996ZM135.245 108.746H134.745V108.746L135.245 108.746ZM135.245 129.269L135.598 129.623L135.745 129.476V129.269H135.245ZM125.048 139.466L124.694 139.113V139.113L125.048 139.466ZM125.048 140.527L125.401 140.173L125.048 140.527ZM126.108 140.527L125.755 140.173L126.108 140.527ZM135.245 131.391H135.745V130.183L134.891 131.037L135.245 131.391ZM105.494 125.979L105.141 125.626L104.994 125.772V125.979H105.494ZM115.691 115.782L115.338 115.429L115.691 115.782ZM115.691 114.722L115.338 115.075L115.691 114.722ZM114.631 114.722L114.984 115.075L114.631 114.722ZM105.494 123.858H104.994V125.065L105.848 124.212L105.494 123.858ZM135.995 140.246C135.857 140.246 135.745 140.134 135.745 139.996H134.745C134.745 140.687 135.304 141.246 135.995 141.246V140.246ZM136.245 139.996C136.245 140.134 136.133 140.246 135.995 140.246V141.246C136.685 141.246 137.245 140.687 137.245 139.996H136.245ZM136.245 131.39V139.996H137.245V131.39H136.245ZM136.391 131.744L145.528 140.88L146.235 140.173L137.098 131.037L136.391 131.744ZM145.528 140.88C146.016 141.368 146.807 141.368 147.296 140.88L146.588 140.173C146.491 140.271 146.332 140.271 146.235 140.173L145.528 140.88ZM147.296 140.88C147.784 140.392 147.784 139.601 147.296 139.113L146.588 139.82C146.686 139.917 146.686 140.076 146.588 140.173L147.296 140.88ZM147.296 139.113L137.098 128.915L136.391 129.622L146.588 139.82L147.296 139.113ZM136.245 108.746L136.245 129.269H137.245L137.245 108.746L136.245 108.746ZM135.995 108.496C136.133 108.496 136.245 108.608 136.245 108.746H137.245C137.245 108.056 136.685 107.496 135.995 107.496V108.496ZM135.745 108.746C135.745 108.608 135.857 108.496 135.995 108.496V107.496C135.304 107.496 134.745 108.056 134.745 108.746H135.745ZM135.745 129.269L135.745 108.746L134.745 108.746L134.745 129.269H135.745ZM134.891 128.916L124.694 139.113L125.401 139.82L135.598 129.623L134.891 128.916ZM124.694 139.113C124.206 139.601 124.206 140.392 124.694 140.88L125.401 140.173C125.304 140.076 125.304 139.917 125.401 139.82L124.694 139.113ZM124.694 140.88C125.182 141.368 125.974 141.368 126.462 140.88L125.755 140.173C125.657 140.271 125.499 140.271 125.401 140.173L124.694 140.88ZM126.462 140.88L135.598 131.744L134.891 131.037L125.755 140.173L126.462 140.88ZM135.745 139.996V131.391H134.745V139.996H135.745ZM104.744 108.496C104.882 108.496 104.994 108.608 104.994 108.746H105.994C105.994 108.056 105.434 107.496 104.744 107.496V108.496ZM104.494 108.746C104.494 108.608 104.606 108.496 104.744 108.496V107.496C104.054 107.496 103.494 108.056 103.494 108.746H104.494ZM104.494 125.669V108.746H103.494V125.669H104.494ZM104.494 139.997V125.669H103.494V139.997H104.494ZM104.744 140.247C104.606 140.247 104.494 140.135 104.494 139.997H103.494C103.494 140.687 104.054 141.247 104.744 141.247V140.247ZM104.994 139.997C104.994 140.135 104.882 140.247 104.744 140.247V141.247C105.434 141.247 105.994 140.687 105.994 139.997H104.994ZM104.994 125.979V139.997H105.994V125.979H104.994ZM115.338 115.429L105.141 125.626L105.848 126.333L116.045 116.136L115.338 115.429ZM115.338 115.075C115.435 115.173 115.435 115.331 115.338 115.429L116.045 116.136C116.533 115.648 116.533 114.856 116.045 114.368L115.338 115.075ZM114.984 115.075C115.082 114.978 115.24 114.978 115.338 115.075L116.045 114.368C115.557 113.88 114.765 113.88 114.277 114.368L114.984 115.075ZM105.848 124.212L114.984 115.075L114.277 114.368L105.141 123.505L105.848 124.212ZM104.994 108.746V123.858H105.994V108.746H104.994Z" fill="white" mask="url(#path-17-inside-2_2151_793)"/>
</g>
<g opacity="0.9" filter="url(#filter2_f_2151_793)">
<path d="M106.766 167.508V160.406H104.375L104.516 158.695H107.094V153.914H108.688V158.789H112.531V160.477H108.523V166.57L112.062 165.914L112.297 167.508L107.609 168.492L106.766 167.508ZM117.594 159.773C116.734 159.773 116.055 160.039 115.555 160.57C115.07 161.102 114.828 161.953 114.828 163.125C114.828 163.578 114.891 164.031 115.016 164.484C115.141 164.922 115.32 165.32 115.555 165.68C115.789 166.039 116.07 166.336 116.398 166.57C116.727 166.789 117.094 166.898 117.5 166.898C117.922 166.898 118.305 166.797 118.648 166.594C118.992 166.391 119.281 166.133 119.516 165.82C119.75 165.492 119.93 165.133 120.055 164.742C120.195 164.336 120.266 163.945 120.266 163.57C120.266 162.195 120.016 161.219 119.516 160.641C119.031 160.062 118.391 159.773 117.594 159.773ZM117.453 158.18C118.234 158.18 118.898 158.32 119.445 158.602C119.992 158.883 120.438 159.273 120.781 159.773C121.125 160.258 121.375 160.828 121.531 161.484C121.688 162.125 121.766 162.82 121.766 163.57C121.734 164.414 121.594 165.148 121.344 165.773C121.109 166.383 120.797 166.891 120.406 167.297C120.016 167.703 119.57 168 119.07 168.188C118.586 168.391 118.078 168.492 117.547 168.492C116.844 168.492 116.227 168.352 115.695 168.07C115.18 167.789 114.742 167.414 114.383 166.945C114.039 166.461 113.773 165.914 113.586 165.305C113.414 164.68 113.328 164.023 113.328 163.336C113.328 162.602 113.422 161.922 113.609 161.297C113.812 160.656 114.086 160.109 114.43 159.656C114.789 159.188 115.219 158.828 115.719 158.578C116.234 158.312 116.812 158.18 117.453 158.18ZM131.281 162.445V162.938C131.281 163.828 131.148 164.57 130.883 165.164C130.617 165.758 130.281 166.234 129.875 166.594C129.484 166.938 129.047 167.18 128.562 167.32C128.078 167.461 127.617 167.531 127.18 167.531C126.68 167.531 126.211 167.469 125.773 167.344C125.352 167.219 125.031 167.07 124.812 166.898L125 172.148L123.547 172.289V159.539L123.688 158.461C124.844 158.195 125.844 158.062 126.688 158.062C128.141 158.062 129.25 158.43 130.016 159.164C130.797 159.883 131.219 160.977 131.281 162.445ZM124.578 160.102L124.672 164.742C124.688 164.82 124.766 164.914 124.906 165.023C125.062 165.133 125.258 165.242 125.492 165.352C125.742 165.445 126.016 165.531 126.312 165.609C126.609 165.672 126.914 165.703 127.227 165.703C127.523 165.703 127.82 165.656 128.117 165.562C128.43 165.453 128.703 165.273 128.938 165.023C129.188 164.773 129.391 164.438 129.547 164.016C129.703 163.594 129.781 163.07 129.781 162.445C129.781 161.961 129.688 161.539 129.5 161.18C129.328 160.805 129.086 160.5 128.773 160.266C128.477 160.016 128.133 159.836 127.742 159.727C127.367 159.602 126.977 159.539 126.57 159.539C126.211 159.539 125.859 159.586 125.516 159.68C125.172 159.773 124.859 159.914 124.578 160.102ZM133.156 168.07V159.492H134.797V168.164L133.156 168.07ZM135.312 157.57L133.672 158.039L132.172 154.477L133.812 154.055L135.312 157.57ZM144.781 159.445L144.359 160.945C143.906 160.539 143.422 160.242 142.906 160.055C142.391 159.852 141.883 159.75 141.383 159.75C140.961 159.75 140.555 159.828 140.164 159.984C139.789 160.125 139.461 160.344 139.18 160.641C138.898 160.938 138.672 161.305 138.5 161.742C138.344 162.18 138.266 162.68 138.266 163.242C138.266 163.914 138.352 164.477 138.523 164.93C138.711 165.383 138.953 165.75 139.25 166.031C139.547 166.312 139.883 166.516 140.258 166.641C140.648 166.766 141.047 166.828 141.453 166.828C141.812 166.812 142.164 166.742 142.508 166.617C142.867 166.477 143.188 166.289 143.469 166.055C143.75 165.805 143.984 165.516 144.172 165.188C144.359 164.844 144.469 164.461 144.5 164.039L145.812 164.695C145.781 165.32 145.633 165.867 145.367 166.336C145.117 166.805 144.789 167.195 144.383 167.508C143.992 167.82 143.539 168.055 143.023 168.211C142.508 168.367 141.977 168.445 141.43 168.445C140.852 168.445 140.281 168.336 139.719 168.117C139.156 167.914 138.656 167.602 138.219 167.18C137.781 166.758 137.43 166.227 137.164 165.586C136.898 164.93 136.766 164.164 136.766 163.289C136.766 162.555 136.875 161.883 137.094 161.273C137.312 160.648 137.617 160.117 138.008 159.68C138.398 159.227 138.859 158.875 139.391 158.625C139.938 158.375 140.531 158.25 141.172 158.25C141.719 158.25 142.289 158.352 142.883 158.555C143.492 158.742 144.125 159.039 144.781 159.445Z" fill="white"/>
</g>
<g opacity="0.9">
<path d="M106.766 167.508V160.406H104.375L104.516 158.695H107.094V153.914H108.688V158.789H112.531V160.477H108.523V166.57L112.062 165.914L112.297 167.508L107.609 168.492L106.766 167.508ZM117.594 159.773C116.734 159.773 116.055 160.039 115.555 160.57C115.07 161.102 114.828 161.953 114.828 163.125C114.828 163.578 114.891 164.031 115.016 164.484C115.141 164.922 115.32 165.32 115.555 165.68C115.789 166.039 116.07 166.336 116.398 166.57C116.727 166.789 117.094 166.898 117.5 166.898C117.922 166.898 118.305 166.797 118.648 166.594C118.992 166.391 119.281 166.133 119.516 165.82C119.75 165.492 119.93 165.133 120.055 164.742C120.195 164.336 120.266 163.945 120.266 163.57C120.266 162.195 120.016 161.219 119.516 160.641C119.031 160.062 118.391 159.773 117.594 159.773ZM117.453 158.18C118.234 158.18 118.898 158.32 119.445 158.602C119.992 158.883 120.438 159.273 120.781 159.773C121.125 160.258 121.375 160.828 121.531 161.484C121.688 162.125 121.766 162.82 121.766 163.57C121.734 164.414 121.594 165.148 121.344 165.773C121.109 166.383 120.797 166.891 120.406 167.297C120.016 167.703 119.57 168 119.07 168.188C118.586 168.391 118.078 168.492 117.547 168.492C116.844 168.492 116.227 168.352 115.695 168.07C115.18 167.789 114.742 167.414 114.383 166.945C114.039 166.461 113.773 165.914 113.586 165.305C113.414 164.68 113.328 164.023 113.328 163.336C113.328 162.602 113.422 161.922 113.609 161.297C113.812 160.656 114.086 160.109 114.43 159.656C114.789 159.188 115.219 158.828 115.719 158.578C116.234 158.312 116.812 158.18 117.453 158.18ZM131.281 162.445V162.938C131.281 163.828 131.148 164.57 130.883 165.164C130.617 165.758 130.281 166.234 129.875 166.594C129.484 166.938 129.047 167.18 128.562 167.32C128.078 167.461 127.617 167.531 127.18 167.531C126.68 167.531 126.211 167.469 125.773 167.344C125.352 167.219 125.031 167.07 124.812 166.898L125 172.148L123.547 172.289V159.539L123.688 158.461C124.844 158.195 125.844 158.062 126.688 158.062C128.141 158.062 129.25 158.43 130.016 159.164C130.797 159.883 131.219 160.977 131.281 162.445ZM124.578 160.102L124.672 164.742C124.688 164.82 124.766 164.914 124.906 165.023C125.062 165.133 125.258 165.242 125.492 165.352C125.742 165.445 126.016 165.531 126.312 165.609C126.609 165.672 126.914 165.703 127.227 165.703C127.523 165.703 127.82 165.656 128.117 165.562C128.43 165.453 128.703 165.273 128.938 165.023C129.188 164.773 129.391 164.438 129.547 164.016C129.703 163.594 129.781 163.07 129.781 162.445C129.781 161.961 129.688 161.539 129.5 161.18C129.328 160.805 129.086 160.5 128.773 160.266C128.477 160.016 128.133 159.836 127.742 159.727C127.367 159.602 126.977 159.539 126.57 159.539C126.211 159.539 125.859 159.586 125.516 159.68C125.172 159.773 124.859 159.914 124.578 160.102ZM133.156 168.07V159.492H134.797V168.164L133.156 168.07ZM135.312 157.57L133.672 158.039L132.172 154.477L133.812 154.055L135.312 157.57ZM144.781 159.445L144.359 160.945C143.906 160.539 143.422 160.242 142.906 160.055C142.391 159.852 141.883 159.75 141.383 159.75C140.961 159.75 140.555 159.828 140.164 159.984C139.789 160.125 139.461 160.344 139.18 160.641C138.898 160.938 138.672 161.305 138.5 161.742C138.344 162.18 138.266 162.68 138.266 163.242C138.266 163.914 138.352 164.477 138.523 164.93C138.711 165.383 138.953 165.75 139.25 166.031C139.547 166.312 139.883 166.516 140.258 166.641C140.648 166.766 141.047 166.828 141.453 166.828C141.812 166.812 142.164 166.742 142.508 166.617C142.867 166.477 143.188 166.289 143.469 166.055C143.75 165.805 143.984 165.516 144.172 165.188C144.359 164.844 144.469 164.461 144.5 164.039L145.812 164.695C145.781 165.32 145.633 165.867 145.367 166.336C145.117 166.805 144.789 167.195 144.383 167.508C143.992 167.82 143.539 168.055 143.023 168.211C142.508 168.367 141.977 168.445 141.43 168.445C140.852 168.445 140.281 168.336 139.719 168.117C139.156 167.914 138.656 167.602 138.219 167.18C137.781 166.758 137.43 166.227 137.164 165.586C136.898 164.93 136.766 164.164 136.766 163.289C136.766 162.555 136.875 161.883 137.094 161.273C137.312 160.648 137.617 160.117 138.008 159.68C138.398 159.227 138.859 158.875 139.391 158.625C139.938 158.375 140.531 158.25 141.172 158.25C141.719 158.25 142.289 158.352 142.883 158.555C143.492 158.742 144.125 159.039 144.781 159.445Z" fill="white"/>
<path d="M106.766 167.508H106.266V167.693L106.386 167.833L106.766 167.508ZM106.766 160.406H107.266V159.906H106.766V160.406ZM104.375 160.406L103.877 160.365L103.832 160.906H104.375V160.406ZM104.516 158.695V158.195H104.055L104.017 158.654L104.516 158.695ZM107.094 158.695V159.195H107.594V158.695H107.094ZM107.094 153.914V153.414H106.594V153.914H107.094ZM108.688 153.914H109.188V153.414H108.688V153.914ZM108.688 158.789H108.188V159.289H108.688V158.789ZM112.531 158.789H113.031V158.289H112.531V158.789ZM112.531 160.477V160.977H113.031V160.477H112.531ZM108.523 160.477V159.977H108.023V160.477H108.523ZM108.523 166.57H108.023V167.172L108.615 167.062L108.523 166.57ZM112.062 165.914L112.557 165.841L112.482 165.328L111.971 165.422L112.062 165.914ZM112.297 167.508L112.4 167.997L112.86 167.9L112.792 167.435L112.297 167.508ZM107.609 168.492L107.23 168.818L107.422 169.042L107.712 168.982L107.609 168.492ZM107.266 167.508V160.406H106.266V167.508H107.266ZM106.766 159.906H104.375V160.906H106.766V159.906ZM104.873 160.447L105.014 158.736L104.017 158.654L103.877 160.365L104.873 160.447ZM104.516 159.195H107.094V158.195H104.516V159.195ZM107.594 158.695V153.914H106.594V158.695H107.594ZM107.094 154.414H108.688V153.414H107.094V154.414ZM108.188 153.914V158.789H109.188V153.914H108.188ZM108.688 159.289H112.531V158.289H108.688V159.289ZM112.031 158.789V160.477H113.031V158.789H112.031ZM112.531 159.977H108.523V160.977H112.531V159.977ZM108.023 160.477V166.57H109.023V160.477H108.023ZM108.615 167.062L112.154 166.406L111.971 165.422L108.432 166.079L108.615 167.062ZM111.568 165.987L111.802 167.581L112.792 167.435L112.557 165.841L111.568 165.987ZM112.194 167.018L107.507 168.003L107.712 168.982L112.4 167.997L112.194 167.018ZM107.989 168.167L107.145 167.182L106.386 167.833L107.23 168.818L107.989 168.167ZM115.555 160.57L115.191 160.228L115.185 160.233L115.555 160.57ZM115.016 164.484L114.534 164.617L114.535 164.622L115.016 164.484ZM116.398 166.57L116.108 166.977L116.114 166.982L116.121 166.986L116.398 166.57ZM119.516 165.82L119.916 166.12L119.922 166.111L119.516 165.82ZM120.055 164.742L119.582 164.579L119.578 164.59L120.055 164.742ZM119.516 160.641L119.132 160.962L119.137 160.968L119.516 160.641ZM120.781 159.773L120.369 160.057L120.373 160.063L120.781 159.773ZM121.531 161.484L121.045 161.6L121.045 161.603L121.531 161.484ZM121.766 163.57L122.265 163.589L122.266 163.58V163.57H121.766ZM121.344 165.773L120.879 165.588L120.877 165.594L121.344 165.773ZM119.07 168.188L118.895 167.719L118.886 167.723L118.877 167.726L119.07 168.188ZM115.695 168.07L115.456 168.509L115.461 168.512L115.695 168.07ZM114.383 166.945L113.975 167.235L113.98 167.242L113.986 167.25L114.383 166.945ZM113.586 165.305L113.104 165.437L113.106 165.445L113.108 165.452L113.586 165.305ZM113.609 161.297L113.133 161.146L113.13 161.153L113.609 161.297ZM114.43 159.656L114.033 159.352L114.031 159.354L114.43 159.656ZM115.719 158.578L115.942 159.025L115.948 159.023L115.719 158.578ZM117.594 159.273C116.623 159.273 115.802 159.578 115.191 160.228L115.919 160.913C116.307 160.5 116.846 160.273 117.594 160.273V159.273ZM115.185 160.233C114.578 160.9 114.328 161.902 114.328 163.125H115.328C115.328 162.004 115.563 161.303 115.924 160.907L115.185 160.233ZM114.328 163.125C114.328 163.625 114.397 164.123 114.534 164.617L115.498 164.351C115.384 163.94 115.328 163.532 115.328 163.125H114.328ZM114.535 164.622C114.673 165.104 114.873 165.549 115.136 165.953L115.973 165.407C115.768 165.092 115.608 164.739 115.496 164.347L114.535 164.622ZM115.136 165.953C115.402 166.361 115.726 166.704 116.108 166.977L116.689 166.163C116.415 165.968 116.176 165.717 115.973 165.407L115.136 165.953ZM116.121 166.986C116.534 167.262 116.998 167.398 117.5 167.398V166.398C117.189 166.398 116.919 166.317 116.676 166.154L116.121 166.986ZM117.5 167.398C118.006 167.398 118.478 167.275 118.903 167.024L118.394 166.163C118.132 166.318 117.838 166.398 117.5 166.398V167.398ZM118.903 167.024C119.302 166.788 119.641 166.487 119.916 166.12L119.116 165.52C118.922 165.779 118.682 165.993 118.394 166.163L118.903 167.024ZM119.922 166.111C120.188 165.74 120.39 165.334 120.531 164.895L119.578 164.59C119.469 164.932 119.312 165.244 119.109 165.53L119.922 166.111ZM120.527 164.906C120.683 164.454 120.766 164.008 120.766 163.57H119.766C119.766 163.882 119.707 164.217 119.582 164.579L120.527 164.906ZM120.766 163.57C120.766 162.161 120.515 161.031 119.894 160.314L119.137 160.968C119.517 161.406 119.766 162.23 119.766 163.57H120.766ZM119.899 160.32C119.314 159.621 118.529 159.273 117.594 159.273V160.273C118.252 160.273 118.749 160.504 119.132 160.962L119.899 160.32ZM117.453 158.68C118.176 158.68 118.757 158.81 119.217 159.046L119.674 158.157C119.04 157.831 118.293 157.68 117.453 157.68V158.68ZM119.217 159.046C119.691 159.29 120.073 159.626 120.369 160.057L121.193 159.49C120.802 158.921 120.293 158.475 119.674 158.157L119.217 159.046ZM120.373 160.063C120.675 160.488 120.901 160.998 121.045 161.6L122.018 161.369C121.849 160.658 121.575 160.027 121.189 159.484L120.373 160.063ZM121.045 161.603C121.191 162.2 121.266 162.855 121.266 163.57H122.266C122.266 162.786 122.184 162.05 122.017 161.366L121.045 161.603ZM121.266 163.552C121.236 164.352 121.104 165.028 120.88 165.588L121.808 165.959C122.084 165.269 122.232 164.476 122.265 163.589L121.266 163.552ZM120.877 165.594C120.663 166.151 120.384 166.599 120.046 166.95L120.767 167.643C121.21 167.182 121.556 166.615 121.81 165.953L120.877 165.594ZM120.046 166.95C119.704 167.306 119.321 167.56 118.895 167.719L119.246 168.656C119.82 168.44 120.327 168.1 120.767 167.643L120.046 166.95ZM118.877 167.726C118.455 167.904 118.013 167.992 117.547 167.992V168.992C118.144 168.992 118.717 168.878 119.264 168.649L118.877 167.726ZM117.547 167.992C116.911 167.992 116.377 167.866 115.929 167.628L115.461 168.512C116.076 168.838 116.776 168.992 117.547 168.992V167.992ZM115.935 167.631C115.481 167.384 115.097 167.055 114.78 166.641L113.986 167.25C114.388 167.773 114.879 168.194 115.456 168.509L115.935 167.631ZM114.791 166.656C114.48 166.218 114.237 165.72 114.064 165.158L113.108 165.452C113.31 166.108 113.598 166.704 113.975 167.235L114.791 166.656ZM114.068 165.172C113.909 164.593 113.828 163.981 113.828 163.336H112.828C112.828 164.066 112.919 164.767 113.104 165.437L114.068 165.172ZM113.828 163.336C113.828 162.644 113.916 162.014 114.088 161.441L113.13 161.153C112.927 161.83 112.828 162.559 112.828 163.336H113.828ZM114.086 161.448C114.275 160.852 114.524 160.359 114.828 159.958L114.031 159.354C113.647 159.86 113.35 160.46 113.133 161.146L114.086 161.448ZM114.826 159.96C115.142 159.548 115.514 159.24 115.942 159.025L115.495 158.131C114.923 158.417 114.436 158.827 114.033 159.352L114.826 159.96ZM115.948 159.023C116.385 158.797 116.884 158.68 117.453 158.68V157.68C116.741 157.68 116.083 157.828 115.49 158.134L115.948 159.023ZM131.281 162.445H131.781V162.435L131.781 162.424L131.281 162.445ZM129.875 166.594L130.205 166.969L130.206 166.968L129.875 166.594ZM125.773 167.344L125.631 167.823L125.636 167.825L125.773 167.344ZM124.812 166.898L125.121 166.505L124.274 165.84L124.313 166.916L124.812 166.898ZM125 172.148L125.048 172.646L125.516 172.601L125.5 172.131L125 172.148ZM123.547 172.289H123.047V172.84L123.595 172.787L123.547 172.289ZM123.547 159.539L123.051 159.474L123.047 159.507V159.539H123.547ZM123.688 158.461L123.576 157.974L123.237 158.051L123.192 158.396L123.688 158.461ZM130.016 159.164L129.669 159.525L129.677 159.532L130.016 159.164ZM124.578 160.102L124.301 159.686L124.073 159.838L124.078 160.112L124.578 160.102ZM124.672 164.742L124.172 164.752L124.173 164.797L124.182 164.84L124.672 164.742ZM124.906 165.023L124.599 165.418L124.609 165.426L124.62 165.433L124.906 165.023ZM125.492 165.352L125.281 165.805L125.298 165.813L125.317 165.82L125.492 165.352ZM126.312 165.609L126.185 166.093L126.197 166.096L126.209 166.099L126.312 165.609ZM128.117 165.562L128.268 166.039L128.275 166.037L128.282 166.034L128.117 165.562ZM128.938 165.023L128.584 164.67L128.578 164.676L128.573 164.681L128.938 165.023ZM129.5 161.18L129.045 161.388L129.051 161.4L129.057 161.411L129.5 161.18ZM128.773 160.266L128.451 160.648L128.462 160.657L128.473 160.666L128.773 160.266ZM127.742 159.727L127.584 160.201L127.596 160.205L127.607 160.208L127.742 159.727ZM130.781 162.445V162.938H131.781V162.445H130.781ZM130.781 162.938C130.781 163.782 130.655 164.449 130.426 164.96L131.339 165.368C131.642 164.691 131.781 163.874 131.781 162.938H130.781ZM130.426 164.96C130.184 165.501 129.887 165.916 129.544 166.219L130.206 166.968C130.675 166.553 131.05 166.014 131.339 165.368L130.426 164.96ZM129.545 166.218C129.207 166.515 128.835 166.721 128.423 166.84L128.702 167.8C129.259 167.639 129.761 167.36 130.205 166.969L129.545 166.218ZM128.423 166.84C127.977 166.97 127.563 167.031 127.18 167.031V168.031C127.671 168.031 128.179 167.952 128.702 167.8L128.423 166.84ZM127.18 167.031C126.722 167.031 126.299 166.974 125.911 166.863L125.636 167.825C126.122 167.963 126.638 168.031 127.18 168.031V167.031ZM125.915 166.864C125.523 166.748 125.27 166.622 125.121 166.505L124.504 167.292C124.792 167.519 125.18 167.689 125.631 167.823L125.915 166.864ZM124.313 166.916L124.5 172.166L125.5 172.131L125.312 166.881L124.313 166.916ZM124.952 171.651L123.499 171.791L123.595 172.787L125.048 172.646L124.952 171.651ZM124.047 172.289V159.539H123.047V172.289H124.047ZM124.043 159.604L124.183 158.526L123.192 158.396L123.051 159.474L124.043 159.604ZM123.799 158.948C124.933 158.688 125.893 158.562 126.688 158.562V157.562C125.794 157.562 124.755 157.703 123.576 157.974L123.799 158.948ZM126.688 158.562C128.06 158.562 129.027 158.909 129.67 159.525L130.362 158.803C129.473 157.951 128.221 157.562 126.688 157.562V158.562ZM129.677 159.532C130.328 160.131 130.723 161.078 130.782 162.467L131.781 162.424C131.715 160.875 131.265 159.634 130.354 158.796L129.677 159.532ZM124.078 160.112L124.172 164.752L125.172 164.732L125.078 160.091L124.078 160.112ZM124.182 164.84C124.212 164.993 124.292 165.111 124.358 165.191C124.428 165.275 124.512 165.35 124.599 165.418L125.213 164.629C125.187 164.609 125.168 164.592 125.153 164.578C125.138 164.564 125.13 164.555 125.126 164.551C125.123 164.547 125.127 164.551 125.134 164.564C125.141 164.577 125.154 164.604 125.162 164.644L124.182 164.84ZM124.62 165.433C124.806 165.564 125.029 165.687 125.281 165.805L125.704 164.898C125.487 164.797 125.319 164.702 125.193 164.614L124.62 165.433ZM125.317 165.82C125.585 165.92 125.874 166.011 126.185 166.093L126.44 165.126C126.157 165.051 125.9 164.97 125.668 164.883L125.317 165.82ZM126.209 166.099C126.541 166.168 126.88 166.203 127.227 166.203V165.203C126.948 165.203 126.678 165.175 126.416 165.12L126.209 166.099ZM127.227 166.203C127.577 166.203 127.925 166.148 128.268 166.039L127.967 165.086C127.716 165.165 127.47 165.203 127.227 165.203V166.203ZM128.282 166.034C128.674 165.897 129.015 165.672 129.302 165.365L128.573 164.681C128.391 164.875 128.186 165.009 127.952 165.091L128.282 166.034ZM129.291 165.377C129.604 165.064 129.841 164.661 130.016 164.189L129.078 163.842C128.94 164.214 128.771 164.483 128.584 164.67L129.291 165.377ZM130.016 164.189C130.199 163.695 130.281 163.108 130.281 162.445H129.281C129.281 163.032 129.207 163.493 129.078 163.842L130.016 164.189ZM130.281 162.445C130.281 161.896 130.175 161.392 129.943 160.948L129.057 161.411C129.2 161.686 129.281 162.026 129.281 162.445H130.281ZM129.955 160.971C129.75 160.525 129.456 160.153 129.073 159.866L128.473 160.666C128.715 160.847 128.906 161.084 129.045 161.388L129.955 160.971ZM129.096 159.883C128.742 159.585 128.333 159.373 127.877 159.245L127.607 160.208C127.932 160.299 128.212 160.446 128.451 160.648L129.096 159.883ZM127.9 159.252C127.473 159.11 127.029 159.039 126.57 159.039V160.039C126.924 160.039 127.261 160.093 127.584 160.201L127.9 159.252ZM126.57 159.039C126.167 159.039 125.771 159.092 125.384 159.197L125.647 160.162C125.948 160.08 126.255 160.039 126.57 160.039V159.039ZM125.384 159.197C124.991 159.304 124.629 159.467 124.301 159.686L124.855 160.518C125.09 160.361 125.352 160.242 125.647 160.162L125.384 159.197ZM133.156 168.07H132.656V168.543L133.128 168.569L133.156 168.07ZM133.156 159.492V158.992H132.656V159.492H133.156ZM134.797 159.492H135.297V158.992H134.797V159.492ZM134.797 168.164L134.768 168.663L135.297 168.693V168.164H134.797ZM135.312 157.57L135.45 158.051L135.995 157.895L135.772 157.374L135.312 157.57ZM133.672 158.039L133.211 158.233L133.383 158.642L133.809 158.52L133.672 158.039ZM132.172 154.477L132.047 153.992L131.486 154.137L131.711 154.671L132.172 154.477ZM133.812 154.055L134.272 153.858L134.104 153.463L133.688 153.57L133.812 154.055ZM133.656 168.07V159.492H132.656V168.07H133.656ZM133.156 159.992H134.797V158.992H133.156V159.992ZM134.297 159.492V168.164H135.297V159.492H134.297ZM134.825 167.665L133.185 167.571L133.128 168.569L134.768 168.663L134.825 167.665ZM135.175 157.09L133.535 157.558L133.809 158.52L135.45 158.051L135.175 157.09ZM134.133 157.845L132.633 154.283L131.711 154.671L133.211 158.233L134.133 157.845ZM132.296 154.961L133.937 154.539L133.688 153.57L132.047 153.992L132.296 154.961ZM133.353 154.251L134.853 157.767L135.772 157.374L134.272 153.858L133.353 154.251ZM144.781 159.445L145.263 159.581L145.364 159.218L145.044 159.02L144.781 159.445ZM144.359 160.945L144.026 161.318L144.623 161.854L144.841 161.081L144.359 160.945ZM142.906 160.055L142.723 160.52L142.735 160.525L142.906 160.055ZM140.164 159.984L140.34 160.453L140.35 160.449L140.164 159.984ZM138.5 161.742L138.035 161.559L138.032 161.567L138.029 161.574L138.5 161.742ZM138.523 164.93L138.056 165.107L138.059 165.114L138.061 165.121L138.523 164.93ZM140.258 166.641L140.1 167.115L140.105 167.117L140.258 166.641ZM141.453 166.828V167.328H141.464L141.475 167.328L141.453 166.828ZM142.508 166.617L142.679 167.087L142.69 167.083L142.508 166.617ZM143.469 166.055L143.789 166.439L143.795 166.434L143.801 166.428L143.469 166.055ZM144.172 165.188L144.606 165.436L144.611 165.427L144.172 165.188ZM144.5 164.039L144.724 163.592L144.056 163.258L144.001 164.002L144.5 164.039ZM145.812 164.695L146.312 164.72L146.328 164.394L146.036 164.248L145.812 164.695ZM145.367 166.336L144.932 166.089L144.926 166.101L145.367 166.336ZM144.383 167.508L144.078 167.111L144.07 167.117L144.383 167.508ZM139.719 168.117L139.9 167.651L139.889 167.647L139.719 168.117ZM137.164 165.586L136.701 165.774L136.702 165.777L137.164 165.586ZM137.094 161.273L137.564 161.442L137.566 161.439L137.094 161.273ZM138.008 159.68L138.381 160.013L138.387 160.006L138.008 159.68ZM139.391 158.625L139.183 158.17L139.178 158.173L139.391 158.625ZM142.883 158.555L142.721 159.028L142.728 159.03L142.736 159.033L142.883 158.555ZM144.3 159.31L143.878 160.81L144.841 161.081L145.263 159.581L144.3 159.31ZM144.693 160.573C144.198 160.129 143.659 159.796 143.077 159.585L142.735 160.525C143.185 160.688 143.615 160.949 144.026 161.318L144.693 160.573ZM143.09 159.589C142.522 159.366 141.952 159.25 141.383 159.25V160.25C141.814 160.25 142.259 160.337 142.723 160.52L143.09 159.589ZM141.383 159.25C140.898 159.25 140.428 159.34 139.978 159.52L140.35 160.449C140.681 160.316 141.024 160.25 141.383 160.25V159.25ZM139.989 159.516C139.541 159.684 139.149 159.946 138.817 160.297L139.543 160.984C139.773 160.742 140.037 160.566 140.34 160.453L139.989 159.516ZM138.817 160.297C138.485 160.647 138.227 161.071 138.035 161.559L138.965 161.925C139.117 161.538 139.312 161.228 139.543 160.984L138.817 160.297ZM138.029 161.574C137.85 162.076 137.766 162.634 137.766 163.242H138.766C138.766 162.725 138.837 162.284 138.971 161.91L138.029 161.574ZM137.766 163.242C137.766 163.953 137.856 164.58 138.056 165.107L138.991 164.752C138.847 164.373 138.766 163.875 138.766 163.242H137.766ZM138.061 165.121C138.271 165.626 138.549 166.056 138.906 166.394L139.594 165.668C139.357 165.444 139.151 165.139 138.985 164.739L138.061 165.121ZM138.906 166.394C139.254 166.724 139.653 166.966 140.1 167.115L140.416 166.166C140.113 166.065 139.84 165.901 139.594 165.668L138.906 166.394ZM140.105 167.117C140.545 167.257 140.995 167.328 141.453 167.328V166.328C141.099 166.328 140.752 166.274 140.41 166.164L140.105 167.117ZM141.475 167.328C141.886 167.31 142.288 167.229 142.679 167.087L142.337 166.147C142.04 166.255 141.739 166.315 141.431 166.329L141.475 167.328ZM142.69 167.083C143.097 166.924 143.464 166.709 143.789 166.439L143.149 165.671C142.911 165.869 142.638 166.029 142.326 166.152L142.69 167.083ZM143.801 166.428C144.123 166.142 144.392 165.811 144.606 165.436L143.738 164.939C143.577 165.221 143.377 165.467 143.137 165.681L143.801 166.428ZM144.611 165.427C144.835 165.016 144.963 164.563 144.999 164.076L144.001 164.002C143.975 164.359 143.884 164.672 143.733 164.948L144.611 165.427ZM144.276 164.486L145.589 165.143L146.036 164.248L144.724 163.592L144.276 164.486ZM145.313 164.67C145.285 165.23 145.154 165.699 144.932 166.089L145.802 166.582C146.112 166.036 146.277 165.411 146.312 164.72L145.313 164.67ZM144.926 166.101C144.708 166.509 144.426 166.844 144.078 167.111L144.688 167.904C145.152 167.547 145.526 167.1 145.808 166.571L144.926 166.101ZM144.07 167.117C143.733 167.387 143.338 167.593 142.878 167.732L143.168 168.689C143.74 168.516 144.251 168.253 144.695 167.898L144.07 167.117ZM142.878 167.732C142.411 167.874 141.928 167.945 141.43 167.945V168.945C142.025 168.945 142.605 168.86 143.168 168.689L142.878 167.732ZM141.43 167.945C140.916 167.945 140.407 167.848 139.9 167.651L139.538 168.583C140.155 168.823 140.787 168.945 141.43 168.945V167.945ZM139.889 167.647C139.393 167.468 138.954 167.194 138.566 166.82L137.872 167.54C138.359 168.01 138.919 168.36 139.549 168.587L139.889 167.647ZM138.566 166.82C138.184 166.452 137.869 165.981 137.626 165.394L136.702 165.777C136.99 166.473 137.378 167.064 137.872 167.54L138.566 166.82ZM137.628 165.398C137.391 164.814 137.266 164.114 137.266 163.289H136.266C136.266 164.214 136.406 165.045 136.701 165.774L137.628 165.398ZM137.266 163.289C137.266 162.605 137.367 161.991 137.564 161.442L136.623 161.105C136.383 161.775 136.266 162.505 136.266 163.289H137.266ZM137.566 161.439C137.766 160.868 138.039 160.395 138.381 160.013L137.635 159.347C137.195 159.839 136.859 160.429 136.622 161.108L137.566 161.439ZM138.387 160.006C138.732 159.605 139.137 159.297 139.604 159.077L139.178 158.173C138.582 158.453 138.065 158.848 137.629 159.353L138.387 160.006ZM139.599 159.08C140.076 158.861 140.598 158.75 141.172 158.75V157.75C140.464 157.75 139.799 157.889 139.183 158.17L139.599 159.08ZM141.172 158.75C141.656 158.75 142.172 158.84 142.721 159.028L143.045 158.082C142.406 157.863 141.781 157.75 141.172 157.75V158.75ZM142.736 159.033C143.297 159.205 143.891 159.482 144.518 159.87L145.044 159.02C144.359 158.596 143.688 158.279 143.03 158.077L142.736 159.033Z" fill="white" fill-opacity="0.7"/>
</g>
<defs>
<filter id="filter0_d_2151_793" x="29.4238" y="44.0371" width="182.113" height="173.305" filterUnits="userSpaceOnUse" color-interpolation-filters="sRGB">
<feFlood flood-opacity="0" result="BackgroundImageFix"/>
<feColorMatrix in="SourceAlpha" type="matrix" values="0 0 0 0 0 0 0 0 0 0 0 0 0 0 0 0 0 0 127 0" result="hardAlpha"/>
<feOffset/>
<feGaussianBlur stdDeviation="2"/>
<feComposite in2="hardAlpha" operator="out"/>
<feColorMatrix type="matrix" values="0 0 0 0 0 0 0 0 0 0 0 0 0 0 0 0 0 0 0.05 0"/>
<feBlend mode="normal" in2="BackgroundImageFix" result="effect1_dropShadow_2151_793"/>
<feBlend mode="normal" in="SourceGraphic" in2="effect1_dropShadow_2151_793" result="shape"/>
</filter>
<filter id="filter1_f_2151_793" x="99.7441" y="103.746" width="51.668" height="41.25" filterUnits="userSpaceOnUse" color-interpolation-filters="sRGB">
<feFlood flood-opacity="0" result="BackgroundImageFix"/>
<feBlend mode="normal" in="SourceGraphic" in2="BackgroundImageFix" result="shape"/>
<feGaussianBlur stdDeviation="2" result="effect1_foregroundBlur_2151_793"/>
</filter>
<filter id="filter2_f_2151_793" x="100.375" y="149.914" width="49.4375" height="26.375" filterUnits="userSpaceOnUse" color-interpolation-filters="sRGB">
<feFlood flood-opacity="0" result="BackgroundImageFix"/>
<feBlend mode="normal" in="SourceGraphic" in2="BackgroundImageFix" result="shape"/>
<feGaussianBlur stdDeviation="2" result="effect1_foregroundBlur_2151_793"/>
</filter>
</defs>
</svg>
