<svg width="9" height="16" viewBox="0 0 9 16" fill="none" xmlns="http://www.w3.org/2000/svg">
<g opacity="0.5">
<path d="M6.89441 7.15039C6.34212 7.15039 5.89441 7.59811 5.89441 8.15039C5.89441 8.70268 6.34212 9.15039 6.89441 9.15039V7.15039ZM8.41375 8.8575C8.80427 8.46697 8.80427 7.83381 8.41375 7.44328L2.04979 1.07932C1.65926 0.688799 1.0261 0.688799 0.635576 1.07932C0.245052 1.46985 0.245052 2.10301 0.635576 2.49354L6.29243 8.15039L0.635576 13.8072C0.245052 14.1978 0.245052 14.8309 0.635576 15.2215C1.0261 15.612 1.65926 15.612 2.04979 15.2215L8.41375 8.8575ZM6.89441 9.15039H7.70664V7.15039H6.89441V9.15039Z" fill="#80AEFF"/>
</g>
</svg>
