<svg width="39" height="57" viewBox="0 0 39 57" fill="none" xmlns="http://www.w3.org/2000/svg">
<path d="M29.0322 53.5797L29.1281 53.5489C28.2533 53.6126 27.3746 53.6009 26.5017 53.5141C26.3724 53.5017 26.2507 53.447 26.1556 53.3584C26.0605 53.2699 25.9972 53.1524 25.9755 53.0243C25.6034 50.8876 20.7434 35.0001 6.96342 13.6607C6.47224 12.8996 5.96952 12.1316 5.45526 11.3568C5.45526 11.3568 4.79464 10.0031 7.08254 8.41641C6.7077 7.61256 6.4195 6.79111 6.58876 6.44454C6.70711 6.2251 6.8703 6.03301 7.06774 5.88076C7.63269 5.41145 8.50586 5.0087 9.19005 4.5176C8.94112 4.01532 8.73137 3.50874 8.82629 3.38433C9.23663 2.84521 10.8747 2.53133 11.2927 2.58717C11.6889 2.64063 12.4881 4.83549 12.5948 5.26293C13.1521 5.00747 13.6441 4.73024 14.0471 4.50335C14.7003 4.13483 15.1223 3.89832 15.2088 4.1043C15.4336 4.6259 16.7717 7.0239 16.9715 7.38145C17.4137 7.19438 17.779 7.03652 18.0384 6.92734C18.0913 6.90501 18.1484 6.89448 18.2058 6.89647C18.2631 6.89846 18.3194 6.91293 18.3706 6.93888C18.4218 6.96482 18.4668 7.00161 18.5023 7.0467C18.5379 7.09178 18.5632 7.14407 18.5765 7.19992C18.649 7.5036 18.7791 7.99877 18.9612 8.65574C20.8725 15.5407 28.5669 40.22 37.0431 48.9052C37.1249 48.989 37.1739 49.0994 37.1812 49.2162C37.1885 49.3331 37.1535 49.4487 37.0827 49.5419C36.7023 50.0428 35.8674 50.9975 34.4921 51.8528C32.7139 55.8539 29.0322 53.5797 29.0322 53.5797ZM13.2223 6.76145L9.00652 6.0193L8.64589 7.84917L8.14818 10.3753L9.00652 6.0193L16.9045 7.40973L13.2223 6.76145Z" fill="#80AEFF" fill-opacity="0.3"/>
<path d="M6.83257 8.5443C4.49241 10.1451 5.45738 11.3583 5.45738 11.3583C20.393 33.8499 25.5915 50.8133 25.977 53.0261C25.9988 53.1542 26.0621 53.2715 26.1572 53.3601C26.2523 53.4486 26.3739 53.5034 26.5033 53.5159C33.0248 54.1446 36.2221 50.6751 37.0848 49.5419C37.1555 49.4486 37.1904 49.3331 37.1831 49.2163C37.1759 49.0994 37.127 48.9891 37.0453 48.9052C27.7599 39.3915 19.413 10.6843 18.578 7.20023C18.5647 7.14432 18.5394 7.09199 18.5038 7.04688C18.4682 7.00177 18.4232 6.96497 18.3719 6.93905C18.3206 6.91313 18.2642 6.8987 18.2068 6.89678C18.1494 6.89486 18.0922 6.90549 18.0393 6.92793C16.135 7.7321 8.50833 11.1083 6.83436 10.2905" stroke="#80AEFF" stroke-opacity="0.99" stroke-width="1.5" stroke-linecap="round" stroke-linejoin="round"/>
<path d="M17.0299 7.33545C17.0299 7.33545 15.4852 4.57794 15.2412 4.01378C14.9973 3.44962 12.2217 6.24679 8.9707 5.91797" stroke="#80AEFF" stroke-opacity="0.99" stroke-width="1.5" stroke-linecap="round" stroke-linejoin="round"/>
<path d="M8.20504 10.3658C8.20504 10.3658 6.26892 7.19449 6.64913 6.41574C7.02934 5.637 8.27764 5.20932 9.22518 4.48513" stroke="#80AEFF" stroke-opacity="0.99" stroke-width="1.5" stroke-linecap="round" stroke-linejoin="round"/>
<path d="M9.86101 5.61231C9.86101 5.61231 8.68475 3.62119 8.88696 3.35632C9.2973 2.8172 10.9354 2.50332 11.3533 2.55916C11.7713 2.615 12.5949 4.72348 12.6266 4.96165" stroke="#80AEFF" stroke-opacity="0.99" stroke-width="1.5" stroke-linecap="round" stroke-linejoin="round"/>
<path d="M29.0928 53.5518C29.0928 53.5518 32.7838 55.8319 34.5596 51.8113" stroke="#80AEFF" stroke-opacity="0.99" stroke-width="1.5" stroke-linecap="round" stroke-linejoin="round"/>
<path d="M26.6552 28.7654C25.2772 29.5551 20.2371 32.3589 17.5677 32.7206C17.5114 32.7287 17.4577 32.75 17.4112 32.7828C17.3646 32.8155 17.3264 32.8588 17.2997 32.9091C17.273 32.9593 17.2585 33.0152 17.2575 33.0721C17.2564 33.1291 17.2688 33.1854 17.2937 33.2367C17.7233 34.1201 17.9985 35.6564 18.637 36.1395C19.1481 36.5261 26.6761 33.1496 28.1052 31.7708C28.1576 31.7201 28.1936 31.6548 28.2083 31.5834C28.223 31.512 28.2158 31.4378 28.1876 31.3706L27.1679 28.9425C27.1484 28.8951 27.119 28.8523 27.0816 28.8171C27.0443 28.782 27 28.7551 26.9515 28.7383C26.903 28.7216 26.8515 28.7154 26.8004 28.72C26.7494 28.7247 26.6998 28.7402 26.6552 28.7654Z" fill="#80AEFF" fill-opacity="0.99"/>
<rect x="0.75" y="29.75" width="24.5" height="24.5" rx="12.25" fill="#FDFFFC" stroke="#81AFFF" stroke-width="1.5"/>
<path d="M9.20801 41.8209L11.7336 44.3497L16.7913 39.292" fill="#FDFFFC"/>
<path d="M9.20801 41.8209L11.7336 44.3497L16.7913 39.292" stroke="#81AFFF" stroke-width="1.5" stroke-linecap="round" stroke-linejoin="round"/>
</svg>
