<svg width="18" height="18" viewBox="0 0 18 18" fill="none" xmlns="http://www.w3.org/2000/svg">
<g clip-path="url(#clip0_2493_2020)">
<path fill-rule="evenodd" clip-rule="evenodd" d="M12.6322 4.9115C11.7029 4.02523 10.4628 3.5424 9.17968 3.56224C6.83172 3.56224 4.8376 5.14628 4.12659 7.27928C3.74959 8.39705 3.74959 9.60746 4.12659 10.7252H4.12989C4.8442 12.8549 6.83502 14.439 9.18299 14.439C10.395 14.439 11.4355 14.129 12.242 13.5814V13.5792C13.1911 12.9508 13.8393 11.9621 14.041 10.8443H9.17969V7.37856H17.6688C17.7746 7.98043 17.8242 8.59553 17.8242 9.20732C17.8242 11.9447 16.8459 14.259 15.1437 15.8265L15.1455 15.8279C13.654 17.2036 11.607 18.0006 9.17968 18.0006C5.77678 18.0006 2.66489 16.0826 1.13705 13.0434C-0.139438 10.5003 -0.139435 7.5042 1.13706 4.96113C2.6649 1.91869 5.77677 0.000606499 9.17968 0.000606499C11.4152 -0.0258495 13.5747 0.814129 15.2017 2.34196L12.6322 4.9115Z" fill="#80AEFF"/>
</g>
<defs>
<clipPath id="clip0_2493_2020">
<rect width="18" height="18" fill="white"/>
</clipPath>
</defs>
</svg>
