<svg width="171" height="198" viewBox="0 0 171 198" fill="none" xmlns="http://www.w3.org/2000/svg">
<mask id="mask0_2493_2023" style="mask-type:alpha" maskUnits="userSpaceOnUse" x="0" y="0" width="171" height="198">
<rect x="2" y="195.719" width="193.719" height="167" transform="rotate(-90 2 195.719)" fill="#669EFF" stroke="#80AEFF" stroke-width="4"/>
</mask>
<g mask="url(#mask0_2493_2023)">
<path d="M141.982 15.5366L142.072 15.7056C140.965 14.4602 139.752 13.3122 138.448 12.2743C138.255 12.1199 138.017 12.0333 137.77 12.0279C137.523 12.0226 137.281 12.0987 137.082 12.2446C133.741 14.6623 106.053 29.867 58.9832 40.6838C57.3047 41.07 55.6015 41.4503 53.8734 41.8246C53.8734 41.8246 51.1784 42.7936 52.1912 47.9854C50.6146 48.5839 49.1327 49.3212 48.9038 50.0174C48.774 50.4731 48.7416 50.9509 48.8087 51.4198C48.956 52.8074 49.6114 54.5126 49.8923 56.0878C48.8872 56.4423 47.9297 56.8546 47.894 57.1497C47.7381 58.4276 49.5535 61.0249 50.1969 61.5024C50.8076 61.9544 54.8069 60.0232 55.519 59.5822C55.9395 60.6684 56.2422 61.6977 56.4903 62.5406C56.8914 63.9076 57.1527 64.7888 57.5437 64.6228C58.5417 64.2101 63.5444 62.7158 64.2907 62.4934C64.645 63.3339 64.9334 64.0328 65.142 64.5251C65.1844 64.6255 65.2483 64.7156 65.3291 64.7888C65.4099 64.8621 65.5057 64.9169 65.6099 64.9494C65.7141 64.9819 65.8241 64.9913 65.9323 64.977C66.0405 64.9627 66.1443 64.925 66.2365 64.8665C66.738 64.5489 67.5719 64.0467 68.6911 63.393C80.4246 56.5459 123.633 33.119 146.697 32.5149C146.92 32.5092 147.133 32.4237 147.298 32.2741C147.462 32.1246 147.568 31.9208 147.595 31.7C147.741 30.5139 147.87 28.1075 147.13 25.1207C150.014 17.3151 141.982 15.5366 141.982 15.5366Z" fill="#DFEBFF"/>
<path d="M110.016 44.6047C109.186 41.7038 106.038 31.2087 102.881 27.1802C102.815 27.0945 102.77 26.9945 102.75 26.8882C102.73 26.7819 102.736 26.6724 102.766 26.5685C102.796 26.4647 102.851 26.3694 102.925 26.2905C102.999 26.2115 103.09 26.1512 103.192 26.1143C104.949 25.4799 107.361 23.7517 108.872 23.9393C110.081 24.0897 115.859 38.6602 115.977 42.4312C115.981 42.5697 115.944 42.7063 115.869 42.8231C115.794 42.9398 115.686 43.0314 115.559 43.0857L110.95 45.0425C110.86 45.0812 110.764 45.1005 110.666 45.099C110.569 45.0976 110.472 45.0754 110.384 45.034C110.296 44.9926 110.218 44.9329 110.154 44.8589C110.091 44.7848 110.044 44.6982 110.016 44.6047Z" fill="#81AFFF"/>
<path d="M182.735 -0.800414L182.543 -1.04786C183.658 1.43933 184.557 4.01787 185.23 6.65931C185.331 7.05036 185.3 7.46391 185.143 7.83596C184.985 8.20802 184.709 8.51783 184.358 8.71745C178.511 12.0782 137.261 43.1799 89.5564 106.134C87.8546 108.378 86.1449 110.664 84.4275 112.99C84.4275 112.99 81.1747 116.36 74.1099 111.367C72.1597 113.317 70.0661 115.033 68.874 114.908C68.1072 114.796 67.3728 114.524 66.7184 114.109C64.7475 112.959 62.6437 110.837 60.4825 109.362C59.2795 110.623 58.0224 111.775 57.5582 111.63C55.5476 111.006 52.8911 106.556 52.6104 105.276C52.3458 104.062 57.9088 99.3917 59.0442 98.6252C57.7061 97.2696 56.3738 96.1277 55.283 95.1923C53.5129 93.6771 52.3738 92.6963 52.8837 92.2245C54.1687 91.0127 59.7529 84.553 60.5852 83.5889C59.5692 82.4967 58.7201 81.5978 58.1257 80.9565C58.0043 80.8258 57.9129 80.6702 57.8578 80.5005C57.8027 80.3308 57.7852 80.1511 57.8066 79.9739C57.828 79.7967 57.8878 79.6263 57.9817 79.4745C58.0756 79.3227 58.2015 79.1932 58.3506 79.0949C59.1607 78.56 60.469 77.6529 62.1948 76.4219C80.2778 63.5128 144.202 14.7767 160.572 -19.2207C160.73 -19.5487 161 -19.8093 161.334 -19.9548C161.668 -20.1004 162.042 -20.1213 162.39 -20.0137C164.257 -19.436 167.933 -18.0139 171.892 -14.9076C185.468 -13.9728 182.735 -0.800414 182.735 -0.800414Z" fill="#DFEBFF"/>
<path d="M117.937 27.3831C121.707 30.5671 135.25 42.3019 139.141 49.7127C139.225 49.8687 139.344 50.0027 139.489 50.1038C139.634 50.205 139.801 50.2705 139.976 50.295C140.152 50.3194 140.33 50.3022 140.498 50.2447C140.665 50.1872 140.816 50.091 140.94 49.9639C143.064 47.7691 147.26 45.3302 147.993 42.9514C148.58 41.0472 130.722 22.656 125.177 19.9501C124.973 19.8508 124.744 19.8153 124.52 19.8483C124.295 19.8813 124.086 19.9813 123.92 20.1352L117.91 25.6973C117.792 25.8048 117.698 25.9362 117.635 26.0826C117.572 26.229 117.541 26.3872 117.543 26.5466C117.546 26.706 117.582 26.863 117.65 27.0072C117.718 27.1514 117.816 27.2796 117.937 27.3831Z" fill="#81AFFF"/>
<path d="M183.249 2.21241L182.961 2.02574C185.014 4.1958 186.877 6.5384 188.529 9.02767C188.775 9.39572 188.892 9.83468 188.864 10.2766C188.835 10.7186 188.662 11.1388 188.37 11.4724C183.537 17.0637 152.107 64.158 125.518 146.54C124.569 149.478 123.626 152.46 122.691 155.488C122.691 155.488 120.544 160.151 111.43 157.54C110.117 160.263 108.572 162.796 107.293 163.097C106.459 163.258 105.601 163.242 104.774 163.05C102.319 162.572 99.3751 161.138 96.6056 160.393C95.8173 162.134 94.9331 163.78 94.4005 163.798C92.0944 163.879 87.7369 160.236 86.9837 159.013C86.2709 157.852 90.3376 151.009 91.2351 149.806C89.3604 148.887 87.5691 148.188 86.1023 147.614C83.7231 146.687 82.1899 146.084 82.5468 145.411C83.438 143.693 86.8795 134.99 87.3919 133.692C85.9458 132.93 84.7423 132.307 83.8955 131.858C83.7226 131.767 83.5717 131.639 83.4533 131.483C83.3349 131.328 83.2519 131.148 83.21 130.957C83.168 130.766 83.1682 130.568 83.2105 130.377C83.2528 130.186 83.3362 130.006 83.4549 129.851C84.0996 129.004 85.1251 127.593 86.4654 125.695C100.506 105.8 149.016 32.2626 153.659 -8.83057C153.704 -9.22705 153.889 -9.59439 154.182 -9.86565C154.474 -10.1369 154.855 -10.2941 155.253 -10.3085C157.394 -10.3859 161.711 -10.2438 166.93 -8.46175C181.314 -12.4042 183.249 2.21241 183.249 2.21241Z" fill="#DFEBFF"/>
<path d="M126.402 54.8028C131.454 56.7336 149.709 63.9769 156.415 70.2368C156.557 70.3679 156.729 70.4635 156.916 70.5157C157.103 70.5679 157.299 70.5752 157.489 70.5372C157.679 70.4991 157.858 70.4168 158.01 70.2967C158.163 70.1767 158.285 70.0224 158.366 69.8463C159.771 66.8073 163.229 62.7669 163.128 60.0406C163.046 57.8584 137.92 45.2888 131.204 44.4948C130.958 44.4656 130.708 44.5117 130.488 44.6269C130.268 44.7422 130.088 44.9212 129.971 45.1406L125.764 53.0685C125.681 53.2224 125.632 53.3921 125.62 53.5664C125.607 53.7408 125.632 53.9157 125.692 54.0797C125.753 54.2437 125.847 54.393 125.969 54.5177C126.092 54.6423 126.239 54.7395 126.402 54.8028Z" fill="#81AFFF"/>
</g>
</svg>
