<svg width="15" height="19" viewBox="0 0 15 19" fill="none" xmlns="http://www.w3.org/2000/svg">
<rect x="3.54297" y="4.54297" width="2.83472" height="2.83472" rx="1.41736" transform="rotate(90 3.54297 4.54297)" stroke="#6C83AB"/>
<rect x="11.3379" y="3.83594" width="2.83472" height="2.83472" rx="1.41736" transform="rotate(-90 11.3379 3.83594)" stroke="#6C83AB"/>
<path d="M12.0468 3.12274L10.9838 4.18576C10.6516 4.51798 10.4855 4.6841 10.3196 4.7944C9.64868 5.24058 8.77553 5.24058 8.1046 4.7944C7.93874 4.6841 7.77263 4.51798 7.4404 4.18576V4.18576C7.10818 3.85354 6.94207 3.68743 6.77621 3.57713C6.10528 3.13094 5.23213 3.13094 4.5612 3.57713C4.39534 3.68743 4.22923 3.85354 3.897 4.18576L2.83398 5.24878" stroke="#6C83AB"/>
<path d="M4.48832 8.96003L7.26535 9.70413C8.79906 10.1151 9.70923 11.6916 9.29827 13.2253C8.88732 14.759 7.31085 15.6691 5.77714 15.2582C4.24343 14.8472 3.33326 13.2708 3.74422 11.7371L4.48832 8.96003Z" stroke="#6C83AB"/>
<rect x="7.93945" y="12.9102" width="2.05434" height="2.05434" rx="1.02717" transform="rotate(150 7.93945 12.9102)" stroke="#6C83AB"/>
<line x1="4.81778" y1="8.85098" x2="6.07864" y2="11.0349" stroke="#6C83AB" stroke-linecap="round"/>
</svg>
