<svg width="171" height="198" viewBox="0 0 171 198" fill="none" xmlns="http://www.w3.org/2000/svg">
<mask id="mask0_2493_2028" style="mask-type:alpha" maskUnits="userSpaceOnUse" x="0" y="0" width="171" height="198">
<rect x="-2" y="-2" width="193.719" height="167" transform="matrix(4.37114e-08 -1 -1 -4.37114e-08 167 193.719)" fill="#669EFF" stroke="#80AEFF" stroke-width="4"/>
</mask>
<g mask="url(#mask0_2493_2028)">
<path d="M29.0177 15.5366L28.9278 15.7056C30.0353 14.4602 31.2478 13.3122 32.5519 12.2743C32.7447 12.1199 32.983 12.0333 33.23 12.0279C33.477 12.0226 33.719 12.0987 33.9184 12.2446C37.2587 14.6623 64.9471 29.867 112.017 40.6838C113.695 41.07 115.399 41.4503 117.127 41.8246C117.127 41.8246 119.822 42.7936 118.809 47.9854C120.385 48.5839 121.867 49.3212 122.096 50.0174C122.226 50.4731 122.258 50.9509 122.191 51.4198C122.044 52.8074 121.389 54.5126 121.108 56.0878C122.113 56.4423 123.07 56.8546 123.106 57.1497C123.262 58.4276 121.446 61.0249 120.803 61.5024C120.192 61.9544 116.193 60.0232 115.481 59.5822C115.06 60.6684 114.758 61.6977 114.51 62.5406C114.109 63.9076 113.847 64.7888 113.456 64.6228C112.458 64.2101 107.456 62.7158 106.709 62.4934C106.355 63.3339 106.067 64.0328 105.858 64.5251C105.816 64.6255 105.752 64.7156 105.671 64.7888C105.59 64.8621 105.494 64.9169 105.39 64.9494C105.286 64.9819 105.176 64.9913 105.068 64.977C104.959 64.9627 104.856 64.925 104.764 64.8665C104.262 64.5489 103.428 64.0467 102.309 63.393C90.5754 56.5459 47.3672 33.119 24.3029 32.5149C24.0803 32.5092 23.8672 32.4237 23.7024 32.2741C23.5375 32.1246 23.4319 31.9208 23.4047 31.7C23.2587 30.5139 23.1301 28.1075 23.8696 25.1207C20.9863 17.3151 29.0177 15.5366 29.0177 15.5366Z" fill="#DFEBFF"/>
<path d="M60.9835 44.6047C61.8137 41.7038 64.9618 31.2087 68.1187 27.1802C68.1848 27.0945 68.2296 26.9945 68.2496 26.8882C68.2697 26.7819 68.2643 26.6724 68.234 26.5685C68.2037 26.4647 68.1493 26.3694 68.0753 26.2905C68.0012 26.2115 67.9096 26.1512 67.8078 26.1143C66.0511 25.4799 63.6389 23.7517 62.1284 23.9393C60.9194 24.0897 55.1414 38.6602 55.023 42.4312C55.0186 42.5697 55.0563 42.7063 55.1309 42.8231C55.2056 42.9398 55.3138 43.0314 55.4413 43.0857L60.0502 45.0425C60.1397 45.0812 60.2365 45.1005 60.334 45.099C60.4315 45.0976 60.5275 45.0754 60.6158 45.034C60.704 44.9926 60.7825 44.9329 60.8459 44.8589C60.9093 44.7848 60.9562 44.6982 60.9835 44.6047Z" fill="#81AFFF"/>
<path d="M-11.7345 -0.800414L-11.5428 -1.04786C-12.6576 1.43933 -13.5567 4.01787 -14.2301 6.65931C-14.3311 7.05036 -14.3004 7.46391 -14.1428 7.83596C-13.9851 8.20802 -13.7092 8.51783 -13.3578 8.71745C-7.51121 12.0782 33.7391 43.1799 81.4436 106.134C83.1454 108.378 84.8551 110.664 86.5725 112.99C86.5725 112.99 89.8253 116.36 96.8901 111.367C98.8403 113.317 100.934 115.033 102.126 114.908C102.893 114.796 103.627 114.524 104.282 114.109C106.253 112.959 108.356 110.837 110.517 109.362C111.72 110.623 112.978 111.775 113.442 111.63C115.452 111.006 118.109 106.556 118.39 105.276C118.654 104.062 113.091 99.3917 111.956 98.6252C113.294 97.2696 114.626 96.1277 115.717 95.1923C117.487 93.6771 118.626 92.6963 118.116 92.2245C116.831 91.0127 111.247 84.553 110.415 83.5889C111.431 82.4967 112.28 81.5978 112.874 80.9565C112.996 80.8258 113.087 80.6702 113.142 80.5005C113.197 80.3308 113.215 80.1511 113.193 79.9739C113.172 79.7967 113.112 79.6263 113.018 79.4745C112.924 79.3227 112.798 79.1932 112.649 79.0949C111.839 78.56 110.531 77.6529 108.805 76.4219C90.7222 63.5128 26.7985 14.7767 10.4279 -19.2207C10.27 -19.5487 9.99966 -19.8093 9.66599 -19.9548C9.33231 -20.1004 8.95755 -20.1213 8.60996 -20.0137C6.74282 -19.436 3.06721 -18.0139 -0.891848 -14.9076C-14.4684 -13.9728 -11.7345 -0.800414 -11.7345 -0.800414Z" fill="#DFEBFF"/>
<path d="M53.0631 27.3831C49.293 30.5671 35.7501 42.3019 31.8587 49.7127C31.7752 49.8687 31.656 50.0027 31.5109 50.1038C31.3658 50.205 31.1988 50.2705 31.0236 50.295C30.8484 50.3194 30.6698 50.3022 30.5024 50.2447C30.335 50.1872 30.1835 50.091 30.0603 49.9639C27.9357 47.7691 23.74 45.3302 23.0068 42.9514C22.4201 41.0472 40.278 22.656 45.8234 19.9501C46.0271 19.8508 46.256 19.8153 46.4803 19.8483C46.7045 19.8813 46.9136 19.9813 47.0802 20.1352L53.0902 25.6973C53.208 25.8048 53.3016 25.9362 53.3648 26.0826C53.428 26.229 53.4594 26.3872 53.4568 26.5466C53.4542 26.706 53.4178 26.863 53.3499 27.0072C53.2821 27.1514 53.1843 27.2796 53.0631 27.3831Z" fill="#81AFFF"/>
<path d="M-12.2491 2.21241L-11.9612 2.02574C-14.0141 4.1958 -15.8767 6.5384 -17.5286 9.02767C-17.7745 9.39572 -17.8923 9.83468 -17.8637 10.2766C-17.8351 10.7186 -17.6617 11.1388 -17.3704 11.4724C-12.5369 17.0637 18.8931 64.158 45.4823 146.54C46.4313 149.478 47.3736 152.46 48.3091 155.488C48.3091 155.488 50.4558 160.151 59.5704 157.54C60.8829 160.263 62.4284 162.796 63.7071 163.097C64.5409 163.258 65.3992 163.242 66.2261 163.05C68.6812 162.572 71.6249 161.138 74.3944 160.393C75.1827 162.134 76.0669 163.78 76.5995 163.798C78.9056 163.879 83.2631 160.236 84.0163 159.013C84.7291 157.852 80.6624 151.009 79.7649 149.806C81.6396 148.887 83.4309 148.188 84.8977 147.614C87.2769 146.687 88.8101 146.084 88.4532 145.411C87.562 143.693 84.1205 134.99 83.6081 133.692C85.0542 132.93 86.2577 132.307 87.1045 131.858C87.2774 131.767 87.4283 131.639 87.5467 131.483C87.6651 131.328 87.7481 131.148 87.79 130.957C87.832 130.766 87.8318 130.568 87.7895 130.377C87.7472 130.186 87.6638 130.006 87.5451 129.851C86.9004 129.004 85.8749 127.593 84.5346 125.695C70.4944 105.8 21.9836 32.2626 17.3409 -8.83057C17.2963 -9.22705 17.1108 -9.59439 16.8182 -9.86565C16.5256 -10.1369 16.1455 -10.2941 15.747 -10.3085C13.6063 -10.3859 9.28931 -10.2438 4.07002 -8.46175C-10.3142 -12.4042 -12.2491 2.21241 -12.2491 2.21241Z" fill="#DFEBFF"/>
<path d="M44.598 54.8028C39.5461 56.7336 21.2912 63.9769 14.5853 70.2368C14.4425 70.3679 14.2708 70.4635 14.0841 70.5157C13.8974 70.5679 13.7009 70.5752 13.5108 70.5372C13.3206 70.4991 13.1421 70.4168 12.9897 70.2967C12.8374 70.1767 12.7154 70.0224 12.6338 69.8463C11.2295 66.8073 7.77063 62.7669 7.87223 60.0406C7.95393 57.8584 33.0801 45.2888 39.7958 44.4948C40.0424 44.4656 40.2921 44.5117 40.5121 44.6269C40.7322 44.7422 40.9124 44.9212 41.029 45.1406L45.2356 53.0685C45.3186 53.2224 45.368 53.3921 45.3804 53.5664C45.3928 53.7408 45.3681 53.9157 45.3078 54.0797C45.2475 54.2437 45.153 54.393 45.0306 54.5177C44.9082 54.6423 44.7608 54.7395 44.598 54.8028Z" fill="#81AFFF"/>
</g>
</svg>
