<svg width="39" height="54" viewBox="0 0 39 54" fill="none" xmlns="http://www.w3.org/2000/svg">
<path d="M32.8081 20.5108L21.6447 21.9475L21.1266 2.14228C21.1063 1.97817 21.0338 1.8234 20.9191 1.69915C20.8042 1.57491 20.6527 1.48726 20.4853 1.4482C20.3179 1.40915 20.1427 1.4206 19.9838 1.48097C19.8248 1.54136 19.6898 1.64773 19.5973 1.78553L4.39503 30.711C4.26029 30.9705 4.20235 31.2612 4.22748 31.5521C4.25261 31.843 4.35983 32.1228 4.53758 32.3614C4.71534 32.6 4.95688 32.7883 5.23615 32.9061C5.5154 33.0238 5.82178 33.0665 6.12223 33.0295L17.2278 31.6003L17.7149 51.0121C17.7322 51.1778 17.8027 51.3349 17.9167 51.4616C18.0307 51.5883 18.1824 51.6784 18.3509 51.7191C18.5193 51.7598 18.696 51.7494 18.8566 51.6891C19.017 51.6288 19.1533 51.5218 19.2464 51.3827L34.5289 22.7876C34.6521 22.5301 34.7012 22.2447 34.671 21.961C34.6407 21.6772 34.5324 21.4052 34.357 21.1732C34.1816 20.9412 33.9456 20.7575 33.6734 20.641C33.401 20.5246 33.1023 20.4796 32.8081 20.5108Z" fill="white" fill-opacity="0.99"/>
</svg>
