<svg width="24" height="24" viewBox="0 0 24 24" fill="none" xmlns="http://www.w3.org/2000/svg">
<path d="M4.66666 1V1C4.04724 1 3.73753 1 3.47905 1.04558C2.23701 1.26458 1.26457 2.23702 1.04557 3.47906C0.999992 3.73754 0.999992 4.04725 0.999992 4.66667L0.999992 7.33333C0.999991 7.80473 0.999991 8.04044 1.14644 8.18688C1.29288 8.33333 1.52859 8.33333 1.99999 8.33333L8.33333 8.33333M4.66666 1V1C5.28608 1 5.59579 1 5.85427 1.04558C7.09631 1.26458 8.06875 2.23702 8.28775 3.47906C8.33333 3.73754 8.33333 4.04725 8.33333 4.66667L8.33333 8.33333M4.66666 1L19 1C20.8856 1 21.8284 1 22.4142 1.58579C23 2.17158 23 3.11438 23 5L23 23L19.3333 21.7778L15.6667 23L12 21.7778L8.33333 23L8.33333 8.33333" stroke="#81AFFF" stroke-width="2" stroke-linecap="round" stroke-linejoin="round"/>
<path d="M18.1113 5.88867L13.2224 5.88867" stroke="#81AFFF" stroke-width="2" stroke-linecap="round" stroke-linejoin="round"/>
<path d="M16.8887 10.7773H18.1109" stroke="#81AFFF" stroke-width="2" stroke-linecap="round" stroke-linejoin="round"/>
<path d="M18.1113 15.666L14.4447 15.666" stroke="#81AFFF" stroke-width="2" stroke-linecap="round" stroke-linejoin="round"/>
</svg>
