<svg width="24" height="23" viewBox="0 0 24 23" fill="none" xmlns="http://www.w3.org/2000/svg">
<path d="M13.5243 2.57183C13.4545 2.62784 13.3681 2.65819 13.2791 2.6579H10.7209C10.6319 2.65819 10.5455 2.62784 10.4757 2.57183L8.997 1.37481C8.73123 1.15943 8.40759 1.03037 8.06837 1.00449C7.72914 0.978617 7.39011 1.05713 7.09557 1.22976L5.90443 1.92789C5.60963 2.10008 5.3729 2.35845 5.22515 2.66926C5.07741 2.98006 5.02553 3.32884 5.07629 3.67002L5.36071 5.56676C5.37312 5.65644 5.356 5.74777 5.312 5.82657L4.03286 8.07396C3.98594 8.15315 3.91392 8.21384 3.82857 8.24611L2.07486 8.94583C1.75849 9.07112 1.48671 9.29023 1.29497 9.57456C1.10323 9.85889 1.00043 10.1952 1 10.5397V11.9392C1.00043 12.2837 1.10323 12.62 1.29497 12.9043C1.48671 13.1887 1.75849 13.4078 2.07486 13.5331L3.82857 14.236C3.91159 14.2695 3.98125 14.33 4.02657 14.4081L5.312 16.6603C5.35611 16.7391 5.37324 16.8304 5.36071 16.9201L5.07629 18.8121C5.02553 19.1532 5.07741 19.502 5.22515 19.8128C5.3729 20.1236 5.60963 20.382 5.90443 20.5542L7.09557 21.2523C7.39011 21.425 7.72914 21.5035 8.06837 21.4776C8.40759 21.4517 8.73123 21.3227 8.997 21.1073L10.4757 19.9103C10.5455 19.8542 10.6319 19.8239 10.7209 19.8242H13.2791C13.3681 19.8239 13.4545 19.8542 13.5243 19.9103L15.003 21.1073C15.2688 21.3227 15.5924 21.4517 15.9316 21.4776C16.2709 21.5035 16.6099 21.425 16.9044 21.2523L18.0956 20.5542C18.3904 20.382 18.6271 20.1236 18.7748 19.8128C18.9226 19.502 18.9745 19.1532 18.9237 18.8121L18.6393 16.9153C18.6268 16.8256 18.6439 16.7343 18.688 16.6555L19.9671 14.4081C20.0125 14.33 20.0821 14.2695 20.1651 14.236L21.9251 13.5363C22.2415 13.411 22.5133 13.1919 22.705 12.9075C22.8968 12.6232 22.9996 12.2868 23 11.9424V10.5461C22.9996 10.2016 22.8968 9.86527 22.705 9.58094C22.5133 9.29661 22.2415 9.0775 21.9251 8.9522L20.1651 8.25248C20.0821 8.21899 20.0125 8.15843 19.9671 8.08034L18.688 5.83294C18.644 5.75415 18.6269 5.66282 18.6393 5.57314L18.9237 3.6764C18.9745 3.33522 18.9226 2.98644 18.7748 2.67563C18.6271 2.36483 18.3904 2.10645 18.0956 1.93427L16.9044 1.23614C16.6099 1.0635 16.2709 0.984993 15.9316 1.01087C15.5924 1.03675 15.2688 1.1658 15.003 1.38118L13.5243 2.57183ZM15.5357 11.241C15.5357 11.9503 15.3283 12.6437 14.9398 13.2335C14.5513 13.8232 13.9991 14.2829 13.3531 14.5543C12.707 14.8258 11.9961 14.8968 11.3102 14.7584C10.6244 14.62 9.99435 14.2785 9.49987 13.7769C9.00539 13.2754 8.66865 12.6364 8.53222 11.9407C8.3958 11.245 8.46582 10.5239 8.73343 9.86864C9.00104 9.21333 9.45422 8.65323 10.0357 8.25917C10.6171 7.8651 11.3007 7.65477 12 7.65477C12.9377 7.65477 13.8371 8.03261 14.5001 8.70517C15.1632 9.37772 15.5357 10.2899 15.5357 11.241Z" stroke="white" stroke-width="2"/>
</svg>
